<svg width="20" height="20" viewBox="0 0 20 20" fill="none" xmlns="http://www.w3.org/2000/svg">
<path d="M14.0589 8.60116C13.9006 8.60116 13.7423 8.54283 13.6173 8.41783L9.00059 3.80117L4.38392 8.41783C4.14225 8.6595 3.74225 8.6595 3.50059 8.41783C3.25892 8.17617 3.25892 7.77617 3.50059 7.53451L8.55893 2.47617C8.80059 2.23451 9.20059 2.23451 9.44226 2.47617L14.5006 7.53451C14.7423 7.77617 14.7423 8.17617 14.5006 8.41783C14.3839 8.54283 14.2173 8.60116 14.0589 8.60116Z" fill="#7AB668"/>
<path d="M9 17.71C8.65833 17.71 8.375 17.4266 8.375 17.085V3.05994C8.375 2.71827 8.65833 2.43494 9 2.43494C9.34167 2.43494 9.625 2.71827 9.625 3.05994V17.085C9.625 17.4266 9.34167 17.71 9 17.71Z" fill="#7AB668"/>
</svg>
