<svg width="20" height="20" viewBox="0 0 20 20" fill="none" xmlns="http://www.w3.org/2000/svg">
<path d="M5.94107 11.3988C6.09941 11.3988 6.25774 11.4572 6.38274 11.5822L10.9994 16.1988L15.6161 11.5822C15.8577 11.3405 16.2577 11.3405 16.4994 11.5822C16.7411 11.8238 16.7411 12.2238 16.4994 12.4655L11.4411 17.5238C11.1994 17.7655 10.7994 17.7655 10.5577 17.5238L5.49941 12.4655C5.25774 12.2238 5.25774 11.8238 5.49941 11.5822C5.61607 11.4572 5.78274 11.3988 5.94107 11.3988Z" fill="#FF6A54"/>
<path d="M11 2.29005C11.3417 2.29005 11.625 2.57338 11.625 2.91505L11.625 16.9401C11.625 17.2817 11.3417 17.5651 11 17.5651C10.6583 17.5651 10.375 17.2817 10.375 16.9401L10.375 2.91505C10.375 2.57338 10.6583 2.29005 11 2.29005Z" fill="#FF6A54"/>
</svg>
