<svg width="22" height="22" viewBox="0 0 22 22" fill="none" xmlns="http://www.w3.org/2000/svg">
<path d="M11.0012 20.8528C10.4512 20.8528 9.9104 20.7245 9.4704 20.477L5.13458 17.9745C3.33792 16.7645 3.21875 16.5445 3.21875 14.647V10.1003C3.21875 8.20284 3.33792 7.98284 5.09792 6.80034L9.47957 4.27034C10.3504 3.76617 11.6612 3.76617 12.5321 4.27034L16.8679 6.77284C18.6646 7.98284 18.7837 8.20284 18.7837 10.1003V14.647C18.7837 16.5445 18.6646 16.7645 16.9046 17.947L12.5229 20.477C12.0921 20.7337 11.5421 20.8528 11.0012 20.8528ZM11.0012 5.2695C10.6896 5.2695 10.3779 5.33367 10.1579 5.462L5.82208 7.9645C4.59375 8.79867 4.59375 8.79867 4.59375 10.1003V14.647C4.59375 15.9487 4.59375 15.9487 5.86792 16.8103L10.1671 19.2853C10.6071 19.542 11.4046 19.542 11.8446 19.2853L16.1804 16.7828C17.4087 15.9487 17.4087 15.9487 17.4087 14.647V10.1003C17.4087 8.79867 17.4087 8.79867 16.1346 7.937L11.8354 5.462C11.6246 5.33367 11.3129 5.2695 11.0012 5.2695Z" fill="#6F767E"/>
<path d="M16.0413 7.68171C15.6655 7.68171 15.3538 7.37004 15.3538 6.99421V4.58337C15.3538 3.13504 14.7397 2.52087 13.2913 2.52087H8.70801C7.25967 2.52087 6.64551 3.13504 6.64551 4.58337V6.93004C6.64551 7.30587 6.33384 7.61754 5.95801 7.61754C5.58217 7.61754 5.27051 7.31504 5.27051 6.93004V4.58337C5.27051 2.36504 6.48967 1.14587 8.70801 1.14587H13.2913C15.5097 1.14587 16.7288 2.36504 16.7288 4.58337V6.99421C16.7288 7.37004 16.4172 7.68171 16.0413 7.68171Z" fill="#6F767E"/>
<path d="M12.4926 16.1618C12.3001 16.1618 12.0984 16.1251 11.8968 16.0426L10.9984 15.6943L10.1001 16.0518C9.61428 16.2443 9.11926 16.1985 8.75259 15.9326C8.38593 15.6668 8.19343 15.2085 8.22093 14.686L8.27593 13.7235L7.66176 12.981C7.33176 12.5685 7.22176 12.0918 7.36843 11.6518C7.50593 11.221 7.88176 10.891 8.38593 10.7626L9.32095 10.5243L9.84345 9.70847C10.4026 8.82846 11.6034 8.82846 12.1626 9.70847L12.6851 10.5243L13.6201 10.7626C14.1243 10.891 14.5001 11.221 14.6376 11.6518C14.7751 12.0826 14.6651 12.5685 14.3351 12.9718L13.7209 13.7143L13.7759 14.6768C13.8034 15.1993 13.6109 15.6485 13.2443 15.9235C13.0243 16.0793 12.7676 16.1618 12.4926 16.1618ZM8.72509 12.101L9.33928 12.8435C9.55011 13.091 9.66928 13.4851 9.65095 13.806L9.59595 14.7685L10.4943 14.411C10.7968 14.2918 11.2001 14.2918 11.5026 14.411L12.4009 14.7685L12.3459 13.806C12.3276 13.4851 12.4468 13.1001 12.6576 12.8435L13.2718 12.101L12.3368 11.8626C12.0251 11.7801 11.6951 11.5418 11.5209 11.276L11.0076 10.4693L10.4851 11.276C10.3109 11.551 9.98095 11.7893 9.66928 11.8718L8.72509 12.101Z" fill="#6F767E"/>
</svg>
