<svg width="22" height="22" viewBox="0 0 22 22" fill="none" xmlns="http://www.w3.org/2000/svg">
<path d="M11.9617 17.8017C11.4667 17.8017 10.9442 17.7559 10.3759 17.6642L6.07672 16.9859C4.72005 16.7751 3.67505 16.3992 2.89588 15.8492C0.888381 14.4559 1.00755 12.0634 1.26422 10.3859L1.94255 6.08669C2.56588 2.14503 4.60088 0.669194 8.54255 1.28336L12.8417 1.96169C14.8675 2.28253 17.59 3.09836 17.7642 6.51753C17.8009 7.10419 17.7642 7.77336 17.6359 8.56169L16.9667 12.8609C16.4351 16.2251 14.8675 17.8017 11.9617 17.8017ZM6.90172 2.52086C4.72005 2.52086 3.73005 3.63003 3.29922 6.30669L2.62088 10.6059C2.19922 13.3101 2.96922 14.2267 3.68422 14.7309C4.28922 15.1617 5.14172 15.4551 6.28755 15.6292L10.5867 16.3076C13.7859 16.8117 15.1059 15.8492 15.61 12.6409L16.2792 8.34169C16.3892 7.65419 16.4259 7.07669 16.3892 6.59086V6.58169C16.2884 4.65669 15.1975 3.71253 12.6217 3.30919L8.33172 2.64003C7.80005 2.55753 7.33255 2.52086 6.90172 2.52086Z" fill="#6F767E"/>
<path d="M13.4562 20.8541C12.677 20.8541 11.797 20.6891 10.7795 20.35L6.64533 18.975C4.2895 18.1957 3.01533 17.0774 2.63033 15.4457C2.56617 15.1707 2.67617 14.8774 2.9145 14.7215C3.15283 14.5657 3.4645 14.5657 3.69367 14.7307C4.29867 15.1615 5.142 15.4549 6.28783 15.629L10.587 16.3075C13.7862 16.8116 15.1062 15.849 15.6104 12.6407L16.2795 8.34158C16.3895 7.65408 16.4262 7.07658 16.3895 6.59075C16.3804 6.35241 16.4995 6.11408 16.7104 5.97658C16.9212 5.83908 17.187 5.82991 17.407 5.94908C19.8637 7.25991 20.5145 9.35903 19.4512 12.5674L18.0762 16.7015C17.4254 18.6449 16.5729 19.8366 15.3812 20.4325C14.8037 20.7166 14.1712 20.8541 13.4562 20.8541ZM5.252 16.83C5.692 17.1232 6.27867 17.4075 7.07617 17.6733L11.2104 19.0483C12.787 19.5707 13.9145 19.6166 14.7579 19.2041C15.6012 18.7825 16.2429 17.8474 16.7654 16.2707L18.1404 12.1365C18.892 9.8632 18.5987 8.65325 17.7279 7.83741C17.7095 8.06658 17.6729 8.30491 17.6362 8.56158L16.967 12.8607C16.3437 16.8025 14.3087 18.2782 10.367 17.6733L6.06783 16.995C5.78367 16.9399 5.50867 16.885 5.252 16.83Z" fill="#6F767E"/>
<path d="M7.55301 8.90997C6.29717 8.90997 5.27051 7.8833 5.27051 6.62747C5.27051 5.37164 6.29717 4.34497 7.55301 4.34497C8.80884 4.34497 9.83551 5.37164 9.83551 6.62747C9.83551 7.8833 8.80884 8.90997 7.55301 8.90997ZM7.55301 5.72914C7.05801 5.72914 6.64551 6.13247 6.64551 6.63664C6.64551 7.1408 7.04884 7.54414 7.55301 7.54414C8.04801 7.54414 8.46051 7.1408 8.46051 6.63664C8.46051 6.13247 8.04801 5.72914 7.55301 5.72914Z" fill="#6F767E"/>
</svg>
