<svg width="21" height="20" viewBox="0 0 21 20" fill="none" xmlns="http://www.w3.org/2000/svg">
<path d="M11.2328 4.44404C10.799 4.01019 10.0956 4.01019 9.66172 4.44404L4.89184 9.21391C4.45793 9.64782 4.45793 10.3514 4.89184 10.7853L9.66172 15.5552C10.0956 15.989 10.799 15.989 11.2328 15.5552C11.6667 15.1213 11.6667 14.4179 11.2328 13.984L8.03407 10.7853C7.60015 10.3514 7.60015 9.64782 8.03407 9.21391L11.2328 6.01515C11.6667 5.5813 11.6667 4.87789 11.2328 4.44404Z" fill="url(#paint0_linear_296_1919)"/>
<path opacity="0.4" d="M15.2174 4.44404L10.4475 9.21391C10.0136 9.64782 10.0136 10.3514 10.4475 10.7853L15.2174 15.5552C15.6512 15.989 16.3547 15.989 16.7885 15.5552C17.2223 15.1213 17.2223 14.4179 16.7885 13.984L13.5898 10.7853C13.1558 10.3514 13.1558 9.64782 13.5898 9.21391L16.7885 6.01515C17.2223 5.5813 17.2223 4.87789 16.7885 4.44404C16.3547 4.01019 15.6512 4.01019 15.2174 4.44404Z" fill="url(#paint1_linear_296_1919)"/>
<defs>
<linearGradient id="paint0_linear_296_1919" x1="4.56641" y1="9.9996" x2="11.5582" y2="9.9996" gradientUnits="userSpaceOnUse">
<stop stop-color="#0F6AFF"/>
<stop offset="1" stop-color="#21C6FB"/>
</linearGradient>
<linearGradient id="paint1_linear_296_1919" x1="10.1221" y1="9.9996" x2="17.1139" y2="9.9996" gradientUnits="userSpaceOnUse">
<stop stop-color="#0F6AFF"/>
<stop offset="1" stop-color="#21C6FB"/>
</linearGradient>
</defs>
</svg>
