<svg width="20" height="20" viewBox="0 0 20 20" fill="none" xmlns="http://www.w3.org/2000/svg">
<path d="M16.475 9.37496H13.1083C11.4333 9.37496 10.625 8.55829 10.625 6.89163V3.52496C10.625 1.84996 11.4417 1.04163 13.1083 1.04163H16.475C18.15 1.04163 18.9583 1.85829 18.9583 3.52496V6.89163C18.9583 8.55829 18.1417 9.37496 16.475 9.37496ZM13.1083 2.29163C12.125 2.29163 11.875 2.54163 11.875 3.52496V6.89163C11.875 7.87496 12.125 8.12496 13.1083 8.12496H16.475C17.4583 8.12496 17.7083 7.87496 17.7083 6.89163V3.52496C17.7083 2.54163 17.4583 2.29163 16.475 2.29163H13.1083Z" fill="#6F767E"/>
<path d="M6.89199 9.37496H3.52533C1.85033 9.37496 1.04199 8.63329 1.04199 7.09996V3.31663C1.04199 1.78329 1.85866 1.04163 3.52533 1.04163H6.89199C8.56699 1.04163 9.37532 1.78329 9.37532 3.31663V7.09163C9.37532 8.63329 8.55866 9.37496 6.89199 9.37496ZM3.52533 2.29163C2.40866 2.29163 2.29199 2.60829 2.29199 3.31663V7.09163C2.29199 7.80829 2.40866 8.11662 3.52533 8.11662H6.89199C8.00866 8.11662 8.12532 7.79996 8.12532 7.09163V3.31663C8.12532 2.59996 8.00866 2.29163 6.89199 2.29163H3.52533Z" fill="#6F767E"/>
<path d="M6.89199 18.9583H3.52533C1.85033 18.9583 1.04199 18.1417 1.04199 16.475V13.1083C1.04199 11.4333 1.85866 10.625 3.52533 10.625H6.89199C8.56699 10.625 9.37532 11.4417 9.37532 13.1083V16.475C9.37532 18.1417 8.55866 18.9583 6.89199 18.9583ZM3.52533 11.875C2.54199 11.875 2.29199 12.125 2.29199 13.1083V16.475C2.29199 17.4583 2.54199 17.7083 3.52533 17.7083H6.89199C7.87532 17.7083 8.12532 17.4583 8.12532 16.475V13.1083C8.12532 12.125 7.87532 11.875 6.89199 11.875H3.52533Z" fill="#6F767E"/>
<path d="M17.5 13.5416H12.5C12.1583 13.5416 11.875 13.2583 11.875 12.9166C11.875 12.575 12.1583 12.2916 12.5 12.2916H17.5C17.8417 12.2916 18.125 12.575 18.125 12.9166C18.125 13.2583 17.8417 13.5416 17.5 13.5416Z" fill="#6F767E"/>
<path d="M17.5 16.875H12.5C12.1583 16.875 11.875 16.5917 11.875 16.25C11.875 15.9083 12.1583 15.625 12.5 15.625H17.5C17.8417 15.625 18.125 15.9083 18.125 16.25C18.125 16.5917 17.8417 16.875 17.5 16.875Z" fill="#6F767E"/>
</svg>
