<svg width="22" height="22" viewBox="0 0 22 22" fill="none" xmlns="http://www.w3.org/2000/svg">
<path d="M10.9985 20.8646C9.99937 20.8646 9.0094 20.5713 8.23024 19.9938L4.28857 17.0513C3.24357 16.2721 2.42773 14.6496 2.42773 13.3479V6.52796C2.42773 5.11629 3.46357 3.61296 4.79273 3.11796L9.36687 1.40379C10.2744 1.06462 11.7044 1.06462 12.6119 1.40379L17.1952 3.11796C18.5244 3.61296 19.5602 5.11629 19.5602 6.52796V13.3388C19.5602 14.6404 18.7444 16.2629 17.6994 17.0421L13.7577 19.9846C12.9877 20.5713 11.9977 20.8646 10.9985 20.8646ZM9.8527 2.69629L5.27857 4.41046C4.49023 4.70379 3.80273 5.69379 3.80273 6.53712V13.3479C3.80273 14.2188 4.4169 15.4379 5.1044 15.9513L9.04607 18.8938C10.1002 19.6821 11.8877 19.6821 12.9419 18.8938L16.8835 15.9513C17.5802 15.4288 18.1852 14.2096 18.1852 13.3479V6.52796C18.1852 5.69379 17.4977 4.70379 16.7094 4.40129L12.1352 2.68712C11.5302 2.46712 10.4669 2.46712 9.8527 2.69629Z" fill="#6F767E"/>
<path d="M11.0003 12.1458C9.60699 12.1458 8.47949 11.0183 8.47949 9.62496C8.47949 8.23163 9.60699 7.10413 11.0003 7.10413C12.3937 7.10413 13.5212 8.23163 13.5212 9.62496C13.5212 11.0183 12.3937 12.1458 11.0003 12.1458ZM11.0003 8.47913C10.3678 8.47913 9.85449 8.99246 9.85449 9.62496C9.85449 10.2575 10.3678 10.7708 11.0003 10.7708C11.6328 10.7708 12.1462 10.2575 12.1462 9.62496C12.1462 8.99246 11.6328 8.47913 11.0003 8.47913Z" fill="#6F767E"/>
<path d="M11 14.8959C10.6242 14.8959 10.3125 14.5842 10.3125 14.2084V11.4584C10.3125 11.0825 10.6242 10.7709 11 10.7709C11.3758 10.7709 11.6875 11.0825 11.6875 11.4584V14.2084C11.6875 14.5842 11.3758 14.8959 11 14.8959Z" fill="#6F767E"/>
</svg>
