<svg width="24" height="24" viewBox="0 0 24 24" fill="none" xmlns="http://www.w3.org/2000/svg">
<path d="M15.8101 20.18C15.5501 20.18 15.2801 20.17 14.9901 20.14C14.4701 20.1 13.8801 20 13.2701 19.85L11.5901 19.45C6.98007 18.36 5.47007 15.92 6.55007 11.32L7.53007 7.13001C7.75007 6.18002 8.01007 5.41002 8.33007 4.77002C10.0501 1.22002 13.3401 1.54001 15.6801 2.09001L17.3501 2.48001C19.6901 3.03001 21.1701 3.90001 22.0001 5.23002C22.8201 6.56002 22.9501 8.27001 22.4001 10.61L21.4201 14.79C20.5601 18.45 18.7701 20.18 15.8101 20.18ZM13.1201 3.25001C11.4501 3.25001 10.3901 3.94002 9.68007 5.42002C9.42007 5.96002 9.19007 6.63001 8.99007 7.47001L8.01007 11.66C7.12007 15.44 8.15007 17.09 11.9301 17.99L13.6101 18.39C14.1501 18.52 14.6601 18.6 15.1201 18.64C17.8401 18.91 19.1901 17.72 19.9501 14.45L20.9301 10.27C21.3801 8.34002 21.3201 6.99002 20.7201 6.02001C20.1201 5.05001 18.9401 4.39002 17.0001 3.94002L15.3301 3.55001C14.5001 3.35001 13.7601 3.25001 13.1201 3.25001Z" fill="#FF9F74"/>
<path d="M8.32907 22.2501C5.75908 22.2501 4.11907 20.7101 3.06907 17.4601L1.78907 13.5101C0.369078 9.11017 1.63907 6.63017 6.01907 5.21017L7.59907 4.70017C8.11907 4.54017 8.50907 4.43017 8.85907 4.37017C9.14907 4.31017 9.42908 4.42017 9.59908 4.65017C9.76908 4.88017 9.79908 5.18017 9.67908 5.44017C9.41908 5.97017 9.18907 6.64017 8.99907 7.48017L8.01908 11.6701C7.12908 15.4501 8.15907 17.1001 11.9391 18.0001L13.6191 18.4001C14.1591 18.5301 14.6691 18.6101 15.1291 18.6501C15.4491 18.6801 15.7091 18.9001 15.7991 19.2101C15.8791 19.5201 15.7591 19.8401 15.4991 20.0201C14.8391 20.4701 14.0091 20.8501 12.9591 21.1901L11.3791 21.7101C10.2291 22.0701 9.22907 22.2501 8.32907 22.2501ZM7.77908 6.22017L6.48907 6.64017C2.91907 7.79017 2.06907 9.47017 3.21907 13.0501L4.49907 17.0001C5.65907 20.5701 7.33908 21.4301 10.9091 20.2801L12.4891 19.7601C12.5491 19.7401 12.5991 19.7201 12.6591 19.7001L11.5991 19.4501C6.98908 18.3601 5.47907 15.9201 6.55907 11.3201L7.53907 7.13017C7.60908 6.81017 7.68907 6.50017 7.77908 6.22017Z" fill="#FF9F74"/>
<path d="M17.4894 10.5098C17.4294 10.5098 17.3694 10.4998 17.2994 10.4898L12.4494 9.25978C12.0494 9.15978 11.8094 8.74978 11.9094 8.34978C12.0094 7.94978 12.4194 7.70978 12.8194 7.80978L17.6694 9.03978C18.0694 9.13978 18.3094 9.54978 18.2094 9.94978C18.1294 10.2798 17.8194 10.5098 17.4894 10.5098Z" fill="#FF9F74"/>
<path d="M14.5592 13.8899C14.4992 13.8899 14.4392 13.8799 14.3692 13.8699L11.4592 13.1299C11.0592 13.0299 10.8192 12.6199 10.9192 12.2199C11.0192 11.8199 11.4292 11.5799 11.8292 11.6799L14.7392 12.4199C15.1392 12.5199 15.3792 12.9299 15.2792 13.3299C15.1992 13.6699 14.8992 13.8899 14.5592 13.8899Z" fill="#FF9F74"/>
</svg>
