<svg width="22" height="22" viewBox="0 0 22 22" fill="none" xmlns="http://www.w3.org/2000/svg">
<path d="M10.9997 20.9092C10.3672 20.9092 9.77134 20.5884 9.34967 20.0292L7.97467 18.1959C7.94717 18.1592 7.83717 18.1042 7.78217 18.1042H7.33301C3.51051 18.1042 1.14551 17.0684 1.14551 11.9167V7.33337C1.14551 3.28171 3.28134 1.14587 7.33301 1.14587H12.833C13.2088 1.14587 13.5205 1.45754 13.5205 1.83337C13.5205 2.20921 13.2088 2.52087 12.833 2.52087H7.33301C4.05134 2.52087 2.52051 4.05171 2.52051 7.33337V11.9167C2.52051 16.06 3.94134 16.7292 7.33301 16.7292H7.79134C8.25884 16.7292 8.79051 16.995 9.07467 17.3709L10.4497 19.2042C10.7705 19.6259 11.2288 19.6259 11.5497 19.2042L12.9247 17.3709C13.2272 16.9675 13.7038 16.7292 14.208 16.7292H14.6663C17.948 16.7292 19.4788 15.1984 19.4788 11.9167V9.16671C19.4788 8.79087 19.7905 8.47921 20.1663 8.47921C20.5422 8.47921 20.8538 8.79087 20.8538 9.16671V11.9167C20.8538 15.9684 18.718 18.1042 14.6663 18.1042H14.208C14.1347 18.1042 14.0705 18.1409 14.0247 18.1959L12.6497 20.0292C12.228 20.5884 11.6322 20.9092 10.9997 20.9092Z" fill="#6F767E"/>
<path d="M10.9997 11C10.4863 11 10.083 10.5875 10.083 10.0833C10.083 9.57913 10.4955 9.16663 10.9997 9.16663C11.5038 9.16663 11.9163 9.57913 11.9163 10.0833C11.9163 10.5875 11.513 11 10.9997 11Z" fill="#6F767E"/>
<path d="M14.6667 11C14.1533 11 13.75 10.5875 13.75 10.0833C13.75 9.57913 14.1625 9.16663 14.6667 9.16663C15.1708 9.16663 15.5833 9.57913 15.5833 10.0833C15.5833 10.5875 15.18 11 14.6667 11Z" fill="#6F767E"/>
<path d="M7.33366 11C6.82033 11 6.41699 10.5875 6.41699 10.0833C6.41699 9.57913 6.82949 9.16663 7.33366 9.16663C7.83783 9.16663 8.25033 9.57913 8.25033 10.0833C8.25033 10.5875 7.84699 11 7.33366 11Z" fill="#6F767E"/>
<path d="M17.8747 7.10421C16.2338 7.10421 14.8955 5.76587 14.8955 4.12504C14.8955 2.48421 16.2338 1.14587 17.8747 1.14587C19.5155 1.14587 20.8538 2.48421 20.8538 4.12504C20.8538 5.76587 19.5155 7.10421 17.8747 7.10421ZM17.8747 2.52087C16.9947 2.52087 16.2705 3.24504 16.2705 4.12504C16.2705 5.00504 16.9947 5.72921 17.8747 5.72921C18.7547 5.72921 19.4788 5.00504 19.4788 4.12504C19.4788 3.24504 18.7547 2.52087 17.8747 2.52087Z" fill="#6F767E"/>
</svg>
