<svg width="18" height="18" viewBox="0 0 18 18" fill="none" stroke="white" xmlns="http://www.w3.org/2000/svg">
<path d="M9.34578 17.0626C9.21828 17.0626 9.09078 17.0626 8.96328 17.0551C4.76332 16.8676 1.25332 13.4851 0.960816 9.36008C0.705814 5.82008 2.75332 2.51258 6.05332 1.12508C6.99081 0.735088 7.48581 1.03508 7.69578 1.25258C7.90578 1.46258 8.19828 1.95008 7.80828 2.84258C7.46332 3.63758 7.29081 4.48508 7.29831 5.35508C7.31331 8.67758 10.0733 11.4976 13.4408 11.6326C13.9283 11.6551 14.4083 11.6176 14.8733 11.5351C15.8633 11.3551 16.2758 11.7526 16.4333 12.0076C16.5908 12.2626 16.7708 12.8101 16.1708 13.6201C14.5808 15.7951 12.0533 17.0626 9.34578 17.0626ZM2.07832 9.27758C2.33332 12.8476 5.37831 15.7726 9.00828 15.9301C11.4758 16.0501 13.8158 14.9251 15.2558 12.9601C15.3683 12.8026 15.4208 12.6901 15.4433 12.6301C15.3758 12.6226 15.2558 12.6151 15.0683 12.6526C14.5208 12.7501 13.9508 12.7876 13.3883 12.7651C9.42828 12.6076 6.18831 9.28508 6.16581 5.37008C6.16581 4.33508 6.36831 3.33758 6.78081 2.40008C6.85581 2.23508 6.87081 2.12258 6.87831 2.06258C6.81081 2.06258 6.69081 2.07758 6.49582 2.16008C3.63832 3.36008 1.86832 6.22508 2.07832 9.27758Z" fill="#6F767E"/>
</svg>
