<svg width="22" height="22" viewBox="0 0 22 22" fill="none" xmlns="http://www.w3.org/2000/svg">
<path d="M14.4911 18.497C14.2527 18.497 14.0052 18.4878 13.7394 18.4603C13.2627 18.4236 12.7219 18.332 12.1627 18.1945L10.6228 17.8278C6.39693 16.8287 5.01277 14.592 6.00277 10.3753L6.9011 6.53446C7.10277 5.66363 7.3411 4.9578 7.63443 4.37113C9.21108 1.11696 12.2269 1.4103 14.3719 1.91446L15.9028 2.27196C18.0478 2.77613 19.4044 3.57363 20.1652 4.7928C20.9169 6.01196 21.0361 7.57946 20.5319 9.72451L19.6336 13.5562C18.8453 16.9112 17.2044 18.497 14.4911 18.497ZM12.0252 2.9778C10.4944 2.9778 9.52275 3.6103 8.87193 4.96696C8.6336 5.46196 8.42277 6.07613 8.23943 6.84613L7.3411 10.687C6.52527 14.152 7.46943 15.6645 10.9344 16.4895L12.4744 16.8561C12.9694 16.9753 13.4369 17.0486 13.8586 17.0853C16.3519 17.3328 17.5894 16.242 18.2861 13.2445L19.1844 9.41284C19.5969 7.64363 19.5419 6.40613 18.9919 5.51696C18.4419 4.6278 17.3603 4.0228 15.5819 3.6103L14.0511 3.2528C13.2902 3.06946 12.6119 2.9778 12.0252 2.9778Z" fill="#6F767E"/>
<path d="M7.63531 20.3973C5.27948 20.3973 3.77614 18.9857 2.81364 16.0065L1.64031 12.3857C0.338647 8.35237 1.50281 6.07904 5.51781 4.77737L6.96614 4.30987C7.44281 4.16321 7.80031 4.06237 8.12114 4.00737C8.38698 3.95237 8.64365 4.05321 8.79949 4.26404C8.95532 4.47487 8.98282 4.74987 8.87282 4.98821C8.63448 5.47404 8.42364 6.08821 8.24948 6.85821L7.35115 10.699C6.53532 14.164 7.47948 15.6765 10.9445 16.5015L12.4845 16.8682C12.9795 16.9873 13.447 17.0607 13.8687 17.0973C14.162 17.1248 14.4003 17.3265 14.4828 17.6107C14.5562 17.8948 14.4462 18.1882 14.2078 18.3532C13.6028 18.7657 12.842 19.114 11.8795 19.4257L10.4312 19.9023C9.377 20.2323 8.46031 20.3973 7.63531 20.3973ZM7.13115 5.70321L5.94864 6.08821C2.67614 7.14237 1.89698 8.68237 2.95114 11.964L4.12448 15.5848C5.18781 18.8573 6.72781 19.6457 10.0003 18.5915L11.4487 18.1148C11.5037 18.0965 11.5495 18.0782 11.6045 18.0598L10.6328 17.8307C6.40698 16.8315 5.02281 14.5948 6.01281 10.3782L6.91114 6.53737C6.97531 6.24404 7.04865 5.95987 7.13115 5.70321Z" fill="#6F767E"/>
<path d="M16.0323 9.63577C15.9773 9.63577 15.9223 9.6266 15.8581 9.61743L11.4123 8.48996C11.0456 8.39829 10.8256 8.02246 10.9173 7.65579C11.0089 7.28913 11.3848 7.06913 11.7514 7.16079L16.1973 8.28829C16.5639 8.37996 16.7839 8.75579 16.6923 9.12246C16.6189 9.42493 16.3348 9.63577 16.0323 9.63577Z" fill="#6F767E"/>
<path d="M13.3477 12.7315C13.2927 12.7315 13.2377 12.7224 13.1735 12.7132L10.506 12.0349C10.1393 11.9432 9.91935 11.5674 10.011 11.2007C10.1027 10.834 10.4785 10.614 10.8452 10.7057L13.5127 11.384C13.8793 11.4757 14.0993 11.8515 14.0077 12.2182C13.9343 12.5299 13.6593 12.7315 13.3477 12.7315Z" fill="#6F767E"/>
</svg>
