<svg width="22" height="22" viewBox="0 0 22 22" fill="none" xmlns="http://www.w3.org/2000/svg">
<path d="M17.417 8.02087C15.5195 8.02087 13.9795 6.48087 13.9795 4.58337C13.9795 2.68587 15.5195 1.14587 17.417 1.14587C19.3145 1.14587 20.8545 2.68587 20.8545 4.58337C20.8545 6.48087 19.3145 8.02087 17.417 8.02087ZM17.417 2.52087C16.2803 2.52087 15.3545 3.44671 15.3545 4.58337C15.3545 5.72004 16.2803 6.64587 17.417 6.64587C18.5537 6.64587 19.4795 5.72004 19.4795 4.58337C19.4795 3.44671 18.5537 2.52087 17.417 2.52087Z" fill="#6F767E"/>
<path d="M11.0003 12.6041H6.41699C6.04116 12.6041 5.72949 12.2925 5.72949 11.9166C5.72949 11.5408 6.04116 11.2291 6.41699 11.2291H11.0003C11.3762 11.2291 11.6878 11.5408 11.6878 11.9166C11.6878 12.2925 11.3762 12.6041 11.0003 12.6041Z" fill="#6F767E"/>
<path d="M14.667 16.2709H6.41699C6.04116 16.2709 5.72949 15.9592 5.72949 15.5834C5.72949 15.2075 6.04116 14.8959 6.41699 14.8959H14.667C15.0428 14.8959 15.3545 15.2075 15.3545 15.5834C15.3545 15.9592 15.0428 16.2709 14.667 16.2709Z" fill="#6F767E"/>
<path d="M13.7497 20.8542H8.24967C3.27217 20.8542 1.14551 18.7275 1.14551 13.75V8.25004C1.14551 3.27254 3.27217 1.14587 8.24967 1.14587H12.833C13.2088 1.14587 13.5205 1.45754 13.5205 1.83337C13.5205 2.20921 13.2088 2.52087 12.833 2.52087H8.24967C4.02384 2.52087 2.52051 4.02421 2.52051 8.25004V13.75C2.52051 17.9759 4.02384 19.4792 8.24967 19.4792H13.7497C17.9755 19.4792 19.4788 17.9759 19.4788 13.75V9.16671C19.4788 8.79087 19.7905 8.47921 20.1663 8.47921C20.5422 8.47921 20.8538 8.79087 20.8538 9.16671V13.75C20.8538 18.7275 18.7272 20.8542 13.7497 20.8542Z" fill="#6F767E"/>
</svg>
