<svg width="22" height="22" viewBox="0 0 22 22" fill="none" xmlns="http://www.w3.org/2000/svg">
<path d="M11 9.64465C10.6242 9.64465 10.3125 9.33299 10.3125 8.95716V5.90466C10.3125 5.52883 10.6242 5.21716 11 5.21716C11.3758 5.21716 11.6875 5.52883 11.6875 5.90466V8.95716C11.6875 9.34215 11.3758 9.64465 11 9.64465Z" fill="#6F767E"/>
<path d="M11.0187 18.6527C8.65378 18.6527 6.29795 18.2768 4.05211 17.5252C3.21795 17.2501 2.58545 16.6543 2.31045 15.9027C2.03545 15.151 2.12711 14.2893 2.57628 13.5376L3.74045 11.5943C3.99711 11.1635 4.22628 10.3568 4.22628 9.85265V7.92763C4.22628 4.17846 7.26961 1.13513 11.0187 1.13513C14.7679 1.13513 17.8112 4.17846 17.8112 7.92763V9.85265C17.8112 10.3476 18.0404 11.1635 18.2971 11.5943L19.4612 13.5376C19.8921 14.2526 19.9654 15.1052 19.6812 15.8843C19.3971 16.6635 18.7737 17.2593 17.9854 17.5252C15.7396 18.286 13.3837 18.6527 11.0187 18.6527ZM11.0187 2.5193C8.03045 2.5193 5.60128 4.94847 5.60128 7.9368V9.86182C5.60128 10.6043 5.30795 11.6768 4.92295 12.3093L3.75878 14.2618C3.52045 14.656 3.46545 15.0777 3.60295 15.4443C3.74045 15.811 4.05211 16.086 4.49211 16.2326C8.70878 17.6351 13.3471 17.6351 17.5637 16.2326C17.9579 16.1043 18.2604 15.811 18.3979 15.426C18.5446 15.041 18.4987 14.6193 18.2879 14.2618L17.1237 12.3185C16.7387 11.686 16.4454 10.6135 16.4454 9.87098V7.94596C16.4362 4.94846 14.0071 2.5193 11.0187 2.5193Z" fill="#6F767E"/>
<path d="M10.9997 20.992C10.0189 20.992 9.05643 20.5886 8.35977 19.892C7.6631 19.1953 7.25977 18.2328 7.25977 17.252H8.63477C8.63477 17.8753 8.89143 18.4803 9.33141 18.9203C9.77141 19.3603 10.3764 19.617 10.9997 19.617C12.3014 19.617 13.3647 18.5536 13.3647 17.252H14.7397C14.7397 19.3145 13.0622 20.992 10.9997 20.992Z" fill="#6F767E"/>
</svg>
