<svg width="22" height="22" viewBox="0 0 22 22" fill="none" xmlns="http://www.w3.org/2000/svg">
<path d="M11 14.4375C9.1025 14.4375 7.5625 12.8975 7.5625 11C7.5625 9.1025 9.1025 7.5625 11 7.5625C12.8975 7.5625 14.4375 9.1025 14.4375 11C14.4375 12.8975 12.8975 14.4375 11 14.4375ZM11 8.9375C9.86333 8.9375 8.9375 9.86333 8.9375 11C8.9375 12.1367 9.86333 13.0625 11 13.0625C12.1367 13.0625 13.0625 12.1367 13.0625 11C13.0625 9.86333 12.1367 8.9375 11 8.9375Z" fill="#6F767E"/>
<path d="M13.9422 20.3411C13.7497 20.3411 13.5572 20.3136 13.3647 20.2678C12.7963 20.112 12.3197 19.7545 12.0172 19.2503L11.9072 19.067C11.3663 18.132 10.6238 18.132 10.083 19.067L9.98217 19.2411C9.67967 19.7545 9.20301 20.1211 8.63467 20.2678C8.05717 20.4236 7.46134 20.3411 6.95717 20.0386L5.38051 19.1311C4.82134 18.8103 4.41801 18.2878 4.24384 17.6553C4.07884 17.0228 4.16134 16.372 4.48217 15.8128C4.74801 15.3453 4.82134 14.9236 4.66551 14.6578C4.50967 14.392 4.11551 14.2361 3.57467 14.2361C2.23634 14.2361 1.14551 13.1453 1.14551 11.807V10.1936C1.14551 8.8553 2.23634 7.76447 3.57467 7.76447C4.11551 7.76447 4.50967 7.60864 4.66551 7.3428C4.82134 7.07697 4.75717 6.6553 4.48217 6.1878C4.16134 5.62864 4.07884 4.96864 4.24384 4.3453C4.40884 3.7128 4.81217 3.1903 5.38051 2.86947L6.96634 1.96197C8.00217 1.3478 9.36801 1.7053 9.99134 2.75947L10.1013 2.9428C10.6422 3.8778 11.3847 3.8778 11.9255 2.9428L12.0263 2.76864C12.6497 1.7053 14.0155 1.3478 15.0605 1.97114L16.6372 2.87864C17.1963 3.19947 17.5997 3.72197 17.7738 4.35447C17.9388 4.98697 17.8563 5.6378 17.5355 6.19697C17.2697 6.66447 17.1963 7.08614 17.3522 7.35197C17.508 7.6178 17.9022 7.77364 18.443 7.77364C19.7813 7.77364 20.8722 8.86447 20.8722 10.2028V11.8161C20.8722 13.1545 19.7813 14.2453 18.443 14.2453C17.9022 14.2453 17.508 14.4011 17.3522 14.667C17.1963 14.9328 17.2605 15.3545 17.5355 15.822C17.8563 16.3811 17.948 17.0411 17.7738 17.6645C17.6088 18.297 17.2055 18.8195 16.6372 19.1403L15.0513 20.0478C14.703 20.2403 14.3272 20.3411 13.9422 20.3411ZM10.9997 16.9495C11.8155 16.9495 12.5763 17.4628 13.0988 18.3703L13.1997 18.5445C13.3097 18.737 13.493 18.8745 13.713 18.9295C13.933 18.9845 14.153 18.957 14.3363 18.847L15.9222 17.9303C16.1605 17.7928 16.3438 17.5636 16.4172 17.2886C16.4905 17.0136 16.4538 16.7295 16.3163 16.4911C15.7938 15.5928 15.7297 14.667 16.133 13.9611C16.5363 13.2553 17.3705 12.852 18.4155 12.852C19.0022 12.852 19.4697 12.3845 19.4697 11.7978V10.1845C19.4697 9.60698 19.0022 9.1303 18.4155 9.1303C17.3705 9.1303 16.5363 8.72697 16.133 8.02114C15.7297 7.3153 15.7938 6.38947 16.3163 5.49114C16.4538 5.2528 16.4905 4.96864 16.4172 4.69364C16.3438 4.41864 16.1697 4.19864 15.9313 4.05197L14.3455 3.14447C13.9513 2.90614 13.4288 3.04364 13.1905 3.44697L13.0897 3.62114C12.5672 4.52864 11.8063 5.04197 10.9905 5.04197C10.1747 5.04197 9.41384 4.52864 8.89134 3.62114L8.79051 3.4378C8.56134 3.0528 8.04801 2.9153 7.65384 3.14447L6.06801 4.06114C5.82967 4.19864 5.64634 4.4278 5.57301 4.7028C5.49967 4.9778 5.53634 5.26197 5.67384 5.5003C6.19634 6.39864 6.26051 7.32447 5.85717 8.0303C5.45384 8.73614 4.61967 9.13947 3.57467 9.13947C2.98801 9.13947 2.52051 9.60698 2.52051 10.1936V11.807C2.52051 12.3845 2.98801 12.8611 3.57467 12.8611C4.61967 12.8611 5.45384 13.2645 5.85717 13.9703C6.26051 14.6761 6.19634 15.602 5.67384 16.5003C5.53634 16.7386 5.49967 17.0228 5.57301 17.2978C5.64634 17.5728 5.82051 17.7928 6.05884 17.9395L7.64467 18.847C7.83717 18.9661 8.06634 18.9936 8.27717 18.9386C8.49717 18.8836 8.68051 18.737 8.79967 18.5445L8.90051 18.3703C9.42301 17.472 10.1838 16.9495 10.9997 16.9495Z" fill="#6F767E"/>
</svg>
