<svg width="22" height="22" viewBox="0 0 22 22" fill="none" xmlns="http://www.w3.org/2000/svg">
<path d="M13.7497 20.8542H8.24967C3.27217 20.8542 1.14551 18.7275 1.14551 13.75V8.25004C1.14551 3.27254 3.27217 1.14587 8.24967 1.14587H13.7497C18.7272 1.14587 20.8538 3.27254 20.8538 8.25004V13.75C20.8538 18.7275 18.7272 20.8542 13.7497 20.8542ZM8.24967 2.52087C4.02384 2.52087 2.52051 4.02421 2.52051 8.25004V13.75C2.52051 17.9759 4.02384 19.4792 8.24967 19.4792H13.7497C17.9755 19.4792 19.4788 17.9759 19.4788 13.75V8.25004C19.4788 4.02421 17.9755 2.52087 13.7497 2.52087H8.24967Z" fill="#6F767E"/>
<path d="M14.2822 17.6473C13.9064 17.6473 13.5947 17.3356 13.5947 16.9598V13.3848C13.5947 13.0089 13.9064 12.6973 14.2822 12.6973C14.6581 12.6973 14.9697 13.0089 14.9697 13.3848V16.9598C14.9697 17.3356 14.6581 17.6473 14.2822 17.6473Z" fill="#6F767E"/>
<path d="M14.2822 7.51663C13.9064 7.51663 13.5947 7.20496 13.5947 6.82913V5.04163C13.5947 4.66579 13.9064 4.35413 14.2822 4.35413C14.6581 4.35413 14.9697 4.66579 14.9697 5.04163V6.82913C14.9697 7.20496 14.6581 7.51663 14.2822 7.51663Z" fill="#6F767E"/>
<path d="M14.2818 12.2826C12.5859 12.2826 11.2109 10.9076 11.2109 9.21181C11.2109 7.51599 12.5859 6.14099 14.2818 6.14099C15.9776 6.14099 17.3526 7.51599 17.3526 9.21181C17.3526 10.9076 15.9684 12.2826 14.2818 12.2826ZM14.2818 7.51599C13.3468 7.51599 12.5859 8.27682 12.5859 9.21181C12.5859 10.1468 13.3468 10.9076 14.2818 10.9076C15.2168 10.9076 15.9776 10.1468 15.9776 9.21181C15.9776 8.27682 15.2076 7.51599 14.2818 7.51599Z" fill="#6F767E"/>
<path d="M7.71777 17.6465C7.34194 17.6465 7.03027 17.3348 7.03027 16.959V15.1715C7.03027 14.7957 7.34194 14.484 7.71777 14.484C8.09361 14.484 8.40527 14.7957 8.40527 15.1715V16.959C8.40527 17.3348 8.10277 17.6465 7.71777 17.6465Z" fill="#6F767E"/>
<path d="M7.71777 9.30413C7.34194 9.30413 7.03027 8.99246 7.03027 8.61663V5.04163C7.03027 4.66579 7.34194 4.35413 7.71777 4.35413C8.09361 4.35413 8.40527 4.66579 8.40527 5.04163V8.61663C8.40527 8.99246 8.10277 9.30413 7.71777 9.30413Z" fill="#6F767E"/>
<path d="M7.71829 15.8598C6.02246 15.8598 4.64746 14.4848 4.64746 12.789C4.64746 11.0931 6.02246 9.71814 7.71829 9.71814C9.41412 9.71814 10.7891 11.0931 10.7891 12.789C10.7891 14.4848 9.41412 15.8598 7.71829 15.8598ZM7.71829 11.0931C6.78329 11.0931 6.02246 11.854 6.02246 12.789C6.02246 13.724 6.78329 14.4848 7.71829 14.4848C8.65329 14.4848 9.41412 13.724 9.41412 12.789C9.41412 11.854 8.66246 11.0931 7.71829 11.0931Z" fill="#6F767E"/>
</svg>
