<svg width="22" height="22" viewBox="0 0 22 22" fill="none" xmlns="http://www.w3.org/2000/svg">
<path d="M11.917 8.9375H6.41699C6.04116 8.9375 5.72949 8.62583 5.72949 8.25C5.72949 7.87417 6.04116 7.5625 6.41699 7.5625H11.917C12.2928 7.5625 12.6045 7.87417 12.6045 8.25C12.6045 8.62583 12.2928 8.9375 11.917 8.9375Z" fill="#6F767E"/>
<path d="M17.4536 13.5659C16.0694 13.5659 14.8961 12.5393 14.7861 11.2193C14.7127 10.4584 14.9877 9.71593 15.5377 9.1751C15.9961 8.69845 16.6469 8.43262 17.3344 8.43262H19.2502C20.1577 8.46012 20.8544 9.1751 20.8544 10.0551V11.9434C20.8544 12.8234 20.1577 13.5384 19.2777 13.5659H17.4536ZM19.2227 9.8076H17.3436C17.0227 9.8076 16.7294 9.92677 16.5186 10.1468C16.2527 10.4034 16.1244 10.7518 16.1611 11.1001C16.2069 11.7051 16.7936 12.1909 17.4536 12.1909H19.2502C19.3694 12.1909 19.4794 12.0809 19.4794 11.9434V10.0551C19.4794 9.9176 19.3694 9.81677 19.2227 9.8076Z" fill="#6F767E"/>
<path d="M14.6663 19.4792H6.41634C3.26301 19.4792 1.14551 17.3617 1.14551 14.2084V7.79171C1.14551 4.96837 2.88716 2.92422 5.59132 2.58505C5.83882 2.54838 6.12301 2.52087 6.41634 2.52087H14.6663C14.8863 2.52087 15.1705 2.53004 15.4638 2.57587C18.168 2.88754 19.9372 4.94087 19.9372 7.79171V9.12088C19.9372 9.49671 19.6255 9.80837 19.2497 9.80837H17.343C17.0222 9.80837 16.7288 9.92754 16.518 10.1475L16.5088 10.1567C16.2522 10.4042 16.133 10.7434 16.1605 11.0917C16.2063 11.6967 16.793 12.1825 17.453 12.1825H19.2497C19.6255 12.1825 19.9372 12.4942 19.9372 12.87V14.1992C19.9372 17.3617 17.8197 19.4792 14.6663 19.4792ZM6.41634 3.89587C6.19634 3.89587 5.9855 3.9142 5.77467 3.9417C3.758 4.19836 2.52051 5.66504 2.52051 7.79171V14.2084C2.52051 16.5734 4.05134 18.1042 6.41634 18.1042H14.6663C17.0313 18.1042 18.5622 16.5734 18.5622 14.2084V13.5667H17.453C16.0688 13.5667 14.8955 12.54 14.7855 11.22C14.7122 10.4684 14.9872 9.71671 15.5372 9.18504C16.0138 8.69923 16.6555 8.43338 17.343 8.43338H18.5622V7.79171C18.5622 5.64671 17.3063 4.17086 15.2713 3.93252C15.0513 3.89586 14.8588 3.89587 14.6663 3.89587H6.41634Z" fill="#6F767E"/>
</svg>
