<svg xmlns="http://www.w3.org/2000/svg" version="1.1" xmlns:xlink="http://www.w3.org/1999/xlink" xmlns:svgjs="http://svgjs.com/svgjs" width="512" height="512" x="0" y="0" viewBox="0 0 512 512" style="enable-background:new 0 0 512 512" xml:space="preserve" class=""><g><g xmlns="http://www.w3.org/2000/svg"><path d="m16 512h390v-512h-390zm180-361h150v30h-150zm0 120h150v30h-150zm0 120h150v30h-150zm-105-276.211 30 30 45-45 21.211 21.211-66.211 66.211-51.211-51.211zm0 120 30 30 45-45 21.211 21.211-66.211 66.211-51.211-51.211zm-21.211 111.211 21.211-21.211 30 30 30-30 21.211 21.211-30 30 30 30-21.211 21.211-30-30-30 30-21.211-21.211 30-30z" fill="#000000" data-original="#000000" class=""></path><path d="m451 31v30h-15v180h60v-180h-15v-30z" fill="#000000" data-original="#000000" class=""></path><path d="m436 360.531c0 39.565 10.371 93.618 29.971 127.969l.029.029v-.029c19.629-34.351 30-88.403 30-127.969v-89.531h-60z" fill="#000000" data-original="#000000" class=""></path></g></g></svg>