<?xml version="1.0" encoding="iso-8859-1"?>
<!-- Generator: Adobe Illustrator 19.0.0, SVG Export Plug-In . SVG Version: 6.00 Build 0)  -->
<svg version="1.1" id="Layer_1" xmlns="http://www.w3.org/2000/svg" xmlns:xlink="http://www.w3.org/1999/xlink" x="0px" y="0px"
	 viewBox="0 0 512.056 512.056" style="enable-background:new 0 0 512.056 512.056;" xml:space="preserve">
<g>
	<g>
		<path d="M314.05,476.24l-46.024-27.02V52.056c0-2.212-1.792-4-4-4s-4,1.788-4,4v399.452c0,1.416,0.752,2.728,1.976,3.448
			l46.024,27.02v22.08h-104v-22.08l46.024-27.02c1.224-0.716,1.976-2.032,1.976-3.448V52.056c0-2.212-1.792-4-4-4s-4,1.788-4,4
			V449.22l-46.024,27.02c-1.224,0.716-1.976,2.032-1.976,3.448v28.368c0,2.212,1.792,4,4,4h112c2.208,0,4-1.788,4-4v-28.368
			C316.026,478.272,315.274,476.96,314.05,476.24z"/>
	</g>
</g>
<g>
	<g>
		<path d="M280.026,476.056h-80c-2.208,0-4,1.788-4,4c0,2.212,1.792,4,4,4h80c2.208,0,4-1.788,4-4
			C284.026,477.844,282.234,476.056,280.026,476.056z"/>
	</g>
</g>
<g>
	<g>
		<path d="M264.026,448.056h-16c-2.208,0-4,1.788-4,4c0,2.212,1.792,4,4,4h16c2.208,0,4-1.788,4-4
			C268.026,449.844,266.234,448.056,264.026,448.056z"/>
	</g>
</g>
<g>
	<g>
		<path d="M255.994,0c-15.44,0-28,12.56-28,27.992c0,15.436,12.56,27.996,28,27.996c15.436,0,27.992-12.556,27.992-27.996
			C283.986,12.56,271.43,0,255.994,0z M255.994,47.988c-11.028,0-20-8.968-20-19.996c0-11.024,8.972-19.992,20-19.992
			c11.024,0,19.992,8.972,19.992,19.992C275.986,39.02,267.018,47.988,255.994,47.988z"/>
	</g>
</g>
<g>
	<g>
		<path d="M167.774,296.056H24.838c-2.208,0-4,1.788-4,4c0,41.616,33.856,75.472,75.468,75.472
			c41.616,0,75.472-33.856,75.468-75.472C171.774,297.844,169.982,296.056,167.774,296.056z M96.306,367.528
			c-36.488,0-65.352-27.568-67.356-63.472h134.716C161.662,339.96,132.794,367.528,96.306,367.528z"/>
	</g>
</g>
<g>
	<g>
		<path d="M97.014,36.336c-2.132-0.568-4.332,0.676-4.916,2.804L20.982,299.364c-0.584,2.136,0.672,4.332,2.804,4.916
			c0.352,0.092,0.708,0.14,1.056,0.14c1.756,0,3.368-1.168,3.856-2.948l71.12-260.22C100.402,39.116,99.146,36.92,97.014,36.336z"/>
	</g>
</g>
<g>
	<g>
		<path d="M171.634,299.364L100.526,39.14c-0.584-2.128-2.78-3.376-4.916-2.804c-2.132,0.584-3.388,2.784-2.804,4.916
			l71.112,260.224c0.484,1.776,2.096,2.944,3.856,2.944c0.348,0,0.704-0.048,1.056-0.14
			C170.962,303.696,172.218,301.496,171.634,299.364z"/>
	</g>
</g>
<g>
	<g>
		<path d="M232.026,24.056h-124c-2.208,0-4,1.788-4,4s1.792,4,4,4h124c2.208,0,4-1.788,4-4S234.234,24.056,232.026,24.056z"/>
	</g>
</g>
<g>
	<g>
		<path d="M400.026,24.056h-120c-2.208,0-4,1.788-4,4s1.792,4,4,4h120c2.208,0,4-1.788,4-4S402.234,24.056,400.026,24.056z"/>
	</g>
</g>
<g>
	<g>
		<path d="M95.954,12.408c-8.768,0-15.9,7.132-15.9,15.896c0,8.764,7.136,15.892,15.9,15.892c8.764,0,15.892-7.128,15.892-15.892
			C111.846,19.536,104.714,12.408,95.954,12.408z M95.954,36.2c-4.356,0-7.9-3.54-7.9-7.892s3.544-7.896,7.9-7.896
			c4.352,0,7.892,3.544,7.892,7.896S100.306,36.2,95.954,36.2z"/>
	</g>
</g>
<g>
	<g>
		<path d="M487.215,296.056H344.278c-2.208,0-4,1.788-4,4c0,41.616,33.856,75.472,75.468,75.472s75.468-33.856,75.468-75.472
			C491.215,297.844,489.423,296.056,487.215,296.056z M415.742,367.528c-36.488,0-65.352-27.568-67.356-63.472h134.716
			C481.098,339.96,452.23,367.528,415.742,367.528z"/>
	</g>
</g>
<g>
	<g>
		<path d="M416.442,36.336c-2.14-0.576-4.332,0.672-4.916,2.804l-71.108,260.224c-0.584,2.136,0.672,4.332,2.804,4.916
			c0.352,0.092,0.708,0.14,1.056,0.14c1.756,0,3.372-1.168,3.856-2.948l71.112-260.22C419.83,39.116,418.574,36.92,416.442,36.336z"
			/>
	</g>
</g>
<g>
	<g>
		<path d="M491.074,299.364L419.958,39.14c-0.584-2.128-2.78-3.376-4.916-2.804c-2.132,0.584-3.388,2.784-2.804,4.916
			l71.116,260.224c0.484,1.776,2.096,2.944,3.856,2.944c0.348,0,0.704-0.048,1.06-0.14
			C490.402,303.696,491.658,301.496,491.074,299.364z"/>
	</g>
</g>
<g>
	<g>
		<path d="M416.098,12.408c-8.764,0-15.892,7.132-15.892,15.896c0,8.764,7.132,15.892,15.892,15.892s15.888-7.128,15.892-15.892
			C431.99,19.536,424.862,12.408,416.098,12.408z M416.098,36.2c-4.352,0-7.892-3.54-7.892-7.892s3.54-7.896,7.892-7.896
			c4.348,0,7.892,3.544,7.892,7.896S420.45,36.2,416.098,36.2z"/>
	</g>
</g>
<g>
	<g>
		<path d="M144.026,312.056h-116c-2.208,0-4,1.788-4,4c0,2.212,1.792,4,4,4h116c2.208,0,4-1.788,4-4
			C148.026,313.844,146.234,312.056,144.026,312.056z"/>
	</g>
</g>
<g>
	<g>
		<path d="M460.026,312.056h-112c-2.208,0-4,1.788-4,4c0,2.212,1.792,4,4,4h112c2.208,0,4-1.788,4-4
			C464.026,313.844,462.234,312.056,460.026,312.056z"/>
	</g>
</g>
<g>
</g>
<g>
</g>
<g>
</g>
<g>
</g>
<g>
</g>
<g>
</g>
<g>
</g>
<g>
</g>
<g>
</g>
<g>
</g>
<g>
</g>
<g>
</g>
<g>
</g>
<g>
</g>
<g>
</g>
</svg>
