<svg width="358" height="373" viewBox="0 0 358 373" fill="none" xmlns="http://www.w3.org/2000/svg">
<g clip-path="url(#clip0_79_5)">
<path d="M69.9616 155.76C81.6502 104.348 135.088 73.4965 185.262 89.6382C186.275 89.9632 187.289 90.3037 188.318 90.6519C253.901 113.208 232.411 179.841 265.179 200.347C297.948 220.853 321.573 250.583 307.2 289.537C292.827 328.49 205.738 365.37 137.069 323.368C83.0968 290.326 55.0858 221.178 69.9616 155.76Z" stroke="#C2D8F0" stroke-width="1.99" stroke-miterlimit="10"/>
<path d="M85.2943 94.8171C89.0052 71.6157 73.211 49.798 50.0168 46.0859C26.8227 42.3738 5.0118 58.1729 1.30085 81.3743C-2.4101 104.576 13.3842 126.393 36.5783 130.106C59.7724 133.818 81.5833 118.018 85.2943 94.8171Z" stroke="#C2D8F0" stroke-width="1.99" stroke-miterlimit="10"/>
<path d="M247.836 280.313H99.0865C98.32 280.306 97.5672 280.11 96.8952 279.741C96.2232 279.372 95.653 278.842 95.2354 278.199C94.8179 277.556 94.566 276.82 94.5023 276.056C94.4387 275.292 94.5652 274.524 94.8705 273.821L200.416 37.0345C200.783 36.2226 201.375 35.5333 202.123 35.049C202.87 34.5646 203.742 34.3057 204.632 34.303H353.382C354.148 34.3098 354.901 34.5064 355.573 34.8752C356.245 35.244 356.815 35.7735 357.233 36.4165C357.65 37.0595 357.902 37.7959 357.966 38.56C358.03 39.324 357.903 40.092 357.598 40.7953L252.052 277.581C251.685 278.393 251.093 279.083 250.345 279.567C249.598 280.051 248.727 280.31 247.836 280.313Z" fill="url(#paint0_linear_79_5)"/>
<path d="M292.951 113.27L340.912 5.55591C341.174 4.95654 341.284 4.3014 341.231 3.64921C341.178 2.99702 340.964 2.36818 340.608 1.81906C340.253 1.26994 339.766 0.817719 339.193 0.502933C338.619 0.188146 337.977 0.020638 337.323 0.0154265H202.621C200.168 0.00883984 197.766 0.714555 195.706 2.04693C193.647 3.3793 192.018 5.28105 191.017 7.52139L142.329 116.861C142.061 117.462 141.947 118.121 141.998 118.777C142.049 119.433 142.264 120.067 142.622 120.619C142.98 121.171 143.471 121.625 144.049 121.939C144.628 122.253 145.276 122.417 145.934 122.417H278.841C281.825 122.421 284.747 121.559 287.251 119.936C289.755 118.312 291.735 115.997 292.951 113.27Z" fill="white"/>
<path d="M275.499 187.077L323.507 79.3698C323.773 78.7679 323.885 78.109 323.833 77.4528C323.78 76.7966 323.565 76.1639 323.206 75.6121C322.847 75.0602 322.356 74.6067 321.778 74.2927C321.2 73.9787 320.552 73.8141 319.894 73.8138H185.2C182.754 73.8138 180.36 74.5226 178.307 75.8546C176.255 77.1867 174.632 79.0849 173.635 81.3198L124.9 190.667C124.634 191.269 124.522 191.928 124.574 192.584C124.627 193.24 124.842 193.873 125.201 194.425C125.56 194.977 126.051 195.43 126.629 195.744C127.207 196.058 127.855 196.223 128.513 196.223H261.412C264.393 196.224 267.31 195.36 269.81 193.737C272.31 192.113 274.286 189.8 275.499 187.077V187.077Z" stroke="white" stroke-width="1.99" stroke-miterlimit="10"/>
<path opacity="0.39" d="M214.449 149.028H220.599L204.075 181.319H104.153L108.184 173.434" stroke="#A7C0E4" stroke-width="0.99" stroke-miterlimit="10"/>
<path d="M226.1 59.5829C238.758 48.6071 242.334 31.9946 234.087 22.4779C225.84 12.9613 208.894 14.1442 196.236 25.1201C183.578 36.096 180.002 52.7084 188.249 62.2251C196.495 71.7417 213.442 70.5588 226.1 59.5829Z" fill="#E8F4FC"/>
<path d="M224.342 57.554C235.512 47.8686 238.668 33.2106 231.393 24.8145C224.117 16.4184 209.164 17.4636 197.994 27.149C186.824 36.8345 183.667 51.4924 190.943 59.8885C198.219 68.2846 213.172 67.2394 224.342 57.554Z" fill="#9BC0E6"/>
<path d="M211.594 47.0012C211.594 47.0012 199.403 49.0131 194.197 51.0715C190.662 53.1994 190.105 54.8941 189.261 57.4322C192.093 62.3923 197.492 65.5417 204.532 65.5417C213.629 65.5417 222.989 60.2875 228.976 52.6578C225.704 47.8911 211.594 47.0012 211.594 47.0012Z" fill="#4A63AE"/>
<path d="M207.309 41.8012L205.205 50.6845C205.123 50.9178 205.095 51.1662 205.12 51.4118C205.146 51.6575 205.226 51.8945 205.354 52.1058C205.481 52.3172 205.654 52.4978 205.86 52.6346C206.065 52.7715 206.299 52.8613 206.543 52.8976C209.008 53.2861 211.529 52.7337 213.606 51.35C214.01 51.0989 214.353 50.7598 214.609 50.3579C214.865 49.956 215.027 49.5017 215.083 49.0286C215.377 44.8964 216.22 36.3845 216.22 36.3845L207.309 41.8012Z" fill="#F68C6A"/>
<path d="M205.414 32.3917C205.414 32.3917 199.689 43.9988 200.772 47.0941C202.056 49.2143 213.575 44.4399 215.47 41.3369C217.365 38.234 221.658 32.5929 218.317 29.072C214.975 25.5512 209.746 26.7661 205.414 32.3917Z" fill="#F68C6A"/>
<path d="M205.414 32.3918C205.414 32.3918 204.4 28.2983 207.873 25.884C211.347 23.4697 215.779 23.9572 217.381 26.3715C218.017 27.2582 218.599 28.1834 219.121 29.1417C219.652 29.2839 220.139 29.5576 220.537 29.9376C220.934 30.3176 221.23 30.7918 221.395 31.3162C221.96 33.1269 218.355 37.7156 216.886 39.0543C215.416 40.393 215.725 40.4162 215.725 40.4162L215.23 39.7816C215.377 37.9016 215.708 36.0406 216.22 34.2257C216.414 33.1424 215.168 31.5715 212.987 31.2078C210.805 30.8441 209.993 32.8715 205.414 32.3918Z" fill="#7F3737"/>
<path d="M216.576 37.6691C216.576 37.6691 217.35 36.1911 218.789 36.609C220.227 37.0268 217.388 41.5149 215.895 41.2054C214.402 40.8959 216.576 37.6691 216.576 37.6691Z" fill="#F68C6A"/>
<path d="M215.184 47.365C215.184 47.365 212.089 50.7465 209.111 51.7138C208.585 51.8686 207.804 52.921 207.804 52.921L207.255 51.4662C207.255 51.4662 205.181 50.259 205.785 48.1698L205.367 48.4948L204.261 51.2263C203.877 52.3765 203.618 53.5647 203.487 54.7704L206.257 53.2227C207.239 53.5395 208.291 53.5691 209.289 53.3079C209.289 53.3079 209.862 55.2346 210.38 55.3971C210.898 55.5596 215.083 51.6132 215.71 50.2436C216.143 49.4017 216.333 48.4559 216.259 47.512L215.184 47.365Z" fill="white"/>
<path opacity="0.39" d="M303.533 52.4721H245.183C243.388 52.4721 242.467 51.0173 243.117 49.2298L251.379 26.5262C251.735 25.62 252.342 24.8338 253.128 24.2597C253.914 23.6856 254.848 23.3471 255.819 23.2839H314.146C315.941 23.2839 316.862 24.7387 316.212 26.5262L307.95 49.2298C307.596 50.1327 306.992 50.9165 306.211 51.4904C305.429 52.0642 304.5 52.4046 303.533 52.4721Z" fill="#A7C0E4"/>
<path d="M306.906 33.5524H256.662L257.544 31.1227H307.788L306.906 33.5524Z" fill="#9BC0E6"/>
<path d="M284.851 39.2322H254.597L255.479 36.7947H285.733L284.851 39.2322Z" fill="#9BC0E6"/>
<path d="M260.561 44.3626H252.725L253.615 41.9329H261.443L260.561 44.3626Z" fill="#9BC0E6"/>
<path d="M247.882 62.9108C247.443 63.9303 246.732 64.8098 245.828 65.4538C244.924 66.0977 243.861 66.4814 242.754 66.5632C240.742 66.5632 239.768 64.9305 240.58 62.9108C241.02 61.8918 241.731 61.0127 242.635 60.3689C243.539 59.7251 244.602 59.341 245.709 59.2584C247.728 59.2584 248.695 60.8912 247.882 62.9108Z" fill="#9BC0E6"/>
<path d="M260.569 62.9108C260.129 63.9298 259.418 64.8089 258.514 65.4527C257.61 66.0965 256.547 66.4806 255.44 66.5632C253.421 66.5632 252.447 64.9305 253.267 62.9108C253.705 61.8924 254.415 61.0136 255.317 60.3698C256.22 59.7259 257.282 59.3416 258.388 59.2584C260.407 59.2584 261.381 60.8912 260.569 62.9108Z" fill="#9BC0E6"/>
<path d="M273.248 62.9108C272.808 63.9303 272.098 64.8098 271.194 65.4538C270.289 66.0977 269.226 66.4814 268.119 66.5632C266.108 66.5632 265.133 64.9305 265.945 62.9108C266.385 61.8913 267.095 61.0118 268 60.3678C268.904 59.7239 269.967 59.3402 271.074 59.2584C273.093 59.2584 274.06 60.8912 273.248 62.9108Z" fill="#9BC0E6"/>
<path d="M285.934 62.9108C285.494 63.9298 284.783 64.8089 283.879 65.4527C282.975 66.0965 281.912 66.4806 280.806 66.5632C278.787 66.5632 277.812 64.9305 278.632 62.9108C279.071 61.8924 279.78 61.0136 280.683 60.3698C281.586 59.7259 282.647 59.3416 283.753 59.2584C285.772 59.2584 286.762 60.8912 285.934 62.9108Z" fill="#F78D1E"/>
<path opacity="0.39" d="M298.613 62.9108C298.174 63.9303 297.463 64.8098 296.559 65.4538C295.655 66.0977 294.591 66.4814 293.484 66.5632C291.473 66.5632 290.498 64.9305 291.311 62.9108C291.75 61.8913 292.461 61.0118 293.365 60.3678C294.269 59.7239 295.332 59.3402 296.439 59.2584C298.451 59.2584 299.425 60.8912 298.613 62.9108Z" fill="#A7C0E4"/>
<path opacity="0.39" d="M268.483 74.0073L252.385 90.7526L235.699 97.3687L254.613 111.251L273.611 95.0318L268.483 74.0073Z" fill="#A7C0E4"/>
<path opacity="0.7" d="M264.669 83.734L252.385 90.7525L241.996 97.3144L256.082 107.444L269.411 95.2638L264.669 83.734Z" fill="#A7C0E4"/>
<path d="M268.483 74.0073L252.385 90.7526L235.699 97.3687L254.558 111.382L273.611 95.0318L268.483 74.0073Z" stroke="#4A63AE" stroke-width="0.5" stroke-miterlimit="10"/>
<path d="M260.917 96.587C260.776 96.9127 260.549 97.1935 260.26 97.3995C259.971 97.6054 259.631 97.7285 259.277 97.7555C258.635 97.7555 258.326 97.2293 258.581 96.587C258.723 96.2619 258.95 95.9815 259.239 95.7757C259.528 95.5699 259.867 95.4464 260.221 95.4186C260.863 95.4186 261.18 95.968 260.917 96.587Z" fill="#4A63AE"/>
<path d="M245.09 85.0417L259.339 96.3239L233.912 97.6239" stroke="#4A63AE" stroke-width="0.5" stroke-miterlimit="10"/>
<path d="M253.506 115.275L259.857 96.3239L276.621 94.6448" stroke="#4A63AE" stroke-width="0.5" stroke-miterlimit="10"/>
<path d="M269.426 71.6781L259.857 96.3317" stroke="#4A63AE" stroke-width="0.5" stroke-miterlimit="10"/>
<path d="M246.382 84.8251C246.147 85.3716 245.767 85.8431 245.282 86.1883C244.798 86.5335 244.229 86.7391 243.636 86.7828C242.553 86.7828 242.027 85.9084 242.467 84.8251C242.702 84.2777 243.082 83.805 243.566 83.4585C244.05 83.112 244.62 82.9049 245.214 82.8596C246.297 82.8596 246.823 83.7418 246.382 84.8251Z" fill="#9BC0E6"/>
<path d="M234.856 97.6394C234.619 98.1859 234.237 98.6573 233.751 99.0023C233.266 99.3474 232.696 99.5531 232.102 99.5971C231.019 99.5971 230.5 98.7227 230.934 97.6394C231.17 97.0928 231.552 96.6215 232.038 96.2764C232.523 95.9313 233.094 95.7257 233.687 95.6816C234.77 95.6816 235.289 96.556 234.856 97.6394Z" fill="#F78D1E"/>
<path d="M255.355 115.576C255.119 116.124 254.737 116.596 254.252 116.943C253.766 117.289 253.196 117.496 252.601 117.542C251.518 117.542 250.992 116.66 251.433 115.576C251.669 115.029 252.051 114.558 252.536 114.212C253.022 113.867 253.593 113.662 254.187 113.619C255.262 113.619 255.819 114.493 255.355 115.576Z" fill="#9BC0E6"/>
<path d="M278.903 94.6603C278.666 95.2078 278.285 95.6802 277.799 96.0266C277.314 96.373 276.743 96.5802 276.149 96.6257C275.066 96.6257 274.547 95.7436 274.981 94.6603C275.219 94.1147 275.601 93.6443 276.086 93.2994C276.571 92.9545 277.141 92.7482 277.734 92.7025C278.817 92.7025 279.336 93.5847 278.903 94.6603Z" fill="#9BC0E6"/>
<path d="M271.6 71.0204C271.363 71.5669 270.981 72.0382 270.496 72.3833C270.011 72.7284 269.44 72.9341 268.846 72.9781C267.763 72.9781 267.245 72.1037 267.678 71.0204C267.915 70.4738 268.297 70.0025 268.782 69.6574C269.268 69.3123 269.838 69.1066 270.432 69.0626C271.515 69.0626 272.064 69.937 271.6 71.0204Z" fill="#F78D1E"/>
<path d="M227.112 87.3787H178.269L182.005 78.1317H230.848L227.112 87.3787Z" fill="#4A63AE"/>
<path opacity="0.39" d="M197.701 108.171H169.868L171.469 104.217H199.302L197.701 108.171Z" fill="#A7C0E4"/>
<path opacity="0.39" d="M193.531 100.255H173.071L176.807 91.0079H197.268L193.531 100.255Z" fill="#A7C0E4"/>
<path d="M302.009 198.885L325.912 145.26C326.047 144.96 326.104 144.632 326.079 144.305C326.054 143.977 325.947 143.662 325.769 143.386C325.59 143.111 325.346 142.884 325.057 142.728C324.769 142.571 324.446 142.489 324.118 142.49H257.049C255.832 142.492 254.641 142.846 253.62 143.509C252.599 144.172 251.792 145.116 251.294 146.227L227.027 200.672C226.894 200.972 226.838 201.3 226.865 201.627C226.891 201.954 226.999 202.269 227.178 202.544C227.357 202.818 227.602 203.044 227.89 203.199C228.179 203.355 228.502 203.436 228.829 203.435H295.001C296.483 203.435 297.934 203.005 299.178 202.198C300.422 201.39 301.405 200.24 302.009 198.885Z" fill="white"/>
<path opacity="0.39" d="M288.421 185.596C299.713 176.355 303.853 162.733 297.668 155.172C291.484 147.611 277.316 148.973 266.024 158.215C254.733 167.457 250.592 181.079 256.777 188.64C262.962 196.201 277.129 194.838 288.421 185.596Z" fill="#A7C0E4"/>
<path d="M279.026 174.123C279.026 174.123 289.903 179.54 291.055 184.477C292.208 189.413 287.381 202.491 287.381 202.491H244.138C244.138 202.491 251.224 187.185 256.732 183.579C262.24 179.973 272.838 177.257 272.838 177.257L279.026 174.123Z" fill="#567CBE"/>
<path d="M274.555 170.633L271.159 177.992C270.741 178.905 270.989 179.741 271.778 179.981C273.741 180.523 275.838 180.281 277.626 179.308C278.381 178.934 278.959 178.278 279.235 177.481C280.28 173.999 282.608 166.88 282.608 166.88L274.555 170.633Z" fill="#9BC0E6"/>
<path d="M274.911 162.516C274.911 162.516 268.15 171.802 268.413 174.556C269.009 176.475 278.972 173.465 281.061 171.004C283.149 168.544 287.652 164.164 285.702 160.875C283.753 157.587 279.421 158.121 274.911 162.516Z" fill="#9BC0E6"/>
<path d="M275.197 161.131C275.197 161.131 275.089 161.278 274.957 161.494C274.571 162.16 273.983 163.491 275.607 163.576L277.781 163.692C277.781 163.692 281.262 161.711 282.623 163.816C283.645 165.913 280.303 167.197 280.604 168.242C280.906 169.287 280.744 169.062 280.272 169.643C279.718 170.614 278.874 171.388 277.858 171.856C276.311 172.56 275.058 172.444 273.565 173.256C272.072 174.069 269.187 173.14 268.885 172.482C268.189 171.894 267.786 173.179 267.338 174.03C266.889 174.881 265.512 175.075 266.843 176.127C268.173 177.18 269.163 177.675 271.484 176.243C273.805 174.812 273.867 174.959 276.203 174.378C278.208 173.989 279.985 172.838 281.161 171.167C282.051 169.712 282.337 167.847 283.088 167.143C283.838 166.439 284.256 167.143 283.923 167.963C283.59 168.784 286.77 167.267 287.528 164.814C288.286 162.361 286.955 162.493 286.816 161.084C286.677 159.676 288.278 158.051 286.584 156.766C284.89 155.482 283.289 157.115 282.716 156.302C282.144 155.49 279.483 155.366 277.379 157.115C276.118 158.185 275.319 159.702 275.151 161.347" fill="#4A63AE"/>
<path d="M282.662 167.267C282.662 167.267 283.575 166.083 284.604 166.571C285.633 167.058 282.538 170.587 281.432 170.2C280.326 169.813 282.662 167.267 282.662 167.267Z" fill="#9BC0E6"/>
<path d="M268.196 172.792C268.196 172.792 269.194 169.178 271.708 168.706C274.222 168.234 275.367 169.759 275.197 171.028C275.161 171.413 275.23 171.801 275.397 172.151C275.565 172.5 275.825 172.796 276.149 173.009C276.149 173.009 269.744 176.057 268.196 172.792Z" fill="#4A63AE"/>
<path d="M271.94 271.267L295.844 217.642C295.978 217.342 296.035 217.014 296.01 216.687C295.985 216.36 295.878 216.044 295.7 215.768C295.522 215.493 295.277 215.266 294.989 215.11C294.7 214.953 294.377 214.871 294.049 214.872H226.988C225.769 214.871 224.576 215.223 223.553 215.887C222.531 216.55 221.722 217.496 221.225 218.609L196.966 273.055C196.833 273.354 196.778 273.681 196.804 274.007C196.829 274.334 196.936 274.648 197.115 274.923C197.293 275.197 197.537 275.422 197.824 275.579C198.112 275.735 198.434 275.817 198.761 275.817H264.932C266.415 275.819 267.867 275.39 269.111 274.582C270.355 273.775 271.338 272.623 271.94 271.267Z" fill="white"/>
<path opacity="0.39" d="M258.435 257.906C269.975 248.461 274.206 234.541 267.887 226.814C261.567 219.088 247.088 220.481 235.549 229.926C224.009 239.371 219.777 253.291 226.097 261.017C232.417 268.744 246.895 267.351 258.435 257.906Z" fill="#A7C0E4"/>
<path d="M253.12 237.637C253.12 237.637 256.415 236.09 256.856 237.97C256.965 238.554 256.929 239.157 256.753 239.724C256.576 240.292 256.264 240.808 255.842 241.228C255.842 241.228 258.813 240.415 259.61 242.953C260.407 245.491 258.008 246.706 258.999 247.596C259.989 248.486 262.046 250.444 259.177 253.655C256.307 256.866 252.106 260.565 247.248 258.19C242.39 255.814 243.93 244.261 243.93 244.261L245.121 240.879L253.12 237.637Z" fill="#4A63AE"/>
<path d="M249.948 227.934C249.948 227.934 242.614 228.553 240.301 233.683C237.989 238.813 242.584 239.185 242.584 239.185L249.948 227.934Z" fill="#4A63AE"/>
<path d="M202.304 262.848L202.776 263.699C206.082 267.621 209.648 271.315 213.451 274.757H223.925C229.379 269.781 236.836 261.099 236.867 260.751C236.913 260.24 243.434 253.152 241.996 250.266C240.557 247.38 238.692 247.836 238.692 247.836C238.692 247.836 236.573 248.122 234.19 250.599C231.808 253.075 220.042 271.314 220.042 271.314C218.928 269.454 217.471 267.823 215.748 266.508C212.964 264.427 204.833 260.047 204.833 260.047C204.833 260.047 205.328 256.526 205.282 255.853C205.236 255.18 203.209 252.107 202.598 252.757C201.987 253.407 203.418 256.309 203.418 256.309C203.418 256.309 201.832 261.997 202.304 262.848Z" fill="#9BC0E6"/>
<path d="M228.497 269.65C228.497 269.65 228.806 271.886 229.41 274.757H250.195C250.652 270.068 251.627 260.627 252.207 258.391C252.98 255.381 252.292 248.974 252.547 247.217C252.802 245.46 247.766 246.103 247.766 246.103L241.222 246.211L240.162 246.66C238.688 247.301 237.431 248.354 236.542 249.693C235.768 250.931 234.538 252.742 232.929 255.11C230.346 257.075 224.644 260.48 225.07 264.775C225.495 269.069 228.497 269.65 228.497 269.65Z" fill="#567CBE"/>
<path d="M243.442 242.218C243.442 242.218 237.633 249.407 236.031 258.468C237.927 257.88 243.69 252.595 247.093 249.368C248.525 248.006 248.641 247.264 248.393 245.871C248.262 245.182 248.865 243.278 249.669 241.104C250.18 238.078 243.442 242.218 243.442 242.218Z" fill="#9BC0E6"/>
<path d="M261.652 271.623C261.652 271.623 262.557 272.877 264.05 274.718H273.333C271.538 272.343 270.115 270.424 269.674 269.75C268.127 267.429 257.521 244.253 251.046 247.14C249.847 247.674 245.515 251.31 247.287 255.388C249.058 259.466 261.652 271.623 261.652 271.623Z" fill="#9BC0E6"/>
<path d="M243.156 232.731C241.441 234.87 239.912 237.15 238.584 239.549C237.385 241.87 238.205 243.99 240.433 244.23C243.628 244.571 248.501 243.774 250.103 241.909C252.485 239.185 257.583 234.364 255.518 230.627C253.452 226.889 248.919 227.369 243.984 231.803C243.684 232.091 243.408 232.401 243.156 232.731Z" fill="#9BC0E6"/>
<path d="M245.314 230.356C245.314 230.356 242.104 235.602 251.217 238.953L252.369 239.471C252.369 239.471 256.345 236.314 256.407 232.963C256.469 229.613 254.736 228.398 252.996 227.671C251.255 226.943 246.536 229.102 245.314 230.356Z" fill="#4A63AE"/>
<path d="M250.969 239.711C250.969 239.711 253.29 238.117 253.251 239.587C253.212 241.058 249.987 242.628 249.646 242.017C249.306 241.406 250.969 239.711 250.969 239.711Z" fill="#9BC0E6"/>
<path d="M199.07 226.827H125.202C122.936 226.827 121.845 224.985 122.758 222.718L128.01 209.718C128.503 208.574 129.3 207.586 130.315 206.863C131.33 206.14 132.523 205.709 133.766 205.617H207.634C209.9 205.617 210.999 207.451 210.078 209.718L204.833 222.718C204.338 223.863 203.539 224.851 202.524 225.575C201.508 226.299 200.314 226.732 199.07 226.827Z" fill="#567CBE"/>
<path d="M198.498 217.247H134.887L136.133 214.168H199.736L198.498 217.247Z" fill="white"/>
<path d="M139.328 12.737H136.829C136.388 12.737 136.179 12.381 136.357 11.9632L137.363 9.46375C137.463 9.24561 137.619 9.05854 137.817 8.92232C138.014 8.78611 138.245 8.70581 138.484 8.68994H140.983C141.432 8.68994 141.64 9.04589 141.463 9.46375L140.457 11.9632C140.355 12.1814 140.197 12.3683 139.998 12.5044C139.799 12.6405 139.568 12.7208 139.328 12.737Z" fill="#F9FCFD"/>
<path d="M164.948 12.737H162.449C162.009 12.737 161.8 12.381 161.978 11.9632L162.983 9.46375C163.084 9.24451 163.242 9.0567 163.441 8.92041C163.64 8.78411 163.872 8.70445 164.113 8.68994H166.604C167.052 8.68994 167.261 9.04589 167.083 9.46375L166.085 11.9399C165.987 12.1646 165.83 12.358 165.629 12.4986C165.428 12.6392 165.193 12.7217 164.948 12.737Z" fill="#C2D8F0"/>
<path d="M134.57 24.5298H132.048C131.607 24.5298 131.391 24.1739 131.569 23.756L132.582 21.2566C132.681 21.038 132.838 20.8504 133.036 20.7141C133.233 20.5778 133.464 20.4978 133.704 20.4828H136.202C136.643 20.4828 136.86 20.8387 136.674 21.2566L135.669 23.756C135.571 23.9709 135.417 24.1558 135.224 24.2918C135.031 24.4278 134.805 24.5099 134.57 24.5298Z" fill="#C2D8F0"/>
<path d="M147.38 24.5298H144.882C144.441 24.5298 144.224 24.1739 144.402 23.756L145.416 21.2566C145.515 21.038 145.671 20.8504 145.869 20.7141C146.067 20.5778 146.298 20.4978 146.537 20.4828H149.067C149.508 20.4828 149.724 20.8387 149.546 21.2566L148.533 23.756C148.431 23.9786 148.269 24.1687 148.066 24.3052C147.862 24.4417 147.625 24.5195 147.38 24.5298Z" fill="#F9FCFD"/>
<path d="M160.191 24.5298H157.692C157.251 24.5298 157.035 24.1739 157.212 23.756L158.226 21.2566C158.325 21.038 158.482 20.8504 158.679 20.7141C158.877 20.5778 159.108 20.4978 159.347 20.4828H161.846C162.287 20.4828 162.504 20.8387 162.326 21.2566L161.312 23.756C161.212 23.9741 161.055 24.1612 160.858 24.2974C160.661 24.4337 160.43 24.5139 160.191 24.5298Z" fill="#F9FCFD"/>
<path d="M170.44 24.5298H167.942C167.501 24.5298 167.284 24.1739 167.462 23.756L168.468 21.2566C168.57 21.0384 168.728 20.8514 168.927 20.7153C169.126 20.5792 169.357 20.4989 169.597 20.4828H172.096C172.537 20.4828 172.753 20.8387 172.568 21.2566L171.562 23.756C171.462 23.9741 171.305 24.1612 171.108 24.2974C170.91 24.4337 170.68 24.5139 170.44 24.5298Z" fill="#F9FCFD"/>
<path d="M129.805 36.3227H127.306C126.865 36.3227 126.649 35.959 126.834 35.5489L127.84 33.0494C127.94 32.8313 128.097 32.6442 128.294 32.508C128.492 32.3718 128.722 32.2915 128.962 32.2756H131.46C131.901 32.2756 132.118 32.6316 131.94 33.0494L130.927 35.5489C130.826 35.7665 130.669 35.9531 130.472 36.0892C130.274 36.2254 130.044 36.306 129.805 36.3227Z" fill="#F9FCFD"/>
<path d="M119.555 36.3227H117.056C116.616 36.3227 116.407 35.959 116.585 35.5489L117.59 33.0494C117.69 32.8313 117.847 32.6442 118.045 32.508C118.242 32.3718 118.473 32.2915 118.712 32.2756H121.218C121.667 32.2756 121.876 32.6316 121.698 33.0494L120.692 35.5489C120.59 35.7682 120.43 35.9558 120.23 36.092C120.03 36.2282 119.797 36.3079 119.555 36.3227Z" fill="#F9FCFD"/>
<path d="M142.615 36.3227H140.117C139.676 36.3227 139.459 35.959 139.645 35.5489L140.65 33.0494C140.75 32.8313 140.907 32.6442 141.105 32.508C141.302 32.3718 141.533 32.2915 141.772 32.2756H144.271C144.712 32.2756 144.928 32.6316 144.75 33.0494L143.745 35.5489C143.641 35.7661 143.483 35.9522 143.284 36.0881C143.086 36.224 142.855 36.3049 142.615 36.3227Z" fill="#F9FCFD"/>
<path d="M155.425 36.3227H152.935C152.494 36.3227 152.285 35.959 152.463 35.5489L153.468 33.0494C153.568 32.8313 153.725 32.6442 153.923 32.508C154.12 32.3718 154.351 32.2915 154.59 32.2756H157.089C157.53 32.2756 157.746 32.6316 157.568 33.0494L156.563 35.5489C156.459 35.7672 156.299 35.954 156.099 36.0899C155.899 36.2259 155.667 36.3063 155.425 36.3227Z" fill="#C2D8F0"/>
<path d="M125.086 48.1078H122.587C122.139 48.1078 121.93 47.7519 122.108 47.334L123.113 44.8346C123.217 44.6173 123.376 44.4313 123.574 44.2954C123.772 44.1595 124.003 44.0785 124.243 44.0608H126.742C127.182 44.0608 127.391 44.4245 127.213 44.8346L126.208 47.334C126.108 47.5522 125.951 47.7392 125.753 47.8754C125.556 48.0117 125.325 48.092 125.086 48.1078Z" fill="#F9FCFD"/>
<path d="M140.349 244.176H136.829C136.202 244.176 135.901 243.673 136.156 243.054L137.579 239.525C137.712 239.216 137.926 238.947 138.198 238.749C138.47 238.55 138.791 238.428 139.126 238.396H142.654C143.273 238.396 143.574 238.906 143.327 239.525L141.903 243.054C141.767 243.362 141.552 243.629 141.278 243.826C141.005 244.023 140.684 244.144 140.349 244.176Z" fill="#567CBE"/>
<path d="M176.459 244.176H172.939C172.312 244.176 172.011 243.673 172.266 243.054L173.689 239.525C173.822 239.216 174.036 238.947 174.308 238.749C174.581 238.55 174.901 238.428 175.237 238.396H178.756C179.375 238.396 179.677 238.906 179.429 239.525L178.006 243.054C177.872 243.362 177.658 243.629 177.386 243.826C177.113 244.024 176.793 244.144 176.459 244.176Z" fill="#567CBE"/>
<path d="M133.634 260.79H130.114C129.488 260.79 129.194 260.287 129.441 259.66L130.865 256.139C131.001 255.824 131.22 255.552 131.5 255.353C131.78 255.154 132.108 255.035 132.45 255.009H135.97C136.597 255.009 136.891 255.512 136.643 256.139L135.22 259.66C135.084 259.975 134.864 260.247 134.585 260.446C134.305 260.645 133.976 260.764 133.634 260.79Z" fill="#C2D8F0"/>
<path d="M151.689 260.79H148.169C147.551 260.79 147.249 260.287 147.496 259.66L148.92 256.139C149.056 255.824 149.276 255.552 149.555 255.353C149.835 255.154 150.163 255.035 150.506 255.009H154.025C154.652 255.009 154.954 255.512 154.698 256.139L153.275 259.66C153.14 259.976 152.921 260.249 152.641 260.448C152.361 260.648 152.032 260.766 151.689 260.79Z" fill="#F78D1E"/>
<path d="M169.744 260.79H166.224C165.606 260.79 165.304 260.287 165.551 259.66L166.975 256.139C167.109 255.83 167.322 255.562 167.595 255.363C167.867 255.165 168.187 255.042 168.522 255.009H172.042C172.668 255.009 172.97 255.512 172.715 256.139L171.291 259.66C171.16 259.971 170.946 260.24 170.674 260.439C170.401 260.638 170.08 260.759 169.744 260.79Z" fill="#C2D8F0"/>
<path d="M184.195 260.79H180.675C180.048 260.79 179.746 260.287 180.002 259.66L181.425 256.139C181.557 255.828 181.77 255.559 182.043 255.36C182.315 255.161 182.636 255.04 182.972 255.009H186.5C187.119 255.009 187.42 255.512 187.173 256.139L185.749 259.66C185.615 259.97 185.4 260.239 185.126 260.438C184.853 260.636 184.531 260.758 184.195 260.79Z" fill="#C2D8F0"/>
<path d="M126.927 277.411H123.4C122.781 277.411 122.479 276.908 122.727 276.281L124.15 272.761C124.288 272.447 124.508 272.176 124.788 271.978C125.067 271.779 125.394 271.659 125.736 271.631H129.256C129.882 271.631 130.184 272.142 129.929 272.761L128.505 276.266C128.374 276.584 128.156 276.859 127.878 277.061C127.599 277.264 127.27 277.385 126.927 277.411Z" fill="#C2D8F0"/>
<path d="M112.477 277.411H108.957C108.331 277.411 108.037 276.908 108.284 276.281L109.708 272.761C109.841 272.451 110.055 272.183 110.327 271.985C110.599 271.786 110.919 271.664 111.255 271.631H114.774C115.401 271.631 115.703 272.142 115.447 272.761L114.063 276.266C113.929 276.584 113.71 276.859 113.43 277.061C113.151 277.263 112.821 277.384 112.477 277.411Z" fill="#C2D8F0"/>
<path d="M144.982 277.411H141.463C140.836 277.411 140.534 276.908 140.79 276.281L142.213 272.761C142.346 272.451 142.56 272.183 142.832 271.984C143.104 271.785 143.425 271.663 143.76 271.631H147.28C147.906 271.631 148.208 272.142 147.953 272.761L146.568 276.266C146.434 276.584 146.215 276.858 145.935 277.06C145.655 277.262 145.326 277.383 144.982 277.411Z" fill="#C2D8F0"/>
<path d="M163.037 277.411H159.518C158.891 277.411 158.589 276.908 158.845 276.281L160.268 272.761C160.401 272.451 160.615 272.183 160.887 271.984C161.159 271.785 161.48 271.663 161.815 271.631H165.343C165.961 271.631 166.263 272.142 166.016 272.761L164.623 276.266C164.489 276.584 164.27 276.858 163.99 277.06C163.711 277.262 163.381 277.383 163.037 277.411Z" fill="#F78D1E"/>
<path d="M120.213 294.064H116.693C116.066 294.064 115.765 293.553 116.02 292.934L117.443 289.413C117.575 289.102 117.788 288.833 118.061 288.634C118.333 288.435 118.654 288.314 118.99 288.283H122.51C123.129 288.283 123.431 288.786 123.183 289.413L121.76 292.934C121.626 293.243 121.412 293.511 121.14 293.71C120.868 293.908 120.548 294.03 120.213 294.064Z" fill="#F78D1E"/>
<path opacity="0.39" d="M201.77 174.208H101.848L118.372 141.917H218.293L201.77 174.208Z" fill="#A7C0E4"/>
<path d="M193.388 166.606C199.543 161.169 201.096 152.869 196.856 148.067C192.617 143.265 184.191 143.781 178.036 149.218C171.882 154.656 170.329 162.956 174.568 167.758C178.808 172.559 187.234 172.044 193.388 166.606Z" fill="#7E9FD3"/>
<path d="M182.33 164.605C182.134 164.612 181.939 164.572 181.762 164.488C181.584 164.405 181.429 164.28 181.309 164.125L177.913 159.606C177.69 159.22 177.626 158.763 177.732 158.33C177.839 157.897 178.109 157.523 178.486 157.285C178.635 157.134 178.813 157.015 179.009 156.933C179.205 156.852 179.415 156.81 179.627 156.81C179.839 156.81 180.049 156.852 180.244 156.933C180.44 157.015 180.618 157.134 180.768 157.285L183.305 160.666L192.387 153.447C192.537 153.29 192.717 153.166 192.916 153.081C193.116 152.996 193.33 152.952 193.547 152.952C193.764 152.952 193.978 152.996 194.178 153.081C194.377 153.166 194.557 153.29 194.707 153.447C194.918 153.829 194.977 154.277 194.87 154.701C194.764 155.124 194.501 155.492 194.135 155.729L183.653 164.125C183.282 164.436 182.814 164.606 182.33 164.605Z" fill="white"/>
<path d="M106.954 80.4918C106.871 81.2929 106.559 82.0529 106.053 82.6797C105.548 83.3065 104.871 83.7733 104.106 84.0234C103.341 84.2735 102.52 84.2963 101.742 84.0888C100.964 83.8814 100.263 83.4528 99.7236 82.8549C99.1843 82.257 98.83 81.5154 98.7035 80.7201C98.5771 79.9248 98.6839 79.1099 99.0111 78.3741C99.3383 77.6383 99.8718 77.0133 100.547 76.5747C101.222 76.1361 102.01 75.9028 102.815 75.9031C103.971 75.9651 105.056 76.4827 105.831 77.3427C106.607 78.2027 107.011 79.335 106.954 80.4918V80.4918Z" stroke="#505F84" stroke-width="0.93" stroke-miterlimit="10"/>
<path d="M63.5178 105.254C63.5178 105.254 56.9037 105.695 51.9606 112.365C47.0175 119.035 54.1885 143.519 75.4385 153.377C89.2853 158.794 90.2678 146.459 86.8099 137.8C83.3521 129.141 73.3343 107.304 63.5178 105.254Z" fill="white"/>
<path d="M157.994 367.313C157.994 370.454 127.678 373 90.2832 373C52.8889 373 22.5727 370.454 22.5727 367.313C22.5727 364.171 52.8889 361.625 90.2832 361.625C127.678 361.625 157.994 364.171 157.994 367.313Z" fill="#C2D8F0"/>
<path d="M65.5213 348.911C65.5213 348.911 66.9601 345.816 72.29 346.652C77.6199 347.487 78.2465 348.493 78.8576 351.163C79.4687 353.833 81.3253 356.711 82.5553 357.354C83.7853 357.996 88.2952 361.052 91.9928 361.664C95.6905 362.275 96.0928 364.542 95.2728 365.533C94.4528 366.523 80.4976 367.382 77.4265 366.972C77.4265 366.972 66.9601 366.763 64.4924 365.943C62.0248 365.123 65.3356 349.933 65.5213 348.911Z" fill="#18152B"/>
<path d="M92.279 348.911C92.279 348.911 93.7179 345.816 99.0478 346.652C104.378 347.487 105.004 348.493 105.615 351.163C106.226 353.833 108.083 356.711 109.313 357.354C110.543 357.996 115.061 361.052 118.751 361.664C122.44 362.275 122.858 364.542 122.038 365.533C121.218 366.523 107.294 367.382 104.2 366.972C104.2 366.972 93.7333 366.763 91.2657 365.943C88.798 365.123 92.0779 349.933 92.279 348.911Z" fill="#18152B"/>
<path d="M60.6014 272.474C60.2125 269.999 60.756 267.467 62.1266 265.37C63.4972 263.273 65.5973 261.759 68.0199 261.122C76.9933 258.267 78.6874 262.422 81.4104 270.176C84.1334 277.93 79.0897 351.148 79.0897 351.148C79.0897 351.148 68.1514 351.395 65.5058 349.832C65.5058 349.832 58.1956 301.244 58.7371 289.413C59.2786 277.581 60.6014 272.474 60.6014 272.474Z" fill="#2B3654"/>
<path d="M102.653 83.587C102.653 83.587 104.749 86.4347 104.749 87.9126C104.749 89.3906 101.91 89.3984 101.91 89.3984L102.653 83.587Z" fill="#F3775B"/>
<path d="M92.5111 54.6311C92.5111 54.6311 98.5836 56.1787 102.026 65.5109C105.468 74.843 103.171 94.6526 100.873 96.9895C98.5759 99.3264 91.5906 98.4288 81.9596 95.2407C71.7563 91.8669 68.3061 81.2579 66.4883 74.2549C62.9917 60.8525 74.6417 47.0555 92.5111 54.6311Z" fill="#F68C6A"/>
<path d="M70.7351 106.105L75.6628 88.4543C75.6628 88.4543 85.5103 85.5834 91.6679 92.1531L93.7179 95.0239V106.523C86.092 107.736 78.312 107.594 70.7351 106.105Z" fill="#F68C6A"/>
<path d="M57.012 201.152C54.8128 216.467 54.8128 232.018 57.012 247.333C60.702 271.963 68.0895 274.416 74.866 274.416C81.6425 274.416 83.4836 254.708 84.7135 246.087C85.9435 237.467 90.9021 207.907 81.6193 201.137C72.3364 194.366 61.9165 193.762 57.012 201.152Z" fill="#2B3654"/>
<path d="M82.8415 230.093C82.8415 230.093 75.4539 210.384 88.388 201.763C101.322 193.143 111.162 194.374 114.256 208.542C117.35 222.71 117.946 271.352 113.637 281.203C109.328 291.053 93.9267 275.662 82.8415 230.093Z" fill="#2C4064"/>
<path d="M68.1282 106.028C68.1282 106.028 69.5052 101.199 70.7351 100.789C71.9651 100.379 87.1503 98.7305 95.3579 103.66C99.0555 106.538 98.6455 108.589 98.6455 108.589C98.6455 108.589 74.1466 103.869 68.1282 106.028Z" fill="white"/>
<path d="M113.258 201.152C113.258 201.152 114.488 204.116 113.753 205.106C112.763 206.097 84.8296 215.986 55.4185 208.813C54.9234 208.813 56.192 203.868 56.192 203.868L113.258 201.152Z" fill="#5F63AD"/>
<path d="M55.14 156.604C54.32 150.854 51.8601 122.556 52.68 118.424C53.4536 114.555 56.7258 107.521 63.51 105.269C63.9915 105.106 64.4823 104.972 64.9798 104.867C64.9798 104.867 90.4302 103.226 108.485 111.057C108.485 111.057 114.674 116.195 115.811 142.366C115.811 142.366 115.471 146.776 114.48 156.178C113.49 165.58 114.976 172.49 116.461 181.884C117.946 191.278 120.909 200.68 110.032 202.653C99.6511 204.634 70.9827 209.618 54.1808 204.634C50.7152 202.158 55.6583 190.791 55.6583 181.884C55.6583 172.978 55.14 156.604 55.14 156.604Z" fill="#7D7FBD"/>
<path d="M94.5379 273.813C94.4246 271.309 95.244 268.853 96.8374 266.919C98.4307 264.985 100.685 263.711 103.163 263.343C112.392 261.502 113.622 265.812 115.471 273.813C117.319 281.814 106.366 351.635 106.366 351.635C106.366 351.635 94.2826 352.332 91.8226 350.49C91.8226 350.49 88.9991 302.142 90.848 290.442C92.6968 278.742 94.5379 273.813 94.5379 273.813Z" fill="#2C4064"/>
<path d="M80.3816 225.473C80.3816 225.473 88.9991 253.183 95.4662 266.733" stroke="#2B2F59" stroke-width="1.19" stroke-miterlimit="10"/>
<path d="M97.9261 272.273C97.9261 272.273 103.163 269.178 108.392 272.273" stroke="#2B2F59" stroke-width="1.19" stroke-miterlimit="10"/>
<path d="M97.0055 275.662C97.0055 275.662 101.314 273.202 108.702 278.433" stroke="#2B2F59" stroke-width="1.19" stroke-miterlimit="10"/>
<path d="M64.6858 268.582C64.6858 268.582 68.0663 265.487 75.7633 268.891" stroke="#2B2F59" stroke-width="1.19" stroke-miterlimit="10"/>
<path d="M67.1458 271.662C68.6974 270.974 70.4076 270.726 72.0906 270.943C73.7735 271.16 75.3649 271.834 76.6916 272.892" stroke="#2B2F59" stroke-width="1.19" stroke-miterlimit="10"/>
<path d="M78.5405 276.583L76.6916 339.401" stroke="#2B2F59" stroke-width="1.19" stroke-miterlimit="10"/>
<path d="M103.983 223.933C103.983 223.933 110.945 228.042 113.831 221.472" stroke="#2B2F59" stroke-width="1.19" stroke-miterlimit="10"/>
<path d="M110.961 224.753C110.961 224.753 114.241 250.212 113.421 267.042" stroke="#2B2F59" stroke-width="1.19" stroke-miterlimit="10"/>
<path d="M89.7727 92.9192C89.7727 92.9192 91.9232 98.4597 99.1561 97.562" stroke="#E76658" stroke-width="1.19" stroke-miterlimit="10"/>
<path d="M99.0555 58.709C99.0555 58.709 102.56 63.5376 102.784 66.3852C103.008 69.2328 98.398 72.0804 97.7404 73.837C97.0829 75.5935 98.5914 77.7989 97.9338 78.89C97.4594 79.945 97.1665 81.0725 97.0674 82.2251L97.2918 84.709C97.3328 85.1473 97.21 85.5852 96.9471 85.9382C96.6843 86.2912 96.2999 86.5342 95.8684 86.6203L95.3424 86.7287C94.9764 86.8021 94.5963 86.7447 94.2684 86.5666C93.9404 86.3884 93.6853 86.1007 93.5477 85.7537C92.7741 83.7727 91.1264 80.0739 89.85 79.7566C88.094 79.3156 86.3458 82.3876 85.6882 83.9197C85.3169 84.7864 84.3886 87.1233 83.646 88.9959C83.3265 89.7996 82.7868 90.4968 82.0889 91.0073C81.391 91.5179 80.5633 91.8212 79.7008 91.8822C78.0377 92.0696 76.3589 92.0696 74.6958 91.8822C73.1487 91.4412 65.3047 76.9167 65.0881 69.8983C64.8715 62.8798 69.7295 55.8691 74.7268 53.6483C79.724 51.4274 89.6334 49.5393 99.0555 58.709Z" fill="#7F3737"/>
<path d="M63.5564 119.654C63.5564 121.628 71.8104 151.381 70.5186 156.643C69.2267 161.904 65.5213 198.676 65.5213 198.676" stroke="#5F63AD" stroke-width="1.19" stroke-miterlimit="10"/>
<path d="M86.4076 49.1603C86.4076 49.1603 91.227 49.346 92.8979 46.9394C94.5688 44.5329 99.9374 43.968 103.836 47.8603C107.735 51.7525 107.542 58.9877 104.2 61.5877C104.2 61.5877 108.068 60.8138 108.655 63.6228C109.243 66.4317 104.385 70.6722 98.6455 71.9722C98.6455 71.9722 89.3627 69.3722 86.5933 71.0436C83.8239 72.7151 65.0881 70.8579 65.0881 70.8579C65.0881 70.8579 61.0114 67.1514 62.1253 63.8085C63.2393 60.4656 64.3532 63.9942 64.3532 63.9942C64.3532 63.9942 63.4249 59.3513 69.5361 52.6811C75.6473 46.0108 84.2184 49.7174 86.4076 49.1603Z" fill="#7F3737"/>
<path d="M177.457 148.587L190.607 149.144C190.607 149.144 190.236 150.444 188.202 150.816C186.167 151.187 178.555 152.108 178.555 152.108L177.457 148.587Z" fill="#EB7754"/>
<path d="M179.12 151.334C179.12 151.334 183.568 150.56 184.535 150.777C185.502 150.994 186.391 156.341 186.391 156.341L182.872 160.047C182.872 160.047 181.572 159.49 182.872 157.447L183.607 156.155L178.238 154.112L179.12 151.334Z" fill="#F68C6A"/>
<path d="M166.333 154.484L171.895 153.71C171.895 153.71 176.536 149.067 177.457 148.518C178.377 147.968 183.019 155.196 183.568 156.124C183.568 156.859 180.791 159.274 178.014 159.645C175.237 160.016 174.301 159.274 174.301 159.274L168.189 161.68L166.333 154.484Z" fill="#F68C6A"/>
<path d="M108.493 111.034C108.493 111.034 96.0773 110.91 96.4641 126.147C96.8508 141.383 122.765 166.199 129.828 169.163C136.891 172.126 166.905 163.97 169.497 162.485C172.088 160.999 171.353 154.7 167.277 153.199L136.489 151.682C136.489 151.682 117.203 112.272 108.493 111.034Z" fill="white"/>
<path d="M136.984 154.174C136.984 154.174 140.689 158.128 139.699 163.321" stroke="#A7CFEE" stroke-width="0.96" stroke-miterlimit="10"/>
<path d="M138.956 153.431C138.956 153.431 145.145 155.412 145.632 162.082" stroke="#A7CFEE" stroke-width="0.96" stroke-miterlimit="10"/>
<path d="M106.954 80.4686H94.1047" stroke="#505F84" stroke-width="0.93" stroke-miterlimit="10"/>
<path d="M95.6209 81.9929C95.6209 81.9929 94.7467 78.209 91.5442 79.9578C88.3416 81.7066 92.1243 90.737 94.7467 90.1566C97.3691 89.5763 96.201 83.4554 95.6209 81.9929Z" fill="#F3775B"/>
<path d="M68.8322 64.1799C68.8322 64.1799 77.7282 62.1448 84.0328 68.8228" stroke="#673237" stroke-width="0.96" stroke-miterlimit="10"/>
<path d="M70.0003 62.818C70.0003 62.818 73.8681 58.74 80.3816 60.4966" stroke="#673237" stroke-width="0.96" stroke-miterlimit="10"/>
<path d="M69.1416 65.9132C70.1049 66.0905 71.016 66.4823 71.8074 67.0596C72.5989 67.6369 73.2502 68.385 73.7134 69.2483" stroke="#673237" stroke-width="0.96" stroke-miterlimit="10"/>
<path d="M96.0773 48.2316C96.0773 48.2316 104.973 51.0173 102.939 59.1732" stroke="#673237" stroke-width="0.96" stroke-miterlimit="10"/>
</g>
<defs>
<linearGradient id="paint0_linear_79_5" x1="94.4683" y1="157.292" x2="358" y2="157.292" gradientUnits="userSpaceOnUse">
<stop stop-color="white" stop-opacity="0.2"/>
<stop offset="1" stop-color="white" stop-opacity="0.7"/>
</linearGradient>
<clipPath id="clip0_79_5">
<rect width="358" height="373" fill="white"/>
</clipPath>
</defs>
</svg>
