<svg width="60" height="60" viewBox="0 0 60 60" fill="none" xmlns="http://www.w3.org/2000/svg">
<path d="M1.875 60H47.5781V0H1.875V60ZM22.9688 17.6953H40.5469V21.2109H22.9688V17.6953ZM22.9688 31.7578H40.5469V35.2734H22.9688V31.7578ZM22.9688 45.8203H40.5469V49.3359H22.9688V45.8203ZM10.6641 13.4518L14.1797 16.9675L19.4531 11.694L21.9388 14.1797L14.1797 21.9388L8.1784 15.9375L10.6641 13.4518ZM10.6641 27.5143L14.1797 31.03L19.4531 25.7565L21.9388 28.2422L14.1797 36.0013L8.1784 30L10.6641 27.5143ZM8.1784 40.5469L10.6641 38.0612L14.1797 41.5768L17.6953 38.0612L20.181 40.5469L16.6654 44.0625L20.181 47.5781L17.6953 50.0638L14.1797 46.5482L10.6641 50.0638L8.1784 47.5781L11.694 44.0625L8.1784 40.5469Z" fill="#0658B4"/>
<path d="M52.8516 3.63281V7.14844H51.0938V28.2422H58.125V7.14844H56.3672V3.63281H52.8516Z" fill="#0658B4"/>
<path d="M51.0938 42.2497C51.0938 46.8863 52.3091 53.2206 54.606 57.2461L54.6094 57.2495V57.2461C56.9096 53.2206 58.125 46.8864 58.125 42.2497V31.7578H51.0938V42.2497Z" fill="#0658B4"/>
</svg>
