<svg width="50" height="46" viewBox="0 0 50 46" fill="none" xmlns="http://www.w3.org/2000/svg">
<path d="M49.2661 44.1379H45.8933V30.4048C45.8933 29.9995 45.5648 29.6709 45.1595 29.6709C44.7542 29.6709 44.4256 29.9995 44.4256 30.4048V44.1379H38.7102V19.9823C38.7102 19.8475 38.8199 19.7377 38.9548 19.7377H44.181C44.3159 19.7377 44.4256 19.8475 44.4256 19.9823V27.4693C44.4256 27.8746 44.7542 28.2032 45.1595 28.2032C45.5648 28.2032 45.8933 27.8746 45.8933 27.4693V19.9823C45.8933 19.0382 45.1252 18.27 44.181 18.27H38.9548C38.0107 18.27 37.2425 19.0382 37.2425 19.9823V44.138H34.848V25.3231C34.848 24.3789 34.0798 23.6107 33.1357 23.6107H27.9095C26.9653 23.6107 26.1972 24.3789 26.1972 25.3231V44.138H23.8027V30.6638C23.8027 29.7196 23.0346 28.9514 22.0904 28.9514H16.8642C15.9201 28.9514 15.1519 29.7196 15.1519 30.6638V37.0808C15.1519 37.4861 15.4804 37.8146 15.8857 37.8146C16.291 37.8146 16.6196 37.4861 16.6196 37.0808V30.6638C16.6196 30.5288 16.7294 30.4191 16.8642 30.4191H22.0904C22.2253 30.4191 22.335 30.5288 22.335 30.6638V44.1379H16.6196V40.0162C16.6196 39.6109 16.291 39.2823 15.8857 39.2823C15.4804 39.2823 15.1519 39.6109 15.1519 40.0162V44.1379H12.7574V36.0045C12.7574 35.0603 11.9893 34.2921 11.0451 34.2921H5.81898C4.87485 34.2921 4.10665 35.0603 4.10665 36.0045V44.1379H0.733855C0.328571 44.1379 0 44.4665 0 44.8718C0 45.2771 0.328571 45.6056 0.733855 45.6056H49.2661C49.6714 45.6056 50 45.2771 50 44.8718C50 44.4665 49.6714 44.1379 49.2661 44.1379ZM27.6649 25.3231C27.6649 25.1882 27.7747 25.0784 27.9095 25.0784H33.1357C33.2705 25.0784 33.3803 25.1882 33.3803 25.3231V44.138H27.6649V25.3231ZM5.57436 36.0045C5.57436 35.8696 5.68415 35.7598 5.81898 35.7598H11.0452C11.1801 35.7598 11.2898 35.8696 11.2898 36.0045V44.1379H5.57436V36.0045Z" fill="#0658B4"/>
<path d="M7.83651 25.5312C7.87673 25.5312 7.91734 25.5297 7.95804 25.527C13.3702 25.151 18.4595 23.9699 23.0849 22.0164C29.313 19.3859 34.4691 15.4207 38.4204 10.2249L40.8938 11.9447C41.381 12.308 42.1235 11.8713 42.0429 11.2688L41.0177 1.05671C40.9844 0.620602 40.5232 0.299761 40.1026 0.419819L30.1634 3.00847C29.5701 3.14233 29.419 3.99066 29.9294 4.32119L32.4254 6.05661C31.9288 6.83685 30.8347 8.38391 28.9269 10.2763C28.6392 10.5618 28.6373 11.0264 28.9227 11.314C29.2081 11.6018 29.6728 11.6037 29.9605 11.3183C32.9015 8.40094 34.0119 6.26786 34.0577 6.17853C34.2253 5.85152 34.1253 5.45094 33.8236 5.24115L32.077 4.02677L39.6431 2.05622L40.4235 9.8299L38.6755 8.61454C38.3481 8.38695 37.8992 8.46229 37.664 8.78401C33.8188 14.0453 28.7214 18.0424 22.5138 20.6642C16.9388 23.0188 11.4659 23.8119 7.85648 24.0627C7.64561 24.1167 7.58172 23.7295 7.7917 23.707C15.8323 21.2257 22.5473 17.7374 27.7501 13.3392C28.0597 13.0776 28.0985 12.6145 27.8368 12.305C27.5753 11.9956 27.1121 11.9566 26.8027 12.2184C21.7516 16.4883 15.2098 19.8818 7.35902 22.3046C6.54375 22.5561 6.06538 23.3468 6.22154 24.1846C6.36998 24.9813 7.03896 25.5312 7.83651 25.5312V25.5312Z" fill="#0658B4"/>
</svg>
