<svg width="51" height="50" viewBox="0 0 51 50" fill="none" xmlns="http://www.w3.org/2000/svg">
<path d="M48.8585 19.0573L33.2498 16.187L26.3322 2.68418C26.2646 2.55078 26.1611 2.43881 26.0335 2.36076C25.9059 2.28272 25.7591 2.24167 25.6096 2.24219H25.6034C25.4528 2.2428 25.3054 2.28549 25.1778 2.36546C25.0502 2.44543 24.9475 2.55948 24.8813 2.69473L18.0711 16.5047L2.17177 18.83C2.02625 18.8509 1.88915 18.9109 1.77515 19.0037C1.66115 19.0966 1.57453 19.2186 1.52458 19.3569C1.47462 19.4952 1.46321 19.6444 1.49157 19.7886C1.51992 19.9329 1.58697 20.0667 1.68554 20.1758L11.9769 31.5875L12.8472 30.8026L3.73818 20.702L25.8351 27.8633C25.9532 27.9017 26.0806 27.9014 26.1986 27.8625L47.3444 20.9104L33.3845 37.3781L34.2784 38.1359L49.3288 20.382C49.4215 20.2737 49.484 20.1429 49.51 20.0027C49.536 19.8626 49.5246 19.718 49.4769 19.5837C49.4292 19.4494 49.3469 19.33 49.2383 19.2376C49.1297 19.1452 48.9987 19.0831 48.8585 19.0575V19.0573ZM46.7718 19.8651L36.8117 23.1397L33.9237 17.5024L46.7718 19.8651ZM35.6849 23.5103L26.589 26.5007L26.2525 5.09873L35.6849 23.5103ZM25.4169 26.496L4.4082 19.6875L25.2619 16.6376L25.4169 26.496ZM25.0781 4.94571L25.2434 15.4557L19.4793 16.2988L25.0781 4.94571Z" fill="#0658B4"/>
<path d="M41.45 46.7315L38.2972 33.41L37.3187 34.5493L39.7578 44.7029L26.4849 26.9551C26.4311 26.8831 26.3615 26.8245 26.2814 26.7837C26.2013 26.743 26.113 26.7212 26.0231 26.72C25.9332 26.7182 25.844 26.7374 25.7628 26.7761C25.6816 26.8149 25.6106 26.8721 25.5555 26.9432L11.0965 45.2832L13.9745 24.0194L12.8417 23.6523L9.70352 46.8377C9.68389 46.9829 9.70399 47.1308 9.76167 47.2655C9.81934 47.4003 9.91245 47.5169 10.0311 47.603C10.1497 47.6891 10.2895 47.7414 10.4355 47.7544C10.5815 47.7674 10.7283 47.7407 10.8603 47.6769L25.6439 40.553L40.307 47.6509C40.4452 47.7187 40.5999 47.7454 40.7529 47.728C40.9058 47.7106 41.0505 47.6497 41.1699 47.5525C41.2902 47.4568 41.3805 47.3286 41.4302 47.183C41.4798 47.0375 41.4867 46.8808 41.45 46.7315V46.7315ZM12.2578 45.7024L18.8936 37.2855L24.2969 39.9011L12.2578 45.7024ZM19.6365 36.3433L26.003 28.2679L39.0814 45.7557L19.6365 36.3433Z" fill="#0658B4"/>
</svg>
