<svg width="50" height="50" viewBox="0 0 50 50" fill="none" xmlns="http://www.w3.org/2000/svg">
<path d="M42.9244 29.6862C43.9007 30.6621 45.4832 30.6621 46.4599 29.6862L49.2675 26.879C49.7363 26.4101 50 25.7741 50 25.111C50 24.4476 49.7363 23.8116 49.2675 23.3427L40.0039 14.0783C39.535 13.6095 38.899 13.3458 38.2359 13.3458C37.5725 13.3458 36.9365 13.6095 36.4676 14.0783L32.4815 18.0648L30.5446 20.0014L30.461 20.0849C28.867 18.7599 26.5272 18.8641 25.0572 20.3249L24.6562 20.7251C24.6044 20.6824 24.5528 20.6274 24.5013 20.5916C23.0787 19.5519 21.1467 19.5519 19.724 20.5916C19.6706 20.6282 19.6149 20.6873 19.5573 20.7301L14.9459 16.1187C14.9211 16.0996 14.8951 16.0824 14.8684 16.0668L13.5289 14.7277C12.5397 13.7827 10.9823 13.7827 9.99267 14.7277L0.732511 23.9878C0.263628 24.4567 0 25.0927 0 25.7558C0 26.4192 0.263628 27.0552 0.732511 27.5241L3.53932 30.3328C4.51715 31.3065 6.09815 31.3065 7.0756 30.3328L7.24232 30.1661L13.1749 36.096C13.1547 36.1143 13.1314 36.1269 13.1123 36.146C12.0746 37.1849 12.0746 38.8681 13.1123 39.9074C13.5934 40.3892 14.2424 40.6662 14.9234 40.6799C14.9516 42.095 16.092 43.2353 17.507 43.2636C17.5345 44.679 18.6752 45.8197 20.0906 45.8472C20.1192 47.1863 21.1417 48.2939 22.4743 48.4289C23.8066 48.5643 25.0309 47.685 25.3281 46.379C25.549 46.4389 25.7767 46.471 26.0057 46.4748C26.6939 46.4824 27.357 46.2131 27.8446 45.7274C28.3325 45.2413 28.6045 44.5798 28.5992 43.8912C29.2867 43.8992 29.9486 43.6294 30.4347 43.143C30.9211 42.6569 31.1908 41.995 31.1828 41.3075C31.8665 41.3152 32.5246 41.0489 33.0099 40.5678C33.4956 40.0863 33.768 39.4308 33.7665 38.7472C34.494 38.7395 35.1861 38.4317 35.6786 37.896C36.1712 37.3604 36.4203 36.645 36.3669 35.9194L42.7641 29.5217L42.9244 29.6862ZM37.6427 15.2603C37.7991 15.1035 38.0112 15.0157 38.2325 15.0157C38.4538 15.0157 38.6659 15.1035 38.8219 15.2603L48.089 24.522C48.414 24.8474 48.414 25.3743 48.089 25.6997L45.2802 28.5084C44.951 28.8232 44.4321 28.8232 44.1029 28.5084L34.2491 18.6539L37.6427 15.2603ZM4.72202 29.1536L1.91101 26.3448C1.75459 26.1884 1.66646 25.9763 1.66646 25.755C1.66646 25.5337 1.75459 25.3216 1.91101 25.1656L11.1746 15.9027C11.5 15.5773 12.0277 15.5773 12.3531 15.9027L15.7509 19.2998L6.65669 28.3943L5.899 29.1517C5.57395 29.4763 5.04784 29.4771 4.72202 29.1536ZM14.295 37.3211C14.6826 36.9334 15.3114 36.9338 15.699 37.3214C16.0866 37.7094 16.0862 38.3378 15.6986 38.7254C15.3057 39.1005 14.6876 39.1005 14.295 38.7254C13.907 38.3382 13.9051 37.7106 14.2908 37.3211H14.295ZM16.8787 39.9047C17.267 39.5182 17.8946 39.5182 18.283 39.9047C18.4692 40.0909 18.5737 40.3434 18.5737 40.6067C18.5737 40.8699 18.4692 41.1221 18.283 41.3083C17.8897 41.6829 17.2716 41.6829 16.8787 41.3083C16.4903 40.9214 16.4876 40.2938 16.8729 39.9039L16.8787 39.9047ZM19.4623 42.4883C19.8507 42.1018 20.4783 42.1018 20.8666 42.4883C21.0528 42.6745 21.1574 42.9271 21.1574 43.1903C21.1574 43.4536 21.0528 43.7057 20.8666 43.8919C20.4737 44.2669 19.8552 44.2669 19.4623 43.8919C19.0727 43.5054 19.0697 42.8767 19.4554 42.4868L19.4623 42.4883ZM23.4487 46.4748C23.0607 46.862 22.4324 46.862 22.0451 46.4744C21.6575 46.0868 21.6575 45.4584 22.0451 45.0708C22.4324 44.6832 23.0607 44.6828 23.4487 45.0704C23.6353 45.2562 23.7402 45.5088 23.7402 45.772C23.7402 46.0357 23.6353 46.2882 23.4487 46.474V46.4748ZM34.425 36.7904C34.0316 37.165 33.4136 37.165 33.0206 36.7904L27.8533 31.6227C27.6427 31.4125 27.3356 31.3301 27.048 31.4076C26.7603 31.4846 26.5356 31.7093 26.4589 31.997C26.3818 32.2847 26.4642 32.5918 26.6748 32.8024L31.7536 37.8811C31.9672 38.0898 32.0924 38.3721 32.1038 38.6705C32.1179 38.9307 32.0218 39.1844 31.8394 39.3706C31.4037 39.7555 30.7395 39.7181 30.3492 39.287L25.2712 34.2083C25.0622 33.9916 24.752 33.9046 24.4609 33.9809C24.1694 34.0572 23.9417 34.285 23.8654 34.5761C23.7894 34.8675 23.876 35.1773 24.0927 35.3868L29.1669 40.4632C29.3798 40.6723 29.5049 40.955 29.5168 41.2534C29.5309 41.5132 29.4355 41.7673 29.2535 41.9534C28.8178 42.3388 28.1532 42.3014 27.7633 41.8699L22.6842 36.7911C22.3572 36.4752 21.8376 36.4798 21.516 36.8011C21.1944 37.1227 21.1902 37.6427 21.5057 37.9696L26.5848 43.0484C26.8892 43.2868 27.0289 43.679 26.9442 44.056C26.8591 44.4329 26.5646 44.7274 26.1876 44.8121C25.8107 44.8965 25.4185 44.7564 25.1804 44.452L24.6177 43.8904C24.1362 43.4104 23.488 43.1346 22.8086 43.1201C22.7948 42.4391 22.5178 41.7898 22.036 41.3083C21.5537 40.8283 20.9056 40.5529 20.2257 40.538C20.212 39.857 19.9354 39.2077 19.4531 38.7262C18.9705 38.2455 18.3215 37.9689 17.6405 37.9544C17.631 37.2364 17.3243 36.5538 16.7932 36.0701C16.2621 35.5867 15.5544 35.3448 14.8383 35.4024L8.42082 28.9849L16.942 20.4649L18.9739 22.4976C18.9945 22.5129 19.0163 22.5274 19.0388 22.54C19.056 22.5602 19.0739 22.5789 19.093 22.5968C19.1201 22.6098 19.1479 22.6212 19.1765 22.6312C19.2257 22.6583 19.2776 22.68 19.3314 22.696C19.3806 22.7105 19.431 22.7204 19.4821 22.7262C19.5107 22.7262 19.5363 22.7418 19.5657 22.7418C19.5947 22.7418 19.6172 22.7292 19.6431 22.7269C19.695 22.722 19.7465 22.712 19.7965 22.6968C19.8465 22.6823 19.8953 22.6628 19.9415 22.6384C19.9914 22.6132 20.0384 22.582 20.0815 22.5461C20.1067 22.5312 20.1311 22.5152 20.1547 22.4976C20.1704 22.4767 20.1845 22.4553 20.1975 22.4328C20.215 22.4118 20.2383 22.4 20.2539 22.3775C20.3089 22.3 20.3707 22.2279 20.439 22.1619C20.5179 22.081 20.6042 22.0078 20.6965 21.9433C21.5194 21.3386 22.6357 21.3252 23.4728 21.9101L19.5706 25.813C18.5367 26.8534 18.5367 28.5332 19.5706 29.5736C20.6106 30.6075 22.2908 30.6075 23.3312 29.5736L25.9698 26.9347L34.4208 35.386C34.8061 35.7744 34.8049 36.4012 34.4181 36.7885L34.425 36.7904ZM35.6534 34.2624L35.5985 34.2083L31.1245 29.7354L28.5275 27.1365C29.3702 27.0117 30.1508 26.6211 30.7563 26.0213C30.9013 25.8786 31.0329 25.7226 31.1496 25.5555C31.4026 25.1759 31.3034 24.6631 30.9272 24.4056C30.5507 24.1477 30.0368 24.2404 29.7743 24.6139C29.7151 24.6959 29.6488 24.773 29.5759 24.844C28.7446 25.6711 27.4325 25.7646 26.4921 25.0637C26.2491 24.8844 25.9274 24.8524 25.6539 24.9805C25.5814 25.0149 25.5143 25.0599 25.4547 25.1137C25.4277 25.1297 25.4013 25.1473 25.3762 25.1663L22.1508 28.3951C21.7571 28.7675 21.1409 28.7675 20.7472 28.3951C20.5576 28.207 20.4542 27.9487 20.4615 27.6817C20.4588 27.4219 20.5622 27.1724 20.7472 26.9908L25.1087 22.63C25.1213 22.622 25.1362 22.6193 25.1488 22.6102C25.2434 22.5442 25.3231 22.4591 25.383 22.3603L26.2357 21.5076C27.159 20.5874 28.6526 20.5874 29.5759 21.5076C29.6484 21.5793 29.7148 21.6568 29.7743 21.7392C29.7987 21.7708 29.825 21.8006 29.8536 21.8285C29.862 21.8376 29.8643 21.8491 29.8727 21.8575C29.8811 21.8658 29.8834 21.8636 29.8883 21.8678C29.9582 21.9345 30.039 21.9883 30.1276 22.0268C30.1459 22.0352 30.1634 22.041 30.1829 22.0474C30.2718 22.081 30.366 22.0993 30.461 22.1016C30.5571 22.1001 30.6521 22.0814 30.7418 22.0467C30.7704 22.0352 30.7983 22.0223 30.8254 22.0078C30.8624 21.9933 30.8978 21.9761 30.9318 21.9559C30.9543 21.941 30.9661 21.9177 30.986 21.9009C31.0062 21.8842 31.0321 21.8769 31.0512 21.8575L33.0706 19.8388L41.5765 28.339L35.6534 34.2624Z" fill="#0658B4"/>
<path d="M5.95394 25.1106C5.69222 24.8466 5.29735 24.7668 4.95399 24.908C4.61024 25.0496 4.38629 25.3845 4.38629 25.7557C4.38629 26.1273 4.61024 26.4623 4.95399 26.6035C5.29735 26.745 5.69222 26.6653 5.95394 26.4013C6.30837 26.0442 6.30837 25.4677 5.95394 25.1106V25.1106Z" fill="#0658B4"/>
<path d="M45.3378 25.7565C45.6018 25.4948 45.6816 25.0999 45.54 24.7562C45.3985 24.4128 45.0639 24.1885 44.6923 24.1885C44.3207 24.1885 43.9861 24.4128 43.8446 24.7562C43.703 25.0999 43.7832 25.4948 44.0468 25.7565C44.4043 26.1106 44.9803 26.1106 45.3378 25.7565Z" fill="#0658B4"/>
<path d="M13.3065 11.7598C13.7666 11.7598 14.1397 11.3863 14.1397 10.9262V0.925165C14.1397 0.464675 13.7666 0.0915527 13.3065 0.0915527C12.846 0.0915527 12.4729 0.464675 12.4729 0.925165V5.09208H8.30599V0.925165C8.30599 0.464675 7.93286 0.0915527 7.47238 0.0915527C7.01227 0.0915527 6.63914 0.464675 6.63914 0.925165V10.9262C6.63914 11.3863 7.01227 11.7598 7.47238 11.7598C7.93286 11.7598 8.30599 11.3863 8.30599 10.9262V6.75893H12.4729V10.9262C12.4729 11.3863 12.846 11.7598 13.3065 11.7598Z" fill="#0658B4"/>
<path d="M34.1422 1.7584C34.6027 1.7584 34.9758 1.38527 34.9758 0.925165C34.9758 0.464675 34.6027 0.0915527 34.1422 0.0915527H28.3085C27.848 0.0915527 27.4749 0.464675 27.4749 0.925165V10.9262C27.4749 11.3863 27.848 11.7598 28.3085 11.7598H34.1422C34.6027 11.7598 34.9758 11.3863 34.9758 10.9262C34.9758 10.4657 34.6027 10.0926 34.1422 10.0926H29.1417V6.75893H34.1422C34.6027 6.75893 34.9758 6.38581 34.9758 5.9257C34.9758 5.46521 34.6027 5.09208 34.1422 5.09208H29.1417V1.7584H34.1422Z" fill="#0658B4"/>
<path d="M26.6413 3.42524C26.6413 1.58404 25.1488 0.0915527 23.3076 0.0915527H19.9739C19.5138 0.0915527 19.1407 0.464675 19.1407 0.925165V10.9262C19.1407 11.3863 19.5138 11.7598 19.9739 11.7598C20.4344 11.7598 20.8075 11.3863 20.8075 10.9262V6.75893H22.7925L25.0622 11.2986C25.1953 11.5653 25.4605 11.7404 25.7577 11.7583C26.0549 11.7766 26.3395 11.6343 26.5035 11.386C26.668 11.1376 26.6871 10.8202 26.5539 10.5535L24.5361 6.51819C25.805 6.01535 26.639 4.78992 26.6413 3.42524V3.42524ZM23.3076 5.09208H20.8075V1.7584H23.3076C24.2282 1.7584 24.9744 2.50464 24.9744 3.42524C24.9744 4.34584 24.2282 5.09208 23.3076 5.09208Z" fill="#0658B4"/>
<path d="M15.807 0.925165V10.9262C15.807 11.3863 16.1801 11.7598 16.6402 11.7598C17.1007 11.7598 17.4738 11.3863 17.4738 10.9262V0.925165C17.4738 0.464675 17.1007 0.0915527 16.6402 0.0915527C16.1801 0.0915527 15.807 0.464675 15.807 0.925165Z" fill="#0658B4"/>
<path d="M36.6427 0.0915527C36.1822 0.0915527 35.8091 0.464675 35.8091 0.925165V10.9262C35.8091 11.3863 36.1822 11.7598 36.6427 11.7598H39.1428C41.4433 11.7568 43.3074 9.8927 43.3101 7.59254V4.25885C43.3074 1.95831 41.4433 0.0942234 39.1428 0.0915527H36.6427ZM41.6432 4.25885V7.59254C41.6432 8.97325 40.5239 10.0926 39.1428 10.0926H37.4759V1.7584H39.1428C40.5239 1.7584 41.6432 2.87776 41.6432 4.25885Z" fill="#0658B4"/>
</svg>
