<svg xmlns="http://www.w3.org/2000/svg" version="1.1" xmlns:xlink="http://www.w3.org/1999/xlink" xmlns:svgjs="http://svgjs.com/svgjs" width="512" height="512" x="0" y="0" viewBox="0 0 511.93787 511" style="enable-background:new 0 0 512 512" xml:space="preserve" class=""><g><path xmlns="http://www.w3.org/2000/svg" d="m439.492188 303.480469c9.996093 9.992187 26.199218 9.992187 36.199218 0l28.746094-28.742188c4.800781-4.800781 7.5-11.3125 7.5-18.101562 0-6.792969-2.699219-13.304688-7.5-18.105469l-94.847656-94.855469c-4.800782-4.800781-11.3125-7.5-18.101563-7.5-6.792969 0-13.304687 2.699219-18.105469 7.5l-40.8125 40.816407-19.832031 19.828124-.855469.855469c-16.320312-13.566406-40.277343-12.5-55.328124 2.457031l-4.105469 4.097657c-.53125-.4375-1.058594-1-1.585938-1.367188-14.566406-10.644531-34.347656-10.644531-48.914062 0-.546875.375-1.117188.980469-1.707031 1.417969l-47.214844-47.214844c-.253906-.195312-.519532-.371094-.792969-.53125l-13.714844-13.710937c-10.128906-9.675781-26.074219-9.675781-36.207031 0l-94.8125 94.8125c-4.800781 4.800781-7.5 11.3125-7.5 18.101562 0 6.792969 2.699219 13.304688 7.5 18.105469l28.738281 28.757812c10.011719 9.96875 26.199219 9.96875 36.207031 0l1.707032-1.707031 60.742187 60.714844c-.207031.1875-.445312.316406-.640625.511719-10.625 10.636718-10.625 27.871094 0 38.511718 4.925782 4.933594 11.570313 7.769532 18.542969 7.910157.289063 14.488281 11.964844 26.164062 26.453125 26.453125.28125 14.492187 11.960938 26.171875 26.453125 26.453125.292969 13.710937 10.761719 25.050781 24.40625 26.433593 13.640625 1.386719 26.175781-7.617187 29.21875-20.988281 2.261719.613281 4.59375.941407 6.9375.980469 7.046875.078125 13.835937-2.679688 18.828125-7.652344 4.996094-4.976562 7.78125-11.75 7.726562-18.800781 7.039063.082031 13.816407-2.679687 18.792969-7.660156 4.980469-4.976563 7.742188-11.753907 7.660157-18.792969 7 .078125 13.738281-2.648438 18.707031-7.574219 4.972656-4.929687 7.761719-11.640625 7.746093-18.640625 7.449219-.078125 14.535157-3.230468 19.578126-8.714844 5.042968-5.484374 7.59375-12.808593 7.046874-20.238281l65.5-65.503906zm-54.078126-147.703125c1.601563-1.605469 3.773438-2.503906 6.039063-2.503906s4.4375.898437 6.035156 2.503906l94.882813 94.828125c3.328125 3.332031 3.328125 8.726562 0 12.058593l-28.757813 28.757813c-3.371093 3.222656-8.683593 3.222656-12.054687 0l-100.890625-100.898437zm-337.066406 142.25-28.78125-28.757813c-1.601562-1.601562-2.503906-3.773437-2.503906-6.039062s.902344-4.4375 2.503906-6.035157l94.847656-94.839843c3.332032-3.332031 8.734376-3.332031 12.066407 0l34.789062 34.78125-93.113281 93.117187-7.757812 7.753906c-3.328126 3.324219-8.714844 3.332032-12.050782.019532zm98.015625 83.625c3.96875-3.96875 10.40625-3.964844 14.375.003906 3.96875 3.972656 3.964844 10.40625-.003906 14.375-4.023437 3.839844-10.351563 3.839844-14.371094 0-3.972656-3.964844-3.992187-10.390625-.042969-14.378906zm26.453125 26.453125c3.976563-3.957031 10.402344-3.957031 14.378906 0 1.90625 1.90625 2.976563 4.492187 2.976563 7.1875 0 2.695312-1.070313 5.277343-2.976563 7.183593-4.027343 3.835938-10.355468 3.835938-14.378906 0-3.976562-3.960937-4.003906-10.386718-.058594-14.378906zm26.453125 26.453125c3.976563-3.957032 10.402344-3.957032 14.378907 0 1.90625 1.90625 2.976562 4.492187 2.976562 7.1875 0 2.695312-1.070312 5.277344-2.976562 7.183594-4.023438 3.839843-10.355469 3.839843-14.378907 0-3.988281-3.957032-4.019531-10.394532-.070312-14.386719zm40.816407 40.816406c-3.972657 3.964844-10.40625 3.964844-14.371094-.003906-3.96875-3.96875-3.96875-10.402344 0-14.371094 3.964844-3.96875 10.398437-3.972656 14.371094-.003906 1.910156 1.902344 2.984374 4.488281 2.984374 7.183594 0 2.699218-1.074218 5.285156-2.984374 7.1875zm112.382812-99.15625c-4.027344 3.835938-10.355469 3.835938-14.378906 0l-52.90625-52.910156c-2.15625-2.152344-5.300782-2.996094-8.246094-2.203125-2.945312.789062-5.246094 3.089843-6.03125 6.035156-.789062 2.945313.054688 6.089844 2.210938 8.246094l52 52c2.1875 2.136719 3.46875 5.027343 3.585937 8.082031.144531 2.664062-.839844 5.261719-2.707031 7.167969-4.460938 3.941406-11.261719 3.558593-15.257813-.855469l-51.992187-52c-2.140625-2.21875-5.316406-3.109375-8.296875-2.328125-2.984375.78125-5.316407 3.113281-6.097657 6.09375-.777343 2.984375.109376 6.15625 2.328126 8.300781l51.953124 51.976563c2.179688 2.140625 3.460938 5.035156 3.582032 8.089843.144531 2.660157-.832032 5.261719-2.695313 7.167969-4.460937 3.945313-11.265625 3.5625-15.257812-.855469l-52.003907-52c-3.347656-3.234374-8.667968-3.1875-11.960937.101563-3.292969 3.292969-3.335937 8.617187-.105469 11.964844l52.003906 52c3.117188 2.441406 4.546876 6.457031 3.679688 10.316406-.871094 3.859375-3.886719 6.875-7.746094 7.742187-3.859375.863282-7.875-.570312-10.3125-3.6875l-5.761718-5.75c-4.929688-4.914062-11.566407-7.738281-18.523438-7.886718-.140625-6.972656-2.976562-13.621094-7.910156-18.550782-4.9375-4.914062-11.574219-7.734374-18.535156-7.886718-.140626-6.972656-2.972657-13.621094-7.910157-18.550782-4.941406-4.921874-11.585937-7.753906-18.558593-7.902343-.097657-7.351563-3.238282-14.339844-8.675782-19.292969-5.4375-4.949219-12.683594-7.425781-20.015625-6.835938l-65.707031-65.707031 87.246094-87.234375 20.804687 20.8125c.210938.15625.433594.304688.664063.433594.175781.207031.359375.398438.554687.582031.277344.132813.5625.25.855469.351563.503906.277344 1.035156.5 1.585938.664062.503906.148438 1.019531.25 1.542968.308594.292969 0 .554688.160156.855469.160156.296875 0 .527344-.128906.792969-.152344.53125-.050781 1.058594-.152343 1.570312-.308593.511719-.148438 1.011719-.347657 1.484375-.597657.511719-.257812.992188-.578124 1.433594-.945312.257813-.152344.507813-.316406.75-.496094.160156-.214844.304687-.433594.4375-.664062.179687-.214844.417969-.335938.578125-.566406.5625-.792969 1.195312-1.53125 1.894531-2.207032.808594-.828125 1.691407-1.578125 2.636719-2.238281 8.425781-6.191406 19.855469-6.328125 28.425781-.339844l-39.953125 39.960938c-10.585937 10.652343-10.585937 27.851562 0 38.503906 10.648438 10.585937 27.851563 10.585937 38.503906 0l27.015626-27.019531 86.527343 86.53125c3.945313 3.976562 3.933594 10.394531-.027343 14.359375zm12.578125-25.882812-.5625-.554688-45.808594-45.796875-26.589843-26.609375c8.628906-1.277344 16.621093-5.277344 22.820312-11.417969 1.484375-1.460937 2.832031-3.058593 4.027344-4.769531 2.589844-3.886719 1.574218-9.136719-2.277344-11.773438-3.855469-2.640624-9.117188-1.691406-11.804688 2.132813-.605468.839844-1.285156 1.628906-2.03125 2.355469-8.511718 8.46875-21.945312 9.425781-31.574218 2.25-2.488282-1.835938-5.78125-2.164063-8.582032-.851563-.742187.351563-1.429687.8125-2.039062 1.363281-.277344.164063-.546875.34375-.804688.539063l-33.023437 33.058594c-4.03125 3.8125-10.339844 3.8125-14.371094 0-1.941406-1.925781-3-4.570313-2.925781-7.304688-.027344-2.660156 1.03125-5.214843 2.925781-7.074219l44.65625-44.648437c.128907-.082031.28125-.109375.410157-.203125.96875-.675781 1.785156-1.546875 2.398437-2.558594l8.730469-8.730468c9.453125-9.421876 24.746094-9.421876 34.199218 0 .742188.734374 1.421876 1.527343 2.03125 2.371093.25.324219.519532.628907.8125.914063.085938.09375.109376.210937.195313.296875.085937.085937.109375.0625.160156.105469.714844.683593 1.542969 1.234374 2.449219 1.628906.1875.085937.367188.144531.566406.210937.910156.34375 1.875.53125 2.847656.554688.984376-.015625 1.957032-.207031 2.875-.5625.292969-.117188.578126-.25.855469-.398438.378907-.148437.742188-.324219 1.089844-.53125.230469-.152343.351563-.390625.554687-.5625.207032-.171875.472657-.246093.667969-.445312l20.675781-20.667969 87.089844 87.03125zm0 0" fill="#000000" data-original="#000000" class=""></path><path xmlns="http://www.w3.org/2000/svg" d="m60.960938 256.632812c-2.679688-2.703124-6.722657-3.519531-10.238282-2.074218-3.519531 1.449218-5.8125 4.878906-5.8125 8.679687 0 3.804688 2.292969 7.234375 5.8125 8.679688 3.515625 1.449219 7.558594.632812 10.238282-2.070313 3.628906-3.65625 3.628906-9.558594 0-13.214844zm0 0" fill="#000000" data-original="#000000" class=""></path><path xmlns="http://www.w3.org/2000/svg" d="m464.203125 263.246094c2.703125-2.679688 3.519531-6.722656 2.070313-10.242188-1.449219-3.515625-4.875-5.8125-8.679688-5.8125s-7.230469 2.296875-8.679688 5.8125c-1.449218 3.519532-.628906 7.5625 2.070313 10.242188 3.660156 3.625 9.558594 3.625 13.21875 0zm0 0" fill="#000000" data-original="#000000" class=""></path><path xmlns="http://www.w3.org/2000/svg" d="m136.242188 119.9375c4.710937 0 8.53125-3.824219 8.53125-8.535156v-102.398438c0-4.714844-3.820313-8.535156-8.53125-8.535156-4.714844 0-8.535157 3.820312-8.535157 8.535156v42.664063h-42.664062v-42.664063c0-4.714844-3.820313-8.535156-8.535157-8.535156-4.710937 0-8.53125 3.820312-8.53125 8.535156v102.398438c0 4.710937 3.820313 8.535156 8.53125 8.535156 4.714844 0 8.535157-3.824219 8.535157-8.535156v-42.667969h42.664062v42.667969c0 4.710937 3.820313 8.535156 8.535157 8.535156zm0 0" fill="#000000" data-original="#000000" class=""></path><path xmlns="http://www.w3.org/2000/svg" d="m349.574219 17.535156c4.714843 0 8.535156-3.820312 8.535156-8.53125 0-4.714844-3.820313-8.535156-8.535156-8.535156h-59.730469c-4.714844 0-8.535156 3.820312-8.535156 8.535156v102.398438c0 4.710937 3.820312 8.535156 8.535156 8.535156h59.730469c4.714843 0 8.535156-3.824219 8.535156-8.535156 0-4.714844-3.820313-8.535156-8.535156-8.535156h-51.199219v-34.132813h51.199219c4.714843 0 8.535156-3.820313 8.535156-8.53125 0-4.714844-3.820313-8.535156-8.535156-8.535156h-51.199219v-34.132813zm0 0" fill="#000000" data-original="#000000" class=""></path><path xmlns="http://www.w3.org/2000/svg" d="m272.773438 34.601562c0-18.851562-15.28125-34.132812-34.132813-34.132812h-34.132813c-4.710937 0-8.53125 3.820312-8.53125 8.535156v102.398438c0 4.710937 3.820313 8.535156 8.53125 8.535156 4.714844 0 8.535157-3.824219 8.535157-8.535156v-42.667969h20.324219l23.238281 46.480469c1.363281 2.730468 4.078125 4.523437 7.121093 4.707031 3.042969.1875 5.957032-1.269531 7.636719-3.8125 1.683594-2.542969 1.878907-5.792969.515625-8.523437l-20.660156-41.316407c12.992188-5.148437 21.53125-17.695312 21.554688-31.667969zm-34.132813 17.066407h-25.597656v-34.132813h25.597656c9.425781 0 17.066406 7.640625 17.066406 17.066406 0 9.425782-7.640625 17.066407-17.066406 17.066407zm0 0" fill="#000000" data-original="#000000" class=""></path><path xmlns="http://www.w3.org/2000/svg" d="m161.84375 9.003906v102.398438c0 4.710937 3.820312 8.535156 8.53125 8.535156 4.714844 0 8.535156-3.824219 8.535156-8.535156v-102.398438c0-4.714844-3.820312-8.535156-8.535156-8.535156-4.710938 0-8.53125 3.820312-8.53125 8.535156zm0 0" fill="#000000" data-original="#000000" class=""></path><path xmlns="http://www.w3.org/2000/svg" d="m375.175781.46875c-4.714843 0-8.535156 3.820312-8.535156 8.535156v102.398438c0 4.710937 3.820313 8.535156 8.535156 8.535156h25.597657c23.554687-.03125 42.640624-19.117188 42.667968-42.667969v-34.132812c-.027344-23.554688-19.113281-42.640625-42.667968-42.667969zm51.199219 42.667969v34.132812c0 14.136719-11.460938 25.597657-25.601562 25.597657h-17.066407v-85.332032h17.066407c14.140624 0 25.601562 11.460938 25.601562 25.601563zm0 0" fill="#000000" data-original="#000000" class=""></path></g></svg>