<svg width="60" height="60" viewBox="0 0 60 60" fill="none" xmlns="http://www.w3.org/2000/svg">
<path d="M18.2812 12.8906C21.8409 12.8906 24.7266 10.005 24.7266 6.44531C24.7266 2.88566 21.8409 0 18.2812 0C14.7216 0 11.8359 2.88566 11.8359 6.44531C11.8359 10.005 14.7216 12.8906 18.2812 12.8906Z" fill="#0658B4"/>
<path d="M36.1571 35.7422H34.8061C34.8075 36.2638 34.8086 36.7657 34.8086 37.03C34.8086 37.3355 34.8104 37.8243 34.8128 38.3218C35.3248 38.3194 35.8329 38.3176 36.1571 38.3176C36.9486 38.3176 37.6172 37.7279 37.6172 37.03C37.6172 36.3319 36.9485 35.7422 36.1571 35.7422Z" fill="#0658B4"/>
<path d="M58.2422 26.9531H1.75781C0.787031 26.9531 0 27.7402 0 28.7109V50.9766C0 51.9473 0.787031 52.7344 1.75781 52.7344H58.2422C59.213 52.7344 60 51.9473 60 50.9766V28.7109C60 27.7402 59.213 26.9531 58.2422 26.9531ZM28.1486 45.7031C28.1486 46.6739 27.3615 47.4609 26.3907 47.4609C25.42 47.4609 24.6329 46.6739 24.6329 45.7031V41.4006H20.0391V45.7031C20.0391 46.6739 19.252 47.4609 18.2812 47.4609C17.3105 47.4609 16.5234 46.6739 16.5234 45.7031V33.9844C16.5234 33.0136 17.3105 32.2266 18.2812 32.2266C19.252 32.2266 20.0391 33.0136 20.0391 33.9844V37.885H24.6329V33.9844C24.6329 33.0136 25.42 32.2266 26.3907 32.2266C27.3615 32.2266 28.1486 33.0136 28.1486 33.9844V45.7031ZM40.6945 44.5418C41.3359 45.2706 41.2651 46.3813 40.5363 47.0227C39.8075 47.664 38.6968 47.5932 38.0555 46.8645L34.797 43.1623V45.7031C34.797 46.6739 34.0099 47.4609 33.0391 47.4609C32.0684 47.4609 31.2813 46.6739 31.2813 45.7031V33.9844C31.2813 33.0136 32.0684 32.2266 33.0391 32.2266C33.0397 32.2266 33.0404 32.2267 33.041 32.2267C33.0416 32.2267 33.0423 32.2266 33.0429 32.2266H36.157C38.9007 32.2266 41.1328 34.3814 41.1328 37.03C41.1328 39.0476 39.8367 40.7775 38.0066 41.4878L40.6945 44.5418Z" fill="#0658B4"/>
<path d="M30.5859 23.4375V21.6797C30.5859 18.0327 28.6146 14.8389 25.6827 13.1033C23.8581 15.1296 21.2162 16.4062 18.2812 16.4062C15.3463 16.4062 12.7044 15.1296 10.8798 13.1033C7.94789 14.8389 5.97656 18.0327 5.97656 21.6797V23.4375H30.5859Z" fill="#0658B4"/>
<path d="M52.5182 23.4375L56.2414 14.1294C56.7033 12.9748 55.853 11.7188 54.6094 11.7188H41.7187C40.9999 11.7188 40.3536 12.1563 40.0867 12.8237L35.8412 23.4375H52.5182Z" fill="#0658B4"/>
<path d="M7.14844 60H10.6641C11.6348 60 12.4219 59.213 12.4219 58.2422V56.25H5.39062V58.2422C5.39062 59.213 6.17766 60 7.14844 60Z" fill="#0658B4"/>
<path d="M49.3359 60H52.8516C53.8223 60 54.6094 59.213 54.6094 58.2422V56.25H47.5781V58.2422C47.5781 59.213 48.3652 60 49.3359 60Z" fill="#0658B4"/>
</svg>
