<svg xmlns="http://www.w3.org/2000/svg" version="1.1" xmlns:xlink="http://www.w3.org/1999/xlink" xmlns:svgjs="http://svgjs.com/svgjs" width="512" height="512" x="0" y="0" viewBox="0 0 512 512" style="enable-background:new 0 0 512 512" xml:space="preserve" class=""><g><g xmlns="http://www.w3.org/2000/svg"><circle cx="156" cy="55" r="55" fill="#000000" data-original="#000000" class=""></circle><g><path d="m308.541 305h-11.529c.012 4.451.021 8.734.021 10.989 0 2.607.016 6.778.036 11.024 4.369-.021 8.705-.036 11.472-.036 6.754 0 12.459-5.032 12.459-10.988 0-5.957-5.706-10.989-12.459-10.989z" fill="#000000" data-original="#000000" class=""></path><path d="m497 230h-482c-8.284 0-15 6.716-15 15v190c0 8.284 6.716 15 15 15h482c8.284 0 15-6.716 15-15v-190c0-8.284-6.716-15-15-15zm-256.799 160c0 8.284-6.716 15-15 15s-15-6.716-15-15v-36.715h-39.201v36.715c0 8.284-6.716 15-15 15s-15-6.716-15-15v-100c0-8.284 6.716-15 15-15s15 6.716 15 15v33.285h39.201v-33.285c0-8.284 6.716-15 15-15s15 6.716 15 15zm107.059-9.91c5.473 6.219 4.869 15.697-1.35 21.17-6.219 5.473-15.697 4.869-21.17-1.35l-27.806-31.592v21.682c0 8.284-6.716 15-15 15s-15-6.716-15-15v-100c0-8.284 6.716-15 15-15 .005 0 .011.001.016.001s.011-.001.016-.001h26.574c23.413 0 42.46 18.388 42.46 40.989 0 17.217-11.06 31.979-26.677 38.04z" fill="#000000" data-original="#000000" class=""></path></g><path d="m261 200v-15c0-31.121-16.822-58.375-41.841-73.185-15.57 17.291-38.114 28.185-63.159 28.185s-47.589-10.894-63.159-28.185c-25.019 14.81-41.841 42.064-41.841 73.185v15z" fill="#000000" data-original="#000000" class=""></path><path d="m448.155 200 31.772-79.429c3.941-9.853-3.315-20.571-13.927-20.571h-110c-6.134 0-11.649 3.734-13.927 9.429l-36.228 90.571z" fill="#000000" data-original="#000000" class=""></path><g><path d="m61 512h30c8.284 0 15-6.716 15-15v-17h-60v17c0 8.284 6.716 15 15 15z" fill="#000000" data-original="#000000" class=""></path><path d="m421 512h30c8.284 0 15-6.716 15-15v-17h-60v17c0 8.284 6.716 15 15 15z" fill="#000000" data-original="#000000" class=""></path></g></g></g></svg>