<svg width="24" height="24" viewBox="0 0 24 24" fill="none" xmlns="http://www.w3.org/2000/svg">
<path fill-rule="evenodd" clip-rule="evenodd" d="M17.3716 7.93622C17.2612 7.63702 17.085 7.36621 16.8561 7.14392C16.6339 6.91504 16.3632 6.73889 16.0638 6.62848C15.821 6.53418 15.4563 6.42194 14.7845 6.39136C14.0577 6.35822 13.8398 6.35107 12 6.35107C10.16 6.35107 9.94208 6.35803 9.21552 6.39117C8.5437 6.42194 8.17877 6.53418 7.93616 6.62848C7.63678 6.73889 7.36597 6.91504 7.14386 7.14392C6.91498 7.36621 6.73883 7.63684 6.62823 7.93622C6.53394 8.17902 6.42169 8.54395 6.39111 9.21576C6.35797 9.94232 6.35083 10.1602 6.35083 12.0002C6.35083 13.8401 6.35797 14.058 6.39111 14.7847C6.42169 15.4565 6.53394 15.8213 6.62823 16.0641C6.73883 16.3635 6.91479 16.6341 7.14368 16.8564C7.36597 17.0853 7.6366 17.2614 7.93597 17.3718C8.17877 17.4663 8.5437 17.5786 9.21552 17.6091C9.94208 17.6423 10.1598 17.6492 11.9998 17.6492C13.84 17.6492 14.0579 17.6423 14.7843 17.6091C15.4561 17.5786 15.821 17.4663 16.0638 17.3718C16.6648 17.14 17.1398 16.665 17.3716 16.0641C17.4659 15.8213 17.5781 15.4565 17.6089 14.7847C17.642 14.058 17.649 13.8401 17.649 12.0002C17.649 10.1602 17.642 9.94232 17.6089 9.21576C17.5783 8.54395 17.4661 8.17902 17.3716 7.93622ZM12 15.5384C10.0457 15.5384 8.46149 13.9543 8.46149 12.0001C8.46149 10.0458 10.0457 8.46173 12 8.46173C13.9541 8.46173 15.5383 10.0458 15.5383 12.0001C15.5383 13.9543 13.9541 15.5384 12 15.5384ZM14.8513 8.32184C14.8513 8.7785 15.2216 9.14874 15.6782 9.14874C16.1349 9.14874 16.5049 8.7785 16.5051 8.32184C16.5051 7.86517 16.1349 7.49493 15.6782 7.49493C15.2216 7.49493 14.8513 7.86517 14.8513 8.32184Z" fill="#4373F5"/>
<path d="M14.2969 12C14.2969 13.2686 13.2686 14.2969 12 14.2969C10.7314 14.2969 9.70312 13.2686 9.70312 12C9.70312 10.7314 10.7314 9.70312 12 9.70312C13.2686 9.70312 14.2969 10.7314 14.2969 12Z" fill="#4373F5"/>
<path fill-rule="evenodd" clip-rule="evenodd" d="M1.7309 0H22.2691C23.2251 0 24 0.774902 24 1.7309V22.2691C24 23.2251 23.2251 24 22.2691 24H1.7309C0.774902 24 0 23.2251 0 22.2691V1.7309C0 0.774902 0.774902 0 1.7309 0ZM18.5288 16.5135C18.6991 16.0752 18.8157 15.5744 18.8491 14.8409C18.8828 14.1061 18.8906 13.8713 18.8906 12C18.8906 10.1287 18.8828 9.89392 18.8492 9.15912C18.8157 8.4256 18.6993 7.9248 18.5288 7.48645C18.356 7.02667 18.0846 6.61029 17.7341 6.26605C17.3899 5.91541 16.9733 5.64404 16.5135 5.47101C16.0752 5.3009 15.5744 5.18445 14.8409 5.15112C14.1061 5.11743 13.8713 5.10938 12 5.10938C10.1287 5.10938 9.89392 5.11743 9.15912 5.15094C8.4256 5.18445 7.9248 5.3009 7.48645 5.47119C7.02667 5.64423 6.61011 5.91541 6.26605 6.26605C5.91541 6.61011 5.64404 7.02667 5.47101 7.48645C5.30072 7.9248 5.18427 8.4256 5.15094 9.15912C5.11725 9.89392 5.10938 10.1287 5.10938 12C5.10938 13.8713 5.11725 14.1061 5.15112 14.8411C5.18445 15.5744 5.30109 16.0754 5.47137 16.5135C5.64441 16.9733 5.91559 17.3899 6.26605 17.7339C6.61029 18.0846 7.02667 18.3558 7.48663 18.5288C7.9248 18.6991 8.42578 18.8156 9.15912 18.8491C9.8941 18.8826 10.1287 18.8906 12.0002 18.8906C13.8715 18.8906 14.1063 18.8826 14.8411 18.8491C15.5744 18.8156 16.0754 18.6991 16.5135 18.5288C17.4391 18.1708 18.1708 17.4391 18.5288 16.5135Z" fill="#4373F5"/>
</svg>
