<svg width="60" height="60" viewBox="0 0 60 60" fill="none" xmlns="http://www.w3.org/2000/svg">
<path d="M29.9872 52.1041L0 33.191V60H60V33.6731L29.9872 52.1041Z" fill="#0658B4"/>
<path d="M7.61719 0V33.3855L30.0152 47.5113L52.3828 33.7746V0L7.61719 0ZM29.966 21.4453C33.941 21.4453 37.173 24.3773 37.173 27.9809C37.173 31.0348 34.8516 33.6047 31.7238 34.3184V37.0312H28.2082V34.3184C25.0816 33.6047 22.759 31.0348 22.759 27.9809H26.2746C26.2746 29.6449 27.9316 30.9996 29.966 30.9996C32.0016 30.9996 33.6574 29.6449 33.6574 27.9809C33.6574 26.3156 32.0016 24.9609 29.966 24.9609C25.9922 24.9609 22.759 22.0289 22.759 18.4254C22.759 15.3715 25.0816 12.8016 28.2082 12.0879V9.375H31.7238V12.0879C34.8516 12.8016 37.173 15.3715 37.173 18.4254H33.6574C33.6574 16.7613 32.0016 15.4066 29.966 15.4066C27.9316 15.4066 26.2746 16.7613 26.2746 18.4254C26.2746 20.0906 27.9316 21.4453 29.966 21.4453V21.4453Z" fill="#0658B4"/>
<path d="M4.10156 20.8232L0 23.9782V28.5807L4.10156 31.1676V20.8232Z" fill="#0658B4"/>
<path d="M55.8984 20.8232V31.6158L60 29.0971V23.9782L55.8984 20.8232Z" fill="#0658B4"/>
</svg>
