<svg width="60" height="60" viewBox="0 0 60 60" fill="none" xmlns="http://www.w3.org/2000/svg">
<g clip-path="url(#clip0_94_756)">
<path d="M0.9375 40.3125V60H12.1875V38.4375H2.8125C2.31522 38.4375 1.83831 38.6351 1.48667 38.9867C1.13504 39.3383 0.9375 39.8152 0.9375 40.3125V40.3125Z" fill="#0658B4"/>
<path d="M14.0625 30V60H25.3125V28.125H15.9375C15.4402 28.125 14.9633 28.3225 14.6117 28.6742C14.26 29.0258 14.0625 29.5027 14.0625 30Z" fill="#0658B4"/>
<path d="M59.332 14.5015L43.4281 0.468754C43.0855 0.166491 42.6444 -0.000305176 42.1875 -0.000305176C41.7307 -0.000305176 41.2895 0.166491 40.947 0.468754L25.0436 14.5015C24.7843 14.7251 24.5897 15.014 24.48 15.3383C24.3703 15.6625 24.3494 16.0103 24.4197 16.3453C24.5124 16.7616 24.7443 17.1338 25.077 17.4005C25.4098 17.6672 25.8235 17.8126 26.25 17.8125H27.1875V60H57.1875V17.8125H58.125C58.5515 17.8126 58.9652 17.6672 59.298 17.4005C59.6307 17.1338 59.8626 16.7616 59.9554 16.3453C60.0256 16.0103 60.0049 15.6626 59.8953 15.3384C59.7857 15.0141 59.5912 14.7251 59.332 14.5015ZM40.3125 30H44.0625C45.5543 30 46.9851 30.5926 48.04 31.6475C49.0949 32.7024 49.6875 34.1332 49.6875 35.625C49.6875 37.1169 49.0949 38.5476 48.04 39.6025C46.9851 40.6574 45.5543 41.25 44.0625 41.25V43.125H40.3125V41.25C38.8212 41.2483 37.3914 40.6552 36.3369 39.6006C35.2823 38.5461 34.6892 37.1163 34.6875 35.625H38.4375C38.4381 36.1221 38.6358 36.5987 38.9873 36.9502C39.3388 37.3017 39.8154 37.4994 40.3125 37.5H44.0625C44.5598 37.5 45.0367 37.3025 45.3883 36.9508C45.74 36.5992 45.9375 36.1223 45.9375 35.625C45.9375 35.1277 45.74 34.6508 45.3883 34.2992C45.0367 33.9476 44.5598 33.75 44.0625 33.75H40.3125C38.8207 33.75 37.3899 33.1574 36.335 32.1025C35.2801 31.0476 34.6875 29.6168 34.6875 28.125C34.6875 26.6332 35.2801 25.2024 36.335 24.1475C37.3899 23.0926 38.8207 22.5 40.3125 22.5V20.625H44.0625V22.5C45.5538 22.5017 46.9836 23.0949 48.0381 24.1494C49.0927 25.2039 49.6858 26.6337 49.6875 28.125H45.9375C45.9369 27.6279 45.7392 27.1513 45.3877 26.7998C45.0362 26.4483 44.5596 26.2506 44.0625 26.25H40.3125C39.8152 26.25 39.3383 26.4476 38.9867 26.7992C38.635 27.1508 38.4375 27.6277 38.4375 28.125C38.4375 28.6223 38.635 29.0992 38.9867 29.4508C39.3383 29.8025 39.8152 30 40.3125 30Z" fill="#0658B4"/>
</g>
<defs>
<clipPath id="clip0_94_756">
<rect width="60" height="60" fill="white"/>
</clipPath>
</defs>
</svg>
