<svg xmlns="http://www.w3.org/2000/svg" version="1.1" xmlns:xlink="http://www.w3.org/1999/xlink" xmlns:svgjs="http://svgjs.com/svgjs" width="512" height="512" x="0" y="0" viewBox="0 0 512 512" style="enable-background:new 0 0 512 512" xml:space="preserve" class=""><g><g xmlns="http://www.w3.org/2000/svg"><path d="m255.891 444.622-255.891-161.392v228.77h512v-224.656z" fill="#000000" data-original="#000000" class=""></path><g><path d="m65 0v284.89l191.13 120.54 190.87-117.22v-288.21zm190.71 183c33.92 0 61.5 25.02 61.5 55.77 0 26.06-19.81 47.99-46.5 54.08v23.15h-30v-23.15c-26.68-6.09-46.5-28.02-46.5-54.08h30c0 14.2 14.14 25.76 31.5 25.76 17.37 0 31.5-11.56 31.5-25.76 0-14.21-14.13-25.77-31.5-25.77-33.91 0-61.5-25.02-61.5-55.77 0-26.06 19.82-47.99 46.5-54.08v-23.15h30v23.15c26.69 6.09 46.5 28.02 46.5 54.08h-30c0-14.2-14.13-25.76-31.5-25.76-17.36 0-31.5 11.56-31.5 25.76 0 14.21 14.14 25.77 31.5 25.77z" fill="#000000" data-original="#000000" class=""></path></g><g><path d="m35 177.691-35 26.923v39.275l35 22.075z" fill="#000000" data-original="#000000" class=""></path><path d="m477 177.691v92.097l35-21.493v-43.681z" fill="#000000" data-original="#000000" class=""></path></g></g></g></svg>