<svg width="50" height="50" viewBox="0 0 50 50" fill="none" xmlns="http://www.w3.org/2000/svg">
<path d="M24.0297 38.5524C22.3664 38.4352 20.7609 38.0197 19.2572 37.3171C18.9855 37.1903 18.6741 37.1756 18.3911 37.2787C18.1092 37.3817 17.8793 37.5923 17.7519 37.8646L16.331 40.9115C13.2762 39.2437 10.7558 36.7233 9.08854 33.6685L12.1349 32.2481C12.4072 32.1213 12.6183 31.8914 12.7208 31.6089C12.8233 31.3264 12.8091 31.0145 12.6823 30.7428C11.9803 29.2391 11.5642 27.6336 11.447 25.9692C11.3632 24.7911 10.3731 23.8678 9.19271 23.8678H1.22282C0.597823 23.8678 0.0905762 24.375 0.0905762 25C0.0905762 38.7353 11.2647 49.9094 25 49.9094C25.625 49.9094 26.1323 49.4022 26.1323 48.7772V40.8073C26.1323 39.6269 25.2089 38.6368 24.0297 38.5524V38.5524ZM23.8678 47.6166C12.2798 47.0437 2.95629 37.7197 2.38338 26.1317L9.18874 26.1294C9.29857 27.6914 9.63428 29.2091 10.1885 30.6573L7.07314 32.1099C6.80084 32.2368 6.58967 32.4666 6.4872 32.7491C6.38474 33.0316 6.39832 33.343 6.52513 33.6153C8.54959 37.9484 12.0516 41.4504 16.3847 43.4749C16.6559 43.6017 16.9673 43.6158 17.2509 43.5128C17.5334 43.4098 17.7633 43.1992 17.8901 42.9269L19.3427 39.8115C20.7909 40.3657 22.3081 40.7003 23.8678 40.8067V47.6166ZM22.7355 22.7355V21.6033C22.7355 20.9788 22.2277 20.471 21.6033 20.471H18.2065C17.5815 20.471 17.0743 19.9638 17.0743 19.3388C17.0743 18.7138 17.5815 18.2065 18.2065 18.2065H21.6033C23.4766 18.2065 25 19.73 25 21.6033V22.7355C25 24.6088 23.4766 26.1322 21.6033 26.1322H20.471C19.8466 26.1322 19.3388 26.6401 19.3388 27.2645V29.529H23.8678C24.4928 29.529 25 30.0362 25 30.6612C25 31.2862 24.4928 31.7935 23.8678 31.7935H18.2065C17.5815 31.7935 17.0743 31.2862 17.0743 30.6612V27.2645C17.0743 25.3912 18.5977 23.8678 20.471 23.8678H21.6033C22.2277 23.8678 22.7355 23.3599 22.7355 22.7355ZM32.9257 26.1322H28.3967C27.7717 26.1322 27.2645 25.625 27.2645 25V19.3388C27.2645 18.7138 27.7717 18.2065 28.3967 18.2065C29.0217 18.2065 29.529 18.7138 29.529 19.3388V23.8678H32.9257V19.3388C32.9257 18.7138 33.433 18.2065 34.058 18.2065C34.683 18.2065 35.1902 18.7138 35.1902 19.3388V30.6612C35.1902 31.2862 34.683 31.7935 34.058 31.7935C33.433 31.7935 32.9257 31.2862 32.9257 30.6612V26.1322ZM49.9094 25C49.9094 36.2647 42.3177 46.1617 31.4481 49.067C31.3502 49.0931 31.2517 49.1055 31.1549 49.1055C30.6544 49.1055 30.197 48.771 30.0611 48.2654C29.8998 47.6614 30.2587 47.0409 30.8628 46.879C34.4197 45.9284 37.5878 44.1508 40.1897 41.7912L37.8102 39.4118C37.3681 38.9697 37.3681 38.2529 37.8102 37.8108C38.2524 37.3687 38.9691 37.3687 39.4112 37.8108L41.7924 40.1919C45.2197 36.3961 47.3477 31.4623 47.6138 26.1328H44.2482C43.6232 26.1328 43.116 25.6256 43.116 25.0006C43.116 24.3756 43.6232 23.8683 44.2482 23.8683H47.6161C47.3494 18.4766 45.1874 13.5751 41.7844 9.81714L39.4107 12.1909C39.1893 12.4123 38.9 12.5226 38.6102 12.5226C38.3203 12.5226 38.031 12.4123 37.8097 12.1909C37.3675 11.7488 37.3675 11.032 37.8097 10.5899L40.1834 8.21614C36.4255 4.81261 31.524 2.65059 26.1323 2.38394V5.75181C26.1323 6.37681 25.625 6.88406 25 6.88406C24.375 6.88406 23.8678 6.37681 23.8678 5.75181V2.38621C18.5388 2.65228 13.6045 4.78034 9.80865 8.20765L12.1898 10.5888C12.6319 11.0309 12.6319 11.7476 12.1898 12.1898C11.9684 12.4111 11.6791 12.5215 11.3893 12.5215C11.0994 12.5215 10.8101 12.4111 10.5888 12.1898L8.20935 9.81035C5.84975 12.4123 4.07212 15.5797 3.1216 19.1367C2.95969 19.7407 2.33865 20.0996 1.73516 19.9383C1.13111 19.7769 0.772189 19.1565 0.933534 18.5519C3.83831 7.68229 13.7353 0.0905762 25 0.0905762C38.7353 0.0905762 49.9094 11.2647 49.9094 25Z" fill="#0658B4"/>
</svg>
