<svg xmlns="http://www.w3.org/2000/svg" width="24.006" height="24" viewBox="0 0 24.006 24">
  <g id="verification" transform="translate(-1.256 -1.25)">
    <path id="Path_1119" data-name="Path 1119" d="M11.16,15.908a.837.837,0,0,1-.592-.246l-2.7-2.7a.837.837,0,0,1,1.184-1.184l2.11,2.11,4.8-4.8a.837.837,0,0,1,1.184,1.184l-5.393,5.393A.837.837,0,0,1,11.16,15.908Z" transform="translate(0.739 0.882)" fill="#7f58fe"/>
    <path id="Path_1120" data-name="Path 1120" d="M13.25,25.25a3,3,0,0,1-1.953-.7L9.533,23.029a1.711,1.711,0,0,0-.86-.313H6.754a2.992,2.992,0,0,1-2.992-2.992V17.816a1.673,1.673,0,0,0-.313-.848L1.942,15.192a3.075,3.075,0,0,1,0-3.873L3.449,9.544A1.673,1.673,0,0,0,3.762,8.7V6.776A2.992,2.992,0,0,1,6.754,3.784H8.685a1.823,1.823,0,0,0,.86-.313l1.764-1.518a3.049,3.049,0,0,1,3.9,0l1.764,1.518a1.711,1.711,0,0,0,.86.313h1.9a2.992,2.992,0,0,1,2.992,2.992v1.9a1.726,1.726,0,0,0,.324.86L24.558,11.3a3.049,3.049,0,0,1,0,3.9L23.04,16.956a1.726,1.726,0,0,0-.324.86v1.9A2.992,2.992,0,0,1,19.725,22.7h-1.9a1.823,1.823,0,0,0-.86.313L15.2,24.536A2.953,2.953,0,0,1,13.25,25.25ZM6.754,5.458A1.32,1.32,0,0,0,5.436,6.776V8.684a3.283,3.283,0,0,1-.714,1.931L3.215,12.39a1.391,1.391,0,0,0,0,1.708l1.507,1.775A3.311,3.311,0,0,1,5.436,17.8v1.909A1.32,1.32,0,0,0,6.754,21.03H8.685a3.287,3.287,0,0,1,1.953.726L12.4,23.274a1.407,1.407,0,0,0,1.719,0l1.764-1.518a3.361,3.361,0,0,1,1.953-.726h1.9a1.32,1.32,0,0,0,1.317-1.317v-1.9a3.287,3.287,0,0,1,.726-1.953L23.3,14.1a1.407,1.407,0,0,0,0-1.719l-1.518-1.764a3.287,3.287,0,0,1-.726-1.953V6.776a1.32,1.32,0,0,0-1.317-1.317h-1.9a3.287,3.287,0,0,1-1.953-.726L14.121,3.215a1.407,1.407,0,0,0-1.719,0L10.638,4.744a3.377,3.377,0,0,1-1.953.714Z" transform="translate(0 0)" fill="#7f58fe"/>
  </g>
</svg>
