<?xml version="1.0" standalone="no"?> <!DOCTYPE svg PUBLIC "-//W3C//DTD SVG 1.0//EN" "http://www.w3.org/TR/2001/REC-SVG-20010904/DTD/svg10.dtd" > <svg xmlns="http://www.w3.org/2000/svg" width="100%" height="100%">
<defs >
<font horiz-adv-x="1201" ><font-face
    font-family="SolaimanLipi"
    units-per-em="2048"
    panose-1="3 0 6 0 0 0 0 0 0 0"
    ascent="1952"
    descent="-582"
    alphabetic="0" />
<missing-glyph horiz-adv-x="884" d="M105 0V1364H787V0H105ZM172 68H719V1296H172V68Z" />
<glyph unicode=" " glyph-name="space" horiz-adv-x="569" />
<glyph unicode="!" glyph-name="exclam" horiz-adv-x="569" d="M426 1493V801L381 344H301L256 801V1493H426ZM426 213V0H254V213H426Z" />
<glyph unicode="&quot;" glyph-name="quotedbl" horiz-adv-x="727" d="M106 1452H297V1225L242 950H162L106 1225V1452ZM434 1452H625V1225L569 950H489L434 1225V1452Z" />
<glyph unicode="#" glyph-name="numbersign" horiz-adv-x="1138" d="M993 1427L920 1026H1110V887H893L829 530H1044V391H805L725 -41H569L647 391H393L313 -41H158L236 391H29V530H262L326 887H104V1026H352L426 1427H582L508 1026H764L836 1427H993ZM737 887H483L418
530H674L737 887Z" />
<glyph unicode="$" glyph-name="dollar" horiz-adv-x="1138" d="M498 1577H618V1466Q874 1448 971 1260Q1016 1176 1016 1063H854Q852 1221 735 1290Q694 1313 645 1321L618 1323V813Q795 760 840 739L864 727L866 725L887 715Q1059 616 1061 399Q1061 186 922
61L872 25Q772 -35 618 -47V-258H498V-47Q182 -27 94 213Q61 307 68 426H229L236 371Q246 270 270 227Q274 219 281 211Q352 113 498 94V651Q369 690 315 715Q274 733 240 758Q94 862 94 1057Q94 1356 381 1442Q434 1458 498 1466V1577ZM498 829V1321Q301 1294
266 1139L260 1077Q260 893 498 829ZM618 633V94Q743 109 807 170Q893 252 893 375Q893 500 797 561Q737 598 618 633Z" />
<glyph unicode="%" glyph-name="percent" horiz-adv-x="1820" d="M408 1403Q580 1403 684 1268H686Q758 1174 758 1049Q758 887 629 782Q532 702 410 702Q244 702 137 831Q59 928 59 1053Q59 1219 188 1325Q285 1403 408 1403ZM408 1260Q297 1260 236 1165H233Q201
1114 201 1053Q201 944 293 881Q346 846 410 846Q520 846 582 938Q616 989 616 1051Q616 1167 518 1229Q469 1260 408 1260ZM1247 1452H1382L573 -41H438L1247 1452ZM1409 659Q1583 659 1688 524Q1759 430 1759 307Q1759 145 1630 41Q1534 -39 1411 -39Q1245 -39
1139 90Q1061 186 1061 311Q1061 477 1192 582Q1288 659 1409 659ZM1409 516Q1298 516 1237 424Q1202 373 1202 311Q1202 199 1298 137H1300V135H1303Q1303 133 1305 133Q1354 104 1411 104Q1522 104 1583 197Q1618 246 1618 307Q1618 424 1520 485V485L1518 487Q1483
508 1442 514Q1434 514 1409 516Z" />
<glyph unicode="&amp;" glyph-name="ampersand" horiz-adv-x="1366" d="M1010 684H1174Q1174 610 1153 532Q1124 416 1055 309L1305 0H1081L954 160Q862 72 813 37L797 27Q682 -47 526 -47Q289 -47 174 121Q106 221 106 360Q106 526 213 635L223 645L233 653Q303
719 438 797Q295 977 272 1130L276 1081Q276 1085 274 1090L272 1130Q272 1286 403 1382Q500 1452 623 1452Q807 1452 901 1317V1315Q956 1237 956 1130Q956 991 850 895Q788 840 674 774L946 440Q977 496 995 567Q1012 631 1010 684ZM584 883Q717 967 760 1024Q795
1073 795 1135Q795 1241 702 1288Q664 1309 616 1309Q494 1309 453 1206Q440 1174 440 1133L444 1083Q451 1063 461 1042Q485 995 584 883ZM856 281L528 690Q381 596 328 522Q279 457 279 375Q279 242 389 164Q461 113 547 113Q612 113 672 137Q756 174 856 281Z"
/>
<glyph unicode="&apos;" glyph-name="quotesingle" horiz-adv-x="391" d="M98 1452H291V1225L236 950H154L98 1225V1452Z" />
<glyph unicode="(" glyph-name="parenleft" horiz-adv-x="681" d="M483 1493H596Q397 1171 338 797Q315 664 315 530Q315 412 332 291Q389 -96 596 -434H483Q270 -156 188 209Q150 375 150 530Q150 688 190 858Q274 1219 483 1493Z" />
<glyph unicode=")" glyph-name="parenright" horiz-adv-x="681" d="M190 -434H78Q276 -113 336 262Q358 395 358 528Q358 647 342 768Q285 1155 78 1493H190Q403 1214 485 850Q524 684 524 528Q524 371 483 201Q399 -160 190 -434Z" />
<glyph unicode="*" glyph-name="asterisk" horiz-adv-x="796" d="M328 1493H457L446 1264L664 1341L702 1221L481 1159L625 977L520 903L393 1094L264 903L162 977L303 1159L82 1221L121 1341L338 1264L328 1493Z" />
<glyph unicode="+" glyph-name="plus" horiz-adv-x="1196" d="M1094 547V403H670V-20H526V403H102V547H526V971H670V547H1094Z" />
<glyph unicode="," glyph-name="comma" horiz-adv-x="569" d="M178 213H393V-33Q393 -301 178 -301V-223Q266 -219 287 -156Q301 -119 301 -37V0H178V213Z" />
<glyph unicode="-" glyph-name="hyphen" horiz-adv-x="681" d="M582 639V492H94V639H582Z" />
<glyph unicode="." glyph-name="period" horiz-adv-x="569" d="M391 213V0H178V213H391Z" />
<glyph unicode="/" glyph-name="slash" horiz-adv-x="709" d="M537 1493H650L164 -41H52L537 1493Z" />
<glyph unicode="0" glyph-name="zero" horiz-adv-x="1138" d="M563 1452Q774 1452 893 1298Q895 1294 897 1292Q1038 1100 1038 690Q1038 135 756 -6Q670 -47 563 -47Q203 -47 115 395Q88 528 88 702Q88 1102 229 1292Q340 1438 535 1452H563ZM563 1292Q272 1292
272 700Q272 102 559 102Q801 102 844 496Q854 588 854 707Q854 1292 563 1292Z" />
<glyph unicode="1" glyph-name="one" horiz-adv-x="1138" d="M530 1034H209V1163L225 1165Q424 1192 485 1241Q539 1284 575 1399L592 1452H711V0H530V1034Z" />
<glyph unicode="2" glyph-name="two" horiz-adv-x="1138" d="M1036 178V0H70Q84 262 186 399Q246 475 348 547Q403 586 477 629L666 735Q860 846 862 1022Q862 1169 739 1249Q668 1294 575 1294Q422 1294 340 1178Q334 1169 330 1159L326 1153Q291 1087 283 948H102Q109
1153 180 1264Q303 1452 582 1452Q784 1452 911 1337Q1047 1217 1047 1026Q1047 756 739 588L535 477Q426 414 371 360Q289 285 272 178H1036Z" />
<glyph unicode="3" glyph-name="three" horiz-adv-x="1138" d="M453 666V819Q625 821 692 850Q807 897 809 1047Q809 1221 666 1276Q616 1294 553 1294Q393 1294 322 1186L319 1184L309 1165Q279 1106 276 983H96Q104 1413 485 1450L551 1452Q836 1452 942 1262Q993
1174 993 1053Q993 831 791 752Q981 686 1022 530Q1036 477 1036 406Q1036 154 844 31Q721 -47 545 -47Q242 -47 129 164Q76 262 66 422H246Q262 152 477 119Q512 113 551 113Q764 113 829 274Q852 330 852 403Q852 668 551 668L475 666H453Z" />
<glyph unicode="4" glyph-name="four" horiz-adv-x="1138" d="M670 348H57V539L717 1452H850V510H1065V348H850V0H670V348ZM670 510V1145L215 510H670Z" />
<glyph unicode="5" glyph-name="five" horiz-adv-x="1138" d="M975 1452V1274H371L313 868L336 885Q446 956 582 956Q827 956 958 778Q1051 653 1051 473Q1051 209 872 61Q741 -47 553 -47Q326 -47 193 90L160 127Q111 188 82 305L72 356H252Q315 113 549 113Q756
113 834 279Q866 350 866 449Q866 672 711 758Q641 797 549 797Q426 797 344 725Q315 700 283 662H117L225 1452H975Z" />
<glyph unicode="6" glyph-name="six" horiz-adv-x="1138" d="M1020 1073H840Q803 1251 657 1286Q629 1292 596 1292Q369 1292 299 997Q272 887 272 741Q391 903 606 903Q834 903 961 733Q1051 612 1051 442Q1051 199 883 59Q756 -47 575 -47Q332 -47 211 133Q92
313 88 639V662Q88 1040 219 1245Q334 1417 539 1448Q573 1452 608 1452Q844 1452 956 1262Q1004 1182 1020 1073ZM584 743Q410 743 328 608Q283 537 283 438Q283 262 408 168Q481 113 578 113Q733 113 815 242Q866 322 866 428Q866 637 721 713Q662 743 584 743Z"
/>
<glyph unicode="7" glyph-name="seven" horiz-adv-x="1138" d="M1065 1452V1300Q887 1063 766 840Q551 442 475 0H283Q360 342 879 1274V1274H94V1452H1065Z" />
<glyph unicode="8" glyph-name="eight" horiz-adv-x="1138" d="M801 764Q1049 645 1051 401Q1051 172 874 47Q745 -47 563 -47Q309 -47 172 121Q76 238 76 403Q76 645 324 764Q272 797 238 825Q135 911 127 1038V1040V1065Q127 1268 293 1376Q406 1452 563 1452Q801
1452 922 1296Q999 1200 999 1065Q999 926 907 840L881 817L801 764ZM563 1292Q399 1292 338 1174L336 1171V1171Q311 1124 311 1063Q311 920 436 862Q492 836 563 836Q727 836 788 952Q791 952 791 954Q815 999 815 1061Q815 1214 682 1270Q631 1292 563 1292ZM563
684Q381 684 301 553Q260 487 260 399Q260 231 395 154Q465 113 559 113Q745 113 825 246Q866 311 866 399Q866 567 729 645Q657 684 563 684Z" />
<glyph unicode="9" glyph-name="nine" horiz-adv-x="1138" d="M109 332H289Q326 154 471 119Q500 113 532 113Q760 113 829 408Q856 518 856 664Q725 506 524 502Q295 502 168 672Q78 793 78 963Q78 1206 246 1346Q373 1452 553 1452Q797 1452 920 1272Q1038 1092
1042 766V743Q1042 365 909 160Q801 -6 602 -41L520 -47Q285 -47 172 143Q125 225 109 332ZM551 1294Q395 1294 313 1163L311 1161Q262 1083 262 977Q262 768 408 692Q467 662 545 662Q715 662 799 795Q846 868 846 967Q846 1145 721 1239Q645 1294 551 1294Z"
/>
<glyph unicode=":" glyph-name="colon" horiz-adv-x="569" d="M438 213V0H225V213H438ZM438 1073V860H225V1073H438Z" />
<glyph unicode=";" glyph-name="semicolon" horiz-adv-x="569" d="M440 1073V860H227V1073H440ZM225 213H440V-33Q440 -301 225 -301V-223Q313 -219 334 -156Q348 -119 348 -37V0H225V213Z" />
<glyph unicode="&lt;" glyph-name="less" horiz-adv-x="1196" d="M92 406V547L1094 971V809L287 479L1094 143V-18L92 406Z" />
<glyph unicode="=" glyph-name="equal" horiz-adv-x="1196" d="M1094 723V580H102V723H1094ZM1094 371V227H102V371H1094Z" />
<glyph unicode="&gt;" glyph-name="greater" horiz-adv-x="1196" d="M1104 547V406L102 -18V143L909 473L102 809V971L1104 547Z" />
<glyph unicode="?" glyph-name="question" horiz-adv-x="1138" d="M676 408H492V520Q492 598 520 651L549 698L569 725L575 733Q580 739 586 745L705 854Q791 930 827 999Q858 1057 858 1124Q858 1268 733 1329H731Q672 1358 596 1358Q428 1358 367 1239Q332 1169
332 1038H158Q158 1470 526 1513L606 1518Q864 1518 979 1348L981 1346V1346V1343Q1042 1251 1042 1124Q1042 1028 1001 950Q958 866 838 758Q713 641 690 588L682 567L676 506V504V408ZM676 213V0H492V213H676Z" />
<glyph unicode="@" glyph-name="at" horiz-adv-x="2078" d="M1362 1026H1532L1348 453Q1323 383 1323 350Q1323 295 1382 268H1384Q1403 260 1425 260Q1556 260 1665 408Q1769 553 1769 731Q1769 977 1571 1159Q1368 1348 1081 1360H1049Q748 1360 516 1151L453
1087Q244 856 244 559Q244 270 459 72Q680 -133 1012 -133Q1174 -133 1407 -68L1464 -205Q1337 -252 1200 -274Q1098 -291 1001 -291Q633 -291 365 -72Q115 133 76 434L70 528L72 580Q88 895 293 1147Q340 1204 393 1253Q614 1454 922 1505Q942 1507 961 1511L1075
1518Q1415 1518 1667 1311Q1905 1118 1942 842Q1948 799 1948 756L1944 684Q1919 471 1772 299Q1616 117 1391 117Q1194 117 1165 274Q1133 240 1100 213Q997 127 874 127Q707 127 610 268Q541 367 541 502Q541 725 702 897Q860 1067 1067 1069Q1237 1069 1317
891L1362 1026ZM1055 938Q920 938 817 793Q725 664 725 500Q725 362 821 293H823Q870 258 928 258Q1047 258 1137 391L1149 410Q1188 479 1219 588Q1245 678 1247 741Q1253 854 1159 909Q1112 938 1055 938Z" />
<glyph unicode="A" glyph-name="A" horiz-adv-x="1366" d="M971 449H395L238 0H35L567 1493H813L1337 0H1124L971 449ZM918 608L688 1288L442 608H918Z" />
<glyph unicode="B" glyph-name="B" horiz-adv-x="1366" d="M162 0V1493H768Q979 1493 1092 1389Q1210 1284 1210 1114Q1210 885 1004 788Q1219 705 1262 541Q1274 500 1276 453V426Q1276 246 1161 125Q1047 0 836 0H162ZM352 850H721Q868 850 938 903Q1020 965
1020 1087Q1020 1208 938 1272Q868 1325 721 1325H352V850ZM352 168H817Q948 168 1016 240Q1085 311 1085 424T1016 610Q950 682 817 682H352V168Z" />
<glyph unicode="C" glyph-name="C" horiz-adv-x="1478" d="M1356 1030H1161Q1130 1184 1053 1255Q956 1346 758 1350Q496 1350 371 1114Q289 961 289 731Q289 383 483 221Q604 121 774 121Q997 121 1102 279Q1114 295 1122 313Q1167 399 1190 545H1386Q1319 -47
772 -47Q483 -47 315 127Q98 350 98 729Q98 1104 307 1331Q475 1518 780 1518Q1268 1518 1356 1030Z" />
<glyph unicode="D" glyph-name="D" horiz-adv-x="1478" d="M182 0V1493H758Q1092 1493 1253 1223Q1255 1221 1255 1219Q1366 1032 1366 748Q1366 319 1128 125Q979 0 758 0H182ZM373 168H725Q1081 168 1157 539Q1176 631 1176 745Q1176 1249 831 1315Q780 1325
725 1325H373V168Z" />
<glyph unicode="E" glyph-name="E" horiz-adv-x="1366" d="M375 680V168H1255V0H184V1493H1219V1325H375V848H1188V680H375Z" />
<glyph unicode="F" glyph-name="F" horiz-adv-x="1251" d="M375 680V0H184V1493H1186V1325H375V848H1087V680H375Z" />
<glyph unicode="G" glyph-name="G" horiz-adv-x="1593" d="M1452 788V-8H1331L1284 190Q1071 -47 774 -47Q461 -47 268 186Q90 399 90 731Q90 1092 299 1317Q328 1348 360 1374Q535 1518 807 1518Q1174 1518 1339 1276Q1407 1176 1432 1040H1237Q1194 1241 999
1315Q913 1350 805 1350Q535 1350 389 1137Q281 977 281 741Q281 483 406 311L438 272Q573 125 815 121Q1049 121 1184 285Q1284 408 1284 580V621H829V788H1452Z" />
<glyph unicode="H" glyph-name="H" horiz-adv-x="1478" d="M1128 680H362V0H170V1493H360V848H1128V1493H1319V0H1128V680Z" />
<glyph unicode="I" glyph-name="I" horiz-adv-x="569" d="M397 1493V0H205V1493H397Z" />
<glyph unicode="J" glyph-name="J" horiz-adv-x="1024" d="M682 1493H872V373Q872 119 688 10Q588 -47 451 -47Q197 -47 90 129Q35 221 35 348V479H229V383Q229 156 395 119L453 113Q571 113 635 205Q682 274 682 442V1493Z" />
<glyph unicode="K" glyph-name="K" horiz-adv-x="1366" d="M352 522V0H162V1493H352V737L1096 1493H1341L733 885L1348 0H1122L596 766L352 522Z" />
<glyph unicode="L" glyph-name="L" horiz-adv-x="1138" d="M354 1493V168H1092V0H164V1493H354Z" />
<glyph unicode="M" glyph-name="M" horiz-adv-x="1705" d="M958 0H758L334 1251V0H154V1493H418L860 193L1294 1493H1559V0H1378V1251L958 0Z" />
<glyph unicode="N" glyph-name="N" horiz-adv-x="1478" d="M1323 1493V0H1108L336 1210V0H156V1493H362L1143 272V1493H1323Z" />
<glyph unicode="O" glyph-name="O" horiz-adv-x="1593" d="M797 1518Q1153 1518 1352 1266L1354 1264L1358 1260Q1481 1098 1511 864Q1520 797 1520 723Q1520 420 1352 205Q1311 152 1262 111Q1075 -47 799 -47Q457 -47 256 193Q78 406 78 735Q78 1112 305 1331Q500
1518 797 1518ZM797 1350Q530 1350 383 1141Q268 979 268 735Q268 412 463 242Q600 121 799 121Q1063 121 1210 326Q1329 485 1329 727Q1329 1065 1128 1235Q993 1350 797 1350Z" />
<glyph unicode="P" glyph-name="P" horiz-adv-x="1366" d="M377 633V0H186V1493H803Q1133 1493 1229 1251Q1264 1167 1264 1055Q1264 856 1135 739Q1016 633 846 633H377ZM377 801H774Q983 801 1044 952Q1065 999 1065 1063Q1065 1247 903 1305H901Q846 1325 774
1325H377V801Z" />
<glyph unicode="Q" glyph-name="Q" horiz-adv-x="1593" d="M1501 -2L1405 -121L1190 57Q1014 -47 799 -47Q457 -47 256 193Q78 406 78 735Q78 1112 305 1331Q502 1518 799 1518Q1139 1518 1339 1280Q1520 1069 1520 739Q1520 387 1309 156L1501 -2ZM985 420L1167
270Q1329 453 1329 737Q1329 1059 1137 1229Q997 1350 799 1350Q530 1350 383 1141Q268 979 268 735Q268 410 463 240Q600 121 797 121Q866 121 1042 178L928 135Q981 150 1042 178L891 305L985 420Z" />
<glyph unicode="R" glyph-name="R" horiz-adv-x="1478" d="M381 643V0H190V1493H879Q1227 1493 1311 1247Q1333 1180 1333 1094Q1333 893 1186 788Q1147 762 1098 737Q1225 682 1264 600Q1298 524 1300 348Q1305 152 1339 96Q1358 70 1391 47V0H1159Q1116 98 1116
244L1118 377Q1118 600 954 635Q918 643 872 643H381ZM381 811H842Q1090 811 1126 987Q1135 1022 1135 1067Q1135 1202 1057 1268Q991 1325 842 1325H381V811Z" />
<glyph unicode="S" glyph-name="S" horiz-adv-x="1366" d="M1221 1055H1040Q1038 1282 815 1341Q750 1358 668 1358Q455 1358 371 1231V1231Q334 1176 334 1106Q334 991 444 934Q496 907 580 885L954 784Q1200 717 1257 518Q1272 467 1272 410V381Q1260 209 1135
90L1108 68Q958 -47 688 -47Q342 -47 186 166Q100 283 98 475H279Q276 342 356 246Q461 121 700 121Q883 121 975 184Q1067 250 1079 365Q1081 371 1081 379V391Q1081 547 856 618Q834 627 807 633L436 731Q145 807 143 1079Q143 1333 356 1448Q487 1518 674 1518Q1034
1518 1163 1290Q1221 1190 1221 1055Z" />
<glyph unicode="T" glyph-name="T" horiz-adv-x="1251" d="M725 1325V0H535V1325H43V1493H1214V1325H725Z" />
<glyph unicode="U" glyph-name="U" horiz-adv-x="1478" d="M1130 1493H1321V444Q1321 178 1108 45Q961 -47 745 -47Q408 -47 258 160Q176 276 174 444V1493H365V444Q365 283 473 199Q582 121 745 121Q997 121 1090 283Q1128 350 1130 444V1493Z" />
<glyph unicode="V" glyph-name="V" horiz-adv-x="1366" d="M803 0H598L61 1493H266L705 229L1118 1493H1321L803 0Z" />
<glyph unicode="W" glyph-name="W" horiz-adv-x="1933" d="M1524 0H1315L971 1227L637 0H428L45 1493H258L539 281L870 1493H1075L1415 281L1690 1493H1903L1524 0Z" />
<glyph unicode="X" glyph-name="X" horiz-adv-x="1366" d="M801 766L1329 0H1094L686 623L276 0H45L573 766L78 1493H309L692 907L1077 1493H1305L801 766Z" />
<glyph unicode="Y" glyph-name="Y" horiz-adv-x="1366" d="M793 586V0H602V586L27 1493H262L700 766L1126 1493H1354L793 586Z" />
<glyph unicode="Z" glyph-name="Z" horiz-adv-x="1251" d="M1190 1493V1321L297 168H1194V0H57V168L954 1325H115V1493H1190Z" />
<glyph unicode="[" glyph-name="bracketleft" horiz-adv-x="569" d="M512 1493V1346H301V-287H512V-434H131V1493H512Z" />
<glyph unicode="\" glyph-name="backslash" horiz-adv-x="569" d="M96 1493L582 -41H469L-16 1493H96Z" />
<glyph unicode="]" glyph-name="bracketright" horiz-adv-x="569" d="M47 -434V-287H258V1346H47V1493H428V-434H47Z" />
<glyph unicode="^" glyph-name="asciicircum" horiz-adv-x="960" d="M403 1452H553L870 674H729L479 1288L231 674H90L403 1452Z" />
<glyph unicode="_" glyph-name="underscore" horiz-adv-x="1138" d="M1184 -258V-360H-45V-258H1184Z" />
<glyph unicode="`" glyph-name="grave" horiz-adv-x="681" d="M276 1516L473 1212H350L45 1516H276Z" />
<glyph unicode="a" glyph-name="a" horiz-adv-x="1138" d="M1096 100V-29Q1036 -45 1001 -47H999H979Q834 -47 807 82L803 111Q745 57 690 25Q575 -47 438 -47Q213 -47 125 106Q86 176 86 270Q86 479 274 557L297 565L367 586Q385 590 406 594Q467 604 618 623Q768
641 791 700V702V705L797 741V786Q797 918 631 942Q596 946 557 946Q346 946 311 793Q307 774 305 756H133Q139 903 207 979Q319 1104 563 1104Q924 1104 963 866Q967 842 967 811V180Q967 96 1059 96H1063Q1075 96 1085 98H1087L1096 100ZM797 338V530L776 522Q743
508 698 498L522 471Q305 440 272 330L264 276V274Q264 141 401 111Q434 102 475 102Q623 102 729 199Q756 223 772 246Q797 283 797 338Z" />
<glyph unicode="b" glyph-name="b" horiz-adv-x="1138" d="M111 1493H281V928Q397 1104 612 1104Q874 1104 995 883Q1071 743 1071 541Q1071 211 885 53Q768 -47 604 -47Q385 -47 264 137V0H111V1493ZM580 944Q410 944 330 772Q281 672 281 528Q281 272 422 166Q489
113 580 113Q752 113 838 274Q893 379 893 522Q893 782 745 891Q678 942 580 944Z" />
<glyph unicode="c" glyph-name="c" horiz-adv-x="1024" d="M965 713H793Q766 911 594 942Q578 944 539 946Q346 946 274 741Q242 647 242 518Q242 238 403 145Q463 111 543 111Q762 111 805 369H977Q954 88 741 -6Q653 -47 539 -47Q274 -47 147 168Q63 309 63
518Q63 846 252 1004Q373 1104 541 1104Q758 1104 877 965L893 944Q952 856 965 713Z" />
<glyph unicode="d" glyph-name="d" horiz-adv-x="1138" d="M1014 1493V0H862V141Q743 -29 567 -45Q545 -47 520 -47Q254 -47 131 182Q53 326 53 539Q53 854 236 1008Q352 1104 514 1104Q735 1104 844 938V1493H1014ZM543 944Q369 944 285 776Q244 698 233 594Q231
563 231 528Q231 279 375 168Q449 113 545 113Q713 113 793 279Q844 381 844 524Q844 793 696 897Q629 944 543 944Z" />
<glyph unicode="e" glyph-name="e" horiz-adv-x="1138" d="M1051 479H260Q262 332 317 250Q406 111 575 111Q784 111 856 326H1028Q983 78 770 -10Q680 -47 569 -47Q291 -47 162 178Q82 317 82 522Q82 846 274 1004Q397 1104 573 1104Q809 1104 942 936Q983 885
1008 821Q1051 711 1051 479ZM264 618H866L868 631Q868 795 748 887Q670 946 571 946Q397 946 313 793Q272 719 264 618Z" />
<glyph unicode="f" glyph-name="f" horiz-adv-x="569" d="M528 1073V934H350V0H180V934H37V1073H180V1255Q180 1436 332 1485Q377 1499 432 1499L473 1497L528 1489V1348L477 1350H469Q352 1350 350 1241V1073H528Z" />
<glyph unicode="g" glyph-name="g" horiz-adv-x="1138" d="M844 1073H1001V176Q1001 -139 918 -270L889 -309Q791 -432 567 -444Q545 -446 522 -446Q240 -446 137 -266Q102 -203 94 -123H268Q281 -201 328 -242L334 -246Q408 -303 528 -303Q694 -303 766 -203Q827
-119 827 90V145L813 127Q694 -33 539 -45Q520 -47 502 -47H483Q313 -37 195 96Q59 252 59 518Q59 827 229 989Q348 1104 516 1104Q717 1104 844 918V1073ZM535 946Q354 946 279 762Q238 666 238 528Q238 244 397 147Q457 111 537 111Q719 111 791 299Q827 393
827 522Q827 829 659 918Q604 946 535 946Z" />
<glyph unicode="h" glyph-name="h" horiz-adv-x="1138" d="M143 1493H313V926L350 969Q459 1092 612 1102L657 1104Q883 1104 963 952Q995 891 995 811V0H825V743Q825 856 756 905Q690 954 604 954Q432 954 356 797Q313 711 313 592V0H143V1493Z" />
<glyph unicode="i" glyph-name="i" horiz-adv-x="454" d="M307 1073V0H137V1073H307ZM307 1493V1278H135V1493H307Z" />
<glyph unicode="j" glyph-name="j" horiz-adv-x="454" d="M143 1073H313V-223Q313 -434 51 -446H20L-16 -444L-37 -440V-295L2 -297H4Q111 -297 133 -231Q143 -203 143 -156V1073ZM313 1493V1278H143V1493H313Z" />
<glyph unicode="k" glyph-name="k" horiz-adv-x="1024" d="M289 1493V618L743 1073H963L590 702L1028 0H817L455 582L289 418V0H119V1493H289Z" />
<glyph unicode="l" glyph-name="l" horiz-adv-x="454" d="M311 1493V0H139V1493H311Z" />
<glyph unicode="m" glyph-name="m" horiz-adv-x="1705" d="M143 1073H301V922Q412 1077 563 1100Q582 1102 604 1104H631Q813 1104 901 971Q911 956 920 940L979 1004Q1083 1102 1249 1104Q1499 1104 1550 903Q1561 858 1561 805V0H1389V739Q1389 905 1260 944Q1227
954 1190 954Q1065 954 989 844Q938 770 938 674V0H766V739Q766 918 621 948L567 954Q440 954 365 840Q315 768 315 674V0H143V1073Z" />
<glyph unicode="n" glyph-name="n" horiz-adv-x="1138" d="M143 1073H301V893Q412 1067 567 1096Q608 1104 657 1104Q870 1104 956 963Q995 899 997 811V0H827V743Q827 885 709 936Q664 954 606 954Q434 954 358 797Q315 711 315 592V0H143V1073Z" />
<glyph unicode="o" glyph-name="o" horiz-adv-x="1138" d="M557 1104Q868 1104 985 840Q1044 707 1044 520Q1044 178 836 33Q721 -47 559 -47Q264 -47 141 197Q74 332 74 528Q74 885 289 1028Q401 1104 557 1104ZM559 946Q369 946 291 758Q252 662 252 528Q252
248 412 150Q475 111 559 111Q743 111 823 291Q866 387 866 522Q866 819 698 913Q637 946 559 946Z" />
<glyph unicode="p" glyph-name="p" horiz-adv-x="1138" d="M111 -446V1073H268V911Q389 1104 610 1104Q870 1104 993 877Q1071 731 1071 518Q1071 203 889 49Q809 -18 702 -39Q659 -47 612 -47Q414 -47 283 113V-446H111ZM582 944Q412 944 332 772Q283 672 283
528Q283 272 424 166Q492 113 582 113Q754 113 838 274Q893 379 893 522Q893 782 748 891Q676 944 582 944Z" />
<glyph unicode="q" glyph-name="q" horiz-adv-x="1138" d="M1014 -446H844V123Q727 -47 512 -47Q250 -47 129 174Q53 313 53 516Q53 846 240 1004Q356 1104 520 1104Q739 1104 862 930V1073H1014V-446ZM545 944Q373 944 287 778Q231 676 231 528Q231 279 375 168Q449
113 545 113Q713 113 795 279Q844 381 844 522Q844 791 698 895Q631 944 545 944Z" />
<glyph unicode="r" glyph-name="r" horiz-adv-x="681" d="M141 1073H299V879Q350 963 399 1014Q485 1104 592 1104H614L657 1098V924Q510 922 446 879Q442 877 438 874L434 870Q313 782 313 557V0H141V1073Z" />
<glyph unicode="s" glyph-name="s" horiz-adv-x="1024" d="M897 774H717Q711 946 502 946Q334 946 287 846Q274 819 274 784Q274 692 410 647L473 631L637 592Q879 535 926 391Q940 348 940 293Q940 96 756 6Q649 -47 498 -47Q100 -47 72 285L70 319H250Q262 223
299 182Q367 111 512 111Q684 111 741 207Q762 238 762 279Q762 373 651 412Q633 418 612 424H610L596 428L436 467Q193 526 129 631Q111 664 102 707L96 776Q96 967 268 1053Q369 1104 508 1104Q805 1104 877 897Q897 842 897 774Z" />
<glyph unicode="t" glyph-name="t" horiz-adv-x="569" d="M520 1073V934H344V199Q344 121 389 109L438 102Q489 102 520 111V-33Q440 -47 381 -47Q199 -47 176 90L174 123V934H29V1073H174V1368H344V1073H520Z" />
<glyph unicode="u" glyph-name="u" horiz-adv-x="1138" d="M987 0H834V150Q719 -12 567 -39Q526 -47 475 -47Q256 -47 172 96Q133 160 133 246V1073H303V313Q303 170 424 121Q467 102 524 102Q698 102 776 262Q817 348 817 465V1073H987V0Z" />
<glyph unicode="v" glyph-name="v" horiz-adv-x="1024" d="M584 0H397L20 1073H213L500 203L803 1073H995L584 0Z" />
<glyph unicode="w" glyph-name="w" horiz-adv-x="1478" d="M1135 0H940L723 842L516 0H324L12 1073H201L420 238L625 1073H834L1044 238L1257 1073H1450L1135 0Z" />
<glyph unicode="x" glyph-name="x" horiz-adv-x="1024" d="M598 555L969 0H770L502 412L229 0H35L414 547L55 1073H250L508 684L766 1073H958L598 555Z" />
<glyph unicode="y" glyph-name="y" horiz-adv-x="1024" d="M795 1073H979L502 -225L494 -244V-246Q453 -346 385 -395Q332 -434 262 -444Q244 -446 225 -446Q162 -446 111 -420V-266Q166 -279 201 -279Q293 -279 330 -197L338 -174L403 -4L41 1073H223L498 238L795 1073Z" />
<glyph unicode="z" glyph-name="z" horiz-adv-x="1024" d="M907 1073V922L270 150H936V0H63V154L705 924H106V1073H907Z" />
<glyph unicode="{" glyph-name="braceleft" horiz-adv-x="684" d="M565 1493V1360H535Q438 1360 416 1305V1305Q406 1276 406 1223V852Q406 651 322 580L319 578Q299 559 272 547L238 530Q406 453 406 207V-164Q406 -266 457 -289Q483 -301 535 -301H565V-434H471Q303
-434 260 -270Q248 -225 248 -166V176Q248 367 176 422Q143 446 88 459V600Q199 623 227 713Q248 770 248 883V1225Q248 1434 393 1481Q430 1493 471 1493H565Z" />
<glyph unicode="|" glyph-name="bar" horiz-adv-x="532" d="M205 1493H328V-434H205V1493Z" />
<glyph unicode="}" glyph-name="braceright" horiz-adv-x="684" d="M59 -434V-301H92Q190 -301 213 -246Q221 -223 223 -164V207Q223 453 391 528Q223 606 223 852V1223Q223 1325 170 1348Q143 1360 92 1360H59V1493H156Q326 1493 369 1327Q381 1282 381 1225V883Q381
690 455 635Q485 610 537 600V459Q430 436 399 342Q381 285 381 176V-166Q381 -377 231 -424Q197 -434 156 -434H59Z" />
<glyph unicode="~" glyph-name="asciitilde" horiz-adv-x="1196" d="M932 842H1040V809Q1040 635 924 573Q881 549 825 549Q782 549 733 567Q694 580 659 602L459 731L444 739H442L414 750L371 760Q311 760 279 688Q268 662 262 600H154Q168 868 340 895L375 897L412
893Q449 885 485 864L725 723Q782 688 827 688Q918 688 930 788L932 842Z" />
</font>
</defs>
</svg>
