<svg id="x-mark" xmlns="http://www.w3.org/2000/svg" width="19.999" height="19.999" viewBox="0 0 19.999 19.999">
  <path id="Path_1137" data-name="Path 1137" d="M10,20A10,10,0,1,1,20,10,10.011,10.011,0,0,1,10,20ZM10,1.428A8.571,8.571,0,1,0,18.571,10,8.581,8.581,0,0,0,10,1.428Zm0,0" fill="#f44336"/>
  <path id="Path_1138" data-name="Path 1138" d="M154.143,154.859a.712.712,0,0,1-.505-.209l-7.143-7.143a.714.714,0,0,1,1.01-1.01l7.143,7.143a.714.714,0,0,1-.5,1.219Zm0,0" transform="translate(-140.572 -140.573)" fill="#f44336"/>
  <path id="Path_1139" data-name="Path 1139" d="M147,154.857a.714.714,0,0,1-.5-1.219l7.143-7.143a.714.714,0,0,1,1.01,1.01l-7.143,7.143A.712.712,0,0,1,147,154.857Zm0,0" transform="translate(-140.572 -140.572)" fill="#f44336"/>
</svg>
