<svg width="100" height="100" viewBox="0 0 100 100" fill="none" xmlns="http://www.w3.org/2000/svg">
<g clip-path="url(#clip0)">
<path d="M49.9997 53.3333C64.7039 53.3333 76.6666 41.3706 76.6666 26.6667C76.6666 11.9627 64.7039 0 49.9997 0C43.362 0 37.0009 2.45421 32.0882 6.91056C31.2591 7.66282 31.1967 8.94454 31.9487 9.77367C32.701 10.6028 33.983 10.6656 34.8118 9.91312C38.9772 6.13457 44.3711 4.05366 49.9997 4.05366C62.4687 4.05366 72.6129 14.1979 72.6129 26.6667C72.6129 39.1354 62.4687 49.2797 49.9997 49.2797C37.5309 49.2797 27.3869 39.1357 27.3869 26.6667C27.3869 22.9013 28.3301 19.1746 30.1149 15.8894C30.6492 14.9057 30.2851 13.6752 29.3014 13.1409C28.318 12.6063 27.0875 12.971 26.5529 13.9544C24.4467 17.8316 23.3333 22.2276 23.3333 26.6667C23.3333 41.3706 35.2957 53.3333 49.9997 53.3333Z" fill="#FF720D"/>
<path d="M54.3739 20.8859C54.3503 19.8599 54.1137 19.1216 53.6641 18.6712C53.2382 18.2207 52.5284 17.9955 51.5346 17.9955H48.1985C46.6605 17.9955 45.4656 17.8829 44.6139 17.6577C43.7857 17.4324 43.0759 17.0821 42.4844 16.6066C41.2067 15.5806 40.5679 14.0415 40.5679 11.9895C40.5679 11.6642 40.5797 11.3514 40.6034 11.0511C40.6507 10.7257 40.698 10.3754 40.7453 10L43.3717 10.1877C43.277 10.6882 43.2297 11.1637 43.2297 11.6141C43.2297 12.1647 43.277 12.6527 43.3717 13.0781C43.49 13.5035 43.6674 13.8539 43.904 14.1291C44.2353 14.5295 44.7085 14.8298 45.3237 15.03C45.9625 15.2052 46.8616 15.2928 48.021 15.2928H50.7893C52.0433 15.2928 53.0371 15.3929 53.7706 15.5931C54.5041 15.7933 55.1311 16.1562 55.6516 16.6817C56.4324 17.4825 56.8583 18.8839 56.9293 20.8859H60.8333V23.5511H46.4594V36.539C46.4594 37.6401 46.5186 38.4159 46.6369 38.8664C46.7552 39.3168 46.8971 39.6421 47.0628 39.8423C47.4886 40.3679 48.1393 40.6306 49.0148 40.6306C49.9375 40.6306 50.813 40.3929 51.6411 39.9174C52.4692 39.4419 53.1909 38.8539 53.8061 38.1532C54.4922 37.3774 55.0128 36.5515 55.3677 35.6757C55.7463 34.7998 55.9356 33.9114 55.9356 33.0105C55.9356 32.2097 55.7463 31.6091 55.3677 31.2087C54.9891 30.7833 54.3621 30.5706 53.4867 30.5706C53.2027 30.5706 52.8951 30.5956 52.5639 30.6456C52.2326 30.6957 51.9132 30.7583 51.6056 30.8333L51.2152 28.1682C51.6648 28.043 52.1262 27.9429 52.5994 27.8679C53.0963 27.7928 53.6168 27.7553 54.161 27.7553C55.486 27.7553 56.5744 28.1682 57.4262 28.994C58.278 29.7948 58.7039 31.0836 58.7039 32.8604C58.7039 34.3368 58.3608 35.7758 57.6746 37.1772C56.9885 38.5536 56.1248 39.7172 55.0838 40.6682C54.2083 41.469 53.2501 42.1196 52.209 42.6201C51.1916 43.0956 50.0677 43.3333 48.8373 43.3333C47.9619 43.3333 47.2047 43.1957 46.5659 42.9204C45.9507 42.6451 45.442 42.2948 45.0398 41.8694C44.6612 41.3939 44.3418 40.8183 44.0815 40.1426C43.8449 39.467 43.7266 38.4409 43.7266 37.0646V23.5511H40V20.8859H54.3739Z" fill="#FF720D"/>
<path d="M25.4367 67.9676C25.1594 67.6727 24.7724 67.5055 24.3676 67.5055C23.9627 67.5055 23.576 67.6727 23.2984 67.9676L13.3283 78.5668C12.9271 78.9934 12.818 79.6174 13.0502 80.1547C13.2824 80.6922 13.8119 81.0401 14.3974 81.0401H17.2791V86.3699C17.2791 87.1805 17.9363 87.8377 18.7469 87.8377C19.5574 87.8377 20.2146 87.1805 20.2146 86.3699V79.5723C20.2146 78.7617 19.5574 78.1045 18.7469 78.1045H17.793L24.3674 71.1151L30.9418 78.1045H29.9879C29.1773 78.1045 28.5201 78.7617 28.5201 79.5723V97.0645H20.2142V92.2408C20.2142 91.4303 19.557 90.7731 18.7465 90.7731C17.9359 90.7731 17.2787 91.4303 17.2787 92.2408V98.5322C17.2787 99.3428 17.9359 100 18.7465 100H29.9877C30.7982 100 31.4555 99.3428 31.4555 98.5322V81.0401H34.3371C34.9224 81.0401 35.4519 80.6922 35.6844 80.1547C35.9166 79.6174 35.8074 78.9932 35.4062 78.5668L25.4367 67.9676Z" fill="#FF720D"/>
<path d="M51.4117 57.87C51.1343 57.5751 50.7474 57.4079 50.3425 57.4079C49.9377 57.4079 49.5509 57.5751 49.2734 57.87L39.3035 68.4694C38.9023 68.8959 38.7929 69.52 39.0254 70.0573C39.2576 70.5948 39.7871 70.9426 40.3726 70.9426H43.2543V98.5323C43.2543 99.3428 43.9115 100 44.722 100H55.9632C56.774 100 57.431 99.3428 57.431 98.5323V70.9426H60.3126C60.8982 70.9426 61.4275 70.5948 61.6599 70.0573C61.8921 69.52 61.7828 68.8958 61.3816 68.4694L51.4117 57.87ZM55.9632 68.0073C55.1525 68.0073 54.4955 68.6645 54.4955 69.4751V97.0647H46.1896V69.4749C46.1896 68.6643 45.5324 68.0071 44.7218 68.0071H43.7679L50.3423 61.0176L56.9168 68.0071H55.9632V68.0073Z" fill="#FF720D"/>
<path d="M77.3868 48.5273C77.1094 48.2324 76.7225 48.0652 76.3176 48.0652C75.9129 48.0652 75.5258 48.2324 75.2485 48.5273L65.2784 59.1265C64.8772 59.5529 64.7678 60.1771 65.0001 60.7144C65.2325 61.2519 65.7618 61.5998 66.3473 61.5998H69.229V70.5566C69.229 71.3671 69.886 72.0244 70.6967 72.0244C71.5075 72.0244 72.1645 71.3671 72.1645 70.5566V60.1322C72.1645 59.3216 71.5075 58.6644 70.6967 58.6644H69.743L76.3174 51.675L82.8916 58.6644H81.9379C81.1272 58.6644 80.4702 59.3216 80.4702 60.1322V97.0646H72.1643V76.4275C72.1643 75.6169 71.5073 74.9597 70.6965 74.9597C69.8858 74.9597 69.2288 75.6167 69.2288 76.4275V98.5324C69.2288 99.3429 69.8858 100 70.6965 100H81.9379C82.7487 100 83.4057 99.3429 83.4057 98.5324V61.5998H86.2873C86.8729 61.5998 87.4022 61.2519 87.6346 60.7144C87.8668 60.1771 87.7574 59.5529 87.3563 59.1265L77.3868 48.5273Z" fill="#FF720D"/>
<path d="M18.126 27.2258C18.126 26.4153 17.4688 25.7581 16.6582 25.7581H8.04981C7.23926 25.7581 6.58203 26.4153 6.58203 27.2258C6.58203 28.0364 7.23906 28.6936 8.04981 28.6936H16.6582C17.469 28.6934 18.126 28.0364 18.126 27.2258Z" fill="#FF720D"/>
<path d="M18.5568 38.7441L15.495 39.9435C14.7402 40.2392 14.3681 41.0908 14.6638 41.8455C14.8906 42.4244 15.4445 42.7781 16.0308 42.7781C16.2089 42.7781 16.39 42.7455 16.5658 42.6765L19.6275 41.4771C20.3824 41.1814 20.7544 40.3298 20.4587 39.5752C20.1628 38.8207 19.3113 38.4484 18.5568 38.7441Z" fill="#FF720D"/>
<path d="M15.495 14.5075L18.5567 15.7069C18.7327 15.7759 18.9136 15.8085 19.0917 15.8085C19.678 15.8085 20.2319 15.4546 20.4587 14.8759C20.7544 14.1212 20.3823 13.2696 19.6275 12.9739L16.5657 11.7745C15.8107 11.4788 14.9595 11.8511 14.6638 12.6057C14.3681 13.3602 14.7403 14.2118 15.495 14.5075Z" fill="#FF720D"/>
<path d="M91.9502 25.7581H83.3418C82.5311 25.7581 81.874 26.4153 81.874 27.2258C81.874 28.0364 82.5311 28.6936 83.3418 28.6936H91.9502C92.7609 28.6936 93.418 28.0364 93.418 27.2258C93.4178 26.4153 92.7608 25.7581 91.9502 25.7581Z" fill="#FF720D"/>
<path d="M80.3725 41.4775L83.4341 42.6769C83.61 42.7459 83.7911 42.7785 83.9692 42.7785C84.5555 42.7785 85.1094 42.4246 85.3362 41.8459C85.6319 41.0912 85.2598 40.2396 84.5051 39.9439L81.4436 38.7445C80.6882 38.4488 79.8374 38.8211 79.5415 39.5758C79.2458 40.3301 79.6179 41.1816 80.3725 41.4775V41.4775Z" fill="#FF720D"/>
<path d="M80.9085 15.8085C81.0866 15.8085 81.2678 15.7759 81.4436 15.707L84.5051 14.5076C85.2598 14.2119 85.6319 13.3603 85.3362 12.6056C85.0403 11.8507 84.1885 11.479 83.4341 11.7744L80.3725 12.9738C79.6179 13.2695 79.2458 14.121 79.5415 14.8757C79.7682 15.4548 80.3221 15.8085 80.9085 15.8085V15.8085Z" fill="#FF720D"/>
</g>
<defs>
<clipPath id="clip0">
<rect width="100" height="100" fill="white"/>
</clipPath>
</defs>
</svg>
