<svg width="100" height="93" viewBox="0 0 100 93" fill="none" xmlns="http://www.w3.org/2000/svg">
<g clip-path="url(#clip0)">
<path d="M38.6905 30.9517C38.4622 30.9517 38.2378 30.9091 38.0211 30.8317L1.26518 17.2901C0.506845 17.0076 0 16.288 0 15.4755C0 14.663 0.506845 13.9433 1.26518 13.6609L38.0211 0.119217C38.4506 -0.0394136 38.9265 -0.0394136 39.3598 0.119217L76.1158 13.6609C76.8741 13.9433 77.381 14.663 77.381 15.4755C77.381 16.288 76.8741 17.0076 76.1158 17.2901L39.3598 30.8317C39.1432 30.9091 38.9188 30.9517 38.6905 30.9517V30.9517ZM7.52917 15.4755L38.6905 26.9549L69.8518 15.4755L38.6905 3.996L7.52917 15.4755Z" fill="#FF33CC"/>
<path d="M40.494 82.5507C40.2696 82.5507 40.0452 82.512 39.8247 82.4307L1.26518 63.7194C0.506845 63.437 0 62.7173 0 61.9048V15.4763C0 14.4084 0.866667 13.5417 1.93452 13.5417C3.00238 13.5417 3.86905 14.4084 3.86905 15.4763V60.5545L41.1634 78.8016C42.1655 79.1691 42.6801 80.2834 42.3086 81.2855C42.0223 82.067 41.2795 82.5507 40.494 82.5507Z" fill="#FF33CC"/>
<path d="M75.4462 34.8215C74.3784 34.8215 73.5117 33.9548 73.5117 32.887V15.4763C73.5117 14.4084 74.3784 13.5417 75.4462 13.5417C76.5141 13.5417 77.3807 14.4084 77.3807 15.4763V32.887C77.3807 33.9548 76.5141 34.8215 75.4462 34.8215Z" fill="#FF33CC"/>
<path d="M38.6899 50.4137C37.622 50.4137 36.7554 49.547 36.7554 48.4792V29.0179C36.7554 27.95 37.622 27.0834 38.6899 27.0834C39.7578 27.0834 40.6244 27.95 40.6244 29.0179V48.4792C40.6244 49.5509 39.7578 50.4137 38.6899 50.4137Z" fill="#FF33CC"/>
<path d="M86.7925 45.8303H78.8914C78.4949 44.1296 76.95 42.8571 75.1088 42.8571H67.5519C65.7106 42.8571 64.1657 44.1296 63.7693 45.8303H56.0659C53.3105 45.8303 51.0691 48.0431 51.0691 50.763V87.9244C51.0691 90.6444 53.3106 92.8571 56.0659 92.8571H86.7927C89.548 92.8571 91.7895 90.6443 91.7895 87.9244V50.763C91.7894 48.043 89.5478 45.8303 86.7925 45.8303ZM66.6341 46.6898C66.6341 46.1902 67.0458 45.7836 67.5519 45.7836H75.1088C75.6148 45.7836 76.0266 46.1901 76.0266 46.6898V48.4825C76.0266 48.9821 75.6149 49.3886 75.1088 49.3886H67.5519C67.0459 49.3886 66.6341 48.9822 66.6341 48.4825V46.6898ZM86.7926 89.9307H56.0658C54.9451 89.9307 54.0335 89.0307 54.0335 87.9244V50.763C54.0335 49.6567 54.9452 48.7568 56.0658 48.7568H63.6806C63.8237 50.7424 65.5048 52.3152 67.5518 52.3152H75.1087C77.1559 52.3152 78.837 50.7424 78.9799 48.7568H86.7924C87.9131 48.7568 88.8247 49.6568 88.8247 50.763V87.9244H88.8248C88.8249 89.0308 87.9132 89.9307 86.7926 89.9307Z" fill="#FF33CC"/>
<path d="M84.2799 58.9482H69.8356C69.017 58.9482 68.3533 59.6034 68.3533 60.4115C68.3533 61.2196 69.017 61.8748 69.8356 61.8748H84.2798C85.0984 61.8748 85.7621 61.2196 85.7621 60.4115C85.7621 59.6034 85.0985 58.9482 84.2799 58.9482Z" fill="#FF33CC"/>
<path d="M65.5005 56.8301C64.8829 56.3 63.9465 56.3642 63.4093 56.9741L60.0999 60.7311L58.8778 59.4966C58.3056 58.9184 57.3671 58.908 56.7818 59.4728C56.1961 60.0376 56.1855 60.9639 56.7576 61.5419L59.1033 63.9115C59.1162 63.9245 59.1301 63.9356 59.1433 63.948C59.1593 63.963 59.1741 63.9787 59.1908 63.9931C59.1953 63.997 59.2002 64.0002 59.2047 64.004C59.2206 64.0173 59.2371 64.0294 59.2532 64.042C59.2749 64.0587 59.2965 64.0753 59.3188 64.0905C59.3365 64.1027 59.3547 64.114 59.3727 64.1253C59.3951 64.1393 59.4175 64.1528 59.4404 64.1655C59.4586 64.1756 59.4769 64.1851 59.4954 64.1944C59.5196 64.2065 59.5438 64.2178 59.5685 64.2284C59.5864 64.2361 59.6043 64.2438 59.6224 64.2508C59.6487 64.261 59.6752 64.2701 59.7019 64.2787C59.7191 64.2843 59.7362 64.29 59.7536 64.2949C59.7824 64.3031 59.8114 64.3099 59.8406 64.3162C59.8564 64.3197 59.8722 64.3236 59.888 64.3267C59.9205 64.3327 59.9531 64.3369 59.9859 64.3408C59.999 64.3424 60.0119 64.3447 60.025 64.3459C60.0707 64.3501 60.1166 64.3526 60.1624 64.3526C60.1625 64.3526 60.1626 64.3526 60.1627 64.3526C60.1628 64.3526 60.1629 64.3526 60.1631 64.3526C60.2125 64.3526 60.262 64.3497 60.3112 64.3449C60.3253 64.3436 60.3393 64.3408 60.3534 64.339C60.3887 64.3345 60.4236 64.3296 60.4585 64.3227C60.4757 64.3193 60.4927 64.3146 60.5097 64.3105C60.5409 64.303 60.572 64.2953 60.6027 64.286C60.6214 64.2802 60.6397 64.2736 60.6581 64.2671C60.6865 64.2571 60.7147 64.2468 60.7426 64.2351C60.7622 64.2269 60.7814 64.218 60.8006 64.2089C60.8263 64.1968 60.8516 64.184 60.8768 64.1703C60.897 64.1594 60.9168 64.148 60.9365 64.136C60.9596 64.122 60.9824 64.1071 61.0048 64.0918C61.0248 64.078 61.0448 64.0642 61.0642 64.0494C61.0855 64.0332 61.1062 64.0159 61.1266 63.9986C61.1455 63.9825 61.1644 63.9667 61.1825 63.9497C61.1879 63.9447 61.1936 63.9405 61.1988 63.9355C61.2153 63.9195 61.2296 63.9025 61.2451 63.8861C61.257 63.8736 61.27 63.8623 61.2815 63.8492L65.6459 58.8946C66.1836 58.2846 66.1182 57.3605 65.5005 56.8301Z" fill="#FF33CC"/>
<path d="M84.2799 69.1404H69.8356C69.017 69.1404 68.3533 69.7956 68.3533 70.6037C68.3533 71.4118 69.017 72.067 69.8356 72.067H84.2798C85.0984 72.067 85.7621 71.4118 85.7621 70.6037C85.7622 69.7955 85.0985 69.1404 84.2799 69.1404Z" fill="#FF33CC"/>
<path d="M84.2799 79.2857H69.8356C69.017 79.2857 68.3533 79.9408 68.3533 80.7489C68.3533 81.557 69.017 82.2122 69.8356 82.2122H84.2798C85.0984 82.2122 85.7621 81.557 85.7621 80.7489C85.7621 79.9408 85.0985 79.2857 84.2799 79.2857Z" fill="#FF33CC"/>
<path d="M64.102 69.1404H58.068C57.2494 69.1404 56.5857 69.7956 56.5857 70.6037C56.5857 71.4118 57.2494 72.067 58.068 72.067H64.1021C64.9207 72.067 65.5844 71.4118 65.5844 70.6037C65.5843 69.7955 64.9206 69.1404 64.102 69.1404Z" fill="#FF33CC"/>
<path d="M64.102 79.1034H58.068C57.2494 79.1034 56.5857 79.7586 56.5857 80.5667C56.5857 81.3748 57.2494 82.03 58.068 82.03H64.1021C64.9207 82.03 65.5844 81.3748 65.5844 80.5667C65.5844 79.7586 64.9206 79.1034 64.102 79.1034Z" fill="#FF33CC"/>
</g>
<defs>
<clipPath id="clip0">
<rect width="100" height="92.8571" fill="white"/>
</clipPath>
</defs>
</svg>
