<svg width="100" height="119" viewBox="0 0 100 119" fill="none" xmlns="http://www.w3.org/2000/svg">
<g clip-path="url(#clip0)">
<path d="M50.0034 118.182C36.6741 118.182 24.1428 112.982 14.7174 103.54C5.2921 94.0979 0.101318 81.5443 0.101318 68.1912C0.101318 58.9839 2.58496 50.0073 7.28403 42.2311C7.81952 41.345 8.87735 40.9244 9.87458 41.2033C10.8704 41.4816 11.5594 42.3908 11.5594 43.4266C11.5594 48.4675 15.6714 54.3272 20.9725 54.3272C26.181 54.3272 30.4188 50.0819 30.4188 44.8639C30.4188 43.075 29.9329 41.3455 29.013 39.8626C27.3209 37.1828 26.4213 34.0486 26.4213 30.8148C26.4213 21.7462 33.4962 14.3081 42.5299 13.8751C46.1444 13.6567 48.9741 10.6431 48.9741 7.00901C48.9741 5.74202 48.6481 4.52627 48.0312 3.49311C47.5727 2.72492 47.5985 1.76054 48.0981 1.01821C48.5974 0.275652 49.4801 -0.110055 50.3628 0.0275162C54.3967 0.65605 58.0981 2.71338 60.7847 5.82073C63.5036 8.96502 65.001 12.986 65.001 17.1429C65.001 20.6849 63.9326 24.102 61.9117 27.0251C61.9029 27.0376 61.8944 27.0498 61.8856 27.0621C60.6038 28.8396 59.9266 30.9304 59.9266 33.108C59.9266 38.7824 64.5347 43.3986 70.199 43.3986C75.7529 43.3986 80.2646 39.0575 80.4697 33.5161C80.5033 32.6095 81.0639 31.8069 81.9026 31.4641C82.7411 31.122 83.7022 31.3032 84.3591 31.9281C89.2169 36.5499 93.04 41.9987 95.7213 48.1229C98.4976 54.4636 99.9052 61.2157 99.9052 68.1914C99.9052 77.8994 97.1241 87.3136 91.8626 95.4164C91.1683 96.4847 89.7414 96.7875 88.6745 96.0927C87.6079 95.3975 87.3059 93.9678 87.9994 92.899C92.7736 85.5471 95.2969 77.0036 95.2969 68.1914C95.2969 57.0611 91.3674 46.6207 84.1483 38.3641C82.0381 44.0345 76.596 48.0151 70.199 48.0151C61.9939 48.0151 55.3183 41.3277 55.3183 33.108C55.3183 29.9621 56.2923 26.9443 58.1351 24.3794C59.6123 22.2362 60.393 19.7343 60.393 17.1429C60.393 12.3378 57.6225 8.0161 53.5278 5.86898C53.5642 6.24591 53.5824 6.62631 53.5824 7.00901C53.5824 13.0891 48.8405 18.1296 42.7865 18.4844C42.7778 18.4851 42.769 18.4856 42.7603 18.486C36.1822 18.7956 31.0296 24.2112 31.0296 30.8148C31.0296 33.1736 31.6824 35.4546 32.9174 37.4106C34.3008 39.6415 35.0269 42.2133 35.0269 44.8639C35.0269 52.6277 28.722 58.9437 20.9723 58.9437C17.2248 58.9437 13.6571 57.176 10.9262 53.9664C9.91537 52.7782 9.07689 51.4502 8.43472 50.0459C5.98565 55.7228 4.70938 61.8964 4.70938 68.1914C4.70984 93.2106 25.0283 113.565 50.0034 113.565C58.4757 113.565 66.7363 111.208 73.8923 106.749C74.9727 106.075 76.3939 106.407 77.0658 107.49C77.7379 108.572 77.4068 109.995 76.3264 110.669C68.4393 115.584 59.3368 118.182 50.0034 118.182V118.182Z" fill="#00A65A"/>
<path d="M43.6214 96.4658C43.2834 96.4658 42.9408 96.3912 42.6166 96.2333C41.4716 95.6766 40.9944 94.2953 41.5504 93.1488L54.2288 66.995C54.7846 65.8481 56.1638 65.3703 57.3078 65.927C58.4525 66.4838 58.93 67.865 58.374 69.0115L45.6956 95.1653C45.2975 95.9873 44.476 96.4658 43.6214 96.4658Z" fill="#00A65A"/>
<path d="M38.7565 77.2422C34.6904 77.2422 31.3821 73.9283 31.3821 69.8545C31.3821 65.7806 34.6901 62.4667 38.7565 62.4667C42.8229 62.4667 46.1312 65.7806 46.1312 69.8545C46.1312 73.9283 42.8231 77.2422 38.7565 77.2422V77.2422ZM38.7565 67.0832C37.2314 67.0832 35.9904 68.3264 35.9904 69.8545C35.9904 71.3825 37.2314 72.6257 38.7565 72.6257C40.2819 72.6257 41.5229 71.3825 41.5229 69.8545C41.5229 68.3264 40.2819 67.0832 38.7565 67.0832Z" fill="#00A65A"/>
<path d="M61.2436 99.7687C57.1772 99.7687 53.8689 96.4548 53.8689 92.3812C53.8689 88.3076 57.177 84.9934 61.2436 84.9934C65.3097 84.9934 68.618 88.3074 68.618 92.3812C68.618 96.4548 65.3097 99.7687 61.2436 99.7687V99.7687ZM61.2436 89.6101C59.7182 89.6101 58.4772 90.8534 58.4772 92.3814C58.4772 93.9092 59.7182 95.1525 61.2436 95.1525C62.7687 95.1525 64.0097 93.9092 64.0097 92.3814C64.0097 90.8531 62.7687 89.6101 61.2436 89.6101V89.6101Z" fill="#00A65A"/>
<path d="M83.2624 104.607C82.6541 104.607 82.0596 104.36 81.6313 103.931C81.2027 103.501 80.9583 102.906 80.9583 102.299C80.9583 101.689 81.2027 101.096 81.6313 100.667C82.0596 100.238 82.6541 99.9904 83.2624 99.9904C83.8686 99.9904 84.4606 100.237 84.8894 100.667C85.3202 101.096 85.5666 101.692 85.5666 102.299C85.5666 102.906 85.3202 103.501 84.8894 103.931C84.4608 104.36 83.8686 104.607 83.2624 104.607Z" fill="#00A65A"/>
</g>
<defs>
<clipPath id="clip0">
<rect width="100" height="118.182" fill="white"/>
</clipPath>
</defs>
</svg>
