<svg width="100" height="100" viewBox="0 0 100 100" fill="none" xmlns="http://www.w3.org/2000/svg">
<path d="M25.0594 32.1666C24.4871 31.5951 23.5596 31.5957 22.9879 32.1682L11.2699 43.9027C10.4803 44.692 10.4801 46.0154 11.2709 46.8039L18.7484 54.2719C19.5381 55.0596 20.8607 55.0574 21.6494 54.2694L22.035 53.8832C22.5326 56.8736 23.9771 61.3717 28.0779 65.4682C29.7195 67.1073 44.9973 82.4219 44.9973 82.4219C47.718 85.1372 52.5418 83.7868 53.4246 80.0321C56.2549 80.9491 59.3533 79.1237 59.9094 76.1948C62.6625 76.8473 65.4896 75.0223 66.0021 72.2328C69.9486 73.1369 73.3623 69.0407 71.7178 65.3227C75.7869 61.2547 77.2221 56.849 77.7121 53.899L78.0832 54.2705C78.8713 55.0576 80.1953 55.0598 80.9836 54.2713L88.466 46.8006C89.259 46.0033 89.2598 44.7053 88.4645 43.9037L68.9359 24.3474C68.1365 23.5476 66.8352 23.5469 66.035 24.3461L58.552 31.8191C57.9299 32.4449 57.7982 33.3785 58.1539 34.1391C55.4668 34.2355 52.826 34.818 50.3559 35.8184C47.5504 34.4131 44.1434 33.9754 41.6889 33.8641C41.9064 33.1451 41.7068 32.3453 41.1756 31.8154L33.6967 24.3463C32.8971 23.5474 31.5965 23.5482 30.7969 24.3484L28.1602 26.9904C26.8262 28.3267 28.8971 30.399 30.2338 29.06L32.2486 27.041L38.4832 33.2676L20.1967 51.5783L13.9629 45.3525L25.0609 34.2387C25.6326 33.6658 25.6318 32.7383 25.0594 32.1666ZM69.8832 63.0114L51.4379 44.5676C51.1604 44.2902 50.7711 44.1365 50.3863 44.1434C50.0709 44.1459 49.7639 44.2529 49.5137 44.4412C47.36 46.0174 45.7916 47.8188 44.7193 49.9475C43.4354 52.3908 42.4604 52.5826 41.8217 52.5113C41.583 52.4875 41.1916 52.2541 40.8738 51.6748C40.3174 50.6606 40.3604 49.3111 40.99 48.0635C43.0893 43.8893 46.6332 40.6578 50.793 38.8043C50.8463 38.7842 50.8982 38.7605 50.949 38.7342C54.075 37.3725 57.5404 36.7904 60.9986 37.166L75.0275 51.2143C75.0195 52.8613 74.5967 58.1422 69.8832 63.0114ZM67.4836 27.0394L85.7701 45.352L79.5346 51.5779L61.2479 33.267L67.4836 27.0394ZM38.3734 46.7457C37.3098 48.8539 37.2842 51.2234 38.3053 53.0844C39.0395 54.4225 40.2447 55.2979 41.5141 55.425C44.9564 55.8088 46.7346 52.4129 47.3193 51.2977C47.3232 51.2901 47.3271 51.2826 47.3309 51.2752C48.0271 49.8899 49 48.6668 50.2885 47.5615L68.6014 65.8729C70.4877 67.7557 67.5436 70.7108 65.6522 68.8229L53.96 57.117C52.6246 55.782 50.5508 57.8516 51.8889 59.1891L62.7012 70.0153C64.2773 71.9858 61.3916 74.586 59.5986 72.793L49.2006 62.3998C47.8648 61.0653 45.791 63.1344 47.1295 64.4719L56.4645 73.8028C58.3354 75.6709 55.3721 78.6084 53.4992 76.7348L43.5143 66.7545C42.1783 65.4201 40.1049 67.4889 41.4432 68.8266L50.0162 77.3983C51.9006 79.2807 48.958 82.2352 47.0676 80.3489C47.0676 80.3489 36.9551 70.192 30.148 63.3947C25.2684 58.5201 24.7543 52.8992 24.7162 51.2033L39.1145 36.7834C40.3133 36.7336 43.7295 36.692 46.8471 37.592C43.2865 39.782 40.2988 42.9172 38.3734 46.7457Z" fill="#45AAF2"/>
<path d="M68.6139 32.3627C67.784 31.5329 66.3098 32.0114 66.1305 33.1742C66.0086 33.9645 66.5854 34.5307 67.1225 35.0145C67.9809 35.7871 69.424 35.4244 69.6117 34.2086C69.7396 33.3799 69.1359 32.8848 68.6139 32.3627Z" fill="#45AAF2"/>
<path d="M85.3557 14.6447C75.9119 5.20098 63.3559 0 50 0C36.6441 0 24.0881 5.20098 14.6443 14.6447C5.20078 24.0885 0 36.6445 0 50C0 63.3555 5.20078 75.9115 14.6443 85.3553C24.0881 94.799 36.6441 100 50 100C53.5393 100 57.0727 99.6285 60.5021 98.8955C62.3496 98.5006 61.7373 95.6352 59.8898 96.0305C56.6611 96.7205 53.3338 97.0703 50 97.0703C37.4268 97.0703 25.6063 92.174 16.7158 83.2836C7.82578 74.3934 2.92969 62.5729 2.92969 50C2.92969 37.4271 7.82578 25.6066 16.7158 16.7164C25.6063 7.82598 37.4268 2.92969 50 2.92969C62.5732 2.92969 74.3938 7.82598 83.2842 16.7164C92.1742 25.6066 97.0703 37.4271 97.0703 50C97.0703 57.2117 95.4824 64.132 92.3504 70.5689C91.524 72.2678 94.1584 73.5496 94.9848 71.8506C98.3127 65.0111 100 57.6596 100 50C100 36.6445 94.7992 24.0885 85.3557 14.6447Z" fill="#45AAF2"/>
<path d="M87.7263 76.0708L69.4899 94.3078L62.5721 87.3902C61.237 86.055 59.1625 88.124 60.5006 89.4617L68.4544 97.4152C68.7292 97.69 69.1016 97.8443 69.4901 97.8443C69.8786 97.8443 70.2512 97.69 70.5258 97.4152L89.798 78.1425C91.1331 76.8074 89.0642 74.733 87.7263 76.0708Z" fill="#45AAF2"/>
</svg>
