<svg width="87" height="100" viewBox="0 0 87 100" fill="none" xmlns="http://www.w3.org/2000/svg">
<g clip-path="url(#clip0)">
<path d="M85.6445 62.1034C85.3028 61.2187 84.3882 60.6939 83.452 60.8454L36.3916 74.8933L16.544 8.44681C16.397 7.96592 16.0747 7.55753 15.6409 7.30291L3.72031 0.178636C2.71037 -0.27792 1.52157 0.17086 1.06501 1.1808C0.673174 2.04776 0.943847 3.07074 1.71347 3.6304H1.65326L12.9116 10.3332L32.7593 77.0606C26.7418 79.8913 24.1582 87.0642 26.9891 93.0817C29.8197 99.0993 36.9927 101.683 43.0102 98.8519C48.3597 96.3353 51.091 90.3075 49.4561 84.6264C48.466 81.2788 46.0716 78.5256 42.8938 77.0807L84.4955 64.6985C85.5293 64.2992 86.0438 63.1372 85.6445 62.1034ZM45.6231 85.7703C46.8533 90.0296 44.3974 94.4798 40.1381 95.7097C35.8789 96.9399 31.4287 94.484 30.1988 90.2248C28.9686 85.9655 31.4245 81.5153 35.6837 80.2854C36.3839 80.0832 37.1081 79.9773 37.8366 79.9706C41.4283 79.9708 44.5941 82.3288 45.6231 85.7703Z" fill="#1A4895"/>
<path d="M76.7756 55.1072C76.7736 55.0999 76.7713 55.0926 76.7691 55.0856L70.869 35.238C70.2228 33.0365 67.9144 31.776 65.7129 32.4219C65.7056 32.4239 65.6983 32.4262 65.6913 32.4284L49.8373 37.1445L33.9833 41.8606C31.7818 42.5068 30.5213 44.8151 31.1672 47.0166C31.1692 47.0239 31.1715 47.0312 31.1737 47.0382L37.0538 66.9059C37.5868 68.6752 39.2196 69.8835 41.0674 69.876C41.4688 69.873 41.8674 69.8123 42.2515 69.6954L58.1055 64.9793L73.9595 60.2632C76.161 59.617 77.4218 57.3087 76.7756 55.1072ZM41.1078 65.782C41.0534 65.8192 40.9816 65.8192 40.9272 65.782L35.0271 45.9344C34.9948 45.8619 35.0203 45.7767 35.0873 45.7338V45.7137L49.0148 41.5595L55.0353 61.6279L41.1078 65.782ZM72.8359 56.4101L58.9085 60.5643L52.888 40.4959L66.7953 36.2816C66.8578 36.2848 66.9125 36.324 66.9358 36.3819L72.8359 56.2295V56.4101Z" fill="#1A4895"/>
<path d="M61.7581 26.428L57.5437 12.2597C56.8772 10.0655 54.5653 8.82001 52.3661 9.47023L39.4822 13.3033L26.5983 17.1363C24.396 17.7943 23.14 20.109 23.7887 22.314L28.003 36.5023C28.6593 38.7008 30.9737 39.9508 33.1719 39.2943C33.1749 39.2936 33.1777 39.2926 33.1807 39.2918L58.9485 31.6056C61.1507 30.9476 62.4068 28.633 61.7581 26.428ZM32.0167 35.4387C31.9645 35.4826 31.8883 35.4826 31.8361 35.4387L27.6217 21.2704C27.5778 21.2182 27.5778 21.142 27.6217 21.0898L38.5992 17.8187L42.8938 32.2679L32.0167 35.4387ZM57.8046 27.7525V27.7726L46.8272 31.0437L42.5326 16.5945L53.51 13.3234C53.5742 13.3206 53.6321 13.362 53.6504 13.4237L57.8648 27.612C57.8741 27.6667 57.8505 27.7216 57.8046 27.7525Z" fill="#1A4895"/>
</g>
<defs>
<clipPath id="clip0">
<rect width="86.6667" height="100" fill="white"/>
</clipPath>
</defs>
</svg>
