<svg width="100" height="100" viewBox="0 0 100 100" fill="none" xmlns="http://www.w3.org/2000/svg">
<g clip-path="url(#clip0)">
<path d="M55.5873 63.3647C54.9625 62.8518 54.0391 62.9424 53.5258 63.568L49.3883 68.6106L47.825 67.2549C47.2137 66.725 46.2887 66.7906 45.7586 67.4018C45.2285 68.0129 45.2944 68.9381 45.9055 69.4682L48.6061 71.8102C48.8735 72.0422 49.2147 72.1684 49.5658 72.1684C49.6071 72.1684 49.6483 72.1666 49.6897 72.1631C50.0838 72.1297 50.4475 71.9383 50.6983 71.6326L55.7904 65.4264C56.3039 64.801 56.2131 63.878 55.5873 63.3647V63.3647Z" fill="#83B542"/>
<path d="M90.4441 84.8131C90.1922 84.7441 89.9416 84.6758 89.6928 84.6064C89.3645 84.515 89.1025 84.0498 88.9053 83.5885C92.6779 80.9727 95.4881 76.4893 95.4881 72.5807V69.0264C95.4881 64.6406 94.1145 60.9164 91.5156 58.2564C89.1832 55.8691 86.0418 54.5238 82.6701 54.4682C82.6541 54.468 82.6377 54.468 82.6217 54.4682C79.25 54.524 76.1086 55.8693 73.7762 58.2564C71.1773 60.9164 69.8037 64.6406 69.8037 69.0264V72.5807C69.8037 76.4895 72.6145 80.9721 76.3883 83.5875C76.1918 84.0488 75.9295 84.5146 75.5977 84.6066C75.3484 84.6764 75.0965 84.7451 74.843 84.8145C73.5758 85.1609 72.1617 85.5479 70.818 86.1359L60.609 75.5781C62.2395 73.4764 63.2164 70.8262 63.2164 67.9465C63.2164 61.6109 58.5045 56.3775 52.4625 55.6832V45.527H66.2687C67.5818 45.527 68.65 44.45 68.65 43.1264V40.0592C68.65 32.9473 63.1182 31.4406 59.0789 30.3404C58.8316 30.273 58.5857 30.2061 58.3416 30.1381C58.0105 30.0463 57.7486 29.5805 57.552 29.1172C61.3268 26.5043 64.1383 22.0227 64.1383 18.1127V14.5586C64.1383 10.1725 62.7645 6.44824 60.1648 3.78848C57.832 1.40156 54.6891 0.0560547 51.3148 0.000390625C51.2988 0.000195312 51.2824 0.000195312 51.2664 0.000390625C47.8945 0.05625 44.7531 1.40156 42.4209 3.78867C39.8221 6.44863 38.4484 10.1729 38.4484 14.5586V18.1131C38.4484 22.0232 41.2602 26.5051 45.0348 29.1178C44.8381 29.5809 44.5758 30.0467 44.2443 30.1387C44.001 30.2064 43.7549 30.2732 43.5078 30.3408C39.4686 31.441 33.9367 32.9479 33.9367 40.0596V43.1268C33.9367 44.4504 35.0051 45.5273 36.318 45.5273H49.5328V55.7088C43.5854 56.4924 38.9744 61.6797 38.9744 67.9467C38.9744 70.8287 39.9529 73.4811 41.5857 75.5836L31.6641 85.9447C29.7484 84.4229 27.2521 83.7377 25.157 83.1648C24.9035 83.0957 24.6514 83.0266 24.3994 82.9562C24.0695 82.8646 23.8078 82.399 23.6115 81.9377C27.3855 79.3221 30.1961 74.8397 30.1961 70.9309V67.3766C30.1961 62.9908 28.8225 59.2666 26.2236 56.6066C23.8912 54.2193 20.7498 52.874 17.3781 52.8184C17.3621 52.8182 17.3457 52.8182 17.3297 52.8184C13.958 52.8742 10.8166 54.2195 8.48418 56.6066C5.88535 59.2666 4.51172 62.9908 4.51172 67.3766V70.9309C4.51172 74.8393 7.32129 79.3223 11.0945 81.9385C10.8973 82.4 10.6352 82.8652 10.3063 82.9568C10.058 83.026 9.80742 83.0945 9.55547 83.1635C5.52285 84.2646 0 85.7732 0 92.8826V95.9498C0 97.2734 1.06836 98.3504 2.38125 98.3504H14.0025C14.8117 98.3504 15.4674 97.6945 15.4674 96.8855C15.4674 96.0766 14.8117 95.4207 14.0025 95.4207H2.92969V92.8826C2.92969 88.957 5.01621 87.6082 8.55078 86.5031L15.0305 90.3869C15.8658 90.932 16.61 91.2043 17.3537 91.2043C18.0975 91.2043 18.8406 90.9316 19.6732 90.3865L26.1562 86.5035C29.6914 87.609 31.7783 88.9574 31.7783 92.8826V95.4207H20.3744C19.5652 95.4207 18.9096 96.0766 18.9096 96.8855C18.9096 97.6945 19.5652 98.3504 20.3744 98.3504H32.3266C33.6396 98.3504 34.7078 97.2734 34.7078 95.9498V92.8826C34.7078 90.9201 34.2854 89.3861 33.591 88.168L43.6453 77.6686C45.7023 79.3057 48.2877 80.285 51.0951 80.285C53.9051 80.285 56.4926 79.3039 58.5506 77.6643L68.2314 87.676C66.5158 89.082 65.2918 91.1867 65.2918 94.5326V97.5998C65.2918 98.9234 66.3602 100 67.673 100H79.5709C80.3801 100 81.0357 99.3445 81.0357 98.5355C81.0357 97.7266 80.3801 97.0707 79.5709 97.0707H68.2215V94.5326C68.2215 90.6072 70.3086 89.2592 73.8436 88.1535L80.3266 92.0365C81.1592 92.5816 81.9022 92.8543 82.6461 92.8543C83.3898 92.8543 84.134 92.5818 84.9693 92.0369L91.4488 88.1533C94.9838 89.258 97.0703 90.6068 97.0703 94.5324V97.0705H86.198C85.3889 97.0705 84.7332 97.7264 84.7332 98.5354C84.7332 99.3443 85.3889 100 86.198 100H97.6188C98.9318 100 100 98.9232 100 97.5996V94.5324C100 87.4229 94.477 85.9145 90.4441 84.8131V84.8131ZM17.3541 55.7477C21.7424 55.8314 26.4299 58.9363 27.1666 65.532C26.5209 65.2365 26.1082 64.8072 25.6584 64.3395C24.9752 63.6289 24.0883 62.7064 22.5164 62.7064C22.1398 62.7064 21.7238 62.7594 21.2623 62.8809C20.6619 63.0379 20.1531 63.176 19.7137 63.2955C18.4723 63.633 17.8488 63.8021 17.3539 63.8021C16.859 63.8021 16.2355 63.6328 14.9941 63.2955C14.5547 63.1762 14.0461 63.0379 13.4473 62.8814C11.0521 62.2523 9.89316 63.4594 9.04648 64.3408C8.59766 64.8078 8.18574 65.2367 7.54141 65.5318C8.27852 58.9361 12.9658 55.8314 17.3541 55.7477ZM7.4416 70.9307V68.6348C9.4207 68.1746 10.443 67.1156 11.1592 66.3703C11.8807 65.6193 11.973 65.5232 12.7049 65.7152C13.2947 65.8693 13.7943 66.0051 14.2262 66.1225C15.6717 66.5152 16.4682 66.7316 17.3541 66.7316C18.24 66.7316 19.0363 66.5152 20.482 66.1225C20.9139 66.0051 21.4137 65.8693 22.0057 65.7147C22.733 65.5229 22.8254 65.6197 23.5469 66.3699C24.2637 67.1154 25.2871 68.1746 27.2668 68.6348V70.9307C27.2668 74.6266 23.7229 79.21 19.6824 80.7389C17.9637 81.39 16.7434 81.3898 15.0209 80.7389C10.983 79.2094 7.4416 74.626 7.4416 70.9307V70.9307ZM18.1416 87.8889C18.123 87.9 18.1049 87.9113 18.0869 87.9232C17.3809 88.3896 17.3258 88.39 16.6135 87.9215C16.5965 87.9104 16.5791 87.8994 16.5615 87.8889L12.1725 85.2582C12.8926 84.7434 13.3572 84.0098 13.6684 83.3516C13.7734 83.3947 13.8781 83.4389 13.9838 83.4789C15.1813 83.9313 16.2674 84.1574 17.3533 84.1574C18.4395 84.1574 19.5248 83.9311 20.7193 83.4785C20.8258 83.4383 20.9312 83.3939 21.0371 83.3504C21.3477 84.0092 21.8119 84.7434 22.533 85.2584L18.1416 87.8889ZM51.2906 2.93008C55.6814 3.01387 60.3717 6.11836 61.1086 12.7148C60.4615 12.4187 60.0484 11.9883 59.5986 11.5191C58.9162 10.8074 58.0305 9.88379 56.457 9.88379C56.0801 9.88379 55.6637 9.93672 55.2014 10.0586C54.6154 10.2131 54.1166 10.3494 53.6842 10.4676C52.4256 10.8117 51.7938 10.9846 51.2906 10.9846C50.7924 10.9846 50.1627 10.8123 48.9074 10.4689C48.474 10.3504 47.9736 10.2135 47.3846 10.0582C44.9914 9.42852 43.8324 10.6375 42.9857 11.5195C42.5361 11.9879 42.1234 12.4178 41.4781 12.7137C42.2152 6.11836 46.9025 3.01406 51.2906 2.93008V2.93008ZM41.3781 18.1131V15.817C43.3588 15.3563 44.3822 14.2951 45.0992 13.5482C45.8203 12.7969 45.9131 12.7004 46.6385 12.8912C47.2168 13.0437 47.7086 13.1783 48.1346 13.2947C49.5949 13.6939 50.3992 13.9141 51.2906 13.9141C52.1871 13.9141 52.9934 13.6936 54.457 13.2934C54.882 13.1771 55.3723 13.0432 55.9475 12.8914C56.673 12.7004 56.765 12.7969 57.4842 13.5469C58.201 14.2943 59.2248 15.3564 61.2084 15.8172V18.1131C61.2084 21.7443 57.5941 26.4162 53.624 27.9156C51.9035 28.5676 50.6834 28.5676 48.9611 27.9152C44.9924 26.4162 41.3781 21.7443 41.3781 18.1131V18.1131ZM56.4721 32.4387L52.0838 35.0656C52.0652 35.0768 52.0471 35.0883 52.0289 35.1002C51.3209 35.568 51.266 35.568 50.558 35.1002C50.5398 35.0881 50.5213 35.0766 50.5025 35.0652L46.1131 32.4396C46.8346 31.9242 47.2994 31.1897 47.6104 30.5289C47.715 30.5719 47.8193 30.6156 47.9248 30.6555C49.1215 31.1088 50.2076 31.3354 51.2939 31.3354C52.3797 31.3354 53.4654 31.1088 54.6609 30.6559C54.7668 30.6158 54.8715 30.5719 54.9766 30.5287C55.2873 31.1893 55.7516 31.9232 56.4721 32.4387V32.4387ZM36.8664 42.5975V40.0596C36.8664 36.1375 38.9525 34.7879 42.4867 33.6844L48.9717 37.5635C49.8059 38.1094 50.5496 38.3824 51.2934 38.3824C52.0373 38.3824 52.7811 38.1094 53.6152 37.5633L60.0967 33.6834C63.633 34.7871 65.7203 36.1363 65.7203 40.0596V42.5975H36.8664ZM51.0953 77.3553C46.0273 77.3553 41.9041 73.1346 41.9041 67.9465C41.9041 62.7555 46.0271 58.5322 51.0953 58.5322C56.1635 58.5322 60.2867 62.7555 60.2867 67.9465C60.2867 73.1346 56.1637 77.3553 51.0953 77.3553ZM82.6459 57.3975C87.0342 57.4812 91.7215 60.5859 92.4584 67.1814C91.8141 66.8863 91.4021 66.4574 90.9533 65.9904C90.1066 65.1092 88.9473 63.902 86.5543 64.5307C85.9539 64.6877 85.4451 64.8258 85.0057 64.9453C83.7643 65.2828 83.1408 65.452 82.6459 65.452C82.151 65.452 81.5275 65.2826 80.2859 64.9451C79.8465 64.8258 79.3379 64.6875 78.7398 64.5312C76.3486 63.902 75.1883 65.1084 74.3414 65.9893C73.8916 66.457 73.4789 66.8863 72.8332 67.1818C73.5703 60.5863 78.2578 57.4814 82.6459 57.3975V57.3975ZM72.7336 72.5805V70.2846C74.7133 69.8244 75.7367 68.7652 76.4535 68.0197C77.175 67.2693 77.2676 67.1732 77.9969 67.365C78.5865 67.5191 79.0861 67.6549 79.5178 67.7723C80.9637 68.165 81.7602 68.3814 82.6461 68.3814C83.532 68.3814 84.3283 68.165 85.774 67.7723C86.2059 67.6549 86.7057 67.5191 87.2971 67.3645C88.0271 67.1729 88.1199 67.2691 88.841 68.0199C89.5572 68.7654 90.5795 69.8244 92.5586 70.2844V72.5803C92.5586 76.2756 89.017 80.859 84.9809 82.3881C83.2564 83.0395 82.0365 83.0396 80.3174 82.3883C76.2773 80.8596 72.7336 76.2764 72.7336 72.5805V72.5805ZM83.4385 89.5389C83.4209 89.5494 83.4035 89.5602 83.3865 89.5715C82.6746 90.0398 82.6195 90.0398 81.9131 89.5732C81.8951 89.5613 81.8768 89.5498 81.8584 89.5389L77.4664 86.9084C78.1879 86.3932 78.6521 85.6592 78.9627 85.0008C79.0684 85.0441 79.1736 85.0885 79.2799 85.1287C80.4748 85.5813 81.5602 85.8076 82.6463 85.8076C83.7322 85.8076 84.8193 85.5813 86.0174 85.1287C86.1227 85.0889 86.227 85.0449 86.3316 85.002C86.6428 85.6602 87.1074 86.3938 87.8273 86.9086L83.4385 89.5389Z" fill="#83B542"/>
</g>
<defs>
<clipPath id="clip0">
<rect width="100" height="100" fill="white"/>
</clipPath>
</defs>
</svg>
