<svg width="100" height="69" viewBox="0 0 100 69" fill="none" xmlns="http://www.w3.org/2000/svg">
<g clip-path="url(#clip0)">
<path d="M49.9999 1.39227C41.6087 1.39227 34.7825 8.22386 34.7825 16.6222C34.7825 25.0204 41.6085 31.852 49.9999 31.852C58.3914 31.852 65.2174 25.0202 65.2174 16.6222C65.2174 8.22407 58.3914 1.39227 49.9999 1.39227ZM49.9999 27.5005C44.0087 27.5005 39.1304 22.6183 39.1304 16.6222C39.1304 10.626 44.0087 5.74378 49.9999 5.74378C55.9912 5.74378 60.8694 10.626 60.8694 16.6222C60.8694 22.6183 55.9914 27.5005 49.9999 27.5005Z" fill="#F39C12"/>
<path d="M80.4347 18.798C74.4434 18.798 69.5652 23.6802 69.5652 29.6763C69.5652 35.6725 74.4434 40.5547 80.4347 40.5547C86.4259 40.5547 91.3042 35.6725 91.3042 29.6763C91.3042 23.6802 86.4259 18.798 80.4347 18.798ZM80.4347 36.2034C76.839 36.2034 73.9129 33.275 73.9129 29.6763C73.9129 26.0777 76.839 23.1493 80.4347 23.1493C84.0304 23.1493 86.9564 26.0777 86.9564 29.6763C86.9564 33.275 84.0302 36.2034 80.4347 36.2034Z" fill="#F39C12"/>
<path d="M19.874 18.798C13.8783 18.798 9.00452 23.6802 9.00452 29.6763C9.00452 35.6725 13.8828 40.5547 19.874 40.5547C25.8652 40.5547 30.7435 35.6725 30.7435 29.6763C30.7435 23.6802 25.8695 18.798 19.874 18.798ZM19.874 36.2034C16.2783 36.2034 13.3523 33.275 13.3523 29.6763C13.3523 26.0777 16.2783 23.1493 19.874 23.1493C23.4697 23.1493 26.3957 26.0777 26.3957 29.6763C26.3957 33.275 23.4695 36.2034 19.874 36.2034Z" fill="#F39C12"/>
<path d="M49.9999 36.2035C34.4173 36.2035 21.739 48.8921 21.739 64.4874C21.739 65.6884 22.713 66.6632 23.913 66.6632C25.113 66.6632 26.087 65.6884 26.087 64.4874C26.087 51.2897 36.813 40.555 49.9999 40.555C63.1868 40.555 73.9128 51.2897 73.9128 64.4874C73.9128 65.6884 74.8868 66.6632 76.0868 66.6632C77.2868 66.6632 78.2608 65.6884 78.2608 64.4874C78.2608 48.8921 65.5825 36.2035 49.9999 36.2035Z" fill="#F39C12"/>
<path d="M80.4348 44.9062C76.8566 44.9062 73.3522 45.8853 70.3 47.7347C69.2784 48.3613 68.9478 49.6971 69.5696 50.7241C70.2 51.7511 71.5304 52.0775 72.5566 51.4551C74.926 50.0147 77.6478 49.2576 80.4348 49.2576C88.826 49.2576 95.6523 56.0891 95.6523 64.4874C95.6523 65.6884 96.6262 66.6632 97.8262 66.6632C99.0262 66.6632 100 65.6884 100 64.4874C100 53.6917 91.2218 44.9062 80.4348 44.9062Z" fill="#F39C12"/>
<path d="M29.6957 47.7302C26.6478 45.8853 23.1436 44.9062 19.5652 44.9062C8.77826 44.9062 0 53.6917 0 64.4874C0 65.6884 0.97398 66.6632 2.17398 66.6632C3.37398 66.6632 4.34796 65.6884 4.34796 64.4874C4.34776 56.0891 11.174 49.2576 19.5652 49.2576C22.3522 49.2576 25.0738 50.0147 27.4392 51.4507C28.4609 52.073 29.8001 51.7466 30.4261 50.7196C31.0522 49.6926 30.7217 48.3568 29.6957 47.7302Z" fill="#F39C12"/>
</g>
<defs>
<clipPath id="clip0">
<rect width="100" height="68.0556" fill="white"/>
</clipPath>
</defs>
</svg>
