<svg width="84" height="100" viewBox="0 0 84 100" fill="none" xmlns="http://www.w3.org/2000/svg">
<g clip-path="url(#clip0)">
<path d="M56.6254 7.88499C56.2881 7.64848 55.867 7.56456 55.4657 7.65459C55.0636 7.74461 54.7188 7.99943 54.5143 8.35649C54.5044 8.37404 54.4922 8.39006 54.4815 8.40608C54.0115 9.07747 53.0831 9.24073 52.4117 8.77153C51.7487 8.30766 50.8354 8.46788 50.3716 9.13087L48.2369 12.1803C47.773 12.8433 47.934 13.7566 48.5962 14.2204C48.8526 14.3997 49.1455 14.4859 49.4355 14.4859C49.897 14.4859 50.3517 14.2677 50.6363 13.8611L52.0745 11.8065C53.4248 12.1826 54.892 11.8927 55.9982 11.0214L58.1589 12.5343C58.8219 12.9982 59.7343 12.8372 60.199 12.175C60.6628 11.512 60.5018 10.5988 59.8388 10.1349L56.6254 7.88499Z" fill="#754FFE"/>
<path d="M72.8248 26.3366L71.3867 28.3905C70.9228 29.0534 71.0838 29.9667 71.746 30.4306C72.0024 30.6098 72.2954 30.6953 72.5853 30.6953C73.0469 30.6953 73.5016 30.4779 73.7862 30.0704L75.9216 27.0217C76.3855 26.3587 76.2245 25.4455 75.5623 24.9816C74.8909 24.5117 74.7269 23.5832 75.1976 22.911C75.209 22.895 75.2197 22.879 75.2327 22.8645C75.4982 22.5494 75.6195 22.1382 75.5661 21.73C75.5135 21.3218 75.2914 20.9541 74.9542 20.7183L71.7407 18.4684C71.0777 18.0046 70.1645 18.1656 69.7006 18.8286C69.236 19.4908 69.3977 20.4048 70.0599 20.8686L72.2206 22.3808C71.7796 23.719 72.0093 25.196 72.8248 26.3366Z" fill="#754FFE"/>
<path d="M65.0515 59.246C65.7473 59.246 66.3935 59.5244 66.8711 60.031C67.4265 60.6185 68.3534 60.6452 68.9417 60.0898C69.5307 59.5344 69.5566 58.6074 69.0012 58.0192C67.9796 56.9373 66.5399 56.3163 65.0515 56.3163C62.0562 56.3163 59.6201 58.7531 59.6201 61.7484C59.6201 64.743 62.0562 67.1798 65.0515 67.1798C66.5026 67.1798 67.8667 66.6152 68.8921 65.5891C69.4643 65.0168 69.4643 64.0891 68.8921 63.5177C68.3206 62.9455 67.3929 62.9455 66.8207 63.5177C66.3484 63.9899 65.7198 64.2501 65.0515 64.2501C63.6721 64.2501 62.5498 63.1278 62.5498 61.7484C62.5498 60.3683 63.6721 59.246 65.0515 59.246V59.246Z" fill="#754FFE"/>
<path d="M78.0941 51.4295V39.697C78.0941 35.7137 74.8531 32.4727 70.8698 32.4727H63.0962C63.5509 28.5451 62.2684 25.0905 59.563 23.1961C57.2711 21.5917 54.3018 21.304 51.2012 22.3859C48.2707 23.409 45.5447 25.5589 43.5275 28.4398C42.6341 29.7147 41.9231 31.0666 41.4073 32.4727H31.8706L52.3692 3.19795L80.8139 23.1145L76.4804 29.3042C76.0166 29.9672 76.1776 30.8804 76.8398 31.3443C77.5028 31.8082 78.416 31.6472 78.8799 30.9842L83.604 24.2375C84.3158 23.2236 84.0694 21.819 83.0539 21.1064L53.4923 0.407877C53.001 0.063028 52.4043 -0.0697235 51.8131 0.0340362C51.2218 0.138559 50.7068 0.46586 50.3612 0.957956L43.5809 10.6419V4.80241C43.5809 3.56263 42.5723 2.55403 41.3325 2.55403H6.19761C4.95783 2.55403 3.94922 3.56263 3.94922 4.80241V12.8217C3.94922 13.6311 4.60535 14.2865 5.41407 14.2865C6.22355 14.2865 6.87892 13.6311 6.87892 12.8217V5.48448H11.1232V32.4719H7.22453C7.10932 32.4719 6.99412 32.475 6.87892 32.4803V18.681C6.87892 17.8723 6.22355 17.2162 5.41407 17.2162C4.60535 17.2162 3.94922 17.8723 3.94922 18.681V33.2585C1.60776 34.4548 0.000244141 36.8916 0.000244141 39.697V83.7987C0.000244141 87.782 3.24122 91.023 7.22453 91.023H18.162C18.9715 91.023 19.6269 90.3676 19.6269 89.5581C19.6269 88.7494 18.9715 88.0933 18.162 88.0933H7.22453C4.85636 88.0933 2.92994 86.1669 2.92994 83.7987V39.697C2.92994 37.8201 4.13996 36.221 5.81995 35.6381C5.85734 35.6275 5.89472 35.6152 5.93058 35.6015C6.33952 35.4718 6.77439 35.4016 7.22529 35.4016H70.8698C73.2379 35.4016 75.1651 37.3288 75.1651 39.697V51.2265H64.6778C58.8764 51.2265 54.156 55.9461 54.156 61.7482C54.156 67.5496 58.8764 72.2691 64.6778 72.2691H75.1651V83.7987C75.1651 86.1669 73.2379 88.0933 70.8698 88.0933H59.6767C58.8672 88.0933 58.2118 88.7494 58.2118 89.5581C58.2118 90.3676 58.8672 91.023 59.6767 91.023H70.8698C74.8531 91.023 78.0948 87.782 78.0948 83.7987V72.0662C81.409 71.2796 83.8817 68.295 83.8817 64.7443V58.7521C83.881 55.2007 81.4083 52.216 78.0941 51.4295V51.4295ZM45.927 30.1213C49.2679 25.3499 54.6314 23.3205 57.883 25.5963C59.756 26.9078 60.5808 29.4812 60.1421 32.4719H44.5735C44.9451 31.6632 45.3967 30.8766 45.927 30.1213ZM40.6512 14.8259L28.2947 32.4727H21.0765V5.48371H40.6512V14.8259ZM14.0528 5.48371H18.1468V32.4719H14.0528V5.48371ZM80.9513 64.7435C80.9513 67.278 78.8898 69.3395 76.3553 69.3395H64.6778C60.4915 69.3395 57.0857 65.9337 57.0857 61.7474C57.0857 57.562 60.4915 54.1562 64.6778 54.1562H76.3553C78.8898 54.1562 80.9513 56.2177 80.9513 58.7521V64.7435Z" fill="#754FFE"/>
<path d="M39.0463 64.6049C29.2883 64.6049 21.3491 72.544 21.3491 82.3028C21.3491 92.0608 29.2883 99.9999 39.0463 99.9999C48.805 99.9999 56.7442 92.0608 56.7442 82.3028C56.7442 72.544 48.805 64.6049 39.0463 64.6049V64.6049ZM39.0463 97.0702C30.9034 97.0702 24.2788 90.4456 24.2788 82.3028C24.2788 74.1591 30.9034 67.5345 39.0463 67.5345C47.1899 67.5345 53.8145 74.1591 53.8145 82.3028C53.8145 90.4456 47.1899 97.0702 39.0463 97.0702Z" fill="#754FFE"/>
<path d="M40.2962 80.8379H37.7975C37.0613 80.8379 36.4624 80.239 36.4624 79.5028C36.4624 78.7665 37.0613 78.1676 37.7975 78.1676H42.5789C43.3876 78.1676 44.0437 77.5115 44.0437 76.7028C44.0437 75.8941 43.3876 75.2379 42.5789 75.2379H40.7806V73.9997C40.7806 73.191 40.1245 72.5349 39.3158 72.5349C38.5071 72.5349 37.851 73.191 37.851 73.9997V75.2379H37.7975C35.4462 75.2379 33.5327 77.1514 33.5327 79.5028C33.5327 81.8542 35.4462 83.7676 37.7975 83.7676H40.2962C41.0324 83.7676 41.6306 84.3658 41.6306 85.102C41.6306 85.8382 41.0324 86.4371 40.2962 86.4371H35.5148C34.7054 86.4371 34.05 87.0933 34.05 87.902C34.05 88.7107 34.7054 89.3668 35.5148 89.3668H37.851V90.6051C37.851 91.4138 38.5071 92.0699 39.3158 92.0699C40.1253 92.0699 40.7806 91.4138 40.7806 90.6051V89.3394C42.9047 89.0975 44.561 87.2901 44.561 85.102C44.5602 82.7506 42.6476 80.8379 40.2962 80.8379Z" fill="#754FFE"/>
</g>
<defs>
<clipPath id="clip0">
<rect width="83.9844" height="100" fill="white"/>
</clipPath>
</defs>
</svg>
