<svg width="26" height="25" viewBox="0 0 26 25" fill="none" xmlns="http://www.w3.org/2000/svg">
<g clip-path="url(#clip0_83_3047)">
<path d="M11.1607 17.672C11.1607 18.042 11.3077 18.3968 11.5694 18.6585C11.831 18.9201 12.1858 19.0671 12.5558 19.0671C12.9258 19.0671 13.2807 18.9201 13.5423 18.6585C13.8039 18.3968 13.9509 18.042 13.9509 17.672C13.9509 17.302 13.8039 16.9471 13.5423 16.6855C13.2807 16.4239 12.9258 16.2769 12.5558 16.2769C12.1858 16.2769 11.831 16.4239 11.5694 16.6855C11.3077 16.9471 11.1607 17.302 11.1607 17.672ZM13.2534 14.4168C13.3813 14.4168 13.4859 14.3122 13.4859 14.1843V6.27877C13.4859 6.15088 13.3813 6.04625 13.2534 6.04625H11.8583C11.7304 6.04625 11.6258 6.15088 11.6258 6.27877V14.1843C11.6258 14.3122 11.7304 14.4168 11.8583 14.4168H13.2534ZM24.8791 8.95269H23.1556C23.08 8.95269 23.0103 8.98756 22.9667 9.0486L19.8713 13.3152L18.421 11.3156C18.3995 11.2857 18.3711 11.2613 18.3382 11.2446C18.3054 11.2279 18.269 11.2194 18.2321 11.2197H16.5086C16.3197 11.2197 16.2092 11.4348 16.3197 11.5888L19.4935 15.9688C19.5369 16.0283 19.5938 16.0766 19.6594 16.11C19.7251 16.1433 19.7977 16.1607 19.8713 16.1607C19.945 16.1607 20.0176 16.1433 20.0832 16.11C20.1489 16.0766 20.2057 16.0283 20.2492 15.9688L25.068 9.3218C25.1785 9.16776 25.068 8.95269 24.8791 8.95269ZM23.6003 17.8464H21.7344C21.5745 17.8464 21.4263 17.9307 21.3391 18.0644C20.9265 18.7198 20.441 19.3263 19.8917 19.8722C18.9475 20.817 17.8292 21.5701 16.5987 22.0898C15.323 22.6278 13.952 22.9036 12.5675 22.9007C11.1695 22.9007 9.81216 22.6275 8.53623 22.0898C7.30568 21.5701 6.18743 20.817 5.24324 19.8722C4.29599 18.9304 3.54171 17.8128 3.02272 16.5821C2.48212 15.3091 2.20892 13.9518 2.20892 12.5567C2.20892 11.1616 2.48212 9.80427 3.02272 8.53125C3.54297 7.29892 4.28993 6.19157 5.24324 5.24117C6.19655 4.29076 7.3039 3.54381 8.53623 3.02356C9.81196 2.48552 11.1829 2.20975 12.5675 2.21266C13.9655 2.21266 15.3228 2.48587 16.5987 3.02356C17.831 3.54381 18.9384 4.29076 19.8917 5.24117C20.4439 5.79339 20.9264 6.39793 21.3391 7.04897C21.4234 7.18557 21.5745 7.26695 21.7344 7.26695H23.6003C23.7747 7.26695 23.8851 7.08385 23.8096 6.92981C21.7634 2.8637 17.5752 0.058993 12.7215 0.000864281C5.78093 -0.0805159 0.0145602 5.59575 2.80564e-05 12.5334C-0.0145041 19.4769 5.61817 25.1125 12.5675 25.1125C17.4851 25.1125 21.7402 22.2932 23.8066 18.1835C23.8245 18.1482 23.833 18.1089 23.8313 18.0693C23.8297 18.0298 23.818 17.9913 23.7973 17.9575C23.7767 17.9237 23.7477 17.8958 23.7132 17.8764C23.6787 17.8569 23.6399 17.8466 23.6003 17.8464Z" fill="#D81324"/>
</g>
<defs>
<clipPath id="clip0_83_3047">
<rect width="26" height="25" fill="white"/>
</clipPath>
</defs>
</svg>
