<svg width="22" height="22" viewBox="0 0 22 22" fill="none" xmlns="http://www.w3.org/2000/svg">
<g clip-path="url(#clip0_83_3039)">
<path d="M21.9342 5.60158C21.9983 5.75616 22.0152 5.92629 21.9827 6.09046C21.9502 6.25463 21.8697 6.40546 21.7514 6.52389L18.3668 9.90849C18.2881 9.98701 18.1947 10.0493 18.0919 10.0916C17.9891 10.134 17.8789 10.1558 17.7677 10.1556H13.0411L10.7515 12.4452C11.0096 12.9856 11.0683 13.5998 10.9174 14.1793C10.7664 14.7587 10.4154 15.2662 9.92652 15.6119C9.4376 15.9577 8.84219 16.1195 8.24552 16.0686C7.64886 16.0178 7.08937 15.7577 6.66594 15.3343C6.24251 14.9109 5.9824 14.3514 5.9316 13.7547C5.88079 13.1581 6.04255 12.5626 6.3883 12.0737C6.73404 11.5848 7.2415 11.2338 7.82098 11.0829C8.40046 10.9319 9.01465 10.9907 9.555 11.2488L11.8447 8.95911V4.23251C11.8445 4.12132 11.8662 4.01118 11.9086 3.90838C11.951 3.80559 12.0132 3.71216 12.0918 3.63344L15.4764 0.248834C15.5947 0.130192 15.7456 0.0493605 15.9099 0.0165861C16.0743 -0.0161883 16.2446 0.000570682 16.3994 0.0647385C16.5542 0.128906 16.6865 0.237593 16.7795 0.37702C16.8724 0.516448 16.9219 0.680336 16.9216 0.847909V5.07866H21.1523C21.3198 5.07869 21.4834 5.12839 21.6226 5.22147C21.7618 5.31456 21.8702 5.44684 21.9342 5.60158ZM19.1097 6.76927H16.0754C15.851 6.76927 15.6358 6.68012 15.4771 6.52144C15.3184 6.36275 15.2293 6.14753 15.2293 5.92312V2.89221L13.537 4.58451V8.46326H17.4174L19.1097 6.77096V6.76927ZM16.7524 11.8479C17.1158 13.63 16.8954 15.4818 16.1237 17.1287C15.352 18.7757 14.0702 20.1302 12.4683 20.9914C10.8663 21.8527 9.0295 22.1748 7.23007 21.9101C5.43065 21.6454 3.7644 20.808 2.47833 19.5219C1.19225 18.2358 0.354795 16.5696 0.0900987 14.7702C-0.174598 12.9707 0.147553 11.1339 1.0088 9.53197C1.87004 7.93002 3.22454 6.64822 4.87152 5.87655C6.51849 5.10489 8.37028 4.88444 10.1524 5.24789V6.98419C8.71472 6.61331 7.195 6.72538 5.8273 7.30314C4.4596 7.88091 3.31978 8.89231 2.58342 10.1816C1.84706 11.4708 1.55501 12.9664 1.75223 14.438C1.94946 15.9096 2.62504 17.2755 3.6749 18.3253C4.72476 19.3752 6.09067 20.0508 7.56224 20.248C9.03381 20.4452 10.5294 20.1532 11.8187 19.4168C13.1079 18.6805 14.1193 17.5406 14.6971 16.1729C15.2749 14.8052 15.3869 13.2855 15.0161 11.8479H16.7524Z" fill="#222222"/>
</g>
<defs>
<clipPath id="clip0_83_3039">
<rect width="22" height="22" fill="white"/>
</clipPath>
</defs>
</svg>
