<svg width="22" height="22" viewBox="0 0 22 22" fill="none" xmlns="http://www.w3.org/2000/svg">
<path d="M21.3125 10.3125H19.2285C19.0566 8.30729 18.2581 6.59212 16.833 5.16699C15.4079 3.74186 13.6927 2.95052 11.6875 2.79297V0.6875C11.6875 0.501302 11.6195 0.340169 11.4834 0.204102C11.3473 0.0680339 11.1862 0 11 0C10.8138 0 10.6527 0.0680339 10.5166 0.204102C10.3805 0.340169 10.3125 0.501302 10.3125 0.6875V2.79297C8.99479 2.89323 7.78092 3.28711 6.6709 3.97461C5.56087 4.66211 4.66211 5.56087 3.97461 6.6709C3.28711 7.78092 2.88607 8.99479 2.77148 10.3125H0.6875C0.501302 10.3125 0.340169 10.3805 0.204102 10.5166C0.0680339 10.6527 0 10.8138 0 11C0 11.1862 0.0680339 11.3473 0.204102 11.4834C0.340169 11.6195 0.501302 11.6875 0.6875 11.6875H2.77148C2.94336 13.6927 3.74186 15.4079 5.16699 16.833C6.59212 18.2581 8.30729 19.0495 10.3125 19.207V21.3125C10.3125 21.4987 10.3805 21.6598 10.5166 21.7959C10.6527 21.932 10.8138 22 11 22C11.1862 22 11.3473 21.932 11.4834 21.7959C11.6195 21.6598 11.6875 21.4987 11.6875 21.3125V19.207C13.6927 19.0495 15.4079 18.2581 16.833 16.833C18.2581 15.4079 19.0566 13.6927 19.2285 11.6875H21.3125C21.4987 11.6875 21.6598 11.6195 21.7959 11.4834C21.932 11.3473 22 11.1862 22 11C22 10.8138 21.932 10.6527 21.7959 10.5166C21.6598 10.3805 21.4987 10.3125 21.3125 10.3125ZM10.3125 4.16797V10.3125H4.16797C4.26823 9.23828 4.60124 8.25358 5.16699 7.3584C5.73275 6.46322 6.46322 5.73275 7.3584 5.16699C8.25358 4.60124 9.23828 4.26823 10.3125 4.16797ZM4.16797 11.6875H10.3125V17.832C8.69401 17.6745 7.30469 17.0156 6.14453 15.8555C4.98438 14.6953 4.32552 13.306 4.16797 11.6875ZM11.6875 17.832V11.6875H17.832C17.6745 13.306 17.0156 14.6953 15.8555 15.8555C14.6953 17.0156 13.306 17.6745 11.6875 17.832ZM11.6875 10.3125V4.16797C12.2174 4.21094 12.7367 4.32194 13.2451 4.50098C13.7536 4.68001 14.2227 4.9056 14.6523 5.17773C15.082 5.44987 15.4831 5.77214 15.8555 6.14453C16.2279 6.51693 16.5501 6.91797 16.8223 7.34766C17.0944 7.77734 17.32 8.24642 17.499 8.75488C17.6781 9.26335 17.7891 9.78255 17.832 10.3125H11.6875Z" fill="#555555"/>
</svg>
