<svg width="30" height="30" viewBox="0 0 30 30" fill="none" xmlns="http://www.w3.org/2000/svg">
<g clip-path="url(#clip0_109_774)">
<path d="M26.7223 17.1057H3.278C2.9543 17.1057 2.69189 17.3681 2.69189 17.6918V20.0363C2.69189 20.36 2.9543 20.6224 3.278 20.6224H3.86411V29.4141C3.86411 29.7378 4.12651 30.0002 4.45022 30.0002C4.77393 30.0002 5.03633 29.7378 5.03633 29.4141V28.1792H24.964V29.4141C24.964 29.7378 25.2265 30.0002 25.5501 30.0002C25.8738 30.0002 26.1362 29.7378 26.1362 29.4141V20.6224H26.7223C27.046 20.6224 27.3084 20.36 27.3084 20.0363V17.6918C27.3084 17.3681 27.046 17.1057 26.7223 17.1057ZM26.1362 19.4501H17.6374C17.3138 19.4501 17.0513 19.7125 17.0513 20.0363C17.0513 20.36 17.3138 20.6224 17.6374 20.6224H24.964V27.007H5.03633V20.6224H12.3625C12.6862 20.6224 12.9486 20.36 12.9486 20.0363C12.9486 19.7125 12.6862 19.4501 12.3625 19.4501H3.86405V18.2779H26.1362V19.4501H26.1362Z" fill="black"/>
<path d="M13.064 14.1506C13.3912 14.7178 13.7185 15.2851 14.0466 15.8532C14.2459 16.1974 14.6012 16.4021 14.9982 16.4021C15.3952 16.4023 15.7638 16.188 15.9582 15.8441C16.2841 15.2797 16.6097 14.7152 16.9354 14.1507C19.9931 13.3375 22.2589 10.3739 22.2116 7.20268C22.2652 0.849791 14.3653 -2.42134 9.90054 2.1033C6.00563 5.90181 7.81306 12.7619 13.064 14.1506ZM10.7294 2.93223C13.0842 0.577427 16.9157 0.577485 19.2704 2.93223C21.6133 5.18043 21.6134 9.22522 19.2704 11.4733C18.4814 12.2624 17.4937 12.8162 16.4139 13.0751C16.2574 13.1126 16.1232 13.2127 16.0428 13.3522C15.6953 13.9547 15.3475 14.5575 14.9998 15.1599C14.6518 14.557 14.3042 13.9546 13.9566 13.3521C13.8762 13.2127 13.742 13.1125 13.5856 13.075C9.05831 12.0497 7.4005 6.17611 10.7294 2.93223Z" fill="black"/>
<path d="M11.8271 10.3761C12.4816 11.0581 13.6592 11.0581 14.3136 10.3761L15.0004 9.68931C15.5942 10.2595 16.0115 10.8979 16.9304 10.891C18.4793 10.904 19.2766 8.97824 18.1736 7.8896C18.1736 7.8896 17.4869 7.20286 17.4869 7.20286L18.1736 6.51612C19.2765 5.42713 18.4793 3.50176 16.9304 3.51471C16.0102 3.50827 15.5943 4.14648 15.0004 4.71641C14.4067 4.1463 13.9893 3.5078 13.0704 3.51471C11.5213 3.50188 10.7242 5.42742 11.8272 6.51612L12.514 7.20286L11.8272 7.8896C11.1416 8.57506 11.1416 9.69054 11.8271 10.3761ZM12.656 8.71848L13.7572 7.61724C13.8671 7.50734 13.9289 7.35824 13.9289 7.2028C13.9289 7.04736 13.8671 6.89826 13.7572 6.78836L12.656 5.68718C12.2884 5.32866 12.5559 4.67931 13.0704 4.68687C13.227 4.68687 13.3741 4.74777 13.4848 4.85848L14.586 5.95966C14.815 6.1886 15.186 6.18854 15.4149 5.95966L16.5161 4.85848C16.734 4.63131 17.1268 4.63113 17.3448 4.85848C17.5732 5.08695 17.5732 5.45872 17.3448 5.68718L16.2436 6.78836C16.1337 6.89826 16.0719 7.04736 16.0719 7.2028C16.0719 7.35824 16.1337 7.50734 16.2436 7.61724L17.3448 8.71842C17.5732 8.94688 17.5732 9.31865 17.3448 9.54712C17.1266 9.77429 16.7342 9.77453 16.5161 9.54712L15.4149 8.44594C15.186 8.21706 14.815 8.21706 14.586 8.44594L13.4847 9.54718C13.3741 9.65783 13.227 9.71879 13.0704 9.71879C12.5568 9.72559 12.2874 9.07823 12.656 8.71848Z" fill="black"/>
<path d="M15.0003 20.6222C15.3241 20.6222 15.5864 20.3598 15.5864 20.0361C15.5578 19.2594 14.4425 19.2595 14.4141 20.0361C14.4141 20.3598 14.6766 20.6222 15.0003 20.6222Z" fill="black"/>
</g>
<defs>
<clipPath id="clip0_109_774">
<rect width="30" height="30" fill="white"/>
</clipPath>
</defs>
</svg>
