<svg width="26" height="26" viewBox="0 0 26 26" fill="none" xmlns="http://www.w3.org/2000/svg">
<g clip-path="url(#clip0_109_119)">
<path d="M21.1321 1.62505H20.6688C20.7855 1.47468 20.8783 1.39618 20.8521 1.41979L20.8516 1.41913C21.4081 0.924115 21.058 0 20.3124 0C19.9397 0 19.7847 0.218867 19.7726 0.205257C19.6663 0.299761 18.7325 1.16461 18.6889 2.40911C18.6688 2.98314 18.8406 3.84134 19.7726 4.66978C20.1102 4.9698 20.6235 4.93547 20.9197 4.60224C21.2178 4.26689 21.1876 3.75329 20.8522 3.4552C20.7749 3.38644 20.7064 3.31809 20.6459 3.24999H21.1321C22.9202 3.24999 24.3748 4.70467 24.3748 6.49272V21.1322C24.3748 22.9203 22.9202 24.375 21.1321 24.375H4.86768C3.07962 24.375 1.62494 22.9203 1.62494 21.1322V6.49278C1.62494 4.93268 2.73248 3.62664 4.20254 3.3189C4.34798 3.73957 4.62936 4.2091 5.14763 4.66978C5.30246 4.80735 5.49513 4.87504 5.68713 4.87504C6.42935 4.87504 6.78629 3.95225 6.22724 3.4553C5.86649 3.13467 5.68997 2.82369 5.68749 2.50473C5.68271 1.89683 6.29132 1.36175 6.22724 1.41984L6.22668 1.41918C6.78319 0.924166 6.4331 5.07811e-05 5.68749 5.07811e-05C5.31475 5.07811e-05 5.15982 0.218918 5.14768 0.205308C5.06222 0.281277 4.4665 0.833522 4.19589 1.67166C1.82863 1.99991 0 4.03664 0 6.49283V21.1323C0 23.8164 2.18369 26 4.86773 26H21.1322C23.8162 26 25.9999 23.8164 25.9999 21.1323V6.49278C25.9999 3.80869 23.8162 1.62505 21.1321 1.62505Z" fill="#555555"/>
<path d="M14.8977 4.66982C15.2353 4.96984 15.7486 4.93556 16.0448 4.60233C16.3429 4.26697 16.3127 3.75337 15.9773 3.45528C15.6166 3.13465 15.44 2.82367 15.4376 2.50471C15.4328 1.89681 16.0414 1.36173 15.9773 1.41982C15.9711 1.41281 16.25 1.21944 16.25 0.812577C16.25 0.113624 15.4203 -0.25845 14.8983 0.205945C14.8907 0.197464 13.8125 1.16205 13.8125 2.49775C13.8125 3.04853 14.0008 3.87255 14.8977 4.66982Z" fill="#555555"/>
<path d="M10.0227 4.66982C10.3603 4.96984 10.8736 4.93556 11.1698 4.60233C11.4679 4.26697 11.4377 3.75337 11.1023 3.45528C10.7416 3.13465 10.565 2.82367 10.5625 2.50471C10.5578 1.89681 11.1664 1.36173 11.1023 1.41982C11.0961 1.41281 11.375 1.21944 11.375 0.812577C11.375 0.113624 10.5453 -0.25845 10.0233 0.205945C10.0157 0.197464 8.9375 1.16205 8.9375 2.49775C8.9375 3.04853 9.1258 3.87255 10.0227 4.66982Z" fill="#555555"/>
<path d="M21.9375 7.3125C21.9375 6.8638 21.5737 6.5 21.125 6.5H4.875C4.42625 6.5 4.0625 6.8638 4.0625 7.3125C4.0625 7.7612 4.42625 8.125 4.875 8.125H21.125C21.5737 8.125 21.9375 7.76125 21.9375 7.3125Z" fill="#555555"/>
<path d="M18.2 9.91257C15.1853 12.1736 12.8727 16.758 11.9127 18.8887L8.69953 15.6755C8.38225 15.3583 7.86778 15.3583 7.5505 15.6755C7.23317 15.9929 7.23317 16.5073 7.5505 16.8246L11.613 20.8871C12.0276 21.3016 12.73 21.1525 12.9436 20.61C12.97 20.543 15.6243 13.8756 19.175 11.2125C19.534 10.9433 19.6067 10.434 19.3375 10.075C19.0683 9.7161 18.5591 9.64328 18.2 9.91257Z" fill="#555555"/>
</g>
<defs>
<clipPath id="clip0_109_119">
<rect width="26" height="26" fill="white"/>
</clipPath>
</defs>
</svg>
