<svg width="30" height="30" viewBox="0 0 30 30" fill="none" xmlns="http://www.w3.org/2000/svg">
<g clip-path="url(#clip0_109_387)">
<path d="M29.5698 21.1438V16.7157C29.5683 15.3576 28.4678 14.257 27.1097 14.2556H25.1416V9.33543C25.1416 9.06371 24.9213 8.84341 24.6496 8.84341H21.6975C21.4258 8.84341 21.2055 9.06371 21.2055 9.33543V14.2556H16.7773V8.35139C16.7773 8.07968 16.557 7.85938 16.2853 7.85938H13.3332C13.0615 7.85938 12.8412 8.07968 12.8412 8.35139V14.2556H8.413V9.33543C8.413 9.06371 8.1927 8.84341 7.92098 8.84341H4.96888C4.69716 8.84341 4.47686 9.06371 4.47686 9.33543V14.2556H2.50879C1.15094 14.257 0.0503849 15.3576 0.0487033 16.7157V21.1438C0.0318862 22.1997 0.59982 23.1787 1.52476 23.6885V29.0161H0.540721C0.269006 29.0161 0.0487033 29.2364 0.0487033 29.5081C0.0487033 29.7798 0.269006 30.0001 0.540721 30.0001H29.0777C29.3494 30.0001 29.5698 29.7798 29.5698 29.5081C29.5698 29.2364 29.3494 29.0161 29.0777 29.0161H28.0937V23.6959C29.0045 23.1679 29.5664 22.1963 29.5698 21.1438ZM22.1895 9.82744H24.1576V14.2556H22.1895V9.82744ZM13.8252 8.84341H15.7933V14.2556H13.8252V8.84341ZM5.4609 9.82744H7.42897V14.2556H5.4609V9.82744ZM1.03274 16.7157C1.03274 15.9003 1.69365 15.2396 2.50879 15.2396H27.1097C27.925 15.2396 28.5857 15.9003 28.5857 16.7157V21.1438C28.584 21.9253 28.1228 22.6326 27.4083 22.9495C26.6645 23.2628 25.8054 23.1016 25.2259 22.5396C24.8564 22.169 24.6493 21.6668 24.6496 21.1438V19.1758C24.6472 18.4327 24.2255 17.755 23.5603 17.4242L23.5303 17.4078C23.4515 17.3706 23.3703 17.3389 23.2872 17.3129C23.2382 17.2966 23.1932 17.2805 23.1445 17.2687C23.0815 17.2543 23.0178 17.243 22.9537 17.2351C22.9105 17.2288 22.8691 17.2159 22.8252 17.2125C22.8016 17.2125 22.779 17.2159 22.756 17.2149C22.7327 17.2139 22.7072 17.2077 22.6815 17.2077C22.627 17.2077 22.5744 17.219 22.5203 17.2233C22.466 17.2279 22.4086 17.2303 22.3533 17.2397C22.2683 17.2555 22.1842 17.2771 22.102 17.304C22.0576 17.3177 22.0124 17.3276 21.9692 17.3444C21.8774 17.3816 21.7888 17.4261 21.704 17.4773C21.673 17.495 21.6401 17.5078 21.6095 17.5265C21.4947 17.601 21.3878 17.6872 21.2907 17.7838C20.92 18.1519 20.7122 18.6532 20.7134 19.1758V20.1598C20.7134 21.2467 19.8325 22.1279 18.7454 22.1279C17.6585 22.1279 16.7773 21.2467 16.7773 20.1598V19.1758C16.7749 18.4327 16.3533 17.755 15.688 17.4242L15.658 17.4078C15.5792 17.3706 15.498 17.3389 15.4149 17.3129C15.3659 17.2966 15.3209 17.2805 15.2722 17.2687C15.2092 17.2543 15.1456 17.243 15.0814 17.2351C15.0382 17.2288 14.9969 17.2159 14.9529 17.2125C14.9293 17.2125 14.9068 17.2159 14.8837 17.2149C14.8604 17.2139 14.8349 17.2077 14.8092 17.2077C14.7547 17.2077 14.7021 17.219 14.648 17.2233C14.5937 17.2279 14.5363 17.2303 14.4811 17.2397C14.3962 17.2555 14.3124 17.2771 14.2302 17.304C14.1853 17.3177 14.1402 17.3276 14.0969 17.3444C14.0056 17.3816 13.9172 17.4258 13.8326 17.4768C13.8012 17.4945 13.7678 17.5078 13.7373 17.526C13.6224 17.6003 13.5155 17.6863 13.4185 17.7828C13.0475 18.1511 12.8397 18.653 12.8412 19.1758V22.1279C12.8412 23.2147 11.9602 24.0959 10.8731 24.0959C9.78623 24.0959 8.90502 23.2147 8.90502 22.1279V19.1758C8.90262 18.4327 8.48099 17.755 7.81576 17.4242L7.78573 17.4078C7.70693 17.3706 7.62572 17.3389 7.5426 17.3129C7.49359 17.2966 7.44867 17.2805 7.3999 17.2687C7.33695 17.2543 7.27329 17.243 7.20914 17.2351C7.1659 17.2288 7.12458 17.2159 7.08061 17.2125C7.03689 17.2091 6.9862 17.2077 6.93695 17.2077C5.85009 17.2077 4.96888 18.0887 4.96888 19.1758V21.1438C4.9696 21.6652 4.76395 22.1656 4.39662 22.5356C3.90893 23.005 3.21967 23.2006 2.55804 23.0571C2.44032 23.0321 2.325 22.9966 2.21377 22.9505C1.9889 22.8512 1.78398 22.7121 1.60908 22.5396C1.23959 22.169 1.0325 21.6668 1.03274 21.1438V16.7157ZM2.50879 29.0161V24.0551C2.55804 24.0633 2.60729 24.0654 2.65654 24.0712L2.69426 24.0753C3.12477 24.1197 3.55985 24.0693 3.96875 23.9275C4.09367 23.8836 4.21572 23.8312 4.33368 23.7711C4.3589 23.7589 4.38293 23.7454 4.40911 23.7317C4.50449 23.6798 4.59722 23.6229 4.68659 23.5609C4.71518 23.5415 4.74401 23.5232 4.77212 23.5025C5.52528 22.9545 5.96541 22.075 5.95291 21.1438V19.1758C5.95243 18.9146 6.05646 18.6643 6.24168 18.4805C6.29093 18.4317 6.34499 18.388 6.40313 18.3505C6.41346 18.3443 6.42475 18.3397 6.43508 18.334C6.48337 18.3044 6.53382 18.2792 6.58619 18.2585C6.60157 18.2528 6.61718 18.2492 6.63256 18.2443C6.68061 18.228 6.72986 18.2158 6.78007 18.2073C6.80361 18.2035 6.82932 18.2025 6.85238 18.1999C6.8937 18.1961 6.93527 18.1946 6.97683 18.1956C7.00782 18.197 7.03881 18.2001 7.06932 18.2049C7.10632 18.2093 7.14308 18.216 7.17911 18.2251C7.19136 18.228 7.20266 18.2326 7.21443 18.2359C7.64326 18.3923 7.92651 18.8024 7.92098 19.2589V22.1279C7.92098 23.7582 9.2428 25.08 10.8731 25.08C12.5036 25.08 13.8252 23.7582 13.8252 22.1279V19.1758C13.8252 18.8416 13.9953 18.5305 14.2764 18.3501C14.2848 18.3448 14.2946 18.3412 14.303 18.3359C14.353 18.3054 14.4054 18.2792 14.4599 18.258C14.4738 18.2528 14.488 18.2496 14.5017 18.2453C14.55 18.229 14.5993 18.216 14.6495 18.2069C14.673 18.2035 14.6987 18.2021 14.7203 18.1999C14.7617 18.1958 14.8035 18.1944 14.8453 18.1956C14.8763 18.197 14.907 18.2001 14.9378 18.2049C14.9748 18.2093 15.0113 18.216 15.0475 18.2251C15.0598 18.228 15.0711 18.2326 15.0829 18.2359C15.5131 18.3911 15.7983 18.8015 15.7933 19.2589V20.1598C15.7933 21.7901 17.1151 23.1119 18.7454 23.1119C20.3759 23.1119 21.6975 21.7901 21.6975 20.1598V19.1758C21.697 18.9146 21.801 18.6643 21.9862 18.4805C22.0355 18.4317 22.0896 18.388 22.1477 18.3505C22.158 18.3443 22.1693 18.3397 22.1801 18.3332C22.2282 18.3042 22.2786 18.2792 22.3308 18.2585C22.3461 18.2528 22.3622 18.2492 22.38 18.2443C22.4273 18.228 22.4759 18.2158 22.5251 18.2073C22.5487 18.2035 22.5744 18.2025 22.5974 18.1999C22.6387 18.1961 22.6803 18.1946 22.7219 18.1956C22.7529 18.197 22.7839 18.2001 22.8144 18.2049C22.8514 18.2093 22.8881 18.216 22.9242 18.2251C22.9364 18.228 22.9477 18.2326 22.9595 18.2359C23.3881 18.3926 23.6713 18.8027 23.6655 19.2589V21.1438C23.6648 21.928 23.9757 22.6804 24.5302 23.2354C24.6277 23.3305 24.7317 23.4189 24.8415 23.5001C24.8735 23.5232 24.9064 23.5439 24.94 23.566C25.0227 23.6224 25.1063 23.6748 25.1932 23.7224C25.2278 23.7411 25.2622 23.7594 25.297 23.7764C25.3963 23.8257 25.4979 23.8694 25.6017 23.9073C25.6223 23.9148 25.6425 23.9242 25.6636 23.9311C25.9337 24.0231 26.2152 24.0762 26.5002 24.0885H26.5035C26.6407 24.094 26.7781 24.0899 26.9148 24.0762L26.9641 24.0707C27.0133 24.0654 27.0626 24.0633 27.1118 24.0551V29.0161H2.50879Z" fill="black"/>
<path d="M14.8092 6.87527C16.1673 6.87359 17.2679 5.77304 17.2693 4.41518C17.2693 3.23415 15.5576 0.695984 15.2143 0.199402C15.1174 0.0737546 14.968 0 14.8092 0C14.6506 0 14.501 0.0737546 14.4044 0.199402C14.0609 0.695984 12.3491 3.23415 12.3491 4.41518C12.3508 5.77304 13.4514 6.87359 14.8092 6.87527ZM14.8092 1.36842C15.5172 2.47498 16.2853 3.87776 16.2853 4.41518C16.2853 5.23033 15.6246 5.89124 14.8092 5.89124C13.9941 5.89124 13.3332 5.23033 13.3332 4.41518C13.3332 3.87776 14.1012 2.47498 14.8092 1.36842Z" fill="black"/>
<path d="M23.1735 7.85941C24.5315 7.85772 25.6321 6.75717 25.6335 5.39932C25.6335 4.21828 23.9218 1.68011 23.5785 1.18353C23.4817 1.05789 23.3323 0.984131 23.1735 0.984131C23.0149 0.984131 22.8652 1.05789 22.7687 1.18353C22.4251 1.68011 20.7134 4.21828 20.7134 5.39932C20.7151 6.75717 21.8156 7.85772 23.1735 7.85941ZM23.1735 2.35255C23.8815 3.45911 24.6495 4.86189 24.6495 5.39932C24.6495 6.21446 23.9888 6.87537 23.1735 6.87537C22.3583 6.87537 21.6974 6.21446 21.6974 5.39932C21.6974 4.86189 22.4655 3.45911 23.1735 2.35255Z" fill="black"/>
<path d="M6.44495 7.85941C7.80304 7.85772 8.9036 6.75717 8.90504 5.39932C8.90504 4.21828 7.19331 1.68011 6.85 1.18353C6.75318 1.05789 6.60375 0.984131 6.44495 0.984131C6.28639 0.984131 6.13672 1.05789 6.04014 1.18353C5.69659 1.68011 3.98486 4.21828 3.98486 5.39932C3.98654 6.75717 5.0871 7.85772 6.44495 7.85941ZM6.44495 2.35255C7.15295 3.45911 7.921 4.86189 7.921 5.39932C7.921 6.21446 7.26033 6.87537 6.44495 6.87537C5.62981 6.87537 4.9689 6.21446 4.9689 5.39932C4.9689 4.86189 5.73695 3.45911 6.44495 2.35255Z" fill="black"/>
</g>
<defs>
<clipPath id="clip0_109_387">
<rect width="30" height="30" fill="white"/>
</clipPath>
</defs>
</svg>
