<svg width="90" height="87" viewBox="0 0 90 87" fill="none" xmlns="http://www.w3.org/2000/svg">
<path d="M9.70848 41.3063L3.554 41.3063C2.8183 41.3065 2.22217 41.9028 2.22256 42.6376C2.22271 43.3733 2.81847 43.9698 3.55417 43.9696L9.70865 43.9696C10.4449 43.9691 11.0401 43.3725 11.0398 42.6377C11.0399 41.9026 10.4436 41.3065 9.70848 41.3063Z" fill="#F0A70A"/>
<path d="M86.9736 41.1525L80.8191 41.1525C80.0834 41.1527 79.4873 41.749 79.4877 42.4838C79.4878 43.2195 80.0836 43.816 80.8193 43.8158L86.9738 43.8157C87.7101 43.8153 88.3053 43.2187 88.3049 42.4839C88.3051 41.7488 87.7087 41.1526 86.9736 41.1525Z" fill="#F0A70A"/>
<path d="M46.4469 0C45.7114 0 45.1154 0.596054 45.1154 1.3315V7.48586C45.1154 8.2213 45.7114 8.81802 46.4469 8.81802C47.1823 8.81802 47.7784 8.2213 47.7784 7.48586V1.3315C47.7784 0.596054 47.1823 0 46.4469 0V0Z" fill="#F0A70A"/>
<path d="M30.2484 4.20864C29.914 3.55371 29.1115 3.29366 28.4572 3.62792C27.8023 3.96227 27.5421 4.76417 27.8765 5.41911L30.6742 10.9016C31.0085 11.5565 31.811 11.8159 32.4654 11.4823C33.1203 11.1479 33.3804 10.3454 33.046 9.69044L30.2484 4.20864Z" fill="#F0A70A"/>
<path d="M16.1701 14.5847C15.6969 14.0219 14.8572 13.9482 14.2943 14.4208C13.7308 14.8934 13.6571 15.7337 14.1297 16.2966L18.0857 21.0112C18.3492 21.3252 18.7262 21.4872 19.1066 21.4872C20.227 21.4872 20.8556 20.1689 20.1261 19.2994L16.1701 14.5847Z" fill="#F0A70A"/>
<path d="M12.9619 29.0234L7.63196 25.9462C6.99476 25.5785 6.18033 25.7968 5.81327 26.4334C5.44555 27.0706 5.66326 27.885 6.30047 28.2527L11.6304 31.3299C12.2683 31.6976 13.0821 31.4786 13.4491 30.8421C13.8169 30.2055 13.5985 29.3911 12.9619 29.0234Z" fill="#F0A70A"/>
<path d="M63.9402 4.41189C63.2485 4.16033 62.4845 4.51743 62.2336 5.2084L60.1282 10.9917C59.8766 11.6827 60.2337 12.4467 60.9241 12.6982C61.615 12.9498 62.3797 12.594 62.6312 11.9024L64.736 6.11907C64.9876 5.42744 64.6311 4.66345 63.9402 4.41189Z" fill="#F0A70A"/>
<path d="M79.1213 15.9391C78.6442 15.3794 77.804 15.3124 77.2444 15.7889L72.5596 19.7803C71.6958 20.5164 72.0958 21.9207 73.2006 22.107C73.5757 22.1702 73.9743 22.0732 74.2864 21.8074L78.9711 17.816C79.5307 17.3395 79.5984 16.4988 79.1213 15.9391V15.9391Z" fill="#F0A70A"/>
<path d="M86.0804 27.4334C85.7126 26.7968 84.8982 26.5785 84.2617 26.9462L78.9317 30.0234C78.2945 30.3911 78.0768 31.2055 78.4445 31.8421C78.8122 32.4799 79.6266 32.697 80.2632 32.3299L85.5932 29.2527C86.2297 28.885 86.4481 28.0706 86.0804 27.4334Z" fill="#F0A70A"/>
<path d="M46.5 87C45.6715 87 45 86.3916 45 85.641V79.3597C45 78.609 45.6715 78 46.5 78C47.3285 78 48 78.609 48 79.3597V85.641C48 86.3916 47.3285 87 46.5 87V87Z" fill="#F0A70A"/>
<path d="M30.2564 82.7936C29.9222 83.4482 29.1201 83.7081 28.4661 83.374C27.8115 83.0398 27.5515 82.2383 27.8857 81.5837L30.682 76.1041C31.0162 75.4495 31.8183 75.1902 32.4723 75.5237C33.1269 75.8578 33.3868 76.66 33.0526 77.3146L30.2564 82.7936Z" fill="#F0A70A"/>
<path d="M16.1312 72.549C15.7023 73.083 14.9414 73.1529 14.4313 72.7045C13.9207 72.2561 13.8539 71.4588 14.2822 70.9248L17.8671 66.4515C18.1059 66.1537 18.4475 66 18.7922 66C19.8075 66 20.3772 67.2507 19.7161 68.0757L16.1312 72.549Z" fill="#F0A70A"/>
<path d="M13.3336 58.1643L7.99914 60.8444C7.36139 61.1647 6.54627 60.9745 6.1789 60.4201C5.81086 59.8651 6.02876 59.1558 6.66651 58.8355L12.001 56.1554C12.6394 55.8351 13.4539 56.0259 13.8212 56.5803C14.1893 57.1347 13.9707 57.8441 13.3336 58.1643Z" fill="#F0A70A"/>
<path d="M64.081 82.9141C63.3559 83.1822 62.5549 82.8017 62.2919 82.0656L60.0845 75.9041C59.8208 75.168 60.1951 74.354 60.9189 74.086C61.6433 73.818 62.445 74.197 62.7087 74.9339L64.9154 81.0953C65.1792 81.8322 64.8055 82.6461 64.081 82.9141Z" fill="#F0A70A"/>
<path d="M79.1043 71.0692C78.6274 71.6286 77.7877 71.6955 77.2283 71.2193L72.546 67.2299C71.6826 66.4942 72.0824 65.0906 73.1867 64.9044C73.5615 64.8412 73.96 64.9382 74.2719 65.2039L78.9542 69.1932C79.5135 69.6694 79.5812 70.5098 79.1043 71.0692V71.0692Z" fill="#F0A70A"/>
<path d="M85.8212 59.4201C85.4532 59.9745 84.6381 60.1647 84.001 59.8444L78.6665 57.1643C78.0288 56.8441 77.8109 56.1347 78.1789 55.5803C78.5469 55.0248 79.3621 54.8357 79.9991 55.1554L85.3336 57.8355C85.9707 58.1558 86.1893 58.8651 85.8212 59.4201Z" fill="#F0A70A"/>
<circle cx="45.5" cy="43.5" r="24.5" fill="#F48407"/>
</svg>
