<svg width="121" height="77" viewBox="0 0 121 77" fill="none" xmlns="http://www.w3.org/2000/svg">
<path d="M97.0543 18.1664C96.196 18.1664 95.4093 18.2379 94.6225 18.3094C93.6212 11.0858 87.4704 5.50713 79.9607 5.50713C77.0283 5.50713 74.3105 6.36539 72.0218 7.79581C69.4471 3.14693 64.5121 0 58.8619 0C53.7124 0 49.1351 2.64628 46.4173 6.57995C44.1286 5.65018 41.6253 5.14953 38.979 5.14953C28.3939 5.14953 19.7398 13.5175 19.2392 23.9596C8.58254 26.4628 0.71521 35.9752 0.71521 47.4186C0.71521 60.7215 11.5149 71.5212 24.8179 71.5212C31.5408 71.5212 37.6201 68.7319 42.0545 64.2976C46.2027 71.5212 53.9985 76.3131 62.8671 76.3131C72.3795 76.3131 80.6044 70.806 84.5381 62.7956C88.1856 65.0843 92.5484 66.3717 97.1973 66.3717C110.5 66.3717 121.3 55.572 121.3 42.269C121.085 28.9661 110.357 18.1664 97.0543 18.1664Z" fill="#01325D"/>
<path d="M87.2846 31.9027C84.4498 42.482 73.4619 48.7207 62.8545 45.8784C52.2471 43.0362 45.8506 32.1394 48.6854 21.5601C49.1245 19.921 49.711 18.3215 50.5523 16.9498C47.5177 19.73 45.1875 23.4176 44.0496 27.6642C40.8156 39.7336 48.0513 52.2127 60.2793 55.4892C72.5073 58.7657 85.0132 51.5763 88.2472 39.5069C89.385 35.2603 89.2108 30.9017 87.9729 26.9767C88.0156 28.5851 87.7237 30.2637 87.2846 31.9027" fill="#FFA51C"/>
</svg>
