<svg width="87" height="77" viewBox="0 0 87 77" fill="none" xmlns="http://www.w3.org/2000/svg">
<g clip-path="url(#clip0_183_734)">
<path d="M16.1061 45.7449C16.1061 30.6458 28.3471 18.4048 43.4469 18.4048C58.5461 18.4048 70.7871 30.6458 70.7871 45.7449V59.9334H16.1061V45.7449Z" fill="#FDC202"/>
<path d="M55.0001 21C38.8766 22.5601 26.8473 32.9424 26.8473 47.15L23.3473 60H16.0001V45.65C16.0001 30.3797 30.5001 15.5 48.5001 19C49.7424 19 53.7947 20.8832 55.0001 21Z" fill="#F0A70A"/>
<path d="M43.4469 0C42.7114 0 42.1154 0.596054 42.1154 1.3315V7.48586C42.1154 8.2213 42.7114 8.81802 43.4469 8.81802C44.1823 8.81802 44.7784 8.2213 44.7784 7.48586V1.3315C44.7784 0.596054 44.1823 0 43.4469 0V0Z" fill="#F0A70A"/>
<path d="M27.6601 5.20782C27.4085 4.51684 26.6439 4.16041 25.9535 4.41197C25.2626 4.66354 24.9061 5.42752 25.1577 6.11849L27.2625 11.9025C27.514 12.5934 28.2787 12.9492 28.969 12.6983C29.66 12.4468 30.0164 11.6821 29.7648 10.9911L27.6601 5.20782Z" fill="#F0A70A"/>
<path d="M13.1702 14.5847C12.697 14.0219 11.8573 13.9482 11.2945 14.4208C10.7309 14.8934 10.6573 15.7337 11.1298 16.2966L15.0858 21.0112C15.3494 21.3252 15.7264 21.4872 16.1067 21.4872C17.2271 21.4872 17.8557 20.1689 17.1262 19.2994L13.1702 14.5847Z" fill="#F0A70A"/>
<path d="M8.96206 31.0234L3.63209 27.9462C2.99488 27.5785 2.18045 27.7968 1.81339 28.4334C1.44567 29.0706 1.66338 29.885 2.30059 30.2527L7.63056 33.3299C8.26843 33.6976 9.0822 33.4786 9.44925 32.8421C9.81698 32.2055 9.5986 31.3911 8.96206 31.0234Z" fill="#F0A70A"/>
<path d="M60.9402 4.41189C60.2485 4.16033 59.4845 4.51743 59.2336 5.2084L57.1282 10.9917C56.8766 11.6827 57.2337 12.4467 57.9241 12.6982C58.615 12.9498 59.3797 12.594 59.6312 11.9024L61.736 6.11907C61.9876 5.42744 61.6311 4.66345 60.9402 4.41189Z" fill="#F0A70A"/>
<path d="M75.5993 14.4208C75.0358 13.9482 74.1961 14.0219 73.7235 14.5847L69.7675 19.2994C69.038 20.1689 69.666 21.4872 70.7864 21.4872C71.1667 21.4872 71.5437 21.3252 71.8072 21.0112L75.7632 16.2966C76.2358 15.7337 76.1628 14.8934 75.5993 14.4208V14.4208Z" fill="#F0A70A"/>
<path d="M85.0805 28.4334C84.7128 27.7968 83.8983 27.5785 83.2618 27.9462L77.9318 31.0234C77.2946 31.3911 77.0769 32.2055 77.4446 32.8421C77.8123 33.4799 78.6268 33.697 79.2633 33.3299L84.5933 30.2527C85.2298 29.885 85.4482 29.0706 85.0805 28.4334Z" fill="#F0A70A"/>
<path d="M76.1999 38.1642C71.8869 38.1303 68.1506 40.6055 66.3578 44.2163C66.2516 44.4294 65.9675 44.4632 65.8095 44.2853C64.5477 42.8675 62.7104 41.9735 60.6634 41.9735C56.8594 41.9735 53.7756 45.0573 53.7756 48.8613C53.7756 49.2463 53.8081 49.6239 53.8698 49.991C53.903 50.1941 53.749 50.378 53.5433 50.378H43.5351C40.9305 50.378 38.7295 52.4203 38.6578 55.0236C38.5842 57.7244 40.7513 59.9374 43.4356 59.9374H76.1123C82.0649 59.9374 86.9017 55.161 86.998 49.2317C87.0955 43.2193 82.2123 38.2113 76.1999 38.1642V38.1642Z" fill="#A0CAFE"/>
<path d="M87.0001 49.0517C87.0001 55.0627 82.1248 59.938 76.1118 59.938H43.4363C40.7959 59.938 38.6566 57.7967 38.6566 55.159C38.6566 54.3917 38.8378 53.6675 39.1591 53.025C39.3775 53.0568 39.6031 53.0728 39.8301 53.0728H72.5062C78.5192 53.0728 83.3945 48.1995 83.3945 42.1858C83.3945 41.7477 83.368 41.3143 83.3162 40.8882C85.5743 42.8821 87.0001 45.8007 87.0001 49.0517V49.0517Z" fill="#81B8FD"/>
<path d="M9.72266 45.0127C13.9289 44.8162 17.6061 47.1666 19.3498 50.652C19.4533 50.8604 19.7341 50.9035 19.8894 50.7303C21.0722 49.4081 22.7907 48.5751 24.7043 48.5751C28.2727 48.5751 31.1647 51.4677 31.1647 55.0361C31.1647 55.3899 31.1355 55.737 31.0804 56.0755C31.0472 56.2766 31.2025 56.4592 31.407 56.4592H59.2821C61.7958 56.4592 63.9138 58.5162 63.866 61.0291C63.8202 63.4651 61.8303 65.4259 59.3837 65.4259H10.2125C4.4126 65.4259 -0.25826 60.5904 0.0118893 54.7301C0.252833 49.5017 4.49424 45.2569 9.72266 45.0127Z" fill="#C0DBFF"/>
<path d="M63.8667 60.9429C63.8667 63.4194 61.8589 65.4259 59.3844 65.4259H10.2119C4.57329 65.4259 0 60.854 0 55.214C0 49.9425 3.99449 45.6055 9.12003 45.0605C8.40118 46.4591 7.99429 48.0448 7.99429 49.7261C7.99429 55.3647 12.5663 59.938 18.2062 59.938H63.7519C63.8282 60.2613 63.8667 60.5965 63.8667 60.9429V60.9429Z" fill="#A0CAFE"/>
<path d="M61.4151 29C53.4327 29 45.8028 33.5098 42.8787 42.1346C42.6982 42.6668 42.1223 42.8292 41.7584 42.4514C33.5707 33.9575 20.3892 42.2552 22.1472 55.3278C22.2176 55.8476 21.8878 56.3202 21.445 56.3202H12.4552C7.80643 56.3202 3.9131 60.8367 4.00148 66.3524C4.08795 71.6977 7.76652 76 12.2918 76H60.7641C86.7859 76 88.4622 29 61.4151 29V29Z" fill="#E6F1FF"/>
<path d="M72.1379 53.3226C70.4102 52.5826 68.3824 52.1597 66.05 52.1597C60.4751 52.1597 55.1457 54.8141 53.104 59.8919C52.9779 60.2038 52.575 60.3001 52.3208 60.0764C46.6025 55.077 37.3936 59.9609 38.6222 67.6572C38.672 67.9625 38.441 68.2413 38.1323 68.2413H31.8525C28.6054 68.2413 25.886 70.8969 25.9477 74.1441C25.9603 74.8297 26.0938 75.4862 26.3261 76.0935C23.4467 75.7975 21.1919 73.3913 21.1348 70.4443C21.0731 67.1972 23.7912 64.5395 27.0396 64.5395H33.3174C33.6281 64.5395 33.8571 64.2627 33.8093 63.9554C32.5807 56.2611 41.7876 51.3772 47.5059 56.3766C47.7601 56.6003 48.163 56.504 48.2891 56.1921C50.3328 51.1143 55.6602 48.46 61.237 48.46C66.2809 48.46 69.8951 50.4326 72.1379 53.3226Z" fill="#D9E9FF"/>
</g>
<defs>
<clipPath id="clip0_183_734">
<rect width="87" height="77" fill="white"/>
</clipPath>
</defs>
</svg>
