<svg width="87" height="87" viewBox="0 0 87 87" fill="none" xmlns="http://www.w3.org/2000/svg">
<path d="M16.106 45.7449C16.106 30.6458 28.347 18.4048 43.4468 18.4048C58.5459 18.4048 70.7869 30.6458 70.7869 45.7449V59.9334H16.106V45.7449Z" fill="#FDC202"/>
<path d="M46.5538 18.5787C32.9169 20.1213 22.3201 31.6965 22.3201 45.7449V59.9341H16.106V45.7449C16.106 30.6458 28.347 18.4048 43.4468 18.4048C44.4975 18.4048 45.5343 18.4632 46.5538 18.5787V18.5787Z" fill="#F0A70A"/>
<path d="M43.4467 0C42.7113 0 42.1152 0.596054 42.1152 1.3315V7.48586C42.1152 8.2213 42.7113 8.81802 43.4467 8.81802C44.1822 8.81802 44.7782 8.2213 44.7782 7.48586V1.3315C44.7782 0.596054 44.1822 0 43.4467 0V0Z" fill="#F0A70A"/>
<path d="M27.6599 5.20782C27.4084 4.51684 26.6437 4.16041 25.9534 4.41197C25.2625 4.66354 24.906 5.42752 25.1576 6.11849L27.2624 11.9025C27.5139 12.5934 28.2786 12.9492 28.9689 12.6983C29.6598 12.4468 30.0163 11.6821 29.7647 10.9911L27.6599 5.20782Z" fill="#F0A70A"/>
<path d="M13.1701 14.5847C12.6969 14.0219 11.8572 13.9482 11.2943 14.4208C10.7308 14.8934 10.6571 15.7337 11.1297 16.2966L15.0857 21.0112C15.3492 21.3252 15.7262 21.4872 16.1066 21.4872C17.227 21.4872 17.8556 20.1689 17.1261 19.2994L13.1701 14.5847Z" fill="#F0A70A"/>
<path d="M8.96193 31.0234L3.63196 27.9462C2.99476 27.5785 2.18033 27.7968 1.81327 28.4334C1.44555 29.0706 1.66326 29.885 2.30047 30.2527L7.63044 33.3299C8.26831 33.6976 9.08208 33.4786 9.44913 32.8421C9.81685 32.2055 9.59848 31.3911 8.96193 31.0234Z" fill="#F0A70A"/>
<path d="M60.9402 4.41189C60.2485 4.16033 59.4845 4.51743 59.2336 5.2084L57.1282 10.9917C56.8766 11.6827 57.2337 12.4467 57.9241 12.6982C58.615 12.9498 59.3797 12.594 59.6312 11.9024L61.736 6.11907C61.9876 5.42744 61.6311 4.66345 60.9402 4.41189Z" fill="#F0A70A"/>
<path d="M75.5993 14.4208C75.0358 13.9482 74.1961 14.0219 73.7235 14.5847L69.7675 19.2994C69.038 20.1689 69.666 21.4872 70.7864 21.4872C71.1667 21.4872 71.5437 21.3252 71.8072 21.0112L75.7632 16.2966C76.2358 15.7337 76.1628 14.8934 75.5993 14.4208V14.4208Z" fill="#F0A70A"/>
<path d="M85.0802 28.4334C84.7125 27.7968 83.8981 27.5785 83.2615 27.9462L77.9316 31.0234C77.2944 31.3911 77.0767 32.2055 77.4444 32.8421C77.8121 33.4799 78.6265 33.697 79.2631 33.3299L84.593 30.2527C85.2296 29.885 85.448 29.0706 85.0802 28.4334Z" fill="#F0A70A"/>
<path d="M76.1999 38.1642C71.8869 38.1303 68.1506 40.6055 66.3578 44.2163C66.2516 44.4294 65.9675 44.4632 65.8095 44.2853C64.5477 42.8675 62.7104 41.9735 60.6634 41.9735C56.8594 41.9735 53.7756 45.0573 53.7756 48.8613C53.7756 49.2463 53.8081 49.6239 53.8698 49.991C53.903 50.1941 53.749 50.378 53.5433 50.378H43.5351C40.9305 50.378 38.7295 52.4203 38.6578 55.0236C38.5842 57.7244 40.7513 59.9374 43.4356 59.9374H76.1123C82.0649 59.9374 86.9017 55.161 86.998 49.2317C87.0955 43.2193 82.2123 38.2113 76.1999 38.1642V38.1642Z" fill="#A0CAFE"/>
<path d="M86.9999 49.0517C86.9999 55.0627 82.1246 59.938 76.1117 59.938H43.4362C40.7958 59.938 38.6565 57.7967 38.6565 55.159C38.6565 54.3917 38.8377 53.6675 39.159 53.025C39.3773 53.0568 39.603 53.0728 39.83 53.0728H72.5061C78.5191 53.0728 83.3944 48.1995 83.3944 42.1858C83.3944 41.7477 83.3679 41.3143 83.3161 40.8882C85.5742 42.8821 86.9999 45.8007 86.9999 49.0517V49.0517Z" fill="#81B8FD"/>
<path d="M9.72266 45.0127C13.9289 44.8162 17.6061 47.1666 19.3498 50.652C19.4533 50.8604 19.7341 50.9035 19.8894 50.7303C21.0722 49.4081 22.7907 48.5751 24.7043 48.5751C28.2727 48.5751 31.1647 51.4677 31.1647 55.0361C31.1647 55.3899 31.1355 55.737 31.0804 56.0755C31.0472 56.2766 31.2025 56.4592 31.407 56.4592H59.2821C61.7958 56.4592 63.9138 58.5162 63.866 61.0291C63.8202 63.4651 61.8303 65.4259 59.3837 65.4259H10.2125C4.4126 65.4259 -0.25826 60.5904 0.0118893 54.7301C0.252833 49.5017 4.49424 45.2569 9.72266 45.0127Z" fill="#C0DBFF"/>
<path d="M63.8667 60.9429C63.8667 63.4194 61.8589 65.4259 59.3844 65.4259H10.2119C4.57329 65.4259 0 60.854 0 55.214C0 49.9425 3.99449 45.6055 9.12003 45.0605C8.40118 46.4591 7.99429 48.0448 7.99429 49.7261C7.99429 55.3647 12.5663 59.938 18.2062 59.938H63.7519C63.8282 60.2613 63.8667 60.5965 63.8667 60.9429V60.9429Z" fill="#A0CAFE"/>
<path d="M59.2363 56.46C53.6608 56.46 48.3314 59.1143 46.2891 64.1907C46.163 64.504 45.7607 64.5996 45.5065 64.3773C39.7876 59.3778 30.5806 64.2618 31.8085 71.956C31.8577 72.262 31.6273 72.5401 31.318 72.5401H25.0389C21.7918 72.5401 19.0724 75.1985 19.1341 78.4449C19.1945 81.5911 21.7639 84.1234 24.9247 84.1234H58.7816C76.9573 84.1234 78.1282 56.46 59.2363 56.46V56.46Z" fill="#E6F1FF"/>
<path d="M70.1379 61.3226C68.4102 60.5826 66.3824 60.1597 64.05 60.1597C58.4751 60.1597 53.1457 62.8141 51.104 67.8919C50.9779 68.2038 50.575 68.3001 50.3208 68.0764C44.6025 63.077 35.3936 67.9609 36.6222 75.6572C36.672 75.9625 36.441 76.2413 36.1323 76.2413H29.8525C26.6054 76.2413 23.886 78.8969 23.9477 82.1441C23.9603 82.8297 24.0938 83.4862 24.3261 84.0935C21.4467 83.7975 19.1919 81.3913 19.1348 78.4443C19.0731 75.1972 21.7912 72.5395 25.0396 72.5395H31.3174C31.6281 72.5395 31.8571 72.2627 31.8093 71.9554C30.5807 64.2611 39.7876 59.3772 45.5059 64.3766C45.7601 64.6003 46.163 64.504 46.2891 64.1921C48.3328 59.1143 53.6602 56.46 59.237 56.46C64.2809 56.46 67.8951 58.4326 70.1379 61.3226Z" fill="#D9E9FF"/>
</svg>
