<svg width="30" height="30" viewBox="0 0 30 30" fill="none" xmlns="http://www.w3.org/2000/svg">
<path d="M16.3184 7.03125C16.5611 7.03125 16.7578 6.8345 16.7578 6.5918C16.7578 6.34909 16.5611 6.15234 16.3184 6.15234C16.0757 6.15234 15.8789 6.34909 15.8789 6.5918C15.8789 6.8345 16.0757 7.03125 16.3184 7.03125Z" fill="black"/>
<path d="M11.6749 8.2754C11.885 8.15405 11.957 7.88528 11.8357 7.67511C11.7144 7.46493 11.4456 7.39292 11.2354 7.51427C11.0252 7.63562 10.9532 7.90439 11.0746 8.11456C11.1959 8.32474 11.4647 8.39675 11.6749 8.2754Z" fill="black"/>
<path d="M7.67535 11.8357C7.88553 11.957 8.1543 11.885 8.27564 11.6749C8.39699 11.4647 8.32498 11.1959 8.11481 11.0746C7.90463 10.9532 7.63586 11.0252 7.51451 11.2354C7.39317 11.4456 7.46518 11.7144 7.67535 11.8357Z" fill="black"/>
<path d="M7.67535 20.8011C7.46518 20.9225 7.39317 21.1912 7.51451 21.4014C7.63586 21.6116 7.90463 21.6836 8.11481 21.5623C8.32498 21.4409 8.39699 21.1721 8.27564 20.962C8.1543 20.7518 7.88553 20.6798 7.67535 20.8011Z" fill="black"/>
<path d="M11.5172 25.1839C11.7573 25.1477 11.9225 24.9238 11.8864 24.6838C11.8502 24.4438 11.6263 24.2785 11.3863 24.3146C11.1462 24.3508 10.981 24.5747 11.0171 24.8148C11.0533 25.0548 11.2772 25.2201 11.5172 25.1839Z" fill="black"/>
<path d="M16.3184 26.4844C16.5611 26.4844 16.7578 26.2876 16.7578 26.0449C16.7578 25.8022 16.5611 25.6055 16.3184 25.6055C16.0757 25.6055 15.8789 25.8022 15.8789 26.0449C15.8789 26.2876 16.0757 26.4844 16.3184 26.4844Z" fill="black"/>
<path d="M21.2126 25.1908C21.4543 25.169 21.6326 24.9553 21.6107 24.7136C21.5889 24.4718 21.3752 24.2936 21.1335 24.3154C20.8918 24.3373 20.7135 24.5509 20.7354 24.7927C20.7572 25.0344 20.9709 25.2127 21.2126 25.1908Z" fill="black"/>
<path d="M24.9615 20.8011C24.7513 20.6798 24.4825 20.7518 24.3612 20.962C24.2398 21.1721 24.3119 21.4409 24.522 21.5623C24.7322 21.6836 25.001 21.6116 25.1223 21.4014C25.2437 21.1912 25.1717 20.9225 24.9615 20.8011Z" fill="black"/>
<path d="M24.9615 11.8357C25.1717 11.7144 25.2437 11.4456 25.1223 11.2354C25.001 11.0252 24.7322 10.9532 24.522 11.0746C24.3119 11.1959 24.2398 11.4647 24.3612 11.6749C24.4825 11.885 24.7513 11.957 24.9615 11.8357Z" fill="black"/>
<path d="M20.962 8.2754C21.1721 8.39675 21.4409 8.32474 21.5623 8.11456C21.6836 7.90439 21.6116 7.63562 21.4014 7.51427C21.1912 7.39292 20.9225 7.46493 20.8011 7.67511C20.6798 7.88528 20.7518 8.15405 20.962 8.2754Z" fill="black"/>
<path d="M25.9927 6.644C23.9343 4.58549 21.335 3.26467 18.5156 2.81215V0.439453C18.5156 0.196699 18.3189 0 18.0762 0H14.5605C14.3179 0 14.1211 0.196699 14.1211 0.439453V2.81215C11.3017 3.26467 8.70246 4.58549 6.644 6.644C5.02119 8.26676 3.85658 10.2255 3.21445 12.3633H0.439453C0.196758 12.3633 0 12.56 0 12.8027C0 13.0455 0.196758 13.2422 0.439453 13.2422H2.98248C2.78637 14.0999 2.67252 14.982 2.64439 15.8789H0.439453C0.196758 15.8789 0 16.0756 0 16.3184C0 16.5611 0.196758 16.7578 0.439453 16.7578H4.4035C4.63559 23.1298 9.89074 28.2422 16.3184 28.2422C22.8932 28.2422 28.2422 22.8932 28.2422 16.3184C28.2422 9.74356 22.8932 4.39453 16.3184 4.39453C9.89074 4.39453 4.63559 9.50695 4.4035 15.8789H3.524C3.75656 9.02221 9.40605 3.51562 16.3184 3.51562C23.3778 3.51562 29.1211 9.25893 29.1211 16.3184C29.1211 23.3778 23.3778 29.1211 16.3184 29.1211C9.92338 29.1211 4.46777 24.348 3.62818 18.0184C3.59631 17.7779 3.37576 17.6083 3.13477 17.6406C2.89418 17.6725 2.72502 17.8934 2.75689 18.134C2.81326 18.5591 2.89002 18.9796 2.98559 19.3946H0.439453C0.196758 19.3946 0 19.5913 0 19.834C0 20.0768 0.196758 20.2735 0.439453 20.2735H3.21902C3.94928 22.6927 5.34475 24.8808 7.26803 26.5787C9.76711 28.785 12.9812 30 16.3184 30C19.9729 30 23.4086 28.5769 25.9927 25.9927C28.5769 23.4086 30 19.9729 30 16.3184C30 12.6639 28.5769 9.22811 25.9927 6.644ZM16.3184 5.27344C22.4085 5.27344 27.3633 10.2282 27.3633 16.3184C27.3633 22.4085 22.4085 27.3633 16.3184 27.3633C10.2282 27.3633 5.27344 22.4085 5.27344 16.3184C5.27344 10.2282 10.2282 5.27344 16.3184 5.27344ZM15.8789 2.64445C15.5842 2.65371 15.2911 2.67182 15 2.69947V0.878906H15.8789V2.64445ZM17.6367 2.69941C17.3456 2.67176 17.0525 2.65365 16.7578 2.64439V0.878906H17.6367V2.69941Z" fill="black"/>
<path d="M16.3184 18.5156C17.0357 18.5156 17.6737 18.17 18.075 17.6367H25.166C25.893 17.6367 26.4844 17.0453 26.4844 16.3184C26.4844 15.5914 25.893 15 25.166 15H18.075C17.9503 14.8342 17.8026 14.6865 17.6367 14.5617V9.22852C17.6367 8.5016 17.0453 7.91016 16.3184 7.91016C15.5914 7.91016 15 8.5016 15 9.22852V14.5617C14.5785 14.8788 14.2744 15.3438 14.1653 15.8789H6.5918C6.3491 15.8789 6.15234 16.0756 6.15234 16.3184C6.15234 16.5611 6.3491 16.7578 6.5918 16.7578H14.1653C14.3695 17.7595 15.2572 18.5156 16.3184 18.5156ZM18.4714 15.8789H25.166C25.4084 15.8789 25.6055 16.076 25.6055 16.3184C25.6055 16.5607 25.4084 16.7578 25.166 16.7578H18.4714C18.5003 16.6158 18.5156 16.4688 18.5156 16.3184C18.5156 16.1679 18.5003 16.0209 18.4714 15.8789ZM15.8789 9.22852C15.8789 8.98617 16.076 8.78906 16.3184 8.78906C16.5607 8.78906 16.7578 8.98617 16.7578 9.22852V14.1653C16.6158 14.1364 16.4688 14.1211 16.3184 14.1211C16.1679 14.1211 16.0209 14.1364 15.8789 14.1653V9.22852ZM16.3184 15C17.0453 15 17.6367 15.5914 17.6367 16.3184C17.6367 17.0453 17.0453 17.6367 16.3184 17.6367C15.5914 17.6367 15 17.0453 15 16.3184C15 15.5914 15.5914 15 16.3184 15Z" fill="black"/>
</svg>
