<svg width="28" height="28" viewBox="0 0 28 28" fill="none" xmlns="http://www.w3.org/2000/svg">
<path d="M27.5607 13.2365L20.9405 8.35275C20.4038 7.95681 19.6433 8.34149 19.6433 9.00774V11.4496H18.0154V2.44185C18.0154 1.09545 16.92 0 15.5735 0H2.55025C1.20636 0 0.108398 1.09523 0.108398 2.44185C0.108398 3.19118 0.108398 20.181 0.108398 21.2141C0.108398 22.0324 0.514891 22.7919 1.1958 23.2459L7.70745 27.5869C9.3285 28.6677 11.5039 27.501 11.5039 25.5552V24.5272H15.5736C16.9201 24.5272 18.0155 23.4318 18.0155 22.0854V16.3334H19.6434V18.7753C19.6434 19.4463 20.408 19.8231 20.9406 19.4303L27.5608 14.5465C28.0014 14.2214 28.0013 13.5616 27.5607 13.2365ZM8.61045 26.2324L2.09881 21.8913C1.8718 21.74 1.73634 21.4868 1.73634 21.214C1.73634 20.9833 1.73634 5.4892 1.73634 2.4418C1.73634 2.3415 1.75542 2.24585 1.78873 2.15709L9.29027 5.90789C9.55742 6.04144 9.87586 6.28797 9.87586 6.70376V25.5551H9.87592C9.87592 26.2059 9.15224 26.5937 8.61045 26.2324ZM16.3876 22.0854C16.3876 22.5342 16.0224 22.8994 15.5736 22.8994H11.5039V6.70381C11.5039 5.74476 10.9624 4.92395 10.0184 4.45189L4.37036 1.62794H15.5736C16.0224 1.62794 16.3876 1.99309 16.3876 2.44191V11.4497H13.9457C13.4962 11.4497 13.1317 11.8141 13.1317 12.2637V15.5195C13.1317 15.969 13.4962 16.3335 13.9457 16.3335H16.3876V22.0854ZM21.2713 17.1633V15.5194C21.2713 15.0699 20.9069 14.7055 20.4573 14.7055H14.7597V13.0775H20.4573C20.9069 13.0775 21.2713 12.7131 21.2713 12.2636V10.6198L25.7064 13.8916L21.2713 17.1633Z" fill="#555555"/>
</svg>
