<svg width="30" height="30" viewBox="0 0 30 30" fill="none" xmlns="http://www.w3.org/2000/svg">
<path d="M9.67953 1.49712C9.5723 1.24986 9.2849 1.1363 9.03764 1.24353C8.50648 1.47386 7.98289 1.73824 7.48144 2.02921C7.24824 2.16457 7.16902 2.46316 7.30432 2.6963C7.3949 2.8524 7.55855 2.93953 7.72684 2.93953C7.81004 2.93953 7.8943 2.9182 7.97141 2.87349C8.4401 2.60144 8.92947 2.35441 9.42588 2.13914C9.6732 2.03185 9.78676 1.74445 9.67953 1.49712Z" fill="black"/>
<path d="M19.2781 0.630738C18.7226 0.465738 18.1512 0.331852 17.5798 0.232828C17.3145 0.186832 17.0616 0.364723 17.0156 0.630328C16.9695 0.895992 17.1474 1.14859 17.413 1.19464C17.947 1.28722 18.4809 1.41232 19 1.56648C19.0464 1.58025 19.0932 1.58681 19.1392 1.58681C19.3497 1.58681 19.5439 1.44959 19.6069 1.23753C19.6837 0.979195 19.5364 0.707496 19.2781 0.630738Z" fill="black"/>
<path d="M15.8474 0.035332C15.5672 0.0196875 15.2819 0.0117188 14.9998 0.0117188C14.9992 0.0117188 14.9988 0.0117188 14.9982 0.0117188C14.7012 0.0117188 14.4004 0.0205078 14.1044 0.0380273C13.8353 0.0539062 13.63 0.284883 13.6459 0.553945C13.6611 0.81334 13.8762 1.01332 14.1326 1.01332C14.1422 1.01332 14.152 1.01309 14.1617 1.01244C14.4388 0.996093 14.7202 0.987832 14.9982 0.987832C14.9988 0.987832 14.9992 0.987832 14.9997 0.987832C15.2639 0.987832 15.5308 0.995273 15.793 1.00992C16.0635 1.02533 16.2925 0.818964 16.3075 0.549843C16.3225 0.280723 16.1166 0.0503906 15.8474 0.035332Z" fill="black"/>
<path d="M29.8963 13.2399C29.8285 12.6637 29.7261 12.0859 29.5919 11.5226C29.5294 11.2603 29.2662 11.0983 29.0039 11.1609C28.7417 11.2234 28.5798 11.4866 28.6423 11.7488C28.7678 12.2753 28.8634 12.8154 28.9269 13.354C28.9561 13.6023 29.167 13.7851 29.4109 13.7851C29.43 13.7851 29.4493 13.784 29.4686 13.7817C29.7362 13.7501 29.9278 13.5076 29.8963 13.2399Z" fill="black"/>
<path d="M29.2361 17.8828C28.9741 17.8209 28.7109 17.9832 28.6489 18.2457C28.5244 18.7732 28.3673 19.2989 28.1819 19.8083C28.0897 20.0616 28.2203 20.3417 28.4737 20.4339C28.5288 20.454 28.5851 20.4634 28.6406 20.4634C28.84 20.4634 29.0271 20.3403 29.0992 20.1421C29.2977 19.5969 29.4657 19.0343 29.599 18.4698C29.6609 18.2076 29.4984 17.9446 29.2361 17.8828Z" fill="black"/>
<path d="M22.4792 2.00652C21.9763 1.71671 21.4515 1.4538 20.9192 1.22499C20.6714 1.11823 20.3845 1.23296 20.278 1.48064C20.1716 1.72825 20.2861 2.0153 20.5338 2.12177C21.0313 2.33564 21.5218 2.58144 21.9919 2.85226C22.0687 2.8965 22.1524 2.91753 22.2351 2.91753C22.404 2.91753 22.5681 2.82982 22.6584 2.67308C22.793 2.43952 22.7128 2.14111 22.4792 2.00652Z" fill="black"/>
<path d="M1.82253 19.8215C1.63685 19.3128 1.47923 18.7876 1.35419 18.2603C1.29202 17.9981 1.02952 17.8359 0.76667 17.898C0.504404 17.9603 0.342216 18.2233 0.404384 18.4856C0.538212 19.0498 0.706787 19.612 0.905595 20.1564C0.977841 20.3544 1.16493 20.4772 1.36409 20.4772C1.41964 20.4772 1.47624 20.4677 1.53144 20.4474C1.78462 20.3549 1.91499 20.0747 1.82253 19.8215Z" fill="black"/>
<path d="M12.9384 0.63689C12.8915 0.371401 12.6386 0.194331 12.3729 0.241148C11.8017 0.342046 11.2307 0.477808 10.6758 0.644565C10.4177 0.722202 10.2713 0.99437 10.3489 1.25248C10.4124 1.46376 10.6063 1.60017 10.8162 1.60017C10.8627 1.60017 10.91 1.59349 10.9569 1.57937C11.4753 1.42357 12.0088 1.29671 12.5427 1.20238C12.8082 1.15556 12.9854 0.902319 12.9384 0.63689Z" fill="black"/>
<path d="M29.512 14.4929C29.2424 14.4929 29.024 14.7114 29.024 14.9809V15.0118C29.024 15.5555 28.9925 16.1033 28.9305 16.64C28.8996 16.9078 29.0915 17.15 29.3593 17.1809C29.3784 17.1831 29.3972 17.1842 29.416 17.1842C29.6604 17.1842 29.8714 17.0008 29.9002 16.7522C29.9665 16.1784 30.0002 15.5928 30.0002 15.0119V14.981C30.0001 14.7114 29.7816 14.4929 29.512 14.4929Z" fill="black"/>
<path d="M18.0074 29.2198C17.9608 28.9544 17.7077 28.7769 17.4423 28.8236C16.9099 28.9171 16.3649 28.9804 15.8226 29.0118C15.5536 29.0273 15.348 29.2581 15.3636 29.5271C15.3786 29.7867 15.5938 29.987 15.8504 29.987C15.8599 29.987 15.8695 29.9867 15.8791 29.9862C16.4588 29.9526 17.0416 29.885 17.6111 29.7849C17.8766 29.7383 18.0541 29.4854 18.0074 29.2198Z" fill="black"/>
<path d="M14.1918 29.0127C13.6494 28.9818 13.1045 28.9191 12.5721 28.8262C12.3061 28.7798 12.0538 28.9576 12.0073 29.2231C11.961 29.4886 12.1387 29.7414 12.4042 29.7878C12.9737 29.8872 13.5565 29.9543 14.1365 29.9872C14.1459 29.9878 14.1552 29.988 14.1646 29.988C14.4215 29.988 14.6368 29.7873 14.6515 29.5276C14.6667 29.2585 14.4609 29.028 14.1918 29.0127Z" fill="black"/>
<path d="M10.9852 28.4526C10.466 28.2978 9.95035 28.1104 9.45242 27.8957C9.20498 27.7891 8.91769 27.9031 8.81105 28.1507C8.70423 28.3982 8.81843 28.6853 9.06599 28.792C9.59891 29.0218 10.1507 29.2222 10.7063 29.3879C10.7529 29.4018 10.7998 29.4084 10.846 29.4084C11.0563 29.4084 11.2504 29.2715 11.3136 29.0598C11.3905 28.8015 11.2435 28.5297 10.9852 28.4526Z" fill="black"/>
<path d="M0.983651 11.2057C0.721268 11.1439 0.458475 11.3068 0.396834 11.5693C0.26453 12.1329 0.163924 12.711 0.0979476 13.2874C0.0672444 13.5552 0.259491 13.7972 0.527323 13.8278C0.546248 13.83 0.56494 13.831 0.583514 13.831C0.828201 13.831 1.03931 13.6474 1.06773 13.3985C1.12943 12.8596 1.22342 12.3192 1.34717 11.7924C1.40881 11.53 1.24609 11.2674 0.983651 11.2057Z" fill="black"/>
<path d="M21.202 28.1445C21.095 27.8972 20.8079 27.7833 20.5604 27.8903C20.0628 28.1054 19.5475 28.2932 19.0288 28.4485C18.7706 28.5259 18.624 28.7979 18.7013 29.0561C18.7646 29.2677 18.9586 29.4043 19.1687 29.4043C19.215 29.4043 19.2622 29.3976 19.3089 29.3837C19.864 29.2175 20.4154 29.0165 20.9478 28.7863C21.1951 28.6793 21.309 28.3919 21.202 28.1445Z" fill="black"/>
<path d="M1.07121 16.6548C1.00863 16.1181 0.976642 15.5703 0.976114 15.0266C0.97588 14.7572 0.757384 14.5391 0.488087 14.5391C0.487969 14.5391 0.487794 14.5391 0.487559 14.5391C0.218028 14.5394 -0.000234187 14.758 1.88582e-07 15.0276C0.000586127 15.6086 0.0348049 16.1941 0.101719 16.7679C0.130723 17.0164 0.341602 17.1994 0.585821 17.1994C0.604688 17.1994 0.62379 17.1983 0.643009 17.1961C0.910724 17.1649 1.10244 16.9225 1.07121 16.6548Z" fill="black"/>
<path d="M7.80036 6.88642C7.72178 6.65626 7.47118 6.53339 7.24143 6.61191C7.01121 6.69048 6.88834 6.94068 6.96692 7.17089C7.06073 7.4457 7.10825 7.73398 7.10825 8.02753V9.20357C7.10825 9.28999 7.03799 9.36025 6.95157 9.36025H1.31262C1.22619 9.36025 1.15594 9.28999 1.15594 9.20357V8.02753C1.15594 7.27015 1.48119 6.55261 2.03877 6.05257C2.51051 6.67906 3.26022 7.08499 4.10309 7.08499C5.52733 7.08499 6.68596 5.9263 6.68596 4.50212C6.68596 3.07794 5.52733 1.91919 4.10321 1.91919C2.67908 1.91919 1.52033 3.07788 1.52033 4.50206C1.52033 4.76111 1.55906 5.01112 1.63037 5.2472C0.778887 5.9147 0.275391 6.94003 0.275391 8.02753V9.20357C0.275391 9.77544 0.740684 10.2409 1.31274 10.2409H6.95168C7.52368 10.2409 7.98903 9.77556 7.98903 9.20351V8.02747C7.98891 7.63695 7.92551 7.25304 7.80036 6.88642ZM4.10321 2.7998C5.04182 2.7998 5.80547 3.56339 5.80547 4.50206C5.80547 5.44073 5.04188 6.20433 4.10321 6.20433C3.16465 6.20433 2.401 5.44073 2.401 4.50206C2.401 3.56339 3.16459 2.7998 4.10321 2.7998Z" fill="black"/>
<path d="M29.5357 6.8866C29.4571 6.65644 29.2066 6.53357 28.9768 6.61209C28.7466 6.69066 28.6237 6.94086 28.7023 7.17107C28.796 7.44588 28.8436 7.73416 28.8436 8.02771V9.20375C28.8436 9.29017 28.7733 9.36042 28.6869 9.36042H23.048C22.9615 9.36042 22.8913 9.29017 22.8913 9.20375V8.02771C22.8913 7.27033 23.2165 6.55279 23.7741 6.05275C24.2459 6.67924 24.9956 7.08517 25.8384 7.08517C27.2626 7.08517 28.4213 5.92648 28.4213 4.5023C28.4213 3.07812 27.2626 1.91943 25.8384 1.91943C24.4142 1.91943 23.2556 3.07812 23.2556 4.5023C23.2556 4.76135 23.2944 5.01137 23.3657 5.24744C22.5142 5.91494 22.0107 6.94021 22.0107 8.02771V9.20375C22.0107 9.77574 22.476 10.2411 23.0481 10.2411H28.687C29.259 10.2411 29.7244 9.7758 29.7244 9.20375V8.02771C29.7243 7.63713 29.6609 7.25322 29.5357 6.8866ZM25.8384 2.79998C26.7771 2.79998 27.5407 3.56357 27.5407 4.50224C27.5407 5.44092 26.7771 6.20451 25.8384 6.20451C24.8999 6.20451 24.1362 5.44092 24.1362 4.50224C24.1362 3.56357 24.8999 2.79998 25.8384 2.79998Z" fill="black"/>
<path d="M29.5357 24.7499C29.4572 24.5197 29.2066 24.3967 28.9768 24.4754C28.7466 24.5539 28.6238 24.8041 28.7023 25.0344C28.7961 25.3092 28.8437 25.5974 28.8437 25.891V27.067C28.8437 27.1535 28.7734 27.2237 28.687 27.2237H23.048C22.9616 27.2237 22.8913 27.1535 22.8913 27.067V25.891C22.8913 25.1336 23.2166 24.4161 23.7742 23.916C24.2459 24.5425 24.9956 24.9485 25.8385 24.9485C27.2627 24.9485 28.4214 23.7898 28.4214 22.3656C28.4214 20.9413 27.2627 19.7827 25.8385 19.7827C24.4143 19.7827 23.2557 20.9414 23.2557 22.3656C23.2557 22.6246 23.2944 22.8746 23.3657 23.1107C22.5142 23.7782 22.0107 24.8036 22.0107 25.8911V27.0671C22.0107 27.6391 22.476 28.1044 23.0481 28.1044H28.687C29.259 28.1044 29.7244 27.6391 29.7244 27.0671V25.8911C29.7243 25.5005 29.6609 25.1166 29.5357 24.7499ZM25.8385 20.6633C26.7771 20.6633 27.5408 21.4269 27.5408 22.3655C27.5408 23.3042 26.7772 24.0678 25.8385 24.0678C24.8999 24.0678 24.1363 23.3042 24.1363 22.3655C24.1363 21.4269 24.8999 20.6633 25.8385 20.6633Z" fill="black"/>
<path d="M7.80035 24.7499C7.72178 24.5197 7.47117 24.3967 7.24148 24.4754C7.01127 24.5539 6.8884 24.8041 6.96697 25.0344C7.06078 25.3092 7.1083 25.5974 7.1083 25.891V27.067C7.1083 27.1535 7.03804 27.2237 6.95162 27.2237H1.31268C1.22625 27.2237 1.156 27.1535 1.156 27.067V25.891C1.156 25.1336 1.48125 24.4161 2.03883 23.916C2.51057 24.5425 3.26027 24.9485 4.10314 24.9485C5.52732 24.9485 6.68601 23.7898 6.68601 22.3656C6.68601 20.9413 5.52732 19.7827 4.10314 19.7827C2.67896 19.7827 1.52033 20.9414 1.52033 22.3656C1.52033 22.6246 1.55906 22.8746 1.63037 23.1107C0.778887 23.7782 0.275391 24.8036 0.275391 25.8911V27.0671C0.275391 27.6391 0.740742 28.1044 1.31273 28.1044H6.95168C7.52367 28.1044 7.98902 27.6391 7.98902 27.0671V25.8911C7.9889 25.5005 7.92551 25.1166 7.80035 24.7499ZM4.1032 20.6633C5.04181 20.6633 5.80547 21.4269 5.80547 22.3655C5.80547 23.3042 5.04187 24.0678 4.1032 24.0678C3.16465 24.0678 2.401 23.3042 2.401 22.3655C2.401 21.4269 3.16459 20.6633 4.1032 20.6633Z" fill="black"/>
<path d="M19.1645 10.1462H14.479C12.4543 10.1462 10.7699 11.6273 10.45 13.5627H10.2902C8.46385 13.5627 6.97803 15.0907 6.97803 16.9688C6.97803 18.2919 7.71063 19.4768 8.86064 20.0413C9.4259 21.4105 11.1895 22.0673 11.2676 22.0957C11.3168 22.1137 11.3678 22.1224 11.4183 22.1224C11.5387 22.1224 11.6566 22.0729 11.7415 21.9812C11.8619 21.8512 11.8926 21.6615 11.8193 21.5001C11.6421 21.1097 11.5424 20.7327 11.5213 20.3748H13.9825C15.3438 20.3748 16.5154 19.5256 17.024 18.3155H17.7251C17.7128 18.7977 17.5819 19.3073 17.3342 19.8358C17.2588 19.9965 17.2874 20.1867 17.4064 20.3182C17.4914 20.4121 17.6107 20.463 17.7329 20.463C17.782 20.463 17.8315 20.4548 17.8794 20.4379C17.9772 20.4034 20.1999 19.6018 20.8821 17.9369C22.3265 17.2688 23.2491 15.8351 23.2491 14.2309C23.2491 11.9786 21.4168 10.1462 19.1645 10.1462ZM20.3684 17.2C20.2492 17.2485 20.1559 17.3449 20.1166 17.4675C19.8695 18.239 19.1174 18.8133 18.4968 19.1716C18.6034 18.7126 18.6327 18.2636 18.5838 17.8288C18.5586 17.605 18.3711 17.4348 18.1459 17.4348H14.479C14.0574 17.4348 13.6548 17.3524 13.2859 17.2035C13.1225 17.1376 12.9359 17.1735 12.8113 17.2981L12.8051 17.3043C12.5836 17.5258 12.661 17.9006 12.9513 18.0183C13.4234 18.2097 13.939 18.3154 14.479 18.3154H16.0378C15.6066 19.023 14.8466 19.4941 13.9824 19.4941H11.0928C10.8695 19.4941 10.68 19.6612 10.6554 19.8831C10.6221 20.1839 10.6323 20.4926 10.6857 20.8074C10.2582 20.5252 9.80195 20.1175 9.63426 19.5954C9.59359 19.4687 9.50383 19.3624 9.38113 19.311C8.45617 18.9233 7.85857 18.0038 7.85857 16.9688C7.85857 15.5763 8.9493 14.4434 10.2901 14.4434H10.4C10.4237 14.9036 10.5242 15.3439 10.6887 15.7517C10.8061 16.043 11.1812 16.1218 11.4033 15.8997C11.4055 15.8976 11.4077 15.8954 11.4098 15.8933C11.5338 15.7692 11.5704 15.5834 11.505 15.4206C11.3487 15.0318 11.266 14.6058 11.2758 14.1595C11.3143 12.4107 12.7751 11.027 14.5243 11.027H19.1106C20.8787 11.027 22.374 12.4733 22.3684 14.2413C22.3643 15.5475 21.5801 16.7082 20.3684 17.2Z" fill="black"/>
</svg>
