<svg width="416" height="512" viewBox="0 0 416 512" fill="none" xmlns="http://www.w3.org/2000/svg">
<path d="M387.493 430.842H28.507C22.2563 430.841 16.1799 428.782 11.2166 424.982C6.25335 421.183 2.67956 415.854 1.04747 409.82C-0.584608 403.787 -0.184135 397.383 2.18701 391.6C4.55816 385.816 8.76799 380.975 14.166 377.823C32.2595 360.058 46.6414 338.873 56.4757 315.501C66.3101 292.128 71.4008 267.034 71.452 241.677V198.565C71.5053 173.559 78.6847 149.085 92.1487 128.013C105.613 106.941 124.804 90.1422 147.473 79.586C149.267 78.7546 151.208 78.2849 153.184 78.2035C155.16 78.1221 157.132 78.4308 158.989 79.1117C160.846 79.7927 162.55 80.8327 164.005 82.1724C165.46 83.512 166.636 85.1251 167.467 86.9195C168.299 88.7139 168.769 90.6544 168.85 92.6303C168.931 94.6063 168.623 96.5789 167.942 98.4356C167.261 100.292 166.221 101.997 164.881 103.451C163.541 104.906 161.928 106.083 160.134 106.914C142.671 115.045 127.887 127.985 117.515 144.217C107.143 160.45 101.612 179.302 101.57 198.565V241.677C101.51 271.375 95.4811 300.759 83.841 328.081C72.2008 355.403 55.1871 380.107 33.811 400.724H382.19C360.813 380.108 343.798 355.404 332.158 328.081C320.517 300.759 314.489 271.375 314.43 241.676V198.565C314.398 179.197 308.812 160.245 298.334 143.956C287.856 127.667 272.927 114.725 255.316 106.665C253.517 105.844 251.897 104.677 250.549 103.23C249.201 101.784 248.151 100.085 247.459 98.2329C246.767 96.3804 246.447 94.4098 246.517 92.4335C246.587 90.4572 247.045 88.5141 247.866 86.715C248.687 84.9159 249.854 83.296 251.301 81.948C252.747 80.5999 254.446 79.55 256.298 78.8582C258.151 78.1664 260.121 77.8463 262.097 77.9161C264.074 77.9859 266.017 78.4442 267.816 79.265C290.678 89.7291 310.059 106.531 323.661 127.678C337.262 148.825 344.512 173.429 344.552 198.572V241.684C344.603 267.041 349.694 292.135 359.528 315.508C369.363 338.88 383.745 360.065 401.838 377.83C407.236 380.982 411.446 385.823 413.817 391.607C416.188 397.39 416.589 403.794 414.957 409.827C413.324 415.861 409.751 421.19 404.787 424.989C399.824 428.789 393.748 430.848 387.497 430.849L387.493 430.842Z" fill="#222222"/>
<path d="M205.9 512C192.161 511.984 178.99 506.52 169.276 496.805C159.561 487.091 154.097 473.919 154.081 460.181C154.081 456.187 155.668 452.357 158.492 449.533C161.316 446.709 165.146 445.122 169.14 445.122C173.134 445.122 176.964 446.709 179.788 449.533C182.612 452.357 184.199 456.187 184.199 460.181C184.199 465.936 186.485 471.456 190.555 475.525C194.624 479.595 200.144 481.881 205.899 481.881C211.654 481.881 217.174 479.595 221.243 475.525C225.313 471.456 227.599 465.936 227.599 460.181C227.599 456.187 229.186 452.357 232.01 449.533C234.834 446.709 238.664 445.122 242.658 445.122C246.652 445.122 250.482 446.709 253.306 449.533C256.13 452.357 257.717 456.187 257.717 460.181C257.701 473.919 252.237 487.09 242.523 496.805C232.809 506.519 219.638 511.984 205.9 512Z" fill="#222222"/>
<path d="M208 154.6C204.006 154.6 200.176 153.013 197.352 150.189C194.527 147.365 192.941 143.535 192.941 139.541V15.059C192.941 11.0651 194.527 7.23479 197.352 4.41068C200.176 1.58657 204.006 0 208 0C211.994 0 215.824 1.58657 218.648 4.41068C221.472 7.23479 223.059 11.0651 223.059 15.059V139.544C223.058 143.537 221.471 147.367 218.647 150.19C215.823 153.014 211.993 154.6 208 154.6V154.6Z" fill="#222222"/>
<path d="M18.143 174.643C15.7966 174.641 13.4831 174.092 11.3865 173.039C9.28993 171.985 7.4683 170.457 6.06666 168.575C4.66501 166.693 3.72207 164.51 3.31293 162.2C2.90379 159.89 3.03974 157.516 3.70997 155.267C16.4475 112.501 42.3453 74.8403 77.72 47.641C80.8798 45.1982 84.8805 44.1107 88.8421 44.6177C92.8037 45.1247 96.4017 47.1847 98.8445 50.3445C101.287 53.5043 102.375 57.5051 101.868 61.4667C101.361 65.4283 99.3008 69.0262 96.141 71.469C65.7566 94.8249 43.51 127.166 32.565 163.894C31.6364 166.998 29.7319 169.72 27.1339 171.657C24.536 173.593 21.3831 174.64 18.143 174.643V174.643Z" fill="#222222"/>
<path d="M397.857 174.643C394.617 174.641 391.464 173.593 388.866 171.657C386.268 169.721 384.363 166.998 383.435 163.894C372.49 127.166 350.243 94.8249 319.859 71.469C316.699 69.0262 314.639 65.4283 314.132 61.4667C313.625 57.5051 314.713 53.5043 317.155 50.3445C319.598 47.1847 323.196 45.1247 327.158 44.6177C331.119 44.1107 335.12 45.1982 338.28 47.641C373.655 74.8403 399.552 112.501 412.29 155.267C412.96 157.516 413.096 159.89 412.687 162.2C412.278 164.51 411.335 166.693 409.933 168.575C408.532 170.457 406.71 171.985 404.613 173.039C402.517 174.092 400.203 174.641 397.857 174.643V174.643Z" fill="#222222"/>
</svg>
