<svg width="30" height="30" viewBox="0 0 30 30" fill="none" xmlns="http://www.w3.org/2000/svg">
<g clip-path="url(#clip0_109_837)">
<path d="M18.985 10.1644L16.5997 9.81801L15.5328 7.65592C15.4751 7.53907 15.3805 7.44456 15.2637 7.38683C14.9702 7.24189 14.6148 7.36235 14.4698 7.65592L13.4029 9.81801L11.0169 10.1644C10.8877 10.1831 10.7683 10.2437 10.6772 10.3372C10.4486 10.5715 10.4533 10.9468 10.6876 11.1753L12.4137 12.858L12.0061 15.2341C12.0004 15.2671 11.9976 15.3007 11.9976 15.3342C11.9976 15.6615 12.2629 15.9269 12.5902 15.9269C12.6866 15.9262 12.7813 15.902 12.8662 15.8564L15 14.7369L17.1338 15.8564C17.2491 15.9175 17.3814 15.9389 17.5101 15.9172C17.8329 15.8627 18.0503 15.5569 17.9959 15.2341L17.5882 12.858L19.3144 11.1753C19.4077 11.0842 19.4685 10.9648 19.4871 10.8357C19.5337 10.5116 19.309 10.2111 18.985 10.1644ZM16.5365 12.2218C16.396 12.3584 16.3322 12.5556 16.3659 12.7486L16.6227 14.2482L15.276 13.5402C15.1907 13.4963 15.096 13.4737 15 13.4743C14.9037 13.4751 14.809 13.4992 14.724 13.5448L13.3773 14.2528L13.6348 12.7532C13.6685 12.5602 13.6047 12.363 13.4642 12.2264L12.3749 11.1641L13.8804 10.9454C14.0735 10.9175 14.2405 10.7963 14.3269 10.6214L15 9.2569L15.6731 10.6214C15.7595 10.7963 15.9265 10.9175 16.1196 10.9454L17.6258 11.1601L16.5365 12.2218Z" fill="black"/>
<path d="M15.0003 4.04419C10.7404 4.04419 7.28711 7.49751 7.28711 11.7573C7.28711 16.0172 10.7404 19.4705 15.0003 19.4705C19.2581 19.4657 22.7087 16.0152 22.7134 11.7573C22.7134 7.49751 19.2601 4.04419 15.0003 4.04419ZM15.0003 18.2851C11.3951 18.2851 8.47253 15.3625 8.47253 11.7573C8.47253 8.15219 11.3951 5.22961 15.0003 5.22961C18.6038 5.23362 21.524 8.15386 21.528 11.7573C21.528 15.3626 18.6054 18.2851 15.0003 18.2851Z" fill="black"/>
<path d="M25.856 13.3558L24.747 13.7753C24.9196 14.2316 25.1343 14.7994 25.0605 15.0266C24.9775 15.2821 24.475 15.6094 24.0311 15.8985C23.5043 16.2423 22.905 16.6322 22.4934 17.1985C22.0817 17.7649 21.8875 18.4663 21.7208 19.0787C21.5891 19.5602 21.4271 20.1595 21.217 20.3122C21.0069 20.465 20.3984 20.4314 19.8999 20.4078C19.2631 20.3775 18.5413 20.3419 17.8623 20.5645C17.2037 20.7778 16.6565 21.223 16.1718 21.6136C15.7562 21.9495 15.2847 22.3301 15.0009 22.3301C14.7171 22.3301 14.2454 21.9495 13.8293 21.6123C13.3446 21.2204 12.7954 20.7766 12.1394 20.5639C11.764 20.442 11.3432 20.3854 10.8144 20.3854C10.5701 20.3854 10.331 20.3966 10.1005 20.4078C9.60598 20.4315 8.99083 20.4605 8.78736 20.3123C8.58389 20.1642 8.4146 19.5589 8.28291 19.0775C8.11629 18.4643 7.92794 17.7702 7.51104 17.1972C7.09414 16.6243 6.5008 16.2416 5.9726 15.8972C5.52941 15.6082 5.0269 15.2808 4.94389 15.0253C4.87012 14.7994 5.08549 14.2311 5.25806 13.774C5.48661 13.1701 5.74472 12.4859 5.74472 11.7575C5.74472 11.0291 5.48587 10.3448 5.25739 9.74093C5.08482 9.28457 4.87012 8.71617 4.94322 8.48963C5.02623 8.23412 5.52868 7.90678 5.9726 7.61703C6.49946 7.27324 7.09809 6.88336 7.51037 6.31771C7.92266 5.75199 8.11623 5.04995 8.28291 4.43748C8.4146 3.95603 8.5766 3.35674 8.78669 3.20397C8.99678 3.0512 9.60531 3.08478 10.1005 3.10846C10.7374 3.13875 11.4599 3.17434 12.1421 2.95174C12.8006 2.73838 13.3472 2.29318 13.8326 1.90264C14.2449 1.56546 14.7165 1.18542 15.0003 1.18542C15.2841 1.18542 15.7557 1.5654 16.1712 1.90257C16.6559 2.29439 17.2051 2.73831 17.8617 2.95167C18.5413 3.17226 19.2638 3.13802 19.9033 3.10839C20.3978 3.08531 21.013 3.05635 21.2164 3.2039C21.4199 3.35145 21.5859 3.9553 21.7176 4.43741C21.8842 5.05055 22.0726 5.7447 22.4895 6.31764C22.9064 6.89059 23.4997 7.27391 24.0279 7.61764C24.4712 7.90672 24.9736 8.23406 25.0573 8.48956C25.1311 8.7161 24.9157 9.28443 24.7431 9.74086C24.5146 10.3448 24.2558 11.0297 24.2558 11.7574C24.2558 12.4851 24.5146 13.17 24.7431 13.7739L25.2976 13.5645L25.8521 13.3551C25.6407 12.7967 25.4411 12.2691 25.4411 11.7574C25.4411 11.2457 25.6387 10.7182 25.8514 10.1597C26.1261 9.43526 26.3862 8.74573 26.184 8.12343C25.9713 7.46948 25.3121 7.04008 24.6746 6.62451C24.2136 6.32226 23.7315 6.0101 23.4477 5.62022C23.1638 5.23034 23.0078 4.66596 22.8609 4.12659C22.6534 3.36396 22.4578 2.64346 21.9106 2.24569C21.3633 1.84792 20.629 1.88745 19.844 1.92431C19.2822 1.95066 18.7007 1.97828 18.2272 1.82418C17.7794 1.67864 17.3401 1.32367 16.916 0.980547C16.3173 0.498568 15.7035 0 15.0002 0C14.2969 0 13.6831 0.498567 13.0838 0.981283C12.6597 1.32441 12.2204 1.6787 11.7725 1.82425C11.2991 1.97768 10.7432 1.952 10.1558 1.92437C9.37074 1.88752 8.62924 1.85261 8.08853 2.24576C7.54783 2.63892 7.3457 3.3653 7.13822 4.12726C6.99134 4.66663 6.83991 5.22446 6.55143 5.62089C6.26295 6.01732 5.7888 6.32293 5.32454 6.62518C4.68705 7.04074 4.02782 7.47015 3.81513 8.1241C3.61293 8.74647 3.87305 9.43332 4.14768 10.161C4.35844 10.7195 4.55796 11.247 4.55796 11.7581C4.55796 12.2691 4.36038 12.7966 4.14768 13.3558C3.87305 14.0802 3.61293 14.7704 3.81513 15.3921C4.02782 16.0467 4.68705 16.4761 5.32454 16.8916C5.78552 17.1939 6.26763 17.506 6.55076 17.8959C6.83395 18.2858 6.99067 18.8502 7.13755 19.3896C7.26396 19.8558 7.38717 20.3063 7.5887 20.677L5.18756 26.8176C5.0685 27.1225 5.2192 27.4662 5.52413 27.5853C5.61496 27.6207 5.71315 27.6332 5.80993 27.6217L9.16861 27.22L11.3623 29.7923C11.575 30.0412 11.9491 30.0706 12.198 29.8579C12.2729 29.7939 12.3306 29.7123 12.366 29.6204L14.7599 23.4957C14.9193 23.5223 15.082 23.5223 15.2414 23.4957L17.6346 29.6204C17.7539 29.9253 18.0977 30.0757 18.4025 29.9565C18.4935 29.9209 18.5742 29.8634 18.6376 29.789L20.8314 27.2167L24.19 27.6184C24.5151 27.6569 24.8098 27.4244 24.8483 27.0994C24.8596 27.004 24.8475 26.9073 24.8131 26.8176L22.411 20.6758C22.6125 20.305 22.735 19.8545 22.8622 19.3883C23.0084 18.8489 23.1598 18.2911 23.449 17.8947C23.738 17.4982 24.2116 17.1926 24.6758 16.8904C25.3133 16.4748 25.9732 16.0454 26.1853 15.3914C26.3875 14.7691 26.128 14.0828 25.856 13.3558ZM11.6197 28.2697L9.86329 26.209C9.73446 26.0582 9.53869 25.9818 9.34171 26.0056L6.65209 26.3276L8.54155 21.4951C9.01243 21.6452 9.57153 21.6189 10.155 21.5912C10.3724 21.5807 10.597 21.5702 10.8136 21.5702C11.214 21.5702 11.5189 21.6084 11.7725 21.6907C12.2203 21.8362 12.6589 22.1905 13.0837 22.5343C13.2813 22.6931 13.4789 22.8531 13.6817 22.9953L11.6197 28.2697ZM23.3482 26.3276L20.6592 26.0056C20.4622 25.982 20.2663 26.0586 20.1376 26.2097L18.3805 28.2704L16.3172 22.9966C16.5201 22.853 16.719 22.693 16.9152 22.5356C17.3393 22.1925 17.7786 21.8382 18.2264 21.6926C18.6993 21.5392 19.2545 21.5649 19.8439 21.5925C20.4333 21.6202 20.9865 21.6458 21.4574 21.4963L23.3482 26.3276Z" fill="black"/>
</g>
<defs>
<clipPath id="clip0_109_837">
<rect width="30" height="30" fill="white"/>
</clipPath>
</defs>
</svg>
