<svg width="24" height="30" viewBox="0 0 24 30" fill="none" xmlns="http://www.w3.org/2000/svg">
<g clip-path="url(#clip0_109_406)">
<path d="M2 30H22C23.1046 30 24 29.1046 24 28V4.4145C23.9995 4.20783 23.9561 4.00351 23.8725 3.8145C23.8685 3.804 23.862 3.7955 23.857 3.785C23.7842 3.62507 23.6838 3.47919 23.5605 3.354L20.6465 0.439501C20.5209 0.314693 20.3741 0.213125 20.213 0.139501C20.204 0.135501 20.1965 0.129501 20.187 0.126001C19.9976 0.0426855 19.7929 -0.000227523 19.586 9.07187e-07L2 2.18748e-09C0.895431 9.07187e-07 0 0.895431 0 2V28C0 29.1046 0.895431 30 2 30ZM22.293 3.5H21.5C20.9477 3.5 20.5 3.05228 20.5 2.5V1.707L22.293 3.5ZM1 2C1 1.44772 1.44772 1 2 1H19.5V2.5C19.5 3.60457 20.3954 4.5 21.5 4.5H23V28C23 28.5523 22.5523 29 22 29H2C1.44772 29 1 28.5523 1 28V2Z" fill="black"/>
<path d="M4.5 11.5H7.5C8.32843 11.5 9.00001 10.8284 9.00001 9.99996V7.20696L10.3535 5.85346C10.543 5.65727 10.5403 5.34542 10.3474 5.15255C10.1546 4.95968 9.8427 4.95697 9.64651 5.14646L8.69251 6.09996C8.41159 5.72343 7.96978 5.50114 7.5 5.49996H4.5C3.67157 5.49996 3 6.17153 3 6.99996V9.99996C3 10.8284 3.67157 11.5 4.5 11.5ZM4 6.99996C4 6.72382 4.22386 6.49996 4.5 6.49996H7.5C7.70845 6.50096 7.89413 6.63193 7.96501 6.82796L6.5 8.29296L5.8535 7.64646C5.65731 7.45697 5.34546 7.45968 5.15259 7.65255C4.95973 7.84542 4.95702 8.15727 5.1465 8.35346L6.1465 9.35346C6.34175 9.54865 6.65825 9.54865 6.8535 9.35346L8.00001 8.20696V9.99996C8.00001 10.2761 7.77615 10.5 7.5 10.5H4.5C4.22386 10.5 4 10.2761 4 9.99996V6.99996Z" fill="black"/>
<path d="M4.5 18.5H7.5C8.32843 18.5 9 17.8284 9 17V14C9 13.1716 8.32843 12.5 7.5 12.5H4.5C3.67157 12.5 3 13.1716 3 14V17C3 17.8284 3.67157 18.5 4.5 18.5ZM4 14C4 13.7239 4.22386 13.5 4.5 13.5H7.5C7.77614 13.5 8 13.7239 8 14V17C8 17.2761 7.77614 17.5 7.5 17.5H4.5C4.22386 17.5 4 17.2761 4 17V14Z" fill="black"/>
<path d="M4.5 25.5H7.5C8.32843 25.5 9 24.8284 9 24V21C9 20.1716 8.32843 19.5 7.5 19.5H4.5C3.67157 19.5 3 20.1716 3 21V24C3 24.8284 3.67157 25.5 4.5 25.5ZM4 21C4 20.7239 4.22386 20.5 4.5 20.5H7.5C7.77614 20.5 8 20.7239 8 21V24C8 24.2762 7.77614 24.5 7.5 24.5H4.5C4.22386 24.5 4 24.2762 4 24V21Z" fill="black"/>
<path d="M12 7.49999H20.5C20.7762 7.49999 21 7.27614 21 7C21 6.72386 20.7762 6.5 20.5 6.5H12C11.7239 6.5 11.5 6.72386 11.5 7C11.5 7.27614 11.7239 7.49999 12 7.49999Z" fill="black"/>
<path d="M12 10H17C17.2762 10 17.5 9.77614 17.5 9.5C17.5 9.22386 17.2762 9 17 9H12C11.7239 9 11.5 9.22386 11.5 9.5C11.5 9.77614 11.7239 10 12 10Z" fill="black"/>
<path d="M12 14.5H20.5C20.7762 14.5 21 14.2761 21 14C21 13.7239 20.7762 13.5 20.5 13.5H12C11.7239 13.5 11.5 13.7239 11.5 14C11.5 14.2761 11.7239 14.5 12 14.5Z" fill="black"/>
<path d="M12 17H17C17.2762 17 17.5 16.7762 17.5 16.5C17.5 16.2239 17.2762 16 17 16H12C11.7239 16 11.5 16.2239 11.5 16.5C11.5 16.7762 11.7239 17 12 17Z" fill="black"/>
<path d="M12 21.5H20.5C20.7762 21.5 21 21.2762 21 21C21 20.7239 20.7762 20.5 20.5 20.5H12C11.7239 20.5 11.5 20.7239 11.5 21C11.5 21.2762 11.7239 21.5 12 21.5Z" fill="black"/>
<path d="M12 24H17C17.2762 24 17.5 23.7762 17.5 23.5C17.5 23.2239 17.2762 23 17 23H12C11.7239 23 11.5 23.2239 11.5 23.5C11.5 23.7762 11.7239 24 12 24Z" fill="black"/>
</g>
<defs>
<clipPath id="clip0_109_406">
<rect width="24" height="30" fill="white"/>
</clipPath>
</defs>
</svg>
