<svg width="30" height="30" viewBox="0 0 30 30" fill="none" xmlns="http://www.w3.org/2000/svg">
<g clip-path="url(#clip0_109_499)">
<path d="M26.875 27.5H3.125C1.4025 27.5 0 26.0975 0 24.375V21.875C0 21.53 0.28 21.25 0.625 21.25H1.25C2.62875 21.25 3.75 20.1287 3.75 18.75C3.75 17.3713 2.62875 16.25 1.25 16.25H0.625C0.28 16.25 0 15.97 0 15.625V13.125C0 11.4025 1.4025 10 3.125 10H26.875C28.5975 10 30 11.4025 30 13.125V15.625C30 15.97 29.72 16.25 29.375 16.25H28.75C27.3712 16.25 26.25 17.3713 26.25 18.75C26.25 19.4175 26.51 20.045 26.9825 20.5175C27.4537 20.99 28.0812 21.25 28.7487 21.25H29.3737C29.7187 21.25 29.9987 21.53 29.9987 21.875V24.375C30 26.0975 28.5975 27.5 26.875 27.5ZM1.25 22.5V24.375C1.25 25.4087 2.09125 26.25 3.125 26.25H26.875C27.9087 26.25 28.75 25.4087 28.75 24.375V22.5H28.7487C27.7475 22.5 26.8062 22.11 26.0987 21.4025C25.39 20.6937 25 19.7513 25 18.75C25 16.6825 26.6825 15 28.75 15V13.125C28.75 12.0912 27.9087 11.25 26.875 11.25H3.125C2.09125 11.25 1.25 12.0912 1.25 13.125V15C3.3175 15 5 16.6825 5 18.75C5 20.8175 3.3175 22.5 1.25 22.5Z" fill="black"/>
<path d="M10.625 12.5C10.28 12.5 10 12.22 10 11.875V10.625C10 10.28 10.28 10 10.625 10C10.97 10 11.25 10.28 11.25 10.625V11.875C11.25 12.22 10.97 12.5 10.625 12.5Z" fill="black"/>
<path d="M10.625 23.0761C10.28 23.0761 10 22.7961 10 22.4511V20.3373C10 19.9923 10.28 19.7123 10.625 19.7123C10.97 19.7123 11.25 19.9911 11.25 20.3373V22.4523C11.25 22.7973 10.97 23.0761 10.625 23.0761ZM10.625 17.7886C10.28 17.7886 10 17.5086 10 17.1636V15.0486C10 14.7036 10.28 14.4236 10.625 14.4236C10.97 14.4236 11.25 14.7036 11.25 15.0486V17.1636C11.25 17.5086 10.97 17.7886 10.625 17.7886Z" fill="black"/>
<path d="M10.625 27.5C10.28 27.5 10 27.22 10 26.875V25.625C10 25.28 10.28 25 10.625 25C10.97 25 11.25 25.28 11.25 25.625V26.875C11.25 27.22 10.97 27.5 10.625 27.5Z" fill="black"/>
<path d="M3.12498 11.2499C2.87123 11.2499 2.63248 11.0949 2.53998 10.8436C2.41873 10.5199 2.58248 10.1599 2.90623 10.0399L22.7812 2.61866C23.7475 2.25616 24.8825 2.79866 25.2125 3.7724L27.4662 10.4236C27.5762 10.7511 27.4012 11.1049 27.075 11.2161C26.7512 11.3274 26.3937 11.1511 26.2825 10.8249L24.0287 4.17365C23.9187 3.84865 23.5412 3.67115 23.2175 3.78865L3.34248 11.2099C3.27123 11.2374 3.19748 11.2499 3.12498 11.2499Z" fill="black"/>
</g>
<defs>
<clipPath id="clip0_109_499">
<rect width="30" height="30" fill="white"/>
</clipPath>
</defs>
</svg>
