<svg width="101" height="100" viewBox="0 0 101 100" fill="none" xmlns="http://www.w3.org/2000/svg">
<path d="M91.9488 56.4453V46.7665C91.9488 40.5414 86.8836 35.4745 80.6569 35.4745H70.978V25.6957C70.978 22.8792 69.5182 20.332 67.0726 18.8786C64.5739 17.3977 61.5589 17.3429 59.0602 18.7076L56.4598 20.0029V14.7441C56.4598 11.4098 54.6144 8.49966 51.6446 7.1527C48.7893 5.85896 45.5389 6.34935 43.1627 8.43191L12.2986 35.4745H11.292C5.06525 35.4745 0 40.5414 0 46.7665V88.7081C0 94.9332 5.06525 100 11.292 100H80.6569C86.8836 100 91.9488 94.9332 91.9488 88.7081V79.0293C96.3963 79.0293 100.015 75.411 100.015 70.9636V64.511C100.015 60.0636 96.3963 56.4453 91.9488 56.4453ZM60.5523 21.5661C62.0929 20.7256 63.9157 20.7563 65.4256 21.6532C66.8823 22.5178 67.7518 24.0277 67.7518 25.6957V35.4745H32.6596L60.5523 21.5661ZM45.2888 10.8581C46.7213 9.60305 48.599 9.3143 50.3121 10.0918C51.7236 10.7322 53.2335 12.2905 53.2335 14.7441V21.6112L25.4311 35.4745H17.1944L45.2888 10.8581ZM88.7226 88.7081C88.7226 93.1555 85.1043 96.7738 80.6569 96.7738H11.292C6.84454 96.7738 3.22627 93.1555 3.22627 88.7081V46.7665C3.22627 42.3191 6.84454 38.7008 11.292 38.7008H80.6569C85.1043 38.7008 88.7226 42.3191 88.7226 46.7665V56.4453H72.5912C64.5255 56.4453 64.5255 64.945 64.5255 67.7373C64.5255 70.5296 64.5255 79.0293 72.5912 79.0293H88.7226V88.7081ZM96.7882 70.9636C96.7882 73.6317 94.617 75.803 91.9488 75.803H72.5912C69.6859 75.803 67.7518 74.4302 67.7518 67.7373C67.7518 61.0444 69.6859 59.6716 72.5912 59.6716H91.9488C94.617 59.6716 96.7882 61.8429 96.7882 64.511V70.9636Z" fill="#17A2B9"/>
<path d="M77.4306 61.2847C73.872 61.2847 70.978 64.1787 70.978 67.7373C70.978 71.2959 73.872 74.1898 77.4306 74.1898C80.9892 74.1898 83.8831 71.2959 83.8831 67.7373C83.8831 64.1787 80.9892 61.2847 77.4306 61.2847ZM77.4306 70.9636C75.6513 70.9636 74.2043 69.5166 74.2043 67.7373C74.2043 65.958 75.6513 64.511 77.4306 64.511C79.2099 64.511 80.6569 65.958 80.6569 67.7373C80.6569 69.5166 79.2099 70.9636 77.4306 70.9636Z" fill="#17A2B9"/>
<path d="M77.6081 25.4214L76.5999 26.0264C76.1385 26.3038 75.8466 26.791 75.8191 27.3265C75.7917 27.8637 76.0321 28.3783 76.4612 28.7009L82.9137 33.5404C83.1992 33.7549 83.5412 33.863 83.8816 33.863C84.1929 33.863 84.5043 33.7726 84.7769 33.592L85.0608 33.4032C90.9439 29.4801 94.6251 23.1066 95.1171 16.1185H97.24C98.3563 16.1185 99.3532 15.4522 99.7791 14.4214C100.187 13.4342 99.992 12.3147 99.2822 11.5291L91.9166 1.6212C91.1504 0.590408 89.9744 0 88.692 0H88.6904C87.4063 0.00161314 86.2319 0.592022 85.4673 1.62443L78.1469 11.4807C77.4307 12.2728 77.2306 13.4036 77.6436 14.4021C78.0743 15.4442 79.0825 16.1169 80.2101 16.1169H82.4491C82.7121 19.84 80.8683 23.4647 77.6081 25.4214V25.4214ZM85.4947 14.5005C85.4867 14.3247 85.4496 14.1456 85.3786 13.973L85.3479 13.8988C85.3479 13.8972 85.3463 13.8972 85.3463 13.8956C85.2011 13.5358 84.9382 13.2568 84.6204 13.0842C84.3026 12.9116 84.6204 13.0825 84.6188 13.0825C84.5285 13.0358 84.4333 12.9938 84.3365 12.9648C84.172 12.9132 83.9961 12.897 83.8219 12.8906H81.1183L88.058 3.54568C88.2629 3.26822 88.5436 3.22627 88.692 3.22627C88.8404 3.22627 89.1211 3.26822 89.3292 3.54568L96.2786 12.8906H93.562C92.6716 12.8906 91.9489 13.6117 91.9489 14.5037C91.9489 20.7675 88.963 26.6006 83.9235 30.2641L80.2698 27.5217C84.3268 24.5552 86.3852 19.4964 85.4947 14.5005V14.5005Z" fill="#17A2B9"/>
</svg>
