<svg width="30" height="30" viewBox="0 0 30 30" fill="none" xmlns="http://www.w3.org/2000/svg">
<g clip-path="url(#clip0_109_351)">
<path d="M29.9713 29.4044L25.5768 17.8281C25.5403 17.732 25.4712 17.6517 25.3817 17.6012L20.7009 14.9642L22.0675 12.7974C22.9062 11.4665 23.3496 9.92845 23.3496 8.34959C23.3496 3.7456 19.604 0 15 0C10.396 0 6.65036 3.7456 6.65036 8.34959C6.65036 9.92886 7.09392 11.4669 7.9331 12.7975C7.95554 12.8332 9.29932 14.9643 9.29932 14.9643L4.61834 17.6012C4.52875 17.6517 4.45966 17.732 4.42316 17.8281L0.0286354 29.4044C-0.0370481 29.5774 0.0126979 29.773 0.152913 29.8936C0.293303 30.0143 0.493986 30.0342 0.655177 29.9433L7.7197 25.9633L14.7842 29.9433C14.9181 30.0187 15.0818 30.0187 15.2156 29.9433L22.2802 25.9633L29.3447 29.9433C29.4121 29.9813 29.4864 29.9999 29.5604 29.9999C29.6633 29.9999 29.7653 29.9639 29.847 29.8937C29.9873 29.773 30.037 29.5774 29.9713 29.4044ZM15.4395 22.776C15.7144 22.679 15.9528 22.492 16.1145 22.2359C16.1369 22.2008 19.8779 16.2691 19.8779 16.2691L21.7833 25.2344L15.4395 28.8084V22.776ZM8.67653 12.3286C7.92601 11.1385 7.52933 9.76263 7.52933 8.34953C7.52933 4.23017 10.8807 0.878846 15 0.878846C19.1194 0.878846 22.4707 4.23017 22.4707 8.34953C22.4707 9.76234 22.0742 11.1384 21.3241 12.3286C21.2654 12.4216 15.4751 21.6039 15.3741 21.7625C15.3731 21.7638 15.3723 21.7652 15.3714 21.7666C15.2899 21.8955 15.1511 21.9725 15 21.9725C14.8488 21.9725 14.7093 21.8951 14.6277 21.7668C14.569 21.6737 8.76712 12.4732 8.67852 12.3318C8.67788 12.3307 8.67718 12.3297 8.67653 12.3286ZM5.18833 18.2888L9.28497 15.981L8.5713 19.3386C8.52085 19.5761 8.67237 19.8094 8.90973 19.8599C8.94056 19.8665 8.97132 19.8696 9.00155 19.8696C9.20458 19.8696 9.38704 19.728 9.43093 19.5215L10.1222 16.2694L13.8851 22.2371C14.0475 22.4925 14.286 22.679 14.5604 22.7759V28.8085L8.21669 25.2345L9.06554 21.2408C9.11598 21.0034 8.96446 20.77 8.7271 20.7195C8.48944 20.6688 8.2563 20.8207 8.20585 21.058L7.3311 25.1733L1.28096 28.582L5.18833 18.2888ZM22.6689 25.1734L20.7152 15.9809L24.8116 18.2888L28.7191 28.582L22.6689 25.1734Z" fill="black"/>
<path d="M19.834 8.34961C19.834 5.68418 17.6654 3.51562 15 3.51562C12.3346 3.51562 10.166 5.68418 10.166 8.34961C10.166 11.015 12.3346 13.1836 15 13.1836C17.6654 13.1836 19.834 11.015 19.834 8.34961ZM11.0449 8.34961C11.0449 6.16875 12.8191 4.39453 15 4.39453C17.1809 4.39453 18.9551 6.16875 18.9551 8.34961C18.9551 10.5305 17.1809 12.3047 15 12.3047C12.8191 12.3047 11.0449 10.5305 11.0449 8.34961Z" fill="black"/>
<path d="M18.0762 8.34961C18.0762 6.65344 16.6962 5.27344 15 5.27344C13.3038 5.27344 11.9238 6.65344 11.9238 8.34961C11.9238 10.0458 13.3038 11.4258 15 11.4258C16.6962 11.4258 18.0762 10.0458 18.0762 8.34961ZM12.8027 8.34961C12.8027 7.13801 13.7884 6.15234 15 6.15234C16.2116 6.15234 17.1973 7.13801 17.1973 8.34961C17.1973 9.56121 16.2116 10.5469 15 10.5469C13.7884 10.5469 12.8027 9.56121 12.8027 8.34961Z" fill="black"/>
</g>
<defs>
<clipPath id="clip0_109_351">
<rect width="30" height="30" fill="white"/>
</clipPath>
</defs>
</svg>
