<svg width="18" height="18" viewBox="0 0 18 18" fill="none" xmlns="http://www.w3.org/2000/svg">
<path d="M8.99939 1.5C4.85564 1.5 1.49939 4.85625 1.49939 9C1.49854 10.5745 1.9935 12.1092 2.91405 13.3865C3.8346 14.6638 5.134 15.6188 6.62789 16.116C7.00289 16.1813 7.14314 15.9563 7.14314 15.759C7.14314 15.5813 7.13339 14.991 7.13339 14.3625C5.24939 14.7098 4.76189 13.9035 4.61189 13.4813C4.52714 13.2653 4.16189 12.6 3.84314 12.4215C3.58064 12.2813 3.20564 11.934 3.83339 11.925C4.42439 11.9153 4.84589 12.4688 4.98689 12.6938C5.66189 13.8278 6.74039 13.509 7.17089 13.3125C7.23689 12.825 7.43339 12.4973 7.64939 12.3098C5.98064 12.1223 4.23689 11.475 4.23689 8.60625C4.23689 7.79025 4.52714 7.116 5.00564 6.59025C4.93064 6.40275 4.66814 5.634 5.08064 4.60275C5.08064 4.60275 5.70839 4.40625 7.14314 5.37225C7.75369 5.2028 8.38452 5.11751 9.01814 5.11875C9.65564 5.11875 10.2931 5.20275 10.8931 5.3715C12.3271 4.3965 12.9556 4.6035 12.9556 4.6035C13.3681 5.63475 13.1056 6.4035 13.0306 6.591C13.5084 7.116 13.7994 7.78125 13.7994 8.60625C13.7994 11.4848 12.0466 12.1223 10.3779 12.3098C10.6494 12.5438 10.8841 12.9938 10.8841 13.6973C10.8841 14.7 10.8744 15.5063 10.8744 15.7598C10.8744 15.9563 11.0154 16.1903 11.3904 16.1153C12.8792 15.6126 14.1728 14.6557 15.0893 13.3794C16.0058 12.103 16.499 10.5713 16.4994 9C16.4994 4.85625 13.1431 1.5 8.99939 1.5Z" fill="white"/>
</svg>
