<svg width="18" height="18" viewBox="0 0 18 18" fill="none" xmlns="http://www.w3.org/2000/svg">
<path d="M8.99939 1.5C11.0371 1.5 11.2914 1.5075 12.0909 1.545C12.8896 1.5825 13.4334 1.70775 13.9119 1.89375C14.4069 2.08425 14.8239 2.34225 15.2409 2.7585C15.6223 3.13342 15.9174 3.58694 16.1056 4.0875C16.2909 4.56525 16.4169 5.10975 16.4544 5.9085C16.4896 6.708 16.4994 6.96225 16.4994 9C16.4994 11.0377 16.4919 11.292 16.4544 12.0915C16.4169 12.8902 16.2909 13.434 16.1056 13.9125C15.9179 14.4133 15.6227 14.867 15.2409 15.2415C14.8659 15.6227 14.4124 15.9178 13.9119 16.1062C13.4341 16.2915 12.8896 16.4175 12.0909 16.455C11.2914 16.4902 11.0371 16.5 8.99939 16.5C6.96164 16.5 6.70739 16.4925 5.90789 16.455C5.10914 16.4175 4.56539 16.2915 4.08689 16.1062C3.58613 15.9184 3.13253 15.6232 2.75789 15.2415C2.37644 14.8666 2.08134 14.4131 1.89314 13.9125C1.70714 13.4347 1.58189 12.8902 1.54439 12.0915C1.50914 11.292 1.49939 11.0377 1.49939 9C1.49939 6.96225 1.50689 6.708 1.54439 5.9085C1.58189 5.109 1.70714 4.566 1.89314 4.0875C2.08082 3.58663 2.37599 3.13299 2.75789 2.7585C3.13264 2.37692 3.58621 2.0818 4.08689 1.89375C4.56539 1.70775 5.10839 1.5825 5.90789 1.545C6.70739 1.50975 6.96164 1.5 8.99939 1.5ZM8.99939 5.25C8.00483 5.25 7.051 5.64509 6.34774 6.34835C5.64448 7.05161 5.24939 8.00544 5.24939 9C5.24939 9.99456 5.64448 10.9484 6.34774 11.6516C7.051 12.3549 8.00483 12.75 8.99939 12.75C9.99395 12.75 10.9478 12.3549 11.651 11.6516C12.3543 10.9484 12.7494 9.99456 12.7494 9C12.7494 8.00544 12.3543 7.05161 11.651 6.34835C10.9478 5.64509 9.99395 5.25 8.99939 5.25ZM13.8744 5.0625C13.8744 4.81386 13.7756 4.5754 13.5998 4.39959C13.424 4.22377 13.1855 4.125 12.9369 4.125C12.6882 4.125 12.4498 4.22377 12.274 4.39959C12.0982 4.5754 11.9994 4.81386 11.9994 5.0625C11.9994 5.31114 12.0982 5.5496 12.274 5.72541C12.4498 5.90123 12.6882 6 12.9369 6C13.1855 6 13.424 5.90123 13.5998 5.72541C13.7756 5.5496 13.8744 5.31114 13.8744 5.0625ZM8.99939 6.75C9.59613 6.75 10.1684 6.98705 10.5904 7.40901C11.0123 7.83097 11.2494 8.40326 11.2494 9C11.2494 9.59674 11.0123 10.169 10.5904 10.591C10.1684 11.0129 9.59613 11.25 8.99939 11.25C8.40265 11.25 7.83036 11.0129 7.4084 10.591C6.98644 10.169 6.74939 9.59674 6.74939 9C6.74939 8.40326 6.98644 7.83097 7.4084 7.40901C7.83036 6.98705 8.40265 6.75 8.99939 6.75Z" fill="white"/>
</svg>
