<svg width="18" height="18" viewBox="0 0 18 18" fill="none" xmlns="http://www.w3.org/2000/svg">
<path d="M16.6215 4.24219C16.0489 4.49546 15.4417 4.66179 14.82 4.73569C15.4753 4.34376 15.9658 3.72695 16.2 3.00019C15.585 3.36619 14.9107 3.62269 14.208 3.76144C13.7359 3.25637 13.1102 2.92141 12.4282 2.80863C11.7461 2.69584 11.0459 2.81156 10.4364 3.13778C9.82692 3.464 9.34227 3.98245 9.05781 4.61253C8.77336 5.24262 8.70504 5.94902 8.86348 6.62194C7.61631 6.55943 6.39623 6.23533 5.28244 5.67069C4.16866 5.10604 3.18607 4.31347 2.39848 3.34444C2.1197 3.82328 1.97319 4.36761 1.97398 4.92169C1.97398 6.00919 2.52748 6.96994 3.36898 7.53244C2.87099 7.51676 2.38395 7.38227 1.94848 7.14019V7.17919C1.94863 7.90346 2.19926 8.6054 2.65786 9.16598C3.11647 9.72657 3.75484 10.1113 4.46473 10.2549C4.00244 10.3802 3.51771 10.3987 3.04723 10.3089C3.24738 10.9324 3.63748 11.4776 4.16292 11.8683C4.68836 12.259 5.32282 12.4755 5.97748 12.4877C5.32684 12.9987 4.58186 13.3764 3.78514 13.5993C2.98842 13.8222 2.15557 13.8859 1.33423 13.7867C2.768 14.7088 4.43705 15.1983 6.14173 15.1967C11.9115 15.1967 15.0667 10.4169 15.0667 6.27169C15.0667 6.13669 15.063 6.00019 15.057 5.86669C15.6711 5.42281 16.2012 4.87295 16.6222 4.24294L16.6215 4.24219Z" fill="white"/>
</svg>
