<svg xmlns="http://www.w3.org/2000/svg" width="18.955" height="24" viewBox="0 0 18.955 24">
  <g id="admin" transform="translate(-3.51 -1.25)">
    <path id="Path_1129" data-name="Path 1129" d="M12.987,24.9a3.842,3.842,0,0,1-1.864-.458L5.843,21.4C3.655,19.923,3.51,19.655,3.51,17.344V11.808c0-2.311.145-2.579,2.288-4.019l5.336-3.081a3.981,3.981,0,0,1,3.717,0l5.28,3.047c2.188,1.473,2.333,1.741,2.333,4.052v5.537c0,2.311-.145,2.579-2.288,4.019L14.84,24.444A3.68,3.68,0,0,1,12.987,24.9Zm0-18.977a2.115,2.115,0,0,0-1.027.234L6.68,9.207c-1.5,1.016-1.5,1.016-1.5,2.6v5.537c0,1.585,0,1.585,1.552,2.634l5.235,3.014a2.342,2.342,0,0,0,2.043,0l5.28-3.047c1.5-1.016,1.5-1.016,1.5-2.6V11.808c0-1.585,0-1.585-1.552-2.634L14,6.159A2.04,2.04,0,0,0,12.987,5.925Z" transform="translate(0 0.349)" fill="#fff"/>
    <path id="Path_1130" data-name="Path 1130" d="M18.866,9.209a.843.843,0,0,1-.837-.837V5.436c0-1.764-.748-2.512-2.512-2.512H9.936c-1.764,0-2.512.748-2.512,2.512V8.294a.837.837,0,0,1-1.674,0V5.436c0-2.7,1.485-4.186,4.186-4.186h5.581c2.7,0,4.186,1.485,4.186,4.186V8.372A.843.843,0,0,1,18.866,9.209Z" transform="translate(0.261 0)" fill="#fff"/>
    <path id="Path_1131" data-name="Path 1131" d="M14.288,18.532a1.911,1.911,0,0,1-.726-.145l-1.094-.424-1.094.435a1.694,1.694,0,0,1-1.641-.145,1.712,1.712,0,0,1-.647-1.518l.067-1.172-.748-.9a1.62,1.62,0,0,1,.882-2.7l1.139-.29.636-.993a1.642,1.642,0,0,1,2.824,0l.636.993,1.139.29A1.685,1.685,0,0,1,16.9,13.04a1.715,1.715,0,0,1-.368,1.607l-.748.9.067,1.172a1.725,1.725,0,0,1-.647,1.518A1.566,1.566,0,0,1,14.288,18.532ZM9.7,13.587l.748.9a1.782,1.782,0,0,1,.38,1.172l-.067,1.172,1.094-.435a1.786,1.786,0,0,1,1.228,0l1.094.435-.067-1.172a1.8,1.8,0,0,1,.38-1.172l.748-.9L14.1,13.3a1.841,1.841,0,0,1-.993-.714L12.48,11.6l-.636.982a1.805,1.805,0,0,1-.993.726Z" transform="translate(0.519 1.002)" fill="#fff"/>
  </g>
</svg>
