<svg xmlns="http://www.w3.org/2000/svg" width="24.644" height="24.002" viewBox="0 0 24.644 24.002">
  <g id="complete" transform="translate(-1.631 -1.898)">
    <path id="Path_1132" data-name="Path 1132" d="M18.051,25.9H13.536a4.537,4.537,0,0,1-2.887-.974l-3.6-2.78,1.093-1.414,3.683,2.851a2.842,2.842,0,0,0,1.711.523h4.515a2.7,2.7,0,0,0,2.459-1.818l2.875-8.732a1.415,1.415,0,0,0-.1-1.343,1.565,1.565,0,0,0-1.319-.582H17.219a2.08,2.08,0,0,1-1.58-.713A2.12,2.12,0,0,1,15.152,9.2l.594-3.814a1.478,1.478,0,0,0-.95-1.628,1.512,1.512,0,0,0-1.592.475L8.333,11.476,6.859,10.49l4.871-7.247A3.217,3.217,0,0,1,17.5,5.726l-.582,3.742a.362.362,0,0,0,.071.3.332.332,0,0,0,.238.1h4.752a3.307,3.307,0,0,1,2.768,1.331,3.166,3.166,0,0,1,.321,2.946l-2.839,8.649A4.428,4.428,0,0,1,18.051,25.9Z" transform="translate(0.983 0)" fill="#fff"/>
    <path id="Path_1133" data-name="Path 1133" d="M6.086,23.84H4.9c-2.2,0-3.267-1.034-3.267-3.148V9.048C1.631,6.934,2.7,5.9,4.9,5.9H6.086c2.2,0,3.267,1.034,3.267,3.148V20.691C9.353,22.806,8.284,23.84,6.086,23.84ZM4.9,7.682c-1.295,0-1.485.309-1.485,1.366V20.691c0,1.057.19,1.366,1.485,1.366H6.086c1.3,0,1.485-.309,1.485-1.366V9.048c0-1.057-.19-1.366-1.485-1.366Z" transform="translate(0 0.753)" fill="#fff"/>
  </g>
</svg>
