<svg xmlns="http://www.w3.org/2000/svg" width="23.996" height="23.996" viewBox="0 0 23.996 23.996">
  <g id="database" transform="translate(-1.25 -1.25)">
    <path id="Path_1121" data-name="Path 1121" d="M7.667,9.621H4.319A3.067,3.067,0,0,1,1.25,6.551V4.319A3.067,3.067,0,0,1,4.319,1.25H7.667a3.067,3.067,0,0,1,3.069,3.069V6.551A3.067,3.067,0,0,1,7.667,9.621Zm-3.348-6.7a1.4,1.4,0,0,0-1.4,1.4V6.551a1.4,1.4,0,0,0,1.4,1.4H7.667a1.4,1.4,0,0,0,1.4-1.4V4.319a1.4,1.4,0,0,0-1.4-1.4Z" fill="#fff"/>
    <path id="Path_1122" data-name="Path 1122" d="M21.444,8.388H17.426A2.179,2.179,0,0,1,15.25,6.212V4.426A2.179,2.179,0,0,1,17.426,2.25h4.018a2.179,2.179,0,0,1,2.176,2.176V6.212A2.172,2.172,0,0,1,21.444,8.388ZM17.426,3.924a.515.515,0,0,0-.5.5V6.212a.515.515,0,0,0,.5.5h4.018a.515.515,0,0,0,.5-.5V4.426a.515.515,0,0,0-.5-.5Z" transform="translate(1.625 0.116)" fill="#fff"/>
    <path id="Path_1123" data-name="Path 1123" d="M21.444,15.888H17.426a2.179,2.179,0,0,1-2.176-2.176V11.926A2.179,2.179,0,0,1,17.426,9.75h4.018a2.179,2.179,0,0,1,2.176,2.176v1.786A2.172,2.172,0,0,1,21.444,15.888Zm-4.018-4.464a.515.515,0,0,0-.5.5v1.786a.515.515,0,0,0,.5.5h4.018a.515.515,0,0,0,.5-.5V11.926a.515.515,0,0,0-.5-.5Z" transform="translate(1.625 0.987)" fill="#fff"/>
    <path id="Path_1124" data-name="Path 1124" d="M16.9,5.924H9.087a.837.837,0,0,1,0-1.674H16.9a.837.837,0,0,1,0,1.674Z" transform="translate(0.813 0.348)" fill="#fff"/>
    <path id="Path_1126" data-name="Path 1126" d="M16.493,22.665H14.819A3.067,3.067,0,0,1,11.75,19.6V5.087a.837.837,0,0,1,1.674,0V19.6a1.4,1.4,0,0,0,1.4,1.4h1.674a.837.837,0,0,1,0,1.674Z" transform="translate(1.219 0.348)" fill="#fff"/>
    <path id="Path_1127" data-name="Path 1127" d="M16.493,13.424H12.587a.837.837,0,1,1,0-1.674h3.906a.837.837,0,0,1,0,1.674Z" transform="translate(1.219 1.219)" fill="#fff"/>
    <path id="Path_1128" data-name="Path 1128" d="M21.444,23.388H17.426a2.179,2.179,0,0,1-2.176-2.176V19.426a2.179,2.179,0,0,1,2.176-2.176h4.018a2.179,2.179,0,0,1,2.176,2.176v1.786A2.172,2.172,0,0,1,21.444,23.388Zm-4.018-4.464a.515.515,0,0,0-.5.5v1.786a.515.515,0,0,0,.5.5h4.018a.515.515,0,0,0,.5-.5V19.426a.515.515,0,0,0-.5-.5Z" transform="translate(1.625 1.857)" fill="#fff"/>
  </g>
</svg>
