<svg xmlns="http://www.w3.org/2000/svg" width="24" height="24" viewBox="0 0 24 24">
  <g id="enviroment" transform="translate(-1.25 -1.25)">
    <path id="Path_1112" data-name="Path 1112" d="M16.6,25.25H9.9C3.84,25.25,1.25,22.66,1.25,16.6V9.9C1.25,3.84,3.84,1.25,9.9,1.25h6.7c6.061,0,8.651,2.59,8.651,8.651v6.7C25.25,22.66,22.66,25.25,16.6,25.25ZM9.9,2.924c-5.146,0-6.977,1.831-6.977,6.977v6.7c0,5.146,1.831,6.977,6.977,6.977h6.7c5.146,0,6.977-1.831,6.977-6.977V9.9c0-5.146-1.831-6.977-6.977-6.977Z" transform="translate(0 0)" fill="#fff"/>
    <path id="Path_1113" data-name="Path 1113" d="M15.667,19.879a.843.843,0,0,1-.837-.837V14.689a.837.837,0,0,1,1.674,0v4.353A.843.843,0,0,1,15.667,19.879Z" transform="translate(1.579 1.465)" fill="#fff"/>
    <path id="Path_1114" data-name="Path 1114" d="M15.667,8.6a.843.843,0,0,1-.837-.837V5.587a.837.837,0,1,1,1.674,0V7.764A.843.843,0,0,1,15.667,8.6Z" transform="translate(1.579 0.407)" fill="#fff"/>
    <path id="Path_1115" data-name="Path 1115" d="M15.97,14.178a3.74,3.74,0,1,1,3.74-3.74A3.74,3.74,0,0,1,15.97,14.178Zm0-5.8a2.065,2.065,0,1,0,2.065,2.065A2.068,2.068,0,0,0,15.97,8.374Z" transform="translate(1.277 0.634)" fill="#fff"/>
    <path id="Path_1116" data-name="Path 1116" d="M8.507,19.652a.843.843,0,0,1-.837-.837V16.638a.837.837,0,1,1,1.674,0v2.177A.836.836,0,0,1,8.507,19.652Z" transform="translate(0.746 1.692)" fill="#fff"/>
    <path id="Path_1117" data-name="Path 1117" d="M8.507,10.778a.843.843,0,0,1-.837-.837V5.587a.837.837,0,1,1,1.674,0V9.941A.836.836,0,0,1,8.507,10.778Z" transform="translate(0.746 0.407)" fill="#fff"/>
    <path id="Path_1118" data-name="Path 1118" d="M8.81,18.081a3.74,3.74,0,1,1,3.74-3.74A3.74,3.74,0,0,1,8.81,18.081Zm0-5.8a2.065,2.065,0,1,0,2.065,2.065A2.068,2.068,0,0,0,8.81,12.276Z" transform="translate(0.444 1.087)" fill="#fff"/>
  </g>
</svg>
