<svg xmlns="http://www.w3.org/2000/svg" width="21.778" height="24" viewBox="0 0 21.778 24">
  <g id="welcome" transform="translate(-2.25 -1.262)">
    <path id="Path_1" data-name="Path 1" d="M13.139,25.262a3.07,3.07,0,0,1-2.167-.893l-1.91-1.887a2.519,2.519,0,0,0-1.776-.726H6.438A4.175,4.175,0,0,1,2.25,17.6V5.416A4.175,4.175,0,0,1,6.438,1.262h13.4a4.175,4.175,0,0,1,4.188,4.154V17.6a4.175,4.175,0,0,1-4.188,4.154h-.849a2.568,2.568,0,0,0-1.776.726l-1.91,1.887A3.07,3.07,0,0,1,13.139,25.262ZM6.438,2.926A2.5,2.5,0,0,0,3.925,5.405V17.589a2.5,2.5,0,0,0,2.513,2.479h.849a4.24,4.24,0,0,1,2.959,1.217l1.91,1.887a1.416,1.416,0,0,0,1.977,0l1.91-1.887A4.241,4.241,0,0,1,19,20.069h.838a2.5,2.5,0,0,0,2.513-2.479V5.405A2.5,2.5,0,0,0,19.84,2.926Z" fill="#fff"/>
    <path id="Path_2" data-name="Path 2" d="M12.362,11.471A3.44,3.44,0,1,1,15.8,8.03,3.442,3.442,0,0,1,12.362,11.471Zm0-5.205A1.765,1.765,0,1,0,14.127,8.03,1.769,1.769,0,0,0,12.362,6.265Z" transform="translate(0.779 0.388)" fill="#fff"/>
    <path id="Path_3" data-name="Path 3" d="M17.024,16.965a.844.844,0,0,1-.838-.838c0-1.542-1.631-2.8-3.63-2.8s-3.63,1.262-3.63,2.8a.838.838,0,0,1-1.676,0c0-2.469,2.379-4.479,5.306-4.479s5.306,2.011,5.306,4.479A.844.844,0,0,1,17.024,16.965Z" transform="translate(0.583 1.212)" fill="#fff"/>
  </g>
</svg>
